G04 #@! TF.GenerationSoftware,KiCad,Pcbnew,(6.0.5)*
G04 #@! TF.CreationDate,2025-03-10T11:46:14+01:00*
G04 #@! TF.ProjectId,CatLickDet,4361744c-6963-46b4-9465-742e6b696361,rev?*
G04 #@! TF.SameCoordinates,Original*
G04 #@! TF.FileFunction,Soldermask,Bot*
G04 #@! TF.FilePolarity,Negative*
%FSLAX46Y46*%
G04 Gerber Fmt 4.6, Leading zero omitted, Abs format (unit mm)*
G04 Created by KiCad (PCBNEW (6.0.5)) date 2025-03-10 11:46:14*
%MOMM*%
%LPD*%
G01*
G04 APERTURE LIST*
%ADD10C,0.150000*%
%ADD11C,2.050000*%
%ADD12C,2.250000*%
%ADD13C,5.700000*%
%ADD14R,2.500000X1.500000*%
G04 APERTURE END LIST*
D10*
X115200000Y-91500000D02*
X115200000Y-91900000D01*
X112100000Y-88400000D02*
X111900001Y-87699999D01*
X115200000Y-91900000D02*
X115900001Y-91700000D01*
X111900000Y-91699999D02*
X115900001Y-91700000D01*
X115900001Y-91700000D02*
X115200000Y-91500000D01*
X111900001Y-91700001D02*
X111900001Y-87699999D01*
X111900001Y-87699999D02*
X111700002Y-88400000D01*
X111700002Y-88400000D02*
X112100000Y-88400000D01*
X112852380Y-88638095D02*
X112185714Y-89161904D01*
X112185714Y-88638095D02*
X112852380Y-89161904D01*
X114914284Y-91138095D02*
X114247618Y-90900000D01*
X114914284Y-90661904D02*
X114247618Y-90900000D01*
X114009522Y-90995238D01*
X113961903Y-91042857D01*
X113914284Y-91138095D01*
X123695238Y-108475714D02*
X123695238Y-109142380D01*
X123933333Y-108094761D02*
X124171428Y-108809047D01*
X123552380Y-108809047D01*
X122504761Y-109237619D02*
X122600000Y-109190000D01*
X122695238Y-109094761D01*
X122838095Y-108951904D01*
X122933333Y-108904285D01*
X123028571Y-108904285D01*
X122980952Y-109142380D02*
X123076190Y-109094761D01*
X123171428Y-108999523D01*
X123219047Y-108809047D01*
X123219047Y-108475714D01*
X123171428Y-108285238D01*
X123076190Y-108190000D01*
X122980952Y-108142380D01*
X122790476Y-108142380D01*
X122695238Y-108190000D01*
X122600000Y-108285238D01*
X122552380Y-108475714D01*
X122552380Y-108809047D01*
X122600000Y-108999523D01*
X122695238Y-109094761D01*
X122790476Y-109142380D01*
X122980952Y-109142380D01*
X122123809Y-108761428D02*
X121361904Y-108761428D01*
X120885714Y-108618571D02*
X120552380Y-108618571D01*
X120409523Y-109142380D02*
X120885714Y-109142380D01*
X120885714Y-108142380D01*
X120409523Y-108142380D01*
X119980952Y-108475714D02*
X119980952Y-109475714D01*
X119980952Y-108523333D02*
X119885714Y-108475714D01*
X119695238Y-108475714D01*
X119600000Y-108523333D01*
X119552380Y-108570952D01*
X119504761Y-108666190D01*
X119504761Y-108951904D01*
X119552380Y-109047142D01*
X119600000Y-109094761D01*
X119695238Y-109142380D01*
X119885714Y-109142380D01*
X119980952Y-109094761D01*
X119076190Y-109142380D02*
X119076190Y-108475714D01*
X119076190Y-108142380D02*
X119123809Y-108190000D01*
X119076190Y-108237619D01*
X119028571Y-108190000D01*
X119076190Y-108142380D01*
X119076190Y-108237619D01*
X117838095Y-109142380D02*
X117838095Y-108142380D01*
X117600000Y-108142380D01*
X117457142Y-108190000D01*
X117361904Y-108285238D01*
X117314285Y-108380476D01*
X117266666Y-108570952D01*
X117266666Y-108713809D01*
X117314285Y-108904285D01*
X117361904Y-108999523D01*
X117457142Y-109094761D01*
X117600000Y-109142380D01*
X117838095Y-109142380D01*
X116457142Y-109094761D02*
X116552380Y-109142380D01*
X116742857Y-109142380D01*
X116838095Y-109094761D01*
X116885714Y-108999523D01*
X116885714Y-108618571D01*
X116838095Y-108523333D01*
X116742857Y-108475714D01*
X116552380Y-108475714D01*
X116457142Y-108523333D01*
X116409523Y-108618571D01*
X116409523Y-108713809D01*
X116885714Y-108809047D01*
X116123809Y-108475714D02*
X115742857Y-108475714D01*
X115980952Y-108142380D02*
X115980952Y-108999523D01*
X115933333Y-109094761D01*
X115838095Y-109142380D01*
X115742857Y-109142380D01*
X115028571Y-109094761D02*
X115123809Y-109142380D01*
X115314285Y-109142380D01*
X115409523Y-109094761D01*
X115457142Y-108999523D01*
X115457142Y-108618571D01*
X115409523Y-108523333D01*
X115314285Y-108475714D01*
X115123809Y-108475714D01*
X115028571Y-108523333D01*
X114980952Y-108618571D01*
X114980952Y-108713809D01*
X115457142Y-108809047D01*
X114123809Y-109094761D02*
X114219047Y-109142380D01*
X114409523Y-109142380D01*
X114504761Y-109094761D01*
X114552380Y-109047142D01*
X114600000Y-108951904D01*
X114600000Y-108666190D01*
X114552380Y-108570952D01*
X114504761Y-108523333D01*
X114409523Y-108475714D01*
X114219047Y-108475714D01*
X114123809Y-108523333D01*
X113838095Y-108475714D02*
X113457142Y-108475714D01*
X113695238Y-108142380D02*
X113695238Y-108999523D01*
X113647619Y-109094761D01*
X113552380Y-109142380D01*
X113457142Y-109142380D01*
X112980952Y-109142380D02*
X113076190Y-109094761D01*
X113123809Y-109047142D01*
X113171428Y-108951904D01*
X113171428Y-108666190D01*
X113123809Y-108570952D01*
X113076190Y-108523333D01*
X112980952Y-108475714D01*
X112838095Y-108475714D01*
X112742857Y-108523333D01*
X112695238Y-108570952D01*
X112647619Y-108666190D01*
X112647619Y-108951904D01*
X112695238Y-109047142D01*
X112742857Y-109094761D01*
X112838095Y-109142380D01*
X112980952Y-109142380D01*
X112219047Y-109142380D02*
X112219047Y-108475714D01*
X112219047Y-108666190D02*
X112171428Y-108570952D01*
X112123809Y-108523333D01*
X112028571Y-108475714D01*
X111933333Y-108475714D01*
X121552380Y-110752380D02*
X121552380Y-109752380D01*
X121314285Y-109752380D01*
X121171428Y-109800000D01*
X121076190Y-109895238D01*
X121028571Y-109990476D01*
X120980952Y-110180952D01*
X120980952Y-110323809D01*
X121028571Y-110514285D01*
X121076190Y-110609523D01*
X121171428Y-110704761D01*
X121314285Y-110752380D01*
X121552380Y-110752380D01*
X120171428Y-110704761D02*
X120266666Y-110752380D01*
X120457142Y-110752380D01*
X120552380Y-110704761D01*
X120600000Y-110609523D01*
X120600000Y-110228571D01*
X120552380Y-110133333D01*
X120457142Y-110085714D01*
X120266666Y-110085714D01*
X120171428Y-110133333D01*
X120123809Y-110228571D01*
X120123809Y-110323809D01*
X120600000Y-110419047D01*
X119742857Y-110704761D02*
X119647619Y-110752380D01*
X119457142Y-110752380D01*
X119361904Y-110704761D01*
X119314285Y-110609523D01*
X119314285Y-110561904D01*
X119361904Y-110466666D01*
X119457142Y-110419047D01*
X119600000Y-110419047D01*
X119695238Y-110371428D01*
X119742857Y-110276190D01*
X119742857Y-110228571D01*
X119695238Y-110133333D01*
X119600000Y-110085714D01*
X119457142Y-110085714D01*
X119361904Y-110133333D01*
X118885714Y-110752380D02*
X118885714Y-110085714D01*
X118885714Y-109752380D02*
X118933333Y-109800000D01*
X118885714Y-109847619D01*
X118838095Y-109800000D01*
X118885714Y-109752380D01*
X118885714Y-109847619D01*
X117980952Y-110085714D02*
X117980952Y-110895238D01*
X118028571Y-110990476D01*
X118076190Y-111038095D01*
X118171428Y-111085714D01*
X118314285Y-111085714D01*
X118409523Y-111038095D01*
X117980952Y-110704761D02*
X118076190Y-110752380D01*
X118266666Y-110752380D01*
X118361904Y-110704761D01*
X118409523Y-110657142D01*
X118457142Y-110561904D01*
X118457142Y-110276190D01*
X118409523Y-110180952D01*
X118361904Y-110133333D01*
X118266666Y-110085714D01*
X118076190Y-110085714D01*
X117980952Y-110133333D01*
X117504761Y-110085714D02*
X117504761Y-110752380D01*
X117504761Y-110180952D02*
X117457142Y-110133333D01*
X117361904Y-110085714D01*
X117219047Y-110085714D01*
X117123809Y-110133333D01*
X117076190Y-110228571D01*
X117076190Y-110752380D01*
X115838095Y-110752380D02*
X115838095Y-109752380D01*
X115838095Y-110133333D02*
X115742857Y-110085714D01*
X115552380Y-110085714D01*
X115457142Y-110133333D01*
X115409523Y-110180952D01*
X115361904Y-110276190D01*
X115361904Y-110561904D01*
X115409523Y-110657142D01*
X115457142Y-110704761D01*
X115552380Y-110752380D01*
X115742857Y-110752380D01*
X115838095Y-110704761D01*
X115028571Y-110085714D02*
X114790476Y-110752380D01*
X114552380Y-110085714D02*
X114790476Y-110752380D01*
X114885714Y-110990476D01*
X114933333Y-111038095D01*
X115028571Y-111085714D01*
X126528571Y-112362380D02*
X126528571Y-111362380D01*
X125957142Y-112362380D01*
X125957142Y-111362380D01*
X125480952Y-112362380D02*
X125480952Y-111695714D01*
X125480952Y-111362380D02*
X125528571Y-111410000D01*
X125480952Y-111457619D01*
X125433333Y-111410000D01*
X125480952Y-111362380D01*
X125480952Y-111457619D01*
X124576190Y-112314761D02*
X124671428Y-112362380D01*
X124861904Y-112362380D01*
X124957142Y-112314761D01*
X125004761Y-112267142D01*
X125052380Y-112171904D01*
X125052380Y-111886190D01*
X125004761Y-111790952D01*
X124957142Y-111743333D01*
X124861904Y-111695714D01*
X124671428Y-111695714D01*
X124576190Y-111743333D01*
X124147619Y-112362380D02*
X124147619Y-111362380D01*
X124052380Y-111981428D02*
X123766666Y-112362380D01*
X123766666Y-111695714D02*
X124147619Y-112076666D01*
X122623809Y-112314761D02*
X122480952Y-112362380D01*
X122242857Y-112362380D01*
X122147619Y-112314761D01*
X122100000Y-112267142D01*
X122052380Y-112171904D01*
X122052380Y-112076666D01*
X122100000Y-111981428D01*
X122147619Y-111933809D01*
X122242857Y-111886190D01*
X122433333Y-111838571D01*
X122528571Y-111790952D01*
X122576190Y-111743333D01*
X122623809Y-111648095D01*
X122623809Y-111552857D01*
X122576190Y-111457619D01*
X122528571Y-111410000D01*
X122433333Y-111362380D01*
X122195238Y-111362380D01*
X122052380Y-111410000D01*
X121623809Y-112362380D02*
X121623809Y-111695714D01*
X121623809Y-111362380D02*
X121671428Y-111410000D01*
X121623809Y-111457619D01*
X121576190Y-111410000D01*
X121623809Y-111362380D01*
X121623809Y-111457619D01*
X120719047Y-112362380D02*
X120719047Y-111362380D01*
X120719047Y-112314761D02*
X120814285Y-112362380D01*
X121004761Y-112362380D01*
X121100000Y-112314761D01*
X121147619Y-112267142D01*
X121195238Y-112171904D01*
X121195238Y-111886190D01*
X121147619Y-111790952D01*
X121100000Y-111743333D01*
X121004761Y-111695714D01*
X120814285Y-111695714D01*
X120719047Y-111743333D01*
X120242857Y-111695714D02*
X120242857Y-112362380D01*
X120242857Y-111790952D02*
X120195238Y-111743333D01*
X120100000Y-111695714D01*
X119957142Y-111695714D01*
X119861904Y-111743333D01*
X119814285Y-111838571D01*
X119814285Y-112362380D01*
X118957142Y-112314761D02*
X119052380Y-112362380D01*
X119242857Y-112362380D01*
X119338095Y-112314761D01*
X119385714Y-112219523D01*
X119385714Y-111838571D01*
X119338095Y-111743333D01*
X119242857Y-111695714D01*
X119052380Y-111695714D01*
X118957142Y-111743333D01*
X118909523Y-111838571D01*
X118909523Y-111933809D01*
X119385714Y-112029047D01*
X118576190Y-111695714D02*
X118338095Y-112362380D01*
X118100000Y-111695714D02*
X118338095Y-112362380D01*
X118433333Y-112600476D01*
X118480952Y-112648095D01*
X118576190Y-112695714D01*
X116480952Y-112362380D02*
X116957142Y-112362380D01*
X116957142Y-111362380D01*
X115766666Y-112314761D02*
X115861904Y-112362380D01*
X116052380Y-112362380D01*
X116147619Y-112314761D01*
X116195238Y-112219523D01*
X116195238Y-111838571D01*
X116147619Y-111743333D01*
X116052380Y-111695714D01*
X115861904Y-111695714D01*
X115766666Y-111743333D01*
X115719047Y-111838571D01*
X115719047Y-111933809D01*
X116195238Y-112029047D01*
X115290476Y-112362380D02*
X115290476Y-111695714D01*
X115290476Y-111790952D02*
X115242857Y-111743333D01*
X115147619Y-111695714D01*
X115004761Y-111695714D01*
X114909523Y-111743333D01*
X114861904Y-111838571D01*
X114861904Y-112362380D01*
X114861904Y-111838571D02*
X114814285Y-111743333D01*
X114719047Y-111695714D01*
X114576190Y-111695714D01*
X114480952Y-111743333D01*
X114433333Y-111838571D01*
X114433333Y-112362380D01*
X113957142Y-112362380D02*
X113957142Y-111362380D01*
X113957142Y-111743333D02*
X113861904Y-111695714D01*
X113671428Y-111695714D01*
X113576190Y-111743333D01*
X113528571Y-111790952D01*
X113480952Y-111886190D01*
X113480952Y-112171904D01*
X113528571Y-112267142D01*
X113576190Y-112314761D01*
X113671428Y-112362380D01*
X113861904Y-112362380D01*
X113957142Y-112314761D01*
X112671428Y-112314761D02*
X112766666Y-112362380D01*
X112957142Y-112362380D01*
X113052380Y-112314761D01*
X113100000Y-112219523D01*
X113100000Y-111838571D01*
X113052380Y-111743333D01*
X112957142Y-111695714D01*
X112766666Y-111695714D01*
X112671428Y-111743333D01*
X112623809Y-111838571D01*
X112623809Y-111933809D01*
X113100000Y-112029047D01*
X112195238Y-112362380D02*
X112195238Y-111695714D01*
X112195238Y-111886190D02*
X112147619Y-111790952D01*
X112100000Y-111743333D01*
X112004761Y-111695714D01*
X111909523Y-111695714D01*
X111147619Y-111695714D02*
X111147619Y-112505238D01*
X111195238Y-112600476D01*
X111242857Y-112648095D01*
X111338095Y-112695714D01*
X111480952Y-112695714D01*
X111576190Y-112648095D01*
X111147619Y-112314761D02*
X111242857Y-112362380D01*
X111433333Y-112362380D01*
X111528571Y-112314761D01*
X111576190Y-112267142D01*
X111623809Y-112171904D01*
X111623809Y-111886190D01*
X111576190Y-111790952D01*
X111528571Y-111743333D01*
X111433333Y-111695714D01*
X111242857Y-111695714D01*
X111147619Y-111743333D01*
X110290476Y-112314761D02*
X110385714Y-112362380D01*
X110576190Y-112362380D01*
X110671428Y-112314761D01*
X110719047Y-112219523D01*
X110719047Y-111838571D01*
X110671428Y-111743333D01*
X110576190Y-111695714D01*
X110385714Y-111695714D01*
X110290476Y-111743333D01*
X110242857Y-111838571D01*
X110242857Y-111933809D01*
X110719047Y-112029047D01*
X109814285Y-112362380D02*
X109814285Y-111695714D01*
X109814285Y-111886190D02*
X109766666Y-111790952D01*
X109719047Y-111743333D01*
X109623809Y-111695714D01*
X109528571Y-111695714D01*
D11*
X120500000Y-84200000D03*
D12*
X117960000Y-86740000D03*
X117960000Y-81660000D03*
X123040000Y-86740000D03*
X123040000Y-81660000D03*
D13*
X112800000Y-84000000D03*
X145400000Y-84000000D03*
D11*
X137700000Y-84200000D03*
D12*
X135160000Y-86740000D03*
X140240000Y-86740000D03*
X135160000Y-81660000D03*
X140240000Y-81660000D03*
D13*
X112800000Y-116000000D03*
D11*
X129100000Y-84200000D03*
D12*
X131640000Y-81660000D03*
X126560000Y-81660000D03*
X131640000Y-86740000D03*
X126560000Y-86740000D03*
D13*
X145400000Y-116000000D03*
D14*
X129006800Y-105080000D03*
X129006800Y-102540000D03*
X129006800Y-100000000D03*
X129006800Y-97460000D03*
X129006800Y-94920000D03*
X112046600Y-94920000D03*
X112046600Y-97460000D03*
X112046600Y-100000000D03*
X112046600Y-102540000D03*
X112046600Y-105080000D03*
M02*
