G04 #@! TF.GenerationSoftware,KiCad,Pcbnew,(6.0.5)*
G04 #@! TF.CreationDate,2025-03-10T11:46:14+01:00*
G04 #@! TF.ProjectId,CatLickDet,4361744c-6963-46b4-9465-742e6b696361,rev?*
G04 #@! TF.SameCoordinates,Original*
G04 #@! TF.FileFunction,Copper,L4,Bot*
G04 #@! TF.FilePolarity,Positive*
%FSLAX46Y46*%
G04 Gerber Fmt 4.6, Leading zero omitted, Abs format (unit mm)*
G04 Created by KiCad (PCBNEW (6.0.5)) date 2025-03-10 11:46:14*
%MOMM*%
%LPD*%
G01*
G04 APERTURE LIST*
G04 #@! TA.AperFunction,ComponentPad*
%ADD10C,2.050000*%
G04 #@! TD*
G04 #@! TA.AperFunction,ComponentPad*
%ADD11C,2.250000*%
G04 #@! TD*
G04 #@! TA.AperFunction,ComponentPad*
%ADD12C,5.700000*%
G04 #@! TD*
G04 #@! TA.AperFunction,SMDPad,CuDef*
%ADD13R,2.500000X1.500000*%
G04 #@! TD*
G04 #@! TA.AperFunction,ViaPad*
%ADD14C,0.500000*%
G04 #@! TD*
G04 #@! TA.AperFunction,Conductor*
%ADD15C,0.250000*%
G04 #@! TD*
G04 #@! TA.AperFunction,Conductor*
%ADD16C,0.500000*%
G04 #@! TD*
G04 APERTURE END LIST*
D10*
X120500000Y-84200000D03*
D11*
X117960000Y-86740000D03*
X117960000Y-81660000D03*
X123040000Y-86740000D03*
X123040000Y-81660000D03*
D12*
X112800000Y-84000000D03*
X145400000Y-84000000D03*
D10*
X137700000Y-84200000D03*
D11*
X135160000Y-86740000D03*
X140240000Y-86740000D03*
X135160000Y-81660000D03*
X140240000Y-81660000D03*
D12*
X112800000Y-116000000D03*
D10*
X129100000Y-84200000D03*
D11*
X131640000Y-81660000D03*
X126560000Y-81660000D03*
X131640000Y-86740000D03*
X126560000Y-86740000D03*
D12*
X145400000Y-116000000D03*
D13*
X129006800Y-105080000D03*
X129006800Y-102540000D03*
X129006800Y-100000000D03*
X129006800Y-97460000D03*
X129006800Y-94920000D03*
X112046600Y-94920000D03*
X112046600Y-97460000D03*
X112046600Y-100000000D03*
X112046600Y-102540000D03*
X112046600Y-105080000D03*
D14*
X108900000Y-118500000D03*
X117450001Y-115600000D03*
X128200000Y-107700000D03*
X110800000Y-80100000D03*
X139267200Y-114736600D03*
X149500000Y-116100000D03*
X116700000Y-90700000D03*
X149400000Y-83600000D03*
X142400000Y-120200000D03*
X143100000Y-80000000D03*
X136900000Y-99700000D03*
X124663200Y-96621600D03*
X127610001Y-113663384D03*
X109000000Y-84100000D03*
X127200000Y-110700000D03*
X124100000Y-100800000D03*
X120900000Y-90700000D03*
X130750000Y-97500000D03*
X136778000Y-114406400D03*
X129900000Y-93000000D03*
X118400000Y-115600000D03*
X138087600Y-117758801D03*
X115400000Y-107500000D03*
X139650000Y-93550000D03*
X120203001Y-113139585D03*
X130750000Y-100500000D03*
X123200000Y-112000000D03*
X149400000Y-118000000D03*
X145135600Y-104851200D03*
X109000000Y-88200000D03*
X147400000Y-80100000D03*
X149100000Y-81900000D03*
X136900000Y-97900000D03*
X149400000Y-87400000D03*
X109000000Y-81900000D03*
X111500000Y-92500000D03*
X139287600Y-117758801D03*
X145500000Y-80000000D03*
X136900000Y-96100000D03*
X149400000Y-85400000D03*
X119350001Y-115600000D03*
X148200000Y-119300000D03*
X130100000Y-110700000D03*
X149200000Y-94500000D03*
X145288000Y-93065600D03*
X128003001Y-115933785D03*
X136900000Y-101500000D03*
X131300000Y-113200000D03*
X121700000Y-98100000D03*
X124450000Y-105000000D03*
X123200000Y-110700000D03*
X127300000Y-120400000D03*
X122174000Y-107645200D03*
X121400000Y-120500000D03*
X115850000Y-103350000D03*
X132435600Y-93929200D03*
X140041800Y-115046399D03*
X149199600Y-102616000D03*
X131228201Y-116511134D03*
X108900000Y-112100000D03*
X119700000Y-98850000D03*
X149400000Y-110200000D03*
X145400000Y-90100000D03*
X129700000Y-90700000D03*
X149500000Y-114100000D03*
X136900000Y-103300000D03*
X112900000Y-80100000D03*
X138687600Y-117758801D03*
X134200000Y-119200000D03*
X125100000Y-110700000D03*
X119750000Y-92800000D03*
X119700000Y-107900000D03*
X145084800Y-95351600D03*
X115900000Y-102400000D03*
X127610001Y-114425384D03*
X123952000Y-94437200D03*
X145100000Y-99000000D03*
X108900000Y-114300000D03*
X119000000Y-90700000D03*
X109000000Y-86400000D03*
X144500000Y-120200000D03*
X128372000Y-115187384D03*
X114900000Y-99300000D03*
X108900000Y-116300000D03*
X149200000Y-101100000D03*
X123200000Y-90700000D03*
X149400000Y-111900000D03*
X137487600Y-117758801D03*
X122650000Y-92150000D03*
X128372000Y-113663384D03*
X132710000Y-107740000D03*
X131200000Y-118000000D03*
X110200000Y-119800000D03*
X140900000Y-103100000D03*
X112700000Y-120200000D03*
X115600000Y-120200000D03*
X133400000Y-119200000D03*
X144947700Y-101483100D03*
X135025400Y-115371600D03*
X140400000Y-101000000D03*
X137740000Y-107750000D03*
X146400000Y-120200000D03*
X135000000Y-114000000D03*
X127610001Y-115187384D03*
X142800000Y-109700000D03*
X115400000Y-80100000D03*
X128372001Y-114425384D03*
X145200000Y-105900000D03*
X129743200Y-94945200D03*
X127297800Y-93377400D03*
X133487599Y-116715200D03*
X112100000Y-105600000D03*
X133487599Y-118158801D03*
X138800000Y-105200000D03*
X117962000Y-100870400D03*
X142443200Y-93370400D03*
X117000000Y-113200000D03*
X117962000Y-95282400D03*
X142457399Y-98877000D03*
X126725000Y-102775400D03*
X117900000Y-102140400D03*
X117769001Y-106081399D03*
X125984000Y-104038400D03*
X126508000Y-108010400D03*
X126533999Y-91978399D03*
X126725000Y-94647400D03*
X117900000Y-93885400D03*
X117297200Y-96621600D03*
X132281799Y-96438600D03*
X132272799Y-102945600D03*
X130775489Y-101465489D03*
X132272799Y-100030571D03*
X114650000Y-102150000D03*
X111507985Y-97752898D03*
X129450000Y-102400000D03*
X118535000Y-103410400D03*
X131698299Y-102306000D03*
X131698299Y-98703800D03*
X121775000Y-104045400D03*
X131707299Y-97099000D03*
X111900000Y-94450000D03*
X128822000Y-105086800D03*
X133400736Y-95214100D03*
X133432199Y-99364200D03*
X121775000Y-94647400D03*
X133442599Y-104256000D03*
X111500000Y-102400000D03*
X128847200Y-97416000D03*
X130900000Y-98755200D03*
X132847299Y-103606000D03*
X132832999Y-100674600D03*
X114350000Y-96600000D03*
X132856299Y-95788600D03*
X111600000Y-99900000D03*
X118618000Y-97822400D03*
X128847200Y-99956000D03*
X149300000Y-99800000D03*
X126392000Y-117767384D03*
X118600000Y-113200000D03*
X113750000Y-103400000D03*
X147100000Y-96300000D03*
X147370800Y-90779600D03*
X129775000Y-107740000D03*
X138161629Y-119391505D03*
X113850000Y-97850000D03*
X121700000Y-105350000D03*
X121775000Y-95917400D03*
X126392000Y-116990184D03*
X134840000Y-91660000D03*
X140196401Y-116779199D03*
X147407399Y-105303200D03*
X149200000Y-108400000D03*
X147000000Y-95046800D03*
X134500000Y-106000000D03*
X132800000Y-106400000D03*
X142417800Y-95046800D03*
X147900000Y-109000000D03*
X147421600Y-104038400D03*
X137800000Y-106400000D03*
X142341600Y-104038400D03*
X137700000Y-92900000D03*
X142457400Y-89535000D03*
X147407400Y-89535000D03*
X137700000Y-90400000D03*
X131787001Y-114834734D03*
X130771001Y-114834734D03*
X119200000Y-118000000D03*
X125691001Y-113310734D03*
X149200000Y-93600000D03*
D15*
X117765399Y-106081399D02*
X117769001Y-106081399D01*
X117900000Y-102140400D02*
X117602000Y-102438400D01*
X117602000Y-105918000D02*
X117765399Y-106081399D01*
X117602000Y-102438400D02*
X117602000Y-105918000D01*
X125984000Y-105206800D02*
X126492000Y-105714800D01*
X126492000Y-105714800D02*
X126492000Y-107994400D01*
X126492000Y-107994400D02*
X126508000Y-108010400D01*
X125984000Y-104038400D02*
X125984000Y-105206800D01*
X126533999Y-91978399D02*
X126533999Y-94456399D01*
X126533999Y-94456399D02*
X126725000Y-94647400D01*
X117050000Y-96374400D02*
X117050000Y-94735400D01*
X117297200Y-96621600D02*
X117050000Y-96374400D01*
X117050000Y-94735400D02*
X117900000Y-93885400D01*
X115334511Y-101465489D02*
X130775489Y-101465489D01*
X132258488Y-100912571D02*
X132272799Y-100926882D01*
X114650000Y-102150000D02*
X115334511Y-101465489D01*
X132258488Y-100436629D02*
X132258488Y-100912571D01*
X132281799Y-100413318D02*
X132258488Y-100436629D01*
X132272799Y-100926882D02*
X132272799Y-102945600D01*
X132281799Y-96438600D02*
X132281799Y-100413318D01*
X123157600Y-103410400D02*
X118535000Y-103410400D01*
X127308000Y-102108000D02*
X124460000Y-102108000D01*
X129450000Y-102400000D02*
X127600000Y-102400000D01*
X127600000Y-102400000D02*
X127308000Y-102108000D01*
X124460000Y-102108000D02*
X123157600Y-103410400D01*
X131698299Y-102306000D02*
X131698299Y-103001701D01*
X126949200Y-103784400D02*
X126628689Y-103463889D01*
X131707299Y-99783589D02*
X131707299Y-97099000D01*
X131698288Y-99792600D02*
X131707299Y-99783589D01*
X131707299Y-102297000D02*
X131707299Y-100277553D01*
X126628689Y-103463889D02*
X124831311Y-103463889D01*
X131707299Y-100277553D02*
X131698288Y-100268542D01*
X130915600Y-103784400D02*
X126949200Y-103784400D01*
X124249800Y-104045400D02*
X121775000Y-104045400D01*
X131698299Y-103001701D02*
X130915600Y-103784400D01*
X131698288Y-100268542D02*
X131698288Y-99792600D01*
X124831311Y-103463889D02*
X124249800Y-104045400D01*
X131114800Y-96215200D02*
X127000000Y-96215200D01*
X126339600Y-95554800D02*
X122682400Y-95554800D01*
X122682400Y-95554800D02*
X121775000Y-94647400D01*
X133430799Y-104244200D02*
X133442599Y-104256000D01*
X133430799Y-95244163D02*
X133430799Y-104244200D01*
X132115900Y-95214100D02*
X131114800Y-96215200D01*
X133400736Y-95214100D02*
X133430799Y-95244163D01*
X133400736Y-95214100D02*
X132115900Y-95214100D01*
X127000000Y-96215200D02*
X126339600Y-95554800D01*
X121005200Y-98755200D02*
X130900000Y-98755200D01*
X114997889Y-97247889D02*
X119497889Y-97247889D01*
X114350000Y-96600000D02*
X114997889Y-97247889D01*
X119497889Y-97247889D02*
X121005200Y-98755200D01*
X132856299Y-95788600D02*
X132856299Y-103597000D01*
X132856299Y-103597000D02*
X132847299Y-103606000D01*
X118618000Y-97822400D02*
X118618000Y-98968000D01*
X118618000Y-98968000D02*
X119606000Y-99956000D01*
X119606000Y-99956000D02*
X128847200Y-99956000D01*
X148400000Y-98900000D02*
X148400000Y-89000000D01*
X137700000Y-86900000D02*
X137700000Y-84200000D01*
X149300000Y-99800000D02*
X148400000Y-98900000D01*
X148400000Y-89000000D02*
X147800000Y-88400000D01*
X147800000Y-88400000D02*
X139200000Y-88400000D01*
X139200000Y-88400000D02*
X137700000Y-86900000D01*
X148625089Y-107825089D02*
X148625089Y-99760807D01*
X149200000Y-108400000D02*
X148625089Y-107825089D01*
X129100000Y-88300000D02*
X129100000Y-84200000D01*
X147300000Y-94200000D02*
X135000000Y-94200000D01*
X148625089Y-99760807D02*
X147900000Y-99035718D01*
X135000000Y-94200000D02*
X129100000Y-88300000D01*
X147900000Y-99035718D02*
X147900000Y-94800000D01*
X147900000Y-94800000D02*
X147300000Y-94200000D01*
X145346800Y-96700000D02*
X143500000Y-96700000D01*
X135100000Y-106000000D02*
X134500000Y-106000000D01*
X139325489Y-101774511D02*
X135100000Y-106000000D01*
X139325489Y-100874511D02*
X139325489Y-101774511D01*
X143500000Y-96700000D02*
X139325489Y-100874511D01*
X147000000Y-95046800D02*
X145346800Y-96700000D01*
X142417800Y-96794682D02*
X142417800Y-95046800D01*
X132800000Y-106400000D02*
X132812482Y-106400000D01*
X132812482Y-106400000D02*
X142417800Y-96794682D01*
X147981910Y-108918090D02*
X147981910Y-104598710D01*
X147900000Y-109000000D02*
X147981910Y-108918090D01*
X147981910Y-104598710D02*
X147421600Y-104038400D01*
X139980000Y-106400000D02*
X142341600Y-104038400D01*
X137800000Y-106400000D02*
X139980000Y-106400000D01*
X139092400Y-92900000D02*
X142457400Y-89535000D01*
X137700000Y-92900000D02*
X139092400Y-92900000D01*
X139139511Y-88960489D02*
X146832889Y-88960489D01*
X137700000Y-90400000D02*
X139139511Y-88960489D01*
X146832889Y-88960489D02*
X147407400Y-89535000D01*
D16*
X125753001Y-115939585D02*
X126616830Y-115939585D01*
D15*
X125691001Y-115877585D02*
X125753001Y-115939585D01*
D16*
X130757852Y-114834734D02*
X130771001Y-114834734D01*
X128803001Y-116789585D02*
X130757852Y-114834734D01*
D15*
X125691001Y-113310734D02*
X125691001Y-115877585D01*
D16*
X127466830Y-116789585D02*
X128803001Y-116789585D01*
X126616830Y-115939585D02*
X127466830Y-116789585D01*
D15*
X136900000Y-82700000D02*
X138500000Y-82700000D01*
X120500000Y-84200000D02*
X126800000Y-84200000D01*
X148100000Y-87400000D02*
X149200000Y-88500000D01*
X131000000Y-83700000D02*
X135900000Y-83700000D01*
X149200000Y-88500000D02*
X149200000Y-93600000D01*
X130000000Y-82700000D02*
X131000000Y-83700000D01*
X140600000Y-84200000D02*
X143800000Y-87400000D01*
X128300000Y-82700000D02*
X130000000Y-82700000D01*
X143800000Y-87400000D02*
X148100000Y-87400000D01*
X135900000Y-83700000D02*
X136900000Y-82700000D01*
X140000000Y-84200000D02*
X140600000Y-84200000D01*
X126800000Y-84200000D02*
X128300000Y-82700000D01*
X138500000Y-82700000D02*
X140000000Y-84200000D01*
G04 #@! TA.AperFunction,Conductor*
G36*
X147810513Y-79174502D02*
G01*
X147831487Y-79191405D01*
X150208595Y-81568513D01*
X150242621Y-81630825D01*
X150245500Y-81657608D01*
X150245500Y-118342392D01*
X150225498Y-118410513D01*
X150208595Y-118431487D01*
X147831487Y-120808595D01*
X147769175Y-120842621D01*
X147742392Y-120845500D01*
X110457608Y-120845500D01*
X110389487Y-120825498D01*
X110368513Y-120808595D01*
X108945196Y-119385278D01*
X137651979Y-119385278D01*
X137653143Y-119394180D01*
X137653143Y-119394183D01*
X137669553Y-119519669D01*
X137670717Y-119528570D01*
X137728918Y-119660844D01*
X137821905Y-119771465D01*
X137829376Y-119776438D01*
X137829377Y-119776439D01*
X137934730Y-119846568D01*
X137934732Y-119846569D01*
X137942203Y-119851542D01*
X137950767Y-119854218D01*
X137950770Y-119854219D01*
X138011171Y-119873089D01*
X138080139Y-119894637D01*
X138224627Y-119897285D01*
X138244159Y-119891960D01*
X138355392Y-119861635D01*
X138355394Y-119861634D01*
X138364051Y-119859274D01*
X138487201Y-119783659D01*
X138584180Y-119676519D01*
X138647189Y-119546467D01*
X138671165Y-119403958D01*
X138671317Y-119391505D01*
X138650830Y-119248453D01*
X138591017Y-119116900D01*
X138585159Y-119110101D01*
X138585156Y-119110097D01*
X138502545Y-119014223D01*
X138502542Y-119014221D01*
X138496685Y-119007423D01*
X138375419Y-118928822D01*
X138358550Y-118923777D01*
X138245567Y-118889987D01*
X138245565Y-118889987D01*
X138236966Y-118887415D01*
X138227992Y-118887360D01*
X138227990Y-118887360D01*
X138164711Y-118886974D01*
X138092456Y-118886533D01*
X138083825Y-118889000D01*
X138083823Y-118889000D01*
X137962138Y-118923777D01*
X137962134Y-118923779D01*
X137953508Y-118926244D01*
X137945921Y-118931031D01*
X137945919Y-118931032D01*
X137870695Y-118978495D01*
X137831290Y-119003358D01*
X137735628Y-119111675D01*
X137731814Y-119119798D01*
X137731813Y-119119800D01*
X137726016Y-119132147D01*
X137674212Y-119242487D01*
X137672832Y-119251351D01*
X137672831Y-119251354D01*
X137656440Y-119356628D01*
X137651979Y-119385278D01*
X108945196Y-119385278D01*
X108111663Y-118551745D01*
X110613795Y-118551745D01*
X110613871Y-118552815D01*
X110617055Y-118557648D01*
X110897342Y-118772720D01*
X110902972Y-118776575D01*
X111207929Y-118961992D01*
X111213931Y-118965210D01*
X111537139Y-119116611D01*
X111543444Y-119119159D01*
X111881117Y-119234771D01*
X111887668Y-119236624D01*
X112235838Y-119315087D01*
X112242557Y-119316224D01*
X112597174Y-119356628D01*
X112603964Y-119357031D01*
X112960865Y-119358899D01*
X112967666Y-119358567D01*
X113322686Y-119321880D01*
X113329414Y-119320814D01*
X113678402Y-119245997D01*
X113684950Y-119244218D01*
X114023820Y-119132147D01*
X114030162Y-119129661D01*
X114354921Y-118981660D01*
X114360975Y-118978495D01*
X114667839Y-118796293D01*
X114673520Y-118792490D01*
X114958918Y-118578207D01*
X114964145Y-118573821D01*
X114976988Y-118561803D01*
X114985057Y-118548123D01*
X114985029Y-118547398D01*
X114979887Y-118539097D01*
X112812812Y-116372022D01*
X112798868Y-116364408D01*
X112797035Y-116364539D01*
X112790420Y-116368790D01*
X110621409Y-118537801D01*
X110613795Y-118551745D01*
X108111663Y-118551745D01*
X107991405Y-118431487D01*
X107957379Y-118369175D01*
X107954500Y-118342392D01*
X107954500Y-115991657D01*
X109437260Y-115991657D01*
X109455318Y-116348127D01*
X109456028Y-116354883D01*
X109512478Y-116707305D01*
X109513917Y-116713960D01*
X109608094Y-117058215D01*
X109610243Y-117064676D01*
X109741053Y-117396756D01*
X109743884Y-117402939D01*
X109909792Y-117718949D01*
X109913275Y-117724791D01*
X110112340Y-118021031D01*
X110116442Y-118026475D01*
X110240942Y-118174322D01*
X110253680Y-118182764D01*
X110264124Y-118176666D01*
X112427978Y-116012812D01*
X112434356Y-116001132D01*
X113164408Y-116001132D01*
X113164539Y-116002965D01*
X113168790Y-116009580D01*
X115334463Y-118175253D01*
X115348060Y-118182678D01*
X115357669Y-118175981D01*
X115462197Y-118054457D01*
X115466346Y-118049069D01*
X115504350Y-117993773D01*
X118690350Y-117993773D01*
X118691514Y-118002675D01*
X118691514Y-118002678D01*
X118707924Y-118128164D01*
X118709088Y-118137065D01*
X118767289Y-118269339D01*
X118860276Y-118379960D01*
X118867747Y-118384933D01*
X118867748Y-118384934D01*
X118973101Y-118455063D01*
X118973103Y-118455064D01*
X118980574Y-118460037D01*
X118989138Y-118462713D01*
X118989141Y-118462714D01*
X119028252Y-118474933D01*
X119118510Y-118503132D01*
X119262998Y-118505780D01*
X119284199Y-118500000D01*
X119393763Y-118470130D01*
X119393765Y-118470129D01*
X119402422Y-118467769D01*
X119525572Y-118392154D01*
X119622551Y-118285014D01*
X119675344Y-118176048D01*
X119681645Y-118163043D01*
X119681645Y-118163042D01*
X119685560Y-118154962D01*
X119709536Y-118012453D01*
X119709688Y-118000000D01*
X119692129Y-117877393D01*
X119690474Y-117865835D01*
X119690473Y-117865833D01*
X119689201Y-117856948D01*
X119629388Y-117725395D01*
X119623530Y-117718596D01*
X119623527Y-117718592D01*
X119540916Y-117622718D01*
X119540913Y-117622716D01*
X119535056Y-117615918D01*
X119413790Y-117537317D01*
X119396921Y-117532272D01*
X119283938Y-117498482D01*
X119283936Y-117498482D01*
X119275337Y-117495910D01*
X119266363Y-117495855D01*
X119266361Y-117495855D01*
X119203082Y-117495469D01*
X119130827Y-117495028D01*
X119122196Y-117497495D01*
X119122194Y-117497495D01*
X119000509Y-117532272D01*
X119000505Y-117532274D01*
X118991879Y-117534739D01*
X118869661Y-117611853D01*
X118863718Y-117618582D01*
X118863717Y-117618583D01*
X118797518Y-117693540D01*
X118773999Y-117720170D01*
X118712583Y-117850982D01*
X118711203Y-117859846D01*
X118711202Y-117859849D01*
X118702850Y-117913494D01*
X118690350Y-117993773D01*
X115504350Y-117993773D01*
X115668503Y-117754929D01*
X115672050Y-117749118D01*
X115841250Y-117434879D01*
X115844157Y-117428701D01*
X115978435Y-117098016D01*
X115980649Y-117091586D01*
X116078427Y-116748331D01*
X116079934Y-116741701D01*
X116140073Y-116389873D01*
X116140853Y-116383133D01*
X116162740Y-116025275D01*
X116162856Y-116021673D01*
X116162926Y-116001820D01*
X116162834Y-115998193D01*
X116143446Y-115640208D01*
X116142711Y-115633442D01*
X116085034Y-115281233D01*
X116083567Y-115274561D01*
X115988194Y-114930655D01*
X115986020Y-114924192D01*
X115854053Y-114592575D01*
X115851197Y-114586395D01*
X115684194Y-114270981D01*
X115680682Y-114265137D01*
X115480588Y-113969598D01*
X115476467Y-113964170D01*
X115359041Y-113825704D01*
X115346215Y-113817267D01*
X115335890Y-113823320D01*
X113172022Y-115987188D01*
X113164408Y-116001132D01*
X112434356Y-116001132D01*
X112435592Y-115998868D01*
X112435461Y-115997035D01*
X112431210Y-115990420D01*
X110265527Y-113824737D01*
X110251990Y-113817345D01*
X110242289Y-113824132D01*
X110130649Y-113954847D01*
X110126515Y-113960255D01*
X109925394Y-114255086D01*
X109921859Y-114260923D01*
X109753754Y-114575757D01*
X109750878Y-114581926D01*
X109617754Y-114913081D01*
X109615561Y-114919521D01*
X109518979Y-115263121D01*
X109517496Y-115269756D01*
X109458589Y-115621773D01*
X109457830Y-115628545D01*
X109437284Y-115984862D01*
X109437260Y-115991657D01*
X107954500Y-115991657D01*
X107954500Y-113451492D01*
X110614580Y-113451492D01*
X110614615Y-113452333D01*
X110619667Y-113460457D01*
X112787188Y-115627978D01*
X112801132Y-115635592D01*
X112802965Y-115635461D01*
X112809580Y-115631210D01*
X114978166Y-113462624D01*
X114985780Y-113448680D01*
X114985712Y-113447723D01*
X114980771Y-113440251D01*
X114976870Y-113436931D01*
X114692958Y-113220649D01*
X114687332Y-113216825D01*
X114649118Y-113193773D01*
X116490350Y-113193773D01*
X116491514Y-113202675D01*
X116491514Y-113202678D01*
X116503670Y-113295635D01*
X116509088Y-113337065D01*
X116567289Y-113469339D01*
X116660276Y-113579960D01*
X116667747Y-113584933D01*
X116667748Y-113584934D01*
X116773101Y-113655063D01*
X116773103Y-113655064D01*
X116780574Y-113660037D01*
X116789138Y-113662713D01*
X116789141Y-113662714D01*
X116849542Y-113681585D01*
X116918510Y-113703132D01*
X117062998Y-113705780D01*
X117082530Y-113700455D01*
X117193763Y-113670130D01*
X117193765Y-113670129D01*
X117202422Y-113667769D01*
X117325572Y-113592154D01*
X117422551Y-113485014D01*
X117485560Y-113354962D01*
X117509536Y-113212453D01*
X117509688Y-113200000D01*
X117508796Y-113193773D01*
X118090350Y-113193773D01*
X118091514Y-113202675D01*
X118091514Y-113202678D01*
X118103670Y-113295635D01*
X118109088Y-113337065D01*
X118167289Y-113469339D01*
X118260276Y-113579960D01*
X118267747Y-113584933D01*
X118267748Y-113584934D01*
X118373101Y-113655063D01*
X118373103Y-113655064D01*
X118380574Y-113660037D01*
X118389138Y-113662713D01*
X118389141Y-113662714D01*
X118449542Y-113681585D01*
X118518510Y-113703132D01*
X118662998Y-113705780D01*
X118682530Y-113700455D01*
X118793763Y-113670130D01*
X118793765Y-113670129D01*
X118802422Y-113667769D01*
X118925572Y-113592154D01*
X119022551Y-113485014D01*
X119085560Y-113354962D01*
X119094049Y-113304507D01*
X125181351Y-113304507D01*
X125182515Y-113313409D01*
X125182515Y-113313412D01*
X125197676Y-113429346D01*
X125200089Y-113447799D01*
X125258290Y-113580073D01*
X125264062Y-113586940D01*
X125264066Y-113586946D01*
X125281951Y-113608222D01*
X125310473Y-113673238D01*
X125311501Y-113689298D01*
X125311501Y-115655850D01*
X125295878Y-115708687D01*
X125298966Y-115710114D01*
X125295202Y-115718260D01*
X125290318Y-115725795D01*
X125248911Y-115864248D01*
X125248029Y-116008758D01*
X125250496Y-116017389D01*
X125250496Y-116017391D01*
X125285273Y-116139076D01*
X125285275Y-116139080D01*
X125287740Y-116147706D01*
X125292527Y-116155293D01*
X125292528Y-116155295D01*
X125352244Y-116249939D01*
X125364854Y-116269924D01*
X125371583Y-116275867D01*
X125371584Y-116275868D01*
X125434143Y-116331118D01*
X125473171Y-116365586D01*
X125481294Y-116369400D01*
X125481296Y-116369401D01*
X125527412Y-116391052D01*
X125603983Y-116427002D01*
X125612847Y-116428382D01*
X125612850Y-116428383D01*
X125680764Y-116438957D01*
X125713698Y-116444085D01*
X125921776Y-116444085D01*
X125989897Y-116464087D01*
X126036390Y-116517743D01*
X126046494Y-116588017D01*
X126016217Y-116653492D01*
X125965999Y-116710354D01*
X125962185Y-116718477D01*
X125962184Y-116718479D01*
X125948169Y-116748331D01*
X125904583Y-116841166D01*
X125903203Y-116850030D01*
X125903202Y-116850033D01*
X125890880Y-116929176D01*
X125882350Y-116983957D01*
X125883514Y-116992859D01*
X125883514Y-116992862D01*
X125892845Y-117064213D01*
X125901088Y-117127249D01*
X125959289Y-117259523D01*
X125965061Y-117266390D01*
X125965065Y-117266396D01*
X125990909Y-117297140D01*
X126019431Y-117362155D01*
X126008275Y-117432270D01*
X125988904Y-117461619D01*
X125965999Y-117487554D01*
X125962185Y-117495677D01*
X125962184Y-117495679D01*
X125960868Y-117498482D01*
X125904583Y-117618366D01*
X125903203Y-117627230D01*
X125903202Y-117627233D01*
X125884225Y-117749118D01*
X125882350Y-117761157D01*
X125883514Y-117770059D01*
X125883514Y-117770062D01*
X125898819Y-117887096D01*
X125901088Y-117904449D01*
X125959289Y-118036723D01*
X125965063Y-118043592D01*
X126043636Y-118137065D01*
X126052276Y-118147344D01*
X126059747Y-118152317D01*
X126059748Y-118152318D01*
X126165101Y-118222447D01*
X126165103Y-118222448D01*
X126172574Y-118227421D01*
X126181138Y-118230097D01*
X126181141Y-118230098D01*
X126241542Y-118248969D01*
X126310510Y-118270516D01*
X126454998Y-118273164D01*
X126499157Y-118261125D01*
X126585763Y-118237514D01*
X126585765Y-118237513D01*
X126594422Y-118235153D01*
X126717572Y-118159538D01*
X126723876Y-118152574D01*
X132977949Y-118152574D01*
X132979113Y-118161476D01*
X132979113Y-118161479D01*
X132989056Y-118237514D01*
X132996687Y-118295866D01*
X133054888Y-118428140D01*
X133060662Y-118435009D01*
X133136361Y-118525063D01*
X133147875Y-118538761D01*
X133155346Y-118543734D01*
X133155347Y-118543735D01*
X133260700Y-118613864D01*
X133260702Y-118613865D01*
X133268173Y-118618838D01*
X133276737Y-118621514D01*
X133276740Y-118621515D01*
X133337141Y-118640386D01*
X133406109Y-118661933D01*
X133550597Y-118664581D01*
X133570129Y-118659256D01*
X133681362Y-118628931D01*
X133681364Y-118628930D01*
X133690021Y-118626570D01*
X133811884Y-118551745D01*
X143213795Y-118551745D01*
X143213871Y-118552815D01*
X143217055Y-118557648D01*
X143497342Y-118772720D01*
X143502972Y-118776575D01*
X143807929Y-118961992D01*
X143813931Y-118965210D01*
X144137139Y-119116611D01*
X144143444Y-119119159D01*
X144481117Y-119234771D01*
X144487668Y-119236624D01*
X144835838Y-119315087D01*
X144842557Y-119316224D01*
X145197174Y-119356628D01*
X145203964Y-119357031D01*
X145560865Y-119358899D01*
X145567666Y-119358567D01*
X145922686Y-119321880D01*
X145929414Y-119320814D01*
X146278402Y-119245997D01*
X146284950Y-119244218D01*
X146623820Y-119132147D01*
X146630162Y-119129661D01*
X146954921Y-118981660D01*
X146960975Y-118978495D01*
X147267839Y-118796293D01*
X147273520Y-118792490D01*
X147558918Y-118578207D01*
X147564145Y-118573821D01*
X147576988Y-118561803D01*
X147585057Y-118548123D01*
X147585029Y-118547398D01*
X147579887Y-118539097D01*
X145412812Y-116372022D01*
X145398868Y-116364408D01*
X145397035Y-116364539D01*
X145390420Y-116368790D01*
X143221409Y-118537801D01*
X143213795Y-118551745D01*
X133811884Y-118551745D01*
X133813171Y-118550955D01*
X133825078Y-118537801D01*
X133856310Y-118503296D01*
X133910150Y-118443815D01*
X133973159Y-118313763D01*
X133997135Y-118171254D01*
X133997287Y-118158801D01*
X133981572Y-118049069D01*
X133978073Y-118024636D01*
X133978072Y-118024634D01*
X133976800Y-118015749D01*
X133916987Y-117884196D01*
X133911129Y-117877397D01*
X133911126Y-117877393D01*
X133828515Y-117781519D01*
X133828512Y-117781517D01*
X133822655Y-117774719D01*
X133701389Y-117696118D01*
X133684520Y-117691073D01*
X133571537Y-117657283D01*
X133571535Y-117657283D01*
X133562936Y-117654711D01*
X133553962Y-117654656D01*
X133553960Y-117654656D01*
X133490681Y-117654270D01*
X133418426Y-117653829D01*
X133409795Y-117656296D01*
X133409793Y-117656296D01*
X133288108Y-117691073D01*
X133288104Y-117691075D01*
X133279478Y-117693540D01*
X133271891Y-117698327D01*
X133271889Y-117698328D01*
X133164853Y-117765863D01*
X133157260Y-117770654D01*
X133061598Y-117878971D01*
X133057784Y-117887094D01*
X133057783Y-117887096D01*
X133028123Y-117950270D01*
X133000182Y-118009783D01*
X132998802Y-118018647D01*
X132998801Y-118018650D01*
X132980364Y-118137065D01*
X132977949Y-118152574D01*
X126723876Y-118152574D01*
X126814551Y-118052398D01*
X126877560Y-117922346D01*
X126901536Y-117779837D01*
X126901688Y-117767384D01*
X126885433Y-117653884D01*
X126882474Y-117633219D01*
X126882473Y-117633217D01*
X126881201Y-117624332D01*
X126877376Y-117615918D01*
X126841638Y-117537317D01*
X126821388Y-117492779D01*
X126815528Y-117485978D01*
X126815524Y-117485972D01*
X126794645Y-117461741D01*
X126765331Y-117397079D01*
X126775630Y-117326833D01*
X126796683Y-117294938D01*
X126800033Y-117291237D01*
X126814551Y-117275198D01*
X126874720Y-117151008D01*
X126922420Y-117098426D01*
X126990979Y-117079980D01*
X127058627Y-117101527D01*
X127078025Y-117118882D01*
X127078683Y-117119924D01*
X127085408Y-117125863D01*
X127085412Y-117125868D01*
X127118696Y-117155263D01*
X127124384Y-117160609D01*
X127135711Y-117171936D01*
X127139294Y-117174621D01*
X127139296Y-117174623D01*
X127143982Y-117178135D01*
X127151825Y-117184520D01*
X127187000Y-117215586D01*
X127195127Y-117219401D01*
X127197947Y-117221254D01*
X127211924Y-117229652D01*
X127214881Y-117231271D01*
X127222066Y-117236656D01*
X127230476Y-117239809D01*
X127230478Y-117239810D01*
X127266023Y-117253136D01*
X127275336Y-117257060D01*
X127317812Y-117277002D01*
X127326684Y-117278383D01*
X127329914Y-117279371D01*
X127345685Y-117283509D01*
X127348974Y-117284232D01*
X127357382Y-117287384D01*
X127393327Y-117290055D01*
X127404189Y-117290862D01*
X127414237Y-117292016D01*
X127422710Y-117293335D01*
X127422711Y-117293335D01*
X127427527Y-117294085D01*
X127442879Y-117294085D01*
X127452216Y-117294431D01*
X127501497Y-117298093D01*
X127510274Y-117296219D01*
X127518963Y-117295627D01*
X127533572Y-117294085D01*
X128732377Y-117294085D01*
X128744382Y-117295426D01*
X128744422Y-117294930D01*
X128753369Y-117295650D01*
X128762125Y-117297631D01*
X128815383Y-117294327D01*
X128823185Y-117294085D01*
X128839227Y-117294085D01*
X128843658Y-117293450D01*
X128843663Y-117293450D01*
X128847688Y-117292873D01*
X128849458Y-117292620D01*
X128859515Y-117291589D01*
X128881977Y-117290196D01*
X128897401Y-117289239D01*
X128897403Y-117289239D01*
X128906360Y-117288683D01*
X128914800Y-117285636D01*
X128918090Y-117284955D01*
X128933939Y-117281003D01*
X128937169Y-117280058D01*
X128946053Y-117278786D01*
X128958368Y-117273187D01*
X128988764Y-117259367D01*
X128998129Y-117255555D01*
X129033838Y-117242663D01*
X129033841Y-117242661D01*
X129042285Y-117239613D01*
X129049534Y-117234317D01*
X129052491Y-117232745D01*
X129066615Y-117224492D01*
X129069438Y-117222687D01*
X129077606Y-117218973D01*
X129084403Y-117213116D01*
X129084405Y-117213115D01*
X129113154Y-117188342D01*
X129121065Y-117182060D01*
X129131945Y-117174112D01*
X129142807Y-117163250D01*
X129149654Y-117156892D01*
X129180283Y-117130500D01*
X129187083Y-117124641D01*
X129191967Y-117117106D01*
X129197700Y-117110534D01*
X129206927Y-117099130D01*
X129597084Y-116708973D01*
X132977949Y-116708973D01*
X132979113Y-116717875D01*
X132979113Y-116717878D01*
X132994173Y-116833043D01*
X132996687Y-116852265D01*
X133054888Y-116984539D01*
X133147875Y-117095160D01*
X133155346Y-117100133D01*
X133155347Y-117100134D01*
X133260700Y-117170263D01*
X133260702Y-117170264D01*
X133268173Y-117175237D01*
X133276737Y-117177913D01*
X133276740Y-117177914D01*
X133337141Y-117196784D01*
X133406109Y-117218332D01*
X133550597Y-117220980D01*
X133592185Y-117209642D01*
X133681362Y-117185330D01*
X133681364Y-117185329D01*
X133690021Y-117182969D01*
X133813171Y-117107354D01*
X133910150Y-117000214D01*
X133950823Y-116916264D01*
X133969244Y-116878243D01*
X133969244Y-116878242D01*
X133973159Y-116870162D01*
X133989510Y-116772972D01*
X139686751Y-116772972D01*
X139687915Y-116781874D01*
X139687915Y-116781877D01*
X139695956Y-116843364D01*
X139705489Y-116916264D01*
X139763690Y-117048538D01*
X139769464Y-117055407D01*
X139832587Y-117130500D01*
X139856677Y-117159159D01*
X139864148Y-117164132D01*
X139864149Y-117164133D01*
X139969502Y-117234262D01*
X139969504Y-117234263D01*
X139976975Y-117239236D01*
X139985539Y-117241912D01*
X139985542Y-117241913D01*
X140021465Y-117253136D01*
X140114911Y-117282331D01*
X140259399Y-117284979D01*
X140269112Y-117282331D01*
X140390164Y-117249329D01*
X140390166Y-117249328D01*
X140398823Y-117246968D01*
X140521973Y-117171353D01*
X140618952Y-117064213D01*
X140681961Y-116934161D01*
X140705937Y-116791652D01*
X140706089Y-116779199D01*
X140685602Y-116636147D01*
X140625789Y-116504594D01*
X140619931Y-116497795D01*
X140619928Y-116497791D01*
X140537317Y-116401917D01*
X140537314Y-116401915D01*
X140531457Y-116395117D01*
X140410191Y-116316516D01*
X140393322Y-116311471D01*
X140280339Y-116277681D01*
X140280337Y-116277681D01*
X140271738Y-116275109D01*
X140262764Y-116275054D01*
X140262762Y-116275054D01*
X140199483Y-116274668D01*
X140127228Y-116274227D01*
X140118597Y-116276694D01*
X140118595Y-116276694D01*
X139996910Y-116311471D01*
X139996906Y-116311473D01*
X139988280Y-116313938D01*
X139980693Y-116318725D01*
X139980691Y-116318726D01*
X139878613Y-116383133D01*
X139866062Y-116391052D01*
X139860119Y-116397781D01*
X139860118Y-116397782D01*
X139819746Y-116443495D01*
X139770400Y-116499369D01*
X139708984Y-116630181D01*
X139707604Y-116639045D01*
X139707603Y-116639048D01*
X139690588Y-116748331D01*
X139686751Y-116772972D01*
X133989510Y-116772972D01*
X133997135Y-116727653D01*
X133997287Y-116715200D01*
X133976800Y-116572148D01*
X133916987Y-116440595D01*
X133911129Y-116433796D01*
X133911126Y-116433792D01*
X133828515Y-116337918D01*
X133828512Y-116337916D01*
X133822655Y-116331118D01*
X133740212Y-116277681D01*
X133708923Y-116257400D01*
X133708921Y-116257399D01*
X133701389Y-116252517D01*
X133684520Y-116247472D01*
X133571537Y-116213682D01*
X133571535Y-116213682D01*
X133562936Y-116211110D01*
X133553962Y-116211055D01*
X133553960Y-116211055D01*
X133490681Y-116210669D01*
X133418426Y-116210228D01*
X133409795Y-116212695D01*
X133409793Y-116212695D01*
X133288108Y-116247472D01*
X133288104Y-116247474D01*
X133279478Y-116249939D01*
X133271891Y-116254726D01*
X133271889Y-116254727D01*
X133228338Y-116282206D01*
X133157260Y-116327053D01*
X133151317Y-116333782D01*
X133151316Y-116333783D01*
X133117545Y-116372022D01*
X133061598Y-116435370D01*
X133000182Y-116566182D01*
X132998802Y-116575046D01*
X132998801Y-116575049D01*
X132988837Y-116639048D01*
X132977949Y-116708973D01*
X129597084Y-116708973D01*
X130314400Y-115991657D01*
X142037260Y-115991657D01*
X142055318Y-116348127D01*
X142056028Y-116354883D01*
X142112478Y-116707305D01*
X142113917Y-116713960D01*
X142208094Y-117058215D01*
X142210243Y-117064676D01*
X142341053Y-117396756D01*
X142343884Y-117402939D01*
X142509792Y-117718949D01*
X142513275Y-117724791D01*
X142712340Y-118021031D01*
X142716442Y-118026475D01*
X142840942Y-118174322D01*
X142853680Y-118182764D01*
X142864124Y-118176666D01*
X145027978Y-116012812D01*
X145034356Y-116001132D01*
X145764408Y-116001132D01*
X145764539Y-116002965D01*
X145768790Y-116009580D01*
X147934463Y-118175253D01*
X147948060Y-118182678D01*
X147957669Y-118175981D01*
X148062197Y-118054457D01*
X148066346Y-118049069D01*
X148268503Y-117754929D01*
X148272050Y-117749118D01*
X148441250Y-117434879D01*
X148444157Y-117428701D01*
X148578435Y-117098016D01*
X148580649Y-117091586D01*
X148678427Y-116748331D01*
X148679934Y-116741701D01*
X148740073Y-116389873D01*
X148740853Y-116383133D01*
X148762740Y-116025275D01*
X148762856Y-116021673D01*
X148762926Y-116001820D01*
X148762834Y-115998193D01*
X148743446Y-115640208D01*
X148742711Y-115633442D01*
X148685034Y-115281233D01*
X148683567Y-115274561D01*
X148588194Y-114930655D01*
X148586020Y-114924192D01*
X148454053Y-114592575D01*
X148451197Y-114586395D01*
X148284194Y-114270981D01*
X148280682Y-114265137D01*
X148080588Y-113969598D01*
X148076467Y-113964170D01*
X147959041Y-113825704D01*
X147946215Y-113817267D01*
X147935890Y-113823320D01*
X145772022Y-115987188D01*
X145764408Y-116001132D01*
X145034356Y-116001132D01*
X145035592Y-115998868D01*
X145035461Y-115997035D01*
X145031210Y-115990420D01*
X142865527Y-113824737D01*
X142851990Y-113817345D01*
X142842289Y-113824132D01*
X142730649Y-113954847D01*
X142726515Y-113960255D01*
X142525394Y-114255086D01*
X142521859Y-114260923D01*
X142353754Y-114575757D01*
X142350878Y-114581926D01*
X142217754Y-114913081D01*
X142215561Y-114919521D01*
X142118979Y-115263121D01*
X142117496Y-115269756D01*
X142058589Y-115621773D01*
X142057830Y-115628545D01*
X142037284Y-115984862D01*
X142037260Y-115991657D01*
X130314400Y-115991657D01*
X131029931Y-115276126D01*
X131043889Y-115264903D01*
X131045606Y-115264122D01*
X131061912Y-115250072D01*
X131078229Y-115238152D01*
X131088922Y-115231586D01*
X131088923Y-115231585D01*
X131096573Y-115226888D01*
X131118818Y-115202312D01*
X131129978Y-115191422D01*
X131148281Y-115175651D01*
X131155083Y-115169790D01*
X131159967Y-115162256D01*
X131159969Y-115162253D01*
X131166787Y-115151734D01*
X131179105Y-115135710D01*
X131186799Y-115127210D01*
X131247343Y-115090129D01*
X131318323Y-115091667D01*
X131376664Y-115130690D01*
X131447277Y-115214694D01*
X131454748Y-115219667D01*
X131454749Y-115219668D01*
X131560102Y-115289797D01*
X131560104Y-115289798D01*
X131567575Y-115294771D01*
X131576139Y-115297447D01*
X131576142Y-115297448D01*
X131613390Y-115309085D01*
X131705511Y-115337866D01*
X131849999Y-115340514D01*
X131869531Y-115335189D01*
X131980764Y-115304864D01*
X131980766Y-115304863D01*
X131989423Y-115302503D01*
X132112573Y-115226888D01*
X132209552Y-115119748D01*
X132272561Y-114989696D01*
X132296537Y-114847187D01*
X132296689Y-114834734D01*
X132276202Y-114691682D01*
X132216389Y-114560129D01*
X132210531Y-114553330D01*
X132210528Y-114553326D01*
X132127917Y-114457452D01*
X132127914Y-114457450D01*
X132122057Y-114450652D01*
X132043644Y-114399827D01*
X132008325Y-114376934D01*
X132008323Y-114376933D01*
X132000791Y-114372051D01*
X131989830Y-114368773D01*
X131870939Y-114333216D01*
X131870937Y-114333216D01*
X131862338Y-114330644D01*
X131853364Y-114330589D01*
X131853362Y-114330589D01*
X131790083Y-114330203D01*
X131717828Y-114329762D01*
X131709197Y-114332229D01*
X131709195Y-114332229D01*
X131587510Y-114367006D01*
X131587506Y-114367008D01*
X131578880Y-114369473D01*
X131571293Y-114374260D01*
X131571291Y-114374261D01*
X131464255Y-114441796D01*
X131456662Y-114446587D01*
X131427743Y-114479332D01*
X131373141Y-114541156D01*
X131313055Y-114578974D01*
X131242062Y-114578304D01*
X131182701Y-114539358D01*
X131172138Y-114524983D01*
X131159148Y-114504395D01*
X131137205Y-114485016D01*
X131125164Y-114472827D01*
X131106057Y-114450652D01*
X131084745Y-114436838D01*
X131069873Y-114425550D01*
X131057559Y-114414675D01*
X131050831Y-114408733D01*
X131025492Y-114396836D01*
X131024336Y-114396293D01*
X131009357Y-114387972D01*
X130992327Y-114376934D01*
X130992319Y-114376930D01*
X130984791Y-114372051D01*
X130960450Y-114364771D01*
X130943014Y-114358113D01*
X130920019Y-114347317D01*
X130911153Y-114345937D01*
X130911151Y-114345936D01*
X130891104Y-114342815D01*
X130874386Y-114339032D01*
X130854939Y-114333216D01*
X130854937Y-114333216D01*
X130846338Y-114330644D01*
X130837367Y-114330589D01*
X130837365Y-114330589D01*
X130834568Y-114330572D01*
X130829061Y-114330539D01*
X130816455Y-114329091D01*
X130816431Y-114329389D01*
X130807485Y-114328669D01*
X130798729Y-114326688D01*
X130749222Y-114329759D01*
X130740660Y-114329999D01*
X130701828Y-114329762D01*
X130693199Y-114332228D01*
X130684403Y-114333433D01*
X130675106Y-114334357D01*
X130663452Y-114335080D01*
X130663450Y-114335080D01*
X130654494Y-114335636D01*
X130646052Y-114338684D01*
X130642776Y-114339362D01*
X130626907Y-114343318D01*
X130623683Y-114344261D01*
X130614800Y-114345533D01*
X130606631Y-114349247D01*
X130606625Y-114349249D01*
X130572073Y-114364959D01*
X130562705Y-114368773D01*
X130518568Y-114384706D01*
X130511318Y-114390003D01*
X130508351Y-114391580D01*
X130494238Y-114399827D01*
X130491415Y-114401632D01*
X130483247Y-114405346D01*
X130476450Y-114411203D01*
X130476448Y-114411204D01*
X130447699Y-114435977D01*
X130439788Y-114442259D01*
X130428908Y-114450207D01*
X130418046Y-114461069D01*
X130411200Y-114467427D01*
X130373770Y-114499678D01*
X130368886Y-114507213D01*
X130363153Y-114513785D01*
X130353926Y-114525189D01*
X128630935Y-116248180D01*
X128568623Y-116282206D01*
X128541840Y-116285085D01*
X127727991Y-116285085D01*
X127659870Y-116265083D01*
X127638896Y-116248180D01*
X127023507Y-115632791D01*
X127015965Y-115623351D01*
X127015585Y-115623674D01*
X127009767Y-115616838D01*
X127004977Y-115609246D01*
X126964970Y-115573913D01*
X126959284Y-115568568D01*
X126947950Y-115557234D01*
X126939675Y-115551032D01*
X126931830Y-115544645D01*
X126903387Y-115519525D01*
X126896660Y-115513584D01*
X126888538Y-115509771D01*
X126885737Y-115507931D01*
X126871742Y-115499522D01*
X126868779Y-115497900D01*
X126861594Y-115492515D01*
X126853184Y-115489362D01*
X126853182Y-115489361D01*
X126817648Y-115476039D01*
X126808332Y-115472114D01*
X126765848Y-115452168D01*
X126756974Y-115450786D01*
X126753747Y-115449800D01*
X126737964Y-115445660D01*
X126734686Y-115444939D01*
X126726278Y-115441787D01*
X126712521Y-115440765D01*
X126679473Y-115438309D01*
X126669426Y-115437155D01*
X126660944Y-115435834D01*
X126660941Y-115435834D01*
X126656133Y-115435085D01*
X126640768Y-115435085D01*
X126631431Y-115434739D01*
X126615349Y-115433544D01*
X126582163Y-115431078D01*
X126573388Y-115432951D01*
X126564692Y-115433544D01*
X126550092Y-115435085D01*
X126196501Y-115435085D01*
X126128380Y-115415083D01*
X126081887Y-115361427D01*
X126070501Y-115309085D01*
X126070501Y-113691866D01*
X126090503Y-113623745D01*
X126103085Y-113607312D01*
X126104176Y-113606107D01*
X126113552Y-113595748D01*
X126117817Y-113586946D01*
X126172646Y-113473777D01*
X126172646Y-113473776D01*
X126176561Y-113465696D01*
X126178951Y-113451492D01*
X143214580Y-113451492D01*
X143214615Y-113452333D01*
X143219667Y-113460457D01*
X145387188Y-115627978D01*
X145401132Y-115635592D01*
X145402965Y-115635461D01*
X145409580Y-115631210D01*
X147578166Y-113462624D01*
X147585780Y-113448680D01*
X147585712Y-113447723D01*
X147580771Y-113440251D01*
X147576870Y-113436931D01*
X147292958Y-113220649D01*
X147287332Y-113216825D01*
X146981722Y-113032469D01*
X146975710Y-113029272D01*
X146651966Y-112878995D01*
X146645666Y-112876475D01*
X146307595Y-112762045D01*
X146301017Y-112760209D01*
X145952592Y-112682965D01*
X145945857Y-112681850D01*
X145591106Y-112642685D01*
X145584324Y-112642306D01*
X145227395Y-112641683D01*
X145220622Y-112642038D01*
X144865714Y-112679966D01*
X144859005Y-112681053D01*
X144510289Y-112757086D01*
X144503714Y-112758897D01*
X144165250Y-112872145D01*
X144158928Y-112874648D01*
X143834680Y-113023785D01*
X143828637Y-113026971D01*
X143522404Y-113210248D01*
X143516744Y-113214066D01*
X143232094Y-113429346D01*
X143226891Y-113433742D01*
X143222601Y-113437785D01*
X143214580Y-113451492D01*
X126178951Y-113451492D01*
X126200537Y-113323187D01*
X126200689Y-113310734D01*
X126185918Y-113207593D01*
X126181475Y-113176569D01*
X126181474Y-113176567D01*
X126180202Y-113167682D01*
X126120389Y-113036129D01*
X126114531Y-113029330D01*
X126114528Y-113029326D01*
X126031917Y-112933452D01*
X126031914Y-112933450D01*
X126026057Y-112926652D01*
X125945825Y-112874648D01*
X125912325Y-112852934D01*
X125912323Y-112852933D01*
X125904791Y-112848051D01*
X125797348Y-112815918D01*
X125774939Y-112809216D01*
X125774937Y-112809216D01*
X125766338Y-112806644D01*
X125757364Y-112806589D01*
X125757362Y-112806589D01*
X125694083Y-112806203D01*
X125621828Y-112805762D01*
X125613197Y-112808229D01*
X125613195Y-112808229D01*
X125491510Y-112843006D01*
X125491506Y-112843008D01*
X125482880Y-112845473D01*
X125475293Y-112850260D01*
X125475291Y-112850261D01*
X125433745Y-112876475D01*
X125360662Y-112922587D01*
X125265000Y-113030904D01*
X125261186Y-113039027D01*
X125261185Y-113039029D01*
X125255573Y-113050982D01*
X125203584Y-113161716D01*
X125202204Y-113170580D01*
X125202203Y-113170583D01*
X125194938Y-113217247D01*
X125181351Y-113304507D01*
X119094049Y-113304507D01*
X119109536Y-113212453D01*
X119109688Y-113200000D01*
X119089201Y-113056948D01*
X119029388Y-112925395D01*
X119023530Y-112918596D01*
X119023527Y-112918592D01*
X118940916Y-112822718D01*
X118940913Y-112822716D01*
X118935056Y-112815918D01*
X118874423Y-112776618D01*
X118821324Y-112742200D01*
X118821322Y-112742199D01*
X118813790Y-112737317D01*
X118796921Y-112732272D01*
X118683938Y-112698482D01*
X118683936Y-112698482D01*
X118675337Y-112695910D01*
X118666363Y-112695855D01*
X118666361Y-112695855D01*
X118603082Y-112695469D01*
X118530827Y-112695028D01*
X118522196Y-112697495D01*
X118522194Y-112697495D01*
X118400509Y-112732272D01*
X118400505Y-112732274D01*
X118391879Y-112734739D01*
X118384292Y-112739526D01*
X118384290Y-112739527D01*
X118277254Y-112807062D01*
X118269661Y-112811853D01*
X118263718Y-112818582D01*
X118263717Y-112818583D01*
X118212589Y-112876475D01*
X118173999Y-112920170D01*
X118112583Y-113050982D01*
X118111203Y-113059846D01*
X118111202Y-113059849D01*
X118093029Y-113176569D01*
X118090350Y-113193773D01*
X117508796Y-113193773D01*
X117489201Y-113056948D01*
X117429388Y-112925395D01*
X117423530Y-112918596D01*
X117423527Y-112918592D01*
X117340916Y-112822718D01*
X117340913Y-112822716D01*
X117335056Y-112815918D01*
X117274423Y-112776618D01*
X117221324Y-112742200D01*
X117221322Y-112742199D01*
X117213790Y-112737317D01*
X117196921Y-112732272D01*
X117083938Y-112698482D01*
X117083936Y-112698482D01*
X117075337Y-112695910D01*
X117066363Y-112695855D01*
X117066361Y-112695855D01*
X117003082Y-112695469D01*
X116930827Y-112695028D01*
X116922196Y-112697495D01*
X116922194Y-112697495D01*
X116800509Y-112732272D01*
X116800505Y-112732274D01*
X116791879Y-112734739D01*
X116784292Y-112739526D01*
X116784290Y-112739527D01*
X116677254Y-112807062D01*
X116669661Y-112811853D01*
X116663718Y-112818582D01*
X116663717Y-112818583D01*
X116612589Y-112876475D01*
X116573999Y-112920170D01*
X116512583Y-113050982D01*
X116511203Y-113059846D01*
X116511202Y-113059849D01*
X116493029Y-113176569D01*
X116490350Y-113193773D01*
X114649118Y-113193773D01*
X114381722Y-113032469D01*
X114375710Y-113029272D01*
X114051966Y-112878995D01*
X114045666Y-112876475D01*
X113707595Y-112762045D01*
X113701017Y-112760209D01*
X113352592Y-112682965D01*
X113345857Y-112681850D01*
X112991106Y-112642685D01*
X112984324Y-112642306D01*
X112627395Y-112641683D01*
X112620622Y-112642038D01*
X112265714Y-112679966D01*
X112259005Y-112681053D01*
X111910289Y-112757086D01*
X111903714Y-112758897D01*
X111565250Y-112872145D01*
X111558928Y-112874648D01*
X111234680Y-113023785D01*
X111228637Y-113026971D01*
X110922404Y-113210248D01*
X110916744Y-113214066D01*
X110632094Y-113429346D01*
X110626891Y-113433742D01*
X110622601Y-113437785D01*
X110614580Y-113451492D01*
X107954500Y-113451492D01*
X107954500Y-110880500D01*
X107974502Y-110812379D01*
X108028158Y-110765886D01*
X108080500Y-110754500D01*
X108962524Y-110754500D01*
X108987103Y-110756921D01*
X109000000Y-110759486D01*
X109012171Y-110757065D01*
X109087131Y-110742155D01*
X109087132Y-110742154D01*
X109099301Y-110739734D01*
X109162234Y-110697684D01*
X109162237Y-110697681D01*
X109183484Y-110683484D01*
X109190790Y-110672550D01*
X109206460Y-110653458D01*
X110653455Y-109206462D01*
X110672547Y-109190792D01*
X110673167Y-109190378D01*
X110673168Y-109190377D01*
X110683484Y-109183484D01*
X110690377Y-109173168D01*
X110690379Y-109173166D01*
X110732839Y-109109620D01*
X110739734Y-109099301D01*
X110754500Y-109025067D01*
X110754500Y-109025063D01*
X110759485Y-109000000D01*
X110756921Y-108987109D01*
X110754500Y-108962529D01*
X110754500Y-106210500D01*
X110774502Y-106142379D01*
X110828158Y-106095886D01*
X110880500Y-106084500D01*
X111939648Y-106084500D01*
X111977221Y-106090233D01*
X112009939Y-106100455D01*
X112009944Y-106100456D01*
X112018510Y-106103132D01*
X112162998Y-106105780D01*
X112224781Y-106088936D01*
X112257922Y-106084499D01*
X113321666Y-106084499D01*
X113361466Y-106076583D01*
X113383726Y-106072156D01*
X113383728Y-106072155D01*
X113395901Y-106069734D01*
X113406221Y-106062839D01*
X113406222Y-106062838D01*
X113469768Y-106020377D01*
X113480084Y-106013484D01*
X113536334Y-105929301D01*
X113551100Y-105855067D01*
X113551099Y-104304934D01*
X113543843Y-104268453D01*
X113538756Y-104242874D01*
X113538755Y-104242872D01*
X113536334Y-104230699D01*
X113493179Y-104166113D01*
X113486977Y-104156832D01*
X113480084Y-104146516D01*
X113395901Y-104090266D01*
X113321667Y-104075500D01*
X113184652Y-104075500D01*
X110880500Y-104075501D01*
X110812379Y-104055499D01*
X110765886Y-104001843D01*
X110754500Y-103949501D01*
X110754500Y-103670500D01*
X110774502Y-103602379D01*
X110828158Y-103555886D01*
X110880500Y-103544500D01*
X112191194Y-103544499D01*
X113180141Y-103544499D01*
X113248262Y-103564501D01*
X113295470Y-103619753D01*
X113313673Y-103661122D01*
X113317289Y-103669339D01*
X113323063Y-103676208D01*
X113399126Y-103766695D01*
X113410276Y-103779960D01*
X113417747Y-103784933D01*
X113417748Y-103784934D01*
X113523101Y-103855063D01*
X113523103Y-103855064D01*
X113530574Y-103860037D01*
X113539138Y-103862713D01*
X113539141Y-103862714D01*
X113588610Y-103878169D01*
X113668510Y-103903132D01*
X113812998Y-103905780D01*
X113840622Y-103898249D01*
X113943763Y-103870130D01*
X113943765Y-103870129D01*
X113952422Y-103867769D01*
X114075572Y-103792154D01*
X114172551Y-103685014D01*
X114212587Y-103602379D01*
X114231645Y-103563043D01*
X114231645Y-103563042D01*
X114235560Y-103554962D01*
X114259536Y-103412453D01*
X114259619Y-103405637D01*
X114259629Y-103404860D01*
X114259629Y-103404856D01*
X114259688Y-103400000D01*
X114239201Y-103256948D01*
X114179388Y-103125395D01*
X114173530Y-103118596D01*
X114173527Y-103118592D01*
X114090916Y-103022718D01*
X114090913Y-103022716D01*
X114085056Y-103015918D01*
X113983245Y-102949927D01*
X113971324Y-102942200D01*
X113971322Y-102942199D01*
X113963790Y-102937317D01*
X113946359Y-102932104D01*
X113833938Y-102898482D01*
X113833936Y-102898482D01*
X113825337Y-102895910D01*
X113816363Y-102895855D01*
X113816361Y-102895855D01*
X113680827Y-102895028D01*
X113680843Y-102892468D01*
X113623998Y-102883910D01*
X113570652Y-102837062D01*
X113551100Y-102769646D01*
X113551099Y-101771123D01*
X113551099Y-101764934D01*
X113536334Y-101690699D01*
X113480084Y-101606516D01*
X113395901Y-101550266D01*
X113321667Y-101535500D01*
X113184652Y-101535500D01*
X110880500Y-101535501D01*
X110812379Y-101515499D01*
X110765886Y-101461843D01*
X110754500Y-101409501D01*
X110754500Y-101130500D01*
X110774502Y-101062379D01*
X110828158Y-101015886D01*
X110880500Y-101004500D01*
X113184610Y-101004499D01*
X113321666Y-101004499D01*
X113357418Y-100997388D01*
X113383726Y-100992156D01*
X113383728Y-100992155D01*
X113395901Y-100989734D01*
X113406221Y-100982839D01*
X113406222Y-100982838D01*
X113469768Y-100940377D01*
X113480084Y-100933484D01*
X113536334Y-100849301D01*
X113551100Y-100775067D01*
X113551099Y-99224934D01*
X113542576Y-99182082D01*
X113538756Y-99162874D01*
X113538755Y-99162872D01*
X113536334Y-99150699D01*
X113529419Y-99140349D01*
X113486977Y-99076832D01*
X113480084Y-99066516D01*
X113395901Y-99010266D01*
X113321667Y-98995500D01*
X113184652Y-98995500D01*
X110880500Y-98995501D01*
X110812379Y-98975499D01*
X110765886Y-98921843D01*
X110754500Y-98869501D01*
X110754500Y-98590500D01*
X110774502Y-98522379D01*
X110828158Y-98475886D01*
X110880500Y-98464500D01*
X113184610Y-98464499D01*
X113321666Y-98464499D01*
X113357418Y-98457388D01*
X113383726Y-98452156D01*
X113383728Y-98452155D01*
X113395901Y-98449734D01*
X113406221Y-98442839D01*
X113406222Y-98442838D01*
X113469768Y-98400377D01*
X113480084Y-98393484D01*
X113499835Y-98363925D01*
X113554311Y-98318398D01*
X113624754Y-98309550D01*
X113642172Y-98313661D01*
X113768510Y-98353132D01*
X113912998Y-98355780D01*
X113975299Y-98338795D01*
X114043763Y-98320130D01*
X114043765Y-98320129D01*
X114052422Y-98317769D01*
X114175572Y-98242154D01*
X114272551Y-98135014D01*
X114335560Y-98004962D01*
X114359536Y-97862453D01*
X114359688Y-97850000D01*
X114339201Y-97706948D01*
X114279388Y-97575395D01*
X114273530Y-97568596D01*
X114273527Y-97568592D01*
X114190916Y-97472718D01*
X114190913Y-97472716D01*
X114185056Y-97465918D01*
X114063790Y-97387317D01*
X114055170Y-97384739D01*
X113933938Y-97348482D01*
X113933936Y-97348482D01*
X113925337Y-97345910D01*
X113916363Y-97345855D01*
X113916361Y-97345855D01*
X113853082Y-97345469D01*
X113780827Y-97345028D01*
X113711722Y-97364778D01*
X113640729Y-97364266D01*
X113581281Y-97325452D01*
X113552255Y-97260660D01*
X113551099Y-97243629D01*
X113551099Y-96684934D01*
X113540917Y-96633739D01*
X113538756Y-96622874D01*
X113538755Y-96622872D01*
X113536334Y-96610699D01*
X113529264Y-96600117D01*
X113525025Y-96593773D01*
X113840350Y-96593773D01*
X113841514Y-96602675D01*
X113841514Y-96602678D01*
X113857648Y-96726050D01*
X113859088Y-96737065D01*
X113917289Y-96869339D01*
X113923063Y-96876208D01*
X113981756Y-96946031D01*
X114010276Y-96979960D01*
X114017747Y-96984933D01*
X114017748Y-96984934D01*
X114123101Y-97055063D01*
X114123103Y-97055064D01*
X114130574Y-97060037D01*
X114139138Y-97062713D01*
X114139141Y-97062714D01*
X114259944Y-97100456D01*
X114259946Y-97100456D01*
X114268510Y-97103132D01*
X114277484Y-97103297D01*
X114283989Y-97104350D01*
X114352940Y-97139634D01*
X114691411Y-97478105D01*
X114706553Y-97496853D01*
X114707668Y-97498078D01*
X114713318Y-97506829D01*
X114721496Y-97513276D01*
X114721498Y-97513278D01*
X114739689Y-97527618D01*
X114744133Y-97531567D01*
X114744195Y-97531493D01*
X114748152Y-97534846D01*
X114751833Y-97538527D01*
X114767543Y-97549754D01*
X114772269Y-97553302D01*
X114812536Y-97585045D01*
X114821173Y-97588078D01*
X114828623Y-97593402D01*
X114838599Y-97596386D01*
X114838600Y-97596386D01*
X114853935Y-97600972D01*
X114877738Y-97608091D01*
X114883375Y-97609923D01*
X114924256Y-97624279D01*
X114931740Y-97626907D01*
X114937305Y-97627389D01*
X114940013Y-97627389D01*
X114942647Y-97627503D01*
X114942745Y-97627532D01*
X114942738Y-97627696D01*
X114943442Y-97627740D01*
X114949667Y-97629602D01*
X115003524Y-97627486D01*
X115008471Y-97627389D01*
X117990607Y-97627389D01*
X118058728Y-97647391D01*
X118105221Y-97701047D01*
X118115107Y-97772773D01*
X118109731Y-97807299D01*
X118109731Y-97807304D01*
X118108350Y-97816173D01*
X118109514Y-97825075D01*
X118109514Y-97825078D01*
X118112773Y-97850000D01*
X118127088Y-97959465D01*
X118185289Y-98091739D01*
X118191061Y-98098606D01*
X118191065Y-98098612D01*
X118208950Y-98119888D01*
X118237472Y-98184904D01*
X118238500Y-98200964D01*
X118238500Y-98914080D01*
X118235951Y-98938028D01*
X118235872Y-98939693D01*
X118233680Y-98949876D01*
X118234904Y-98960217D01*
X118237627Y-98983223D01*
X118237977Y-98989154D01*
X118238072Y-98989146D01*
X118238500Y-98994324D01*
X118238500Y-98999524D01*
X118239354Y-99004653D01*
X118239354Y-99004656D01*
X118241669Y-99018565D01*
X118242506Y-99024443D01*
X118244206Y-99038802D01*
X118248530Y-99075341D01*
X118252493Y-99083593D01*
X118253996Y-99092626D01*
X118258943Y-99101795D01*
X118258944Y-99101797D01*
X118278334Y-99137732D01*
X118281031Y-99143025D01*
X118299785Y-99182082D01*
X118299788Y-99182086D01*
X118303219Y-99189232D01*
X118306814Y-99193508D01*
X118308737Y-99195431D01*
X118310509Y-99197363D01*
X118310552Y-99197442D01*
X118310428Y-99197555D01*
X118310904Y-99198095D01*
X118313990Y-99203814D01*
X118321635Y-99210881D01*
X118353586Y-99240416D01*
X118357152Y-99243846D01*
X119299522Y-100186216D01*
X119314664Y-100204964D01*
X119315779Y-100206189D01*
X119321429Y-100214940D01*
X119329607Y-100221387D01*
X119329609Y-100221389D01*
X119347800Y-100235729D01*
X119352241Y-100239675D01*
X119352303Y-100239602D01*
X119356267Y-100242961D01*
X119359944Y-100246638D01*
X119375692Y-100257892D01*
X119380362Y-100261398D01*
X119420647Y-100293156D01*
X119429281Y-100296188D01*
X119436734Y-100301514D01*
X119485850Y-100316203D01*
X119491492Y-100318036D01*
X119532367Y-100332390D01*
X119539851Y-100335018D01*
X119545416Y-100335500D01*
X119548124Y-100335500D01*
X119550758Y-100335614D01*
X119550856Y-100335643D01*
X119550849Y-100335807D01*
X119551553Y-100335851D01*
X119557778Y-100337713D01*
X119611635Y-100335597D01*
X119616582Y-100335500D01*
X127376301Y-100335500D01*
X127444422Y-100355502D01*
X127490915Y-100409158D01*
X127502301Y-100461500D01*
X127502301Y-100775066D01*
X127517066Y-100849301D01*
X127544253Y-100889988D01*
X127565467Y-100957739D01*
X127546684Y-101026206D01*
X127493868Y-101073650D01*
X127439487Y-101085989D01*
X118586330Y-101085989D01*
X118518209Y-101065987D01*
X118471716Y-101012331D01*
X118462076Y-100939085D01*
X118470729Y-100887650D01*
X118470729Y-100887649D01*
X118471536Y-100882853D01*
X118471688Y-100870400D01*
X118451201Y-100727348D01*
X118391388Y-100595795D01*
X118385530Y-100588996D01*
X118385527Y-100588992D01*
X118302916Y-100493118D01*
X118302913Y-100493116D01*
X118297056Y-100486318D01*
X118175790Y-100407717D01*
X118158921Y-100402672D01*
X118045938Y-100368882D01*
X118045936Y-100368882D01*
X118037337Y-100366310D01*
X118028363Y-100366255D01*
X118028361Y-100366255D01*
X117965082Y-100365869D01*
X117892827Y-100365428D01*
X117884196Y-100367895D01*
X117884194Y-100367895D01*
X117762509Y-100402672D01*
X117762505Y-100402674D01*
X117753879Y-100405139D01*
X117631661Y-100482253D01*
X117535999Y-100590570D01*
X117474583Y-100721382D01*
X117473203Y-100730246D01*
X117473202Y-100730249D01*
X117454666Y-100849301D01*
X117452350Y-100864173D01*
X117453514Y-100873075D01*
X117453514Y-100873079D01*
X117462743Y-100943652D01*
X117451743Y-101013791D01*
X117404568Y-101066848D01*
X117337807Y-101085989D01*
X115388431Y-101085989D01*
X115364483Y-101083440D01*
X115362818Y-101083361D01*
X115352635Y-101081169D01*
X115342294Y-101082393D01*
X115319288Y-101085116D01*
X115313357Y-101085466D01*
X115313365Y-101085561D01*
X115308187Y-101085989D01*
X115302987Y-101085989D01*
X115297858Y-101086843D01*
X115297855Y-101086843D01*
X115283946Y-101089158D01*
X115278068Y-101089995D01*
X115237510Y-101094795D01*
X115237509Y-101094795D01*
X115227170Y-101096019D01*
X115218918Y-101099982D01*
X115209885Y-101101485D01*
X115200716Y-101106432D01*
X115200714Y-101106433D01*
X115164779Y-101125823D01*
X115159487Y-101128520D01*
X115113279Y-101150708D01*
X115109004Y-101154302D01*
X115107079Y-101156227D01*
X115105149Y-101157998D01*
X115105064Y-101158044D01*
X115104952Y-101157921D01*
X115104417Y-101158393D01*
X115098697Y-101161479D01*
X115091630Y-101169124D01*
X115062095Y-101201075D01*
X115058665Y-101204641D01*
X114652719Y-101610587D01*
X114590407Y-101644613D01*
X114587821Y-101645071D01*
X114580827Y-101645028D01*
X114520143Y-101662371D01*
X114450509Y-101682272D01*
X114450505Y-101682274D01*
X114441879Y-101684739D01*
X114434292Y-101689526D01*
X114434290Y-101689527D01*
X114327254Y-101757062D01*
X114319661Y-101761853D01*
X114313718Y-101768582D01*
X114313717Y-101768583D01*
X114311474Y-101771123D01*
X114223999Y-101870170D01*
X114220185Y-101878293D01*
X114220184Y-101878295D01*
X114211999Y-101895729D01*
X114162583Y-102000982D01*
X114161203Y-102009846D01*
X114161202Y-102009849D01*
X114145684Y-102109517D01*
X114140350Y-102143773D01*
X114141514Y-102152675D01*
X114141514Y-102152678D01*
X114156126Y-102264414D01*
X114159088Y-102287065D01*
X114217289Y-102419339D01*
X114223063Y-102426208D01*
X114277005Y-102490379D01*
X114310276Y-102529960D01*
X114317747Y-102534933D01*
X114317748Y-102534934D01*
X114423101Y-102605063D01*
X114423103Y-102605064D01*
X114430574Y-102610037D01*
X114439138Y-102612713D01*
X114439141Y-102612714D01*
X114482890Y-102626382D01*
X114568510Y-102653132D01*
X114712998Y-102655780D01*
X114732530Y-102650455D01*
X114843763Y-102620130D01*
X114843765Y-102620129D01*
X114852422Y-102617769D01*
X114975572Y-102542154D01*
X114990285Y-102525900D01*
X115025043Y-102487500D01*
X115072551Y-102435014D01*
X115135560Y-102304962D01*
X115149881Y-102219843D01*
X115185040Y-102151654D01*
X115454800Y-101881894D01*
X115517112Y-101847868D01*
X115543895Y-101844989D01*
X117288391Y-101844989D01*
X117356512Y-101864991D01*
X117403005Y-101918647D01*
X117413109Y-101988921D01*
X117412560Y-101991378D01*
X117412583Y-101991382D01*
X117406840Y-102028270D01*
X117400925Y-102066257D01*
X117370681Y-102130489D01*
X117358952Y-102140553D01*
X117359513Y-102141170D01*
X117351810Y-102148180D01*
X117343060Y-102153829D01*
X117336613Y-102162007D01*
X117336611Y-102162009D01*
X117322271Y-102180200D01*
X117318325Y-102184641D01*
X117318398Y-102184703D01*
X117315039Y-102188667D01*
X117311362Y-102192344D01*
X117300108Y-102208092D01*
X117296602Y-102212762D01*
X117264844Y-102253047D01*
X117261812Y-102261681D01*
X117256486Y-102269134D01*
X117253501Y-102279115D01*
X117241799Y-102318244D01*
X117239964Y-102323892D01*
X117222982Y-102372251D01*
X117222500Y-102377816D01*
X117222500Y-102380524D01*
X117222386Y-102383158D01*
X117222357Y-102383256D01*
X117222193Y-102383249D01*
X117222149Y-102383953D01*
X117220287Y-102390178D01*
X117220696Y-102400583D01*
X117222403Y-102444035D01*
X117222500Y-102448982D01*
X117222500Y-105864080D01*
X117219951Y-105888028D01*
X117219872Y-105889693D01*
X117217680Y-105899876D01*
X117218904Y-105910217D01*
X117221627Y-105933223D01*
X117221977Y-105939154D01*
X117222072Y-105939146D01*
X117222500Y-105944324D01*
X117222500Y-105949524D01*
X117223354Y-105954653D01*
X117223354Y-105954656D01*
X117225669Y-105968565D01*
X117226506Y-105974443D01*
X117231127Y-106013484D01*
X117232530Y-106025341D01*
X117236493Y-106033593D01*
X117237996Y-106042626D01*
X117242941Y-106051790D01*
X117242941Y-106051791D01*
X117249530Y-106064002D01*
X117263578Y-106107497D01*
X117278089Y-106218464D01*
X117336290Y-106350738D01*
X117342064Y-106357607D01*
X117415643Y-106445139D01*
X117429277Y-106461359D01*
X117436748Y-106466332D01*
X117436749Y-106466333D01*
X117542102Y-106536462D01*
X117542104Y-106536463D01*
X117549575Y-106541436D01*
X117558139Y-106544112D01*
X117558142Y-106544113D01*
X117592868Y-106554962D01*
X117687511Y-106584531D01*
X117831999Y-106587179D01*
X117920530Y-106563043D01*
X117962764Y-106551529D01*
X117962766Y-106551528D01*
X117971423Y-106549168D01*
X118094573Y-106473553D01*
X118191552Y-106366413D01*
X118233438Y-106279960D01*
X118250646Y-106244442D01*
X118250646Y-106244441D01*
X118254561Y-106236361D01*
X118278537Y-106093852D01*
X118278689Y-106081399D01*
X118264682Y-105983595D01*
X118259475Y-105947234D01*
X118259474Y-105947232D01*
X118258202Y-105938347D01*
X118251764Y-105924186D01*
X118244219Y-105907593D01*
X118198389Y-105806794D01*
X118192531Y-105799995D01*
X118192528Y-105799991D01*
X118109917Y-105704117D01*
X118109914Y-105704115D01*
X118104057Y-105697317D01*
X118038966Y-105655127D01*
X117992684Y-105601292D01*
X117981500Y-105549396D01*
X117981500Y-105343773D01*
X121190350Y-105343773D01*
X121191514Y-105352675D01*
X121191514Y-105352678D01*
X121202968Y-105440265D01*
X121209088Y-105487065D01*
X121267289Y-105619339D01*
X121273063Y-105626208D01*
X121354072Y-105722579D01*
X121360276Y-105729960D01*
X121367747Y-105734933D01*
X121367748Y-105734934D01*
X121473101Y-105805063D01*
X121473103Y-105805064D01*
X121480574Y-105810037D01*
X121489138Y-105812713D01*
X121489141Y-105812714D01*
X121549542Y-105831584D01*
X121618510Y-105853132D01*
X121762998Y-105855780D01*
X121788318Y-105848877D01*
X121893763Y-105820130D01*
X121893765Y-105820129D01*
X121902422Y-105817769D01*
X122025572Y-105742154D01*
X122122551Y-105635014D01*
X122169884Y-105537317D01*
X122181645Y-105513043D01*
X122181645Y-105513042D01*
X122185560Y-105504962D01*
X122209536Y-105362453D01*
X122209612Y-105356226D01*
X122209629Y-105354860D01*
X122209629Y-105354856D01*
X122209688Y-105350000D01*
X122196421Y-105257365D01*
X122190474Y-105215835D01*
X122190473Y-105215833D01*
X122189201Y-105206948D01*
X122129388Y-105075395D01*
X122123530Y-105068596D01*
X122123527Y-105068592D01*
X122040916Y-104972718D01*
X122040913Y-104972716D01*
X122035056Y-104965918D01*
X121949190Y-104910262D01*
X121921324Y-104892200D01*
X121921322Y-104892199D01*
X121913790Y-104887317D01*
X121896921Y-104882272D01*
X121783938Y-104848482D01*
X121783936Y-104848482D01*
X121775337Y-104845910D01*
X121766363Y-104845855D01*
X121766361Y-104845855D01*
X121703082Y-104845469D01*
X121630827Y-104845028D01*
X121622196Y-104847495D01*
X121622194Y-104847495D01*
X121500509Y-104882272D01*
X121500505Y-104882274D01*
X121491879Y-104884739D01*
X121484292Y-104889526D01*
X121484290Y-104889527D01*
X121443834Y-104915053D01*
X121369661Y-104961853D01*
X121273999Y-105070170D01*
X121212583Y-105200982D01*
X121211203Y-105209846D01*
X121211202Y-105209849D01*
X121192926Y-105327231D01*
X121190350Y-105343773D01*
X117981500Y-105343773D01*
X117981500Y-103879192D01*
X118001502Y-103811071D01*
X118055158Y-103764578D01*
X118125432Y-103754474D01*
X118190673Y-103784884D01*
X118195276Y-103790360D01*
X118202747Y-103795333D01*
X118202748Y-103795334D01*
X118308101Y-103865463D01*
X118308103Y-103865464D01*
X118315574Y-103870437D01*
X118324138Y-103873113D01*
X118324141Y-103873114D01*
X118369154Y-103887177D01*
X118453510Y-103913532D01*
X118597998Y-103916180D01*
X118621389Y-103909803D01*
X118728763Y-103880530D01*
X118728765Y-103880529D01*
X118737422Y-103878169D01*
X118850848Y-103808525D01*
X118916776Y-103789900D01*
X121157026Y-103789900D01*
X121225147Y-103809902D01*
X121271640Y-103863558D01*
X121281526Y-103935284D01*
X121279312Y-103949501D01*
X121267822Y-104023299D01*
X121265350Y-104039173D01*
X121266514Y-104048075D01*
X121266514Y-104048078D01*
X121282291Y-104168720D01*
X121284088Y-104182465D01*
X121342289Y-104314739D01*
X121348063Y-104321608D01*
X121423767Y-104411668D01*
X121435276Y-104425360D01*
X121442747Y-104430333D01*
X121442748Y-104430334D01*
X121548101Y-104500463D01*
X121548103Y-104500464D01*
X121555574Y-104505437D01*
X121564138Y-104508113D01*
X121564141Y-104508114D01*
X121592984Y-104517125D01*
X121693510Y-104548532D01*
X121837998Y-104551180D01*
X121864899Y-104543846D01*
X121968763Y-104515530D01*
X121968765Y-104515529D01*
X121977422Y-104513169D01*
X122090848Y-104443525D01*
X122156776Y-104424900D01*
X124195880Y-104424900D01*
X124219828Y-104427449D01*
X124221493Y-104427528D01*
X124231676Y-104429720D01*
X124242017Y-104428496D01*
X124265023Y-104425773D01*
X124270954Y-104425423D01*
X124270946Y-104425328D01*
X124276124Y-104424900D01*
X124281324Y-104424900D01*
X124286453Y-104424046D01*
X124286456Y-104424046D01*
X124300365Y-104421731D01*
X124306243Y-104420894D01*
X124346801Y-104416094D01*
X124346802Y-104416094D01*
X124357141Y-104414870D01*
X124365393Y-104410907D01*
X124374426Y-104409404D01*
X124383595Y-104404457D01*
X124383597Y-104404456D01*
X124419532Y-104385066D01*
X124424825Y-104382369D01*
X124463882Y-104363615D01*
X124463886Y-104363612D01*
X124471032Y-104360181D01*
X124475308Y-104356586D01*
X124477231Y-104354663D01*
X124479163Y-104352891D01*
X124479242Y-104352848D01*
X124479355Y-104352972D01*
X124479895Y-104352496D01*
X124485614Y-104349410D01*
X124522217Y-104309813D01*
X124525646Y-104306248D01*
X124951600Y-103880294D01*
X125013912Y-103846268D01*
X125040695Y-103843389D01*
X125356607Y-103843389D01*
X125424728Y-103863391D01*
X125471221Y-103917047D01*
X125481107Y-103988773D01*
X125475731Y-104023299D01*
X125475731Y-104023301D01*
X125474350Y-104032173D01*
X125475514Y-104041075D01*
X125475514Y-104041078D01*
X125487943Y-104136119D01*
X125493088Y-104175465D01*
X125551289Y-104307739D01*
X125557061Y-104314606D01*
X125557065Y-104314612D01*
X125574950Y-104335888D01*
X125603472Y-104400904D01*
X125604500Y-104416964D01*
X125604500Y-105152880D01*
X125601951Y-105176828D01*
X125601872Y-105178493D01*
X125599680Y-105188676D01*
X125600904Y-105199017D01*
X125603627Y-105222023D01*
X125603977Y-105227954D01*
X125604072Y-105227946D01*
X125604500Y-105233124D01*
X125604500Y-105238324D01*
X125605354Y-105243453D01*
X125605354Y-105243456D01*
X125607669Y-105257365D01*
X125608506Y-105263243D01*
X125610573Y-105280704D01*
X125614530Y-105314141D01*
X125618493Y-105322393D01*
X125619996Y-105331426D01*
X125624943Y-105340595D01*
X125624944Y-105340597D01*
X125644334Y-105376532D01*
X125647031Y-105381825D01*
X125665785Y-105420882D01*
X125665788Y-105420886D01*
X125669219Y-105428032D01*
X125672814Y-105432308D01*
X125674737Y-105434231D01*
X125676509Y-105436163D01*
X125676552Y-105436242D01*
X125676428Y-105436355D01*
X125676904Y-105436895D01*
X125679990Y-105442614D01*
X125687635Y-105449681D01*
X125719572Y-105479203D01*
X125723139Y-105482633D01*
X126075596Y-105835091D01*
X126109621Y-105897403D01*
X126112500Y-105924186D01*
X126112500Y-107648774D01*
X126091810Y-107717954D01*
X126087945Y-107723837D01*
X126081999Y-107730570D01*
X126020583Y-107861382D01*
X126019203Y-107870246D01*
X126019202Y-107870249D01*
X126008760Y-107937317D01*
X125998350Y-108004173D01*
X125999514Y-108013075D01*
X125999514Y-108013078D01*
X126010772Y-108099168D01*
X126017088Y-108147465D01*
X126075289Y-108279739D01*
X126168276Y-108390360D01*
X126175747Y-108395333D01*
X126175748Y-108395334D01*
X126281101Y-108465463D01*
X126281103Y-108465464D01*
X126288574Y-108470437D01*
X126297138Y-108473113D01*
X126297141Y-108473114D01*
X126357542Y-108491985D01*
X126426510Y-108513532D01*
X126570998Y-108516180D01*
X126590530Y-108510855D01*
X126701763Y-108480530D01*
X126701765Y-108480529D01*
X126710422Y-108478169D01*
X126833572Y-108402554D01*
X126930551Y-108295414D01*
X126993560Y-108165362D01*
X127017536Y-108022853D01*
X127017688Y-108010400D01*
X127001312Y-107896055D01*
X126998474Y-107876235D01*
X126998473Y-107876233D01*
X126997201Y-107867348D01*
X126937388Y-107735795D01*
X126935646Y-107733773D01*
X129265350Y-107733773D01*
X129266514Y-107742675D01*
X129266514Y-107742678D01*
X129280975Y-107853259D01*
X129284088Y-107877065D01*
X129342289Y-108009339D01*
X129435276Y-108119960D01*
X129442747Y-108124933D01*
X129442748Y-108124934D01*
X129548101Y-108195063D01*
X129548103Y-108195064D01*
X129555574Y-108200037D01*
X129564138Y-108202713D01*
X129564141Y-108202714D01*
X129624542Y-108221584D01*
X129693510Y-108243132D01*
X129837998Y-108245780D01*
X129857530Y-108240455D01*
X129968763Y-108210130D01*
X129968765Y-108210129D01*
X129977422Y-108207769D01*
X130100572Y-108132154D01*
X130197551Y-108025014D01*
X130260560Y-107894962D01*
X130284536Y-107752453D01*
X130284688Y-107740000D01*
X130270723Y-107642488D01*
X130265474Y-107605835D01*
X130265473Y-107605833D01*
X130264201Y-107596948D01*
X130204388Y-107465395D01*
X130198530Y-107458596D01*
X130198527Y-107458592D01*
X130115916Y-107362718D01*
X130115913Y-107362716D01*
X130110056Y-107355918D01*
X129988790Y-107277317D01*
X129971921Y-107272272D01*
X129858938Y-107238482D01*
X129858936Y-107238482D01*
X129850337Y-107235910D01*
X129841363Y-107235855D01*
X129841361Y-107235855D01*
X129778082Y-107235469D01*
X129705827Y-107235028D01*
X129697196Y-107237495D01*
X129697194Y-107237495D01*
X129575509Y-107272272D01*
X129575505Y-107272274D01*
X129566879Y-107274739D01*
X129444661Y-107351853D01*
X129348999Y-107460170D01*
X129287583Y-107590982D01*
X129286203Y-107599846D01*
X129286202Y-107599849D01*
X129278585Y-107648774D01*
X129265350Y-107733773D01*
X126935646Y-107733773D01*
X126931530Y-107728996D01*
X126931527Y-107728992D01*
X126902047Y-107694780D01*
X126872733Y-107630118D01*
X126871500Y-107612532D01*
X126871500Y-105768720D01*
X126874049Y-105744773D01*
X126874128Y-105743107D01*
X126876320Y-105732924D01*
X126875096Y-105722582D01*
X126875096Y-105722579D01*
X126872374Y-105699587D01*
X126872023Y-105693646D01*
X126871928Y-105693654D01*
X126871500Y-105688474D01*
X126871500Y-105683276D01*
X126868329Y-105664224D01*
X126867492Y-105658347D01*
X126862693Y-105617797D01*
X126862692Y-105617795D01*
X126861469Y-105607459D01*
X126857508Y-105599210D01*
X126856004Y-105590174D01*
X126850195Y-105579408D01*
X126831652Y-105545040D01*
X126828957Y-105539751D01*
X126810212Y-105500715D01*
X126806780Y-105493568D01*
X126803186Y-105489292D01*
X126801246Y-105487352D01*
X126799493Y-105485441D01*
X126799444Y-105485351D01*
X126799567Y-105485239D01*
X126799095Y-105484704D01*
X126796010Y-105478986D01*
X126756413Y-105442383D01*
X126752848Y-105438954D01*
X126400405Y-105086511D01*
X126366379Y-105024199D01*
X126363500Y-104997416D01*
X126363500Y-104419532D01*
X126383502Y-104351411D01*
X126396084Y-104334978D01*
X126397175Y-104333773D01*
X126406551Y-104323414D01*
X126410816Y-104314612D01*
X126465645Y-104201443D01*
X126465645Y-104201442D01*
X126469560Y-104193362D01*
X126476473Y-104152271D01*
X126479410Y-104134817D01*
X126510438Y-104070960D01*
X126571064Y-104034013D01*
X126642040Y-104035709D01*
X126681667Y-104056771D01*
X126691008Y-104064135D01*
X126695441Y-104068075D01*
X126695503Y-104068002D01*
X126699467Y-104071361D01*
X126703144Y-104075038D01*
X126718892Y-104086292D01*
X126723562Y-104089798D01*
X126763847Y-104121556D01*
X126772481Y-104124588D01*
X126779934Y-104129914D01*
X126829050Y-104144603D01*
X126834692Y-104146436D01*
X126875399Y-104160731D01*
X126883051Y-104163418D01*
X126888616Y-104163900D01*
X126891324Y-104163900D01*
X126893958Y-104164014D01*
X126894056Y-104164043D01*
X126894049Y-104164207D01*
X126894753Y-104164251D01*
X126900978Y-104166113D01*
X126954835Y-104163997D01*
X126959782Y-104163900D01*
X127377781Y-104163900D01*
X127445902Y-104183902D01*
X127492395Y-104237558D01*
X127503019Y-104301320D01*
X127502300Y-104304933D01*
X127502301Y-105855066D01*
X127504094Y-105864080D01*
X127511214Y-105899876D01*
X127517066Y-105929301D01*
X127523961Y-105939620D01*
X127523962Y-105939622D01*
X127560145Y-105993773D01*
X127573316Y-106013484D01*
X127657499Y-106069734D01*
X127731733Y-106084500D01*
X129006593Y-106084500D01*
X130281866Y-106084499D01*
X130321666Y-106076583D01*
X130343926Y-106072156D01*
X130343928Y-106072155D01*
X130356101Y-106069734D01*
X130366421Y-106062839D01*
X130366422Y-106062838D01*
X130429968Y-106020377D01*
X130440284Y-106013484D01*
X130496534Y-105929301D01*
X130511300Y-105855067D01*
X130511299Y-104304934D01*
X130510591Y-104301375D01*
X130523652Y-104232499D01*
X130572492Y-104180970D01*
X130635818Y-104163900D01*
X130861680Y-104163900D01*
X130885628Y-104166449D01*
X130887293Y-104166528D01*
X130897476Y-104168720D01*
X130907817Y-104167496D01*
X130915692Y-104166564D01*
X130930823Y-104164773D01*
X130936754Y-104164423D01*
X130936746Y-104164328D01*
X130941924Y-104163900D01*
X130947124Y-104163900D01*
X130952253Y-104163046D01*
X130952256Y-104163046D01*
X130966165Y-104160731D01*
X130972043Y-104159894D01*
X131012601Y-104155094D01*
X131012602Y-104155094D01*
X131022941Y-104153870D01*
X131031193Y-104149907D01*
X131040226Y-104148404D01*
X131049395Y-104143457D01*
X131049397Y-104143456D01*
X131085332Y-104124066D01*
X131090625Y-104121369D01*
X131129682Y-104102615D01*
X131129686Y-104102612D01*
X131136832Y-104099181D01*
X131141108Y-104095586D01*
X131143031Y-104093663D01*
X131144963Y-104091891D01*
X131145042Y-104091848D01*
X131145155Y-104091972D01*
X131145695Y-104091496D01*
X131151414Y-104088410D01*
X131188017Y-104048813D01*
X131191446Y-104045248D01*
X131846914Y-103389780D01*
X131909226Y-103355754D01*
X131980041Y-103360819D01*
X132005825Y-103373987D01*
X132053373Y-103405637D01*
X132061937Y-103408313D01*
X132061940Y-103408314D01*
X132122341Y-103427184D01*
X132191309Y-103448732D01*
X132216269Y-103449189D01*
X132284012Y-103470435D01*
X132329515Y-103524932D01*
X132336834Y-103581898D01*
X132339140Y-103581926D01*
X132339030Y-103590902D01*
X132337649Y-103599773D01*
X132338813Y-103608675D01*
X132338813Y-103608678D01*
X132345130Y-103656983D01*
X132356387Y-103743065D01*
X132414588Y-103875339D01*
X132420362Y-103882208D01*
X132446831Y-103913696D01*
X132507575Y-103985960D01*
X132515046Y-103990933D01*
X132515047Y-103990934D01*
X132620400Y-104061063D01*
X132620402Y-104061064D01*
X132627873Y-104066037D01*
X132636437Y-104068713D01*
X132636440Y-104068714D01*
X132692595Y-104086258D01*
X132765809Y-104109132D01*
X132774780Y-104109296D01*
X132774784Y-104109297D01*
X132810691Y-104109955D01*
X132878434Y-104131203D01*
X132923935Y-104185702D01*
X132934372Y-104237470D01*
X132934330Y-104240903D01*
X132932949Y-104249773D01*
X132934113Y-104258674D01*
X132934113Y-104258677D01*
X132945497Y-104345731D01*
X132951687Y-104393065D01*
X133009888Y-104525339D01*
X133015662Y-104532208D01*
X133024524Y-104542750D01*
X133102875Y-104635960D01*
X133110346Y-104640933D01*
X133110347Y-104640934D01*
X133215700Y-104711063D01*
X133215702Y-104711064D01*
X133223173Y-104716037D01*
X133231737Y-104718713D01*
X133231740Y-104718714D01*
X133283033Y-104734739D01*
X133361109Y-104759132D01*
X133505597Y-104761780D01*
X133514259Y-104759419D01*
X133514263Y-104759418D01*
X133609418Y-104733476D01*
X133680401Y-104734856D01*
X133739370Y-104774393D01*
X133767602Y-104839535D01*
X133756133Y-104909600D01*
X133731654Y-104944134D01*
X132817182Y-105858606D01*
X132754870Y-105892632D01*
X132745189Y-105894345D01*
X132739803Y-105895083D01*
X132730827Y-105895028D01*
X132722196Y-105897495D01*
X132722194Y-105897495D01*
X132600509Y-105932272D01*
X132600505Y-105932274D01*
X132591879Y-105934739D01*
X132584292Y-105939526D01*
X132584290Y-105939527D01*
X132514447Y-105983595D01*
X132469661Y-106011853D01*
X132463718Y-106018582D01*
X132463717Y-106018583D01*
X132405543Y-106084453D01*
X132373999Y-106120170D01*
X132312583Y-106250982D01*
X132311203Y-106259846D01*
X132311202Y-106259849D01*
X132291822Y-106384320D01*
X132290350Y-106393773D01*
X132291514Y-106402675D01*
X132291514Y-106402678D01*
X132304651Y-106503132D01*
X132309088Y-106537065D01*
X132367289Y-106669339D01*
X132373063Y-106676208D01*
X132448767Y-106766268D01*
X132460276Y-106779960D01*
X132467747Y-106784933D01*
X132467748Y-106784934D01*
X132573101Y-106855063D01*
X132573103Y-106855064D01*
X132580574Y-106860037D01*
X132589138Y-106862713D01*
X132589141Y-106862714D01*
X132649542Y-106881584D01*
X132718510Y-106903132D01*
X132862998Y-106905780D01*
X132882530Y-106900455D01*
X132993763Y-106870130D01*
X132993765Y-106870129D01*
X133002422Y-106867769D01*
X133125572Y-106792154D01*
X133222551Y-106685014D01*
X133285560Y-106554962D01*
X133294232Y-106503418D01*
X133297356Y-106484851D01*
X133332515Y-106416661D01*
X133782314Y-105966862D01*
X133844626Y-105932836D01*
X133915441Y-105937901D01*
X133972277Y-105980448D01*
X133996345Y-106039619D01*
X134002964Y-106090233D01*
X134009088Y-106137065D01*
X134067289Y-106269339D01*
X134073063Y-106276208D01*
X134148889Y-106366413D01*
X134160276Y-106379960D01*
X134167747Y-106384933D01*
X134167748Y-106384934D01*
X134273101Y-106455063D01*
X134273103Y-106455064D01*
X134280574Y-106460037D01*
X134289138Y-106462713D01*
X134289141Y-106462714D01*
X134323835Y-106473553D01*
X134418510Y-106503132D01*
X134562998Y-106505780D01*
X134582530Y-106500455D01*
X134693763Y-106470130D01*
X134693765Y-106470129D01*
X134702422Y-106467769D01*
X134815848Y-106398125D01*
X134831253Y-106393773D01*
X137290350Y-106393773D01*
X137291514Y-106402675D01*
X137291514Y-106402678D01*
X137304651Y-106503132D01*
X137309088Y-106537065D01*
X137367289Y-106669339D01*
X137373063Y-106676208D01*
X137448767Y-106766268D01*
X137460276Y-106779960D01*
X137467747Y-106784933D01*
X137467748Y-106784934D01*
X137573101Y-106855063D01*
X137573103Y-106855064D01*
X137580574Y-106860037D01*
X137589138Y-106862713D01*
X137589141Y-106862714D01*
X137649542Y-106881584D01*
X137718510Y-106903132D01*
X137862998Y-106905780D01*
X137882530Y-106900455D01*
X137993763Y-106870130D01*
X137993765Y-106870129D01*
X138002422Y-106867769D01*
X138115848Y-106798125D01*
X138181776Y-106779500D01*
X139926080Y-106779500D01*
X139950028Y-106782049D01*
X139951693Y-106782128D01*
X139961876Y-106784320D01*
X139972217Y-106783096D01*
X139995223Y-106780373D01*
X140001154Y-106780023D01*
X140001146Y-106779928D01*
X140006324Y-106779500D01*
X140011524Y-106779500D01*
X140016653Y-106778646D01*
X140016656Y-106778646D01*
X140030565Y-106776331D01*
X140036443Y-106775494D01*
X140077001Y-106770694D01*
X140077002Y-106770694D01*
X140087341Y-106769470D01*
X140095593Y-106765507D01*
X140104626Y-106764004D01*
X140113795Y-106759057D01*
X140113797Y-106759056D01*
X140149732Y-106739666D01*
X140155025Y-106736969D01*
X140194082Y-106718215D01*
X140194086Y-106718212D01*
X140201232Y-106714781D01*
X140205508Y-106711186D01*
X140207431Y-106709263D01*
X140209363Y-106707491D01*
X140209442Y-106707448D01*
X140209555Y-106707572D01*
X140210095Y-106707096D01*
X140215814Y-106704010D01*
X140252417Y-106664413D01*
X140255846Y-106660848D01*
X141022921Y-105893773D01*
X144690350Y-105893773D01*
X144691514Y-105902675D01*
X144691514Y-105902678D01*
X144705791Y-106011853D01*
X144709088Y-106037065D01*
X144767289Y-106169339D01*
X144773063Y-106176208D01*
X144801889Y-106210500D01*
X144860276Y-106279960D01*
X144867747Y-106284933D01*
X144867748Y-106284934D01*
X144973101Y-106355063D01*
X144973103Y-106355064D01*
X144980574Y-106360037D01*
X144989138Y-106362713D01*
X144989141Y-106362714D01*
X145042870Y-106379500D01*
X145118510Y-106403132D01*
X145262998Y-106405780D01*
X145282530Y-106400455D01*
X145393763Y-106370130D01*
X145393765Y-106370129D01*
X145402422Y-106367769D01*
X145525572Y-106292154D01*
X145622551Y-106185014D01*
X145685560Y-106054962D01*
X145709536Y-105912453D01*
X145709688Y-105900000D01*
X145697239Y-105813073D01*
X145690474Y-105765835D01*
X145690473Y-105765833D01*
X145689201Y-105756948D01*
X145629388Y-105625395D01*
X145623530Y-105618596D01*
X145623527Y-105618592D01*
X145540916Y-105522718D01*
X145540913Y-105522716D01*
X145535056Y-105515918D01*
X145450521Y-105461125D01*
X145421324Y-105442200D01*
X145421322Y-105442199D01*
X145413790Y-105437317D01*
X145360709Y-105421442D01*
X145283938Y-105398482D01*
X145283936Y-105398482D01*
X145275337Y-105395910D01*
X145266363Y-105395855D01*
X145266361Y-105395855D01*
X145203082Y-105395469D01*
X145130827Y-105395028D01*
X145122196Y-105397495D01*
X145122194Y-105397495D01*
X145000509Y-105432272D01*
X145000505Y-105432274D01*
X144991879Y-105434739D01*
X144984292Y-105439526D01*
X144984290Y-105439527D01*
X144877254Y-105507062D01*
X144869661Y-105511853D01*
X144863718Y-105518582D01*
X144863717Y-105518583D01*
X144809999Y-105579408D01*
X144773999Y-105620170D01*
X144770185Y-105628293D01*
X144770184Y-105628295D01*
X144754691Y-105661295D01*
X144712583Y-105750982D01*
X144711203Y-105759846D01*
X144711202Y-105759849D01*
X144694393Y-105867809D01*
X144690350Y-105893773D01*
X141022921Y-105893773D01*
X142338822Y-104577872D01*
X142400655Y-104544108D01*
X142404598Y-104544180D01*
X142474310Y-104525174D01*
X142535363Y-104508530D01*
X142535365Y-104508529D01*
X142544022Y-104506169D01*
X142667172Y-104430554D01*
X142685884Y-104409882D01*
X142721100Y-104370976D01*
X142764151Y-104323414D01*
X142803172Y-104242874D01*
X142823245Y-104201443D01*
X142823245Y-104201442D01*
X142827160Y-104193362D01*
X142851136Y-104050853D01*
X142851288Y-104038400D01*
X142840823Y-103965328D01*
X142832074Y-103904235D01*
X142832073Y-103904233D01*
X142830801Y-103895348D01*
X142824092Y-103880591D01*
X142786017Y-103796850D01*
X142770988Y-103763795D01*
X142765130Y-103756996D01*
X142765127Y-103756992D01*
X142682516Y-103661118D01*
X142682513Y-103661116D01*
X142676656Y-103654318D01*
X142580885Y-103592242D01*
X142562924Y-103580600D01*
X142562922Y-103580599D01*
X142555390Y-103575717D01*
X142489081Y-103555886D01*
X142425538Y-103536882D01*
X142425536Y-103536882D01*
X142416937Y-103534310D01*
X142407963Y-103534255D01*
X142407961Y-103534255D01*
X142344682Y-103533869D01*
X142272427Y-103533428D01*
X142263796Y-103535895D01*
X142263794Y-103535895D01*
X142142109Y-103570672D01*
X142142105Y-103570674D01*
X142133479Y-103573139D01*
X142125892Y-103577926D01*
X142125890Y-103577927D01*
X142018854Y-103645462D01*
X142011261Y-103650253D01*
X142005318Y-103656982D01*
X142005317Y-103656983D01*
X141988338Y-103676208D01*
X141915599Y-103758570D01*
X141911785Y-103766693D01*
X141911784Y-103766695D01*
X141892145Y-103808525D01*
X141854183Y-103889382D01*
X141847036Y-103935285D01*
X141842115Y-103966887D01*
X141811870Y-104031119D01*
X141806710Y-104036596D01*
X139859711Y-105983595D01*
X139797399Y-106017621D01*
X139770616Y-106020500D01*
X138179388Y-106020500D01*
X138110856Y-106000232D01*
X138021324Y-105942200D01*
X138021322Y-105942199D01*
X138013790Y-105937317D01*
X137946284Y-105917128D01*
X137883938Y-105898482D01*
X137883936Y-105898482D01*
X137875337Y-105895910D01*
X137866363Y-105895855D01*
X137866361Y-105895855D01*
X137803082Y-105895469D01*
X137730827Y-105895028D01*
X137722196Y-105897495D01*
X137722194Y-105897495D01*
X137600509Y-105932272D01*
X137600505Y-105932274D01*
X137591879Y-105934739D01*
X137584292Y-105939526D01*
X137584290Y-105939527D01*
X137514447Y-105983595D01*
X137469661Y-106011853D01*
X137463718Y-106018582D01*
X137463717Y-106018583D01*
X137405543Y-106084453D01*
X137373999Y-106120170D01*
X137312583Y-106250982D01*
X137311203Y-106259846D01*
X137311202Y-106259849D01*
X137291822Y-106384320D01*
X137290350Y-106393773D01*
X134831253Y-106393773D01*
X134881776Y-106379500D01*
X135046080Y-106379500D01*
X135070028Y-106382049D01*
X135071693Y-106382128D01*
X135081876Y-106384320D01*
X135092217Y-106383096D01*
X135115223Y-106380373D01*
X135121154Y-106380023D01*
X135121146Y-106379928D01*
X135126324Y-106379500D01*
X135131524Y-106379500D01*
X135136653Y-106378646D01*
X135136656Y-106378646D01*
X135150565Y-106376331D01*
X135156443Y-106375494D01*
X135197001Y-106370694D01*
X135197002Y-106370694D01*
X135207341Y-106369470D01*
X135215593Y-106365507D01*
X135224626Y-106364004D01*
X135233795Y-106359057D01*
X135233797Y-106359056D01*
X135269732Y-106339666D01*
X135275025Y-106336969D01*
X135314082Y-106318215D01*
X135314086Y-106318212D01*
X135321232Y-106314781D01*
X135325508Y-106311186D01*
X135327431Y-106309263D01*
X135329363Y-106307491D01*
X135329442Y-106307448D01*
X135329555Y-106307572D01*
X135330095Y-106307096D01*
X135335814Y-106304010D01*
X135372417Y-106264413D01*
X135375846Y-106260848D01*
X136442921Y-105193773D01*
X138290350Y-105193773D01*
X138291514Y-105202675D01*
X138291514Y-105202678D01*
X138299434Y-105263243D01*
X138309088Y-105337065D01*
X138367289Y-105469339D01*
X138373063Y-105476208D01*
X138430923Y-105545040D01*
X138460276Y-105579960D01*
X138467747Y-105584933D01*
X138467748Y-105584934D01*
X138573101Y-105655063D01*
X138573103Y-105655064D01*
X138580574Y-105660037D01*
X138589138Y-105662713D01*
X138589141Y-105662714D01*
X138638546Y-105678149D01*
X138718510Y-105703132D01*
X138862998Y-105705780D01*
X138885714Y-105699587D01*
X138993763Y-105670130D01*
X138993765Y-105670129D01*
X139002422Y-105667769D01*
X139125572Y-105592154D01*
X139222551Y-105485014D01*
X139285560Y-105354962D01*
X139309536Y-105212453D01*
X139309688Y-105200000D01*
X139293435Y-105086511D01*
X139290474Y-105065835D01*
X139290473Y-105065833D01*
X139289201Y-105056948D01*
X139229388Y-104925395D01*
X139223530Y-104918596D01*
X139223527Y-104918592D01*
X139140916Y-104822718D01*
X139140913Y-104822716D01*
X139135056Y-104815918D01*
X139047888Y-104759418D01*
X139021324Y-104742200D01*
X139021322Y-104742199D01*
X139013790Y-104737317D01*
X138996921Y-104732272D01*
X138883938Y-104698482D01*
X138883936Y-104698482D01*
X138875337Y-104695910D01*
X138866363Y-104695855D01*
X138866361Y-104695855D01*
X138803082Y-104695469D01*
X138730827Y-104695028D01*
X138722196Y-104697495D01*
X138722194Y-104697495D01*
X138600509Y-104732272D01*
X138600505Y-104732274D01*
X138591879Y-104734739D01*
X138584292Y-104739526D01*
X138584290Y-104739527D01*
X138531068Y-104773108D01*
X138469661Y-104811853D01*
X138463718Y-104818582D01*
X138463717Y-104818583D01*
X138439583Y-104845910D01*
X138373999Y-104920170D01*
X138312583Y-105050982D01*
X138311203Y-105059846D01*
X138311202Y-105059849D01*
X138295134Y-105163049D01*
X138290350Y-105193773D01*
X136442921Y-105193773D01*
X139555705Y-102080989D01*
X139574453Y-102065847D01*
X139575678Y-102064732D01*
X139584429Y-102059082D01*
X139590876Y-102050904D01*
X139590878Y-102050902D01*
X139605218Y-102032711D01*
X139609164Y-102028270D01*
X139609091Y-102028208D01*
X139612450Y-102024244D01*
X139616127Y-102020567D01*
X139627381Y-102004819D01*
X139630887Y-102000149D01*
X139662645Y-101959864D01*
X139665677Y-101951230D01*
X139671003Y-101943777D01*
X139685692Y-101894661D01*
X139687525Y-101889019D01*
X139701879Y-101848144D01*
X139701879Y-101848143D01*
X139704507Y-101840660D01*
X139704989Y-101835095D01*
X139704989Y-101832387D01*
X139705103Y-101829753D01*
X139705132Y-101829655D01*
X139705296Y-101829662D01*
X139705340Y-101828958D01*
X139707202Y-101822733D01*
X139705086Y-101768876D01*
X139704989Y-101763929D01*
X139704989Y-101083895D01*
X139724991Y-101015774D01*
X139741894Y-100994800D01*
X141761826Y-98974868D01*
X141824138Y-98940842D01*
X141894953Y-98945907D01*
X141951789Y-98988454D01*
X141964762Y-99014824D01*
X141966487Y-99014065D01*
X142024688Y-99146339D01*
X142030462Y-99153208D01*
X142044170Y-99169515D01*
X142117675Y-99256960D01*
X142125146Y-99261933D01*
X142125147Y-99261934D01*
X142230500Y-99332063D01*
X142230502Y-99332064D01*
X142237973Y-99337037D01*
X142246537Y-99339713D01*
X142246540Y-99339714D01*
X142306941Y-99358585D01*
X142375909Y-99380132D01*
X142520397Y-99382780D01*
X142542871Y-99376653D01*
X142651162Y-99347130D01*
X142651164Y-99347129D01*
X142659821Y-99344769D01*
X142782971Y-99269154D01*
X142790774Y-99260534D01*
X142831359Y-99215696D01*
X142879950Y-99162014D01*
X142915600Y-99088431D01*
X142939044Y-99040043D01*
X142939044Y-99040042D01*
X142942959Y-99031962D01*
X142966935Y-98889453D01*
X142967087Y-98877000D01*
X142956746Y-98804796D01*
X142947873Y-98742835D01*
X142947872Y-98742833D01*
X142946600Y-98733948D01*
X142886787Y-98602395D01*
X142880929Y-98595596D01*
X142880926Y-98595592D01*
X142798315Y-98499718D01*
X142798312Y-98499716D01*
X142792455Y-98492918D01*
X142715191Y-98442838D01*
X142678723Y-98419200D01*
X142678721Y-98419199D01*
X142671189Y-98414317D01*
X142619769Y-98398939D01*
X142604981Y-98394516D01*
X142545448Y-98355833D01*
X142516279Y-98291106D01*
X142526735Y-98220883D01*
X142551990Y-98184704D01*
X143620289Y-97116405D01*
X143682601Y-97082379D01*
X143709384Y-97079500D01*
X145292880Y-97079500D01*
X145316828Y-97082049D01*
X145318493Y-97082128D01*
X145328676Y-97084320D01*
X145339017Y-97083096D01*
X145362023Y-97080373D01*
X145367954Y-97080023D01*
X145367946Y-97079928D01*
X145373124Y-97079500D01*
X145378324Y-97079500D01*
X145383453Y-97078646D01*
X145383456Y-97078646D01*
X145397365Y-97076331D01*
X145403243Y-97075494D01*
X145443801Y-97070694D01*
X145443802Y-97070694D01*
X145454141Y-97069470D01*
X145462393Y-97065507D01*
X145471426Y-97064004D01*
X145480595Y-97059057D01*
X145480597Y-97059056D01*
X145516532Y-97039666D01*
X145521825Y-97036969D01*
X145560882Y-97018215D01*
X145560886Y-97018212D01*
X145568032Y-97014781D01*
X145572308Y-97011186D01*
X145574231Y-97009263D01*
X145576163Y-97007491D01*
X145576242Y-97007448D01*
X145576355Y-97007572D01*
X145576895Y-97007096D01*
X145582614Y-97004010D01*
X145619217Y-96964413D01*
X145622646Y-96960848D01*
X146376490Y-96207004D01*
X146438802Y-96172978D01*
X146509617Y-96178043D01*
X146566453Y-96220590D01*
X146591264Y-96287110D01*
X146591284Y-96287776D01*
X146590350Y-96293773D01*
X146591514Y-96302675D01*
X146591514Y-96302678D01*
X146603660Y-96395554D01*
X146609088Y-96437065D01*
X146667289Y-96569339D01*
X146673063Y-96576208D01*
X146691517Y-96598161D01*
X146760276Y-96679960D01*
X146767747Y-96684933D01*
X146767748Y-96684934D01*
X146873101Y-96755063D01*
X146873103Y-96755064D01*
X146880574Y-96760037D01*
X146889138Y-96762713D01*
X146889141Y-96762714D01*
X146933466Y-96776562D01*
X147018510Y-96803132D01*
X147162998Y-96805780D01*
X147242392Y-96784135D01*
X147293763Y-96770130D01*
X147293765Y-96770129D01*
X147302422Y-96767769D01*
X147310068Y-96763074D01*
X147310071Y-96763073D01*
X147328570Y-96751714D01*
X147397087Y-96733115D01*
X147464783Y-96754511D01*
X147510164Y-96809110D01*
X147520500Y-96859088D01*
X147520500Y-98981798D01*
X147517951Y-99005746D01*
X147517872Y-99007411D01*
X147515680Y-99017594D01*
X147516904Y-99027935D01*
X147519627Y-99050941D01*
X147519977Y-99056872D01*
X147520072Y-99056864D01*
X147520500Y-99062042D01*
X147520500Y-99067242D01*
X147521354Y-99072371D01*
X147521354Y-99072374D01*
X147523669Y-99086283D01*
X147524506Y-99092161D01*
X147529173Y-99131590D01*
X147530530Y-99143059D01*
X147534493Y-99151311D01*
X147535996Y-99160344D01*
X147540943Y-99169513D01*
X147540944Y-99169515D01*
X147560334Y-99205450D01*
X147563031Y-99210743D01*
X147581785Y-99249800D01*
X147581788Y-99249804D01*
X147585219Y-99256950D01*
X147588814Y-99261226D01*
X147590737Y-99263149D01*
X147592509Y-99265081D01*
X147592552Y-99265160D01*
X147592428Y-99265273D01*
X147592904Y-99265813D01*
X147595990Y-99271532D01*
X147603635Y-99278599D01*
X147635586Y-99308134D01*
X147639152Y-99311564D01*
X148208684Y-99881096D01*
X148242710Y-99943408D01*
X148245589Y-99970191D01*
X148245589Y-104021505D01*
X148225587Y-104089626D01*
X148171931Y-104136119D01*
X148101657Y-104146223D01*
X148037077Y-104116729D01*
X148030494Y-104110600D01*
X147956455Y-104036561D01*
X147922429Y-103974249D01*
X147920823Y-103965328D01*
X147912074Y-103904235D01*
X147912074Y-103904233D01*
X147910801Y-103895348D01*
X147904092Y-103880591D01*
X147866017Y-103796850D01*
X147850988Y-103763795D01*
X147845130Y-103756996D01*
X147845127Y-103756992D01*
X147762516Y-103661118D01*
X147762513Y-103661116D01*
X147756656Y-103654318D01*
X147660885Y-103592242D01*
X147642924Y-103580600D01*
X147642922Y-103580599D01*
X147635390Y-103575717D01*
X147569081Y-103555886D01*
X147505538Y-103536882D01*
X147505536Y-103536882D01*
X147496937Y-103534310D01*
X147487963Y-103534255D01*
X147487961Y-103534255D01*
X147424682Y-103533869D01*
X147352427Y-103533428D01*
X147343796Y-103535895D01*
X147343794Y-103535895D01*
X147222109Y-103570672D01*
X147222105Y-103570674D01*
X147213479Y-103573139D01*
X147205892Y-103577926D01*
X147205890Y-103577927D01*
X147098854Y-103645462D01*
X147091261Y-103650253D01*
X147085318Y-103656982D01*
X147085317Y-103656983D01*
X147068338Y-103676208D01*
X146995599Y-103758570D01*
X146991785Y-103766693D01*
X146991784Y-103766695D01*
X146972145Y-103808525D01*
X146934183Y-103889382D01*
X146932803Y-103898246D01*
X146932802Y-103898249D01*
X146913332Y-104023299D01*
X146911950Y-104032173D01*
X146913114Y-104041075D01*
X146913114Y-104041078D01*
X146925543Y-104136119D01*
X146930688Y-104175465D01*
X146988889Y-104307739D01*
X146994663Y-104314608D01*
X147072946Y-104407736D01*
X147081876Y-104418360D01*
X147089347Y-104423333D01*
X147089348Y-104423334D01*
X147194701Y-104493463D01*
X147194703Y-104493464D01*
X147202174Y-104498437D01*
X147210738Y-104501113D01*
X147210741Y-104501114D01*
X147331544Y-104538856D01*
X147331546Y-104538856D01*
X147340110Y-104541532D01*
X147349084Y-104541697D01*
X147355589Y-104542750D01*
X147424540Y-104578034D01*
X147429651Y-104583145D01*
X147463677Y-104645457D01*
X147458612Y-104716272D01*
X147416065Y-104773108D01*
X147355891Y-104795552D01*
X147356098Y-104797064D01*
X147347201Y-104798283D01*
X147338226Y-104798228D01*
X147329595Y-104800695D01*
X147329593Y-104800695D01*
X147207908Y-104835472D01*
X147207904Y-104835474D01*
X147199278Y-104837939D01*
X147191691Y-104842726D01*
X147191689Y-104842727D01*
X147085702Y-104909600D01*
X147077060Y-104915053D01*
X147071117Y-104921782D01*
X147071116Y-104921783D01*
X147039959Y-104957062D01*
X146981398Y-105023370D01*
X146919982Y-105154182D01*
X146918602Y-105163046D01*
X146918601Y-105163049D01*
X146903001Y-105263243D01*
X146897749Y-105296973D01*
X146898913Y-105305875D01*
X146898913Y-105305878D01*
X146914887Y-105428032D01*
X146916487Y-105440265D01*
X146974688Y-105572539D01*
X146980462Y-105579408D01*
X147044112Y-105655128D01*
X147067675Y-105683160D01*
X147075146Y-105688133D01*
X147075147Y-105688134D01*
X147180500Y-105758263D01*
X147180502Y-105758264D01*
X147187973Y-105763237D01*
X147196537Y-105765913D01*
X147196540Y-105765914D01*
X147256941Y-105784784D01*
X147325909Y-105806332D01*
X147470397Y-105808980D01*
X147470370Y-105810445D01*
X147530901Y-105820314D01*
X147583672Y-105867809D01*
X147602410Y-105933922D01*
X147602410Y-108527432D01*
X147582408Y-108595553D01*
X147568813Y-108611104D01*
X147569661Y-108611853D01*
X147473999Y-108720170D01*
X147412583Y-108850982D01*
X147411203Y-108859846D01*
X147411202Y-108859849D01*
X147393283Y-108974937D01*
X147390350Y-108993773D01*
X147391514Y-109002675D01*
X147391514Y-109002678D01*
X147394442Y-109025067D01*
X147409088Y-109137065D01*
X147467289Y-109269339D01*
X147560276Y-109379960D01*
X147567747Y-109384933D01*
X147567748Y-109384934D01*
X147673101Y-109455063D01*
X147673103Y-109455064D01*
X147680574Y-109460037D01*
X147689138Y-109462713D01*
X147689141Y-109462714D01*
X147749542Y-109481584D01*
X147818510Y-109503132D01*
X147962998Y-109505780D01*
X147982530Y-109500455D01*
X148093763Y-109470130D01*
X148093765Y-109470129D01*
X148102422Y-109467769D01*
X148225572Y-109392154D01*
X148322551Y-109285014D01*
X148385560Y-109154962D01*
X148409536Y-109012453D01*
X148409688Y-109000000D01*
X148399347Y-108927796D01*
X148390474Y-108865835D01*
X148390473Y-108865833D01*
X148389201Y-108856948D01*
X148385485Y-108848774D01*
X148372709Y-108820674D01*
X148361410Y-108768524D01*
X148361410Y-108402294D01*
X148381412Y-108334173D01*
X148435068Y-108287680D01*
X148505342Y-108277576D01*
X148569922Y-108307070D01*
X148576505Y-108313199D01*
X148665068Y-108401762D01*
X148699094Y-108464074D01*
X148700908Y-108474515D01*
X148709088Y-108537065D01*
X148767289Y-108669339D01*
X148860276Y-108779960D01*
X148867747Y-108784933D01*
X148867748Y-108784934D01*
X148973101Y-108855063D01*
X148973103Y-108855064D01*
X148980574Y-108860037D01*
X148989138Y-108862713D01*
X148989141Y-108862714D01*
X149049542Y-108881584D01*
X149118510Y-108903132D01*
X149262998Y-108905780D01*
X149282530Y-108900455D01*
X149393763Y-108870130D01*
X149393765Y-108870129D01*
X149402422Y-108867769D01*
X149525572Y-108792154D01*
X149622551Y-108685014D01*
X149685560Y-108554962D01*
X149709536Y-108412453D01*
X149709688Y-108400000D01*
X149689201Y-108256948D01*
X149629388Y-108125395D01*
X149623530Y-108118596D01*
X149623527Y-108118592D01*
X149540916Y-108022718D01*
X149540913Y-108022716D01*
X149535056Y-108015918D01*
X149413790Y-107937317D01*
X149405190Y-107934745D01*
X149283938Y-107898482D01*
X149283936Y-107898482D01*
X149275337Y-107895910D01*
X149267279Y-107895861D01*
X149203282Y-107866203D01*
X149197228Y-107860534D01*
X149041494Y-107704800D01*
X149007468Y-107642488D01*
X149004589Y-107615705D01*
X149004589Y-100407670D01*
X149024591Y-100339549D01*
X149078247Y-100293056D01*
X149148521Y-100282952D01*
X149168163Y-100287403D01*
X149209940Y-100300455D01*
X149209943Y-100300456D01*
X149218510Y-100303132D01*
X149362998Y-100305780D01*
X149383957Y-100300066D01*
X149493763Y-100270130D01*
X149493765Y-100270129D01*
X149502422Y-100267769D01*
X149625572Y-100192154D01*
X149722551Y-100085014D01*
X149785560Y-99954962D01*
X149809536Y-99812453D01*
X149809688Y-99800000D01*
X149799155Y-99726451D01*
X149790474Y-99665835D01*
X149790473Y-99665833D01*
X149789201Y-99656948D01*
X149729388Y-99525395D01*
X149723530Y-99518596D01*
X149723527Y-99518592D01*
X149640916Y-99422718D01*
X149640913Y-99422716D01*
X149635056Y-99415918D01*
X149513790Y-99337317D01*
X149496222Y-99332063D01*
X149383938Y-99298482D01*
X149383936Y-99298482D01*
X149375337Y-99295910D01*
X149367279Y-99295861D01*
X149303282Y-99266203D01*
X149297228Y-99260534D01*
X148816405Y-98779711D01*
X148782379Y-98717399D01*
X148779500Y-98690616D01*
X148779500Y-94161426D01*
X148799502Y-94093305D01*
X148853158Y-94046812D01*
X148923432Y-94036708D01*
X148964438Y-94052380D01*
X148965001Y-94051199D01*
X148973102Y-94055063D01*
X148980574Y-94060037D01*
X148989138Y-94062713D01*
X148989141Y-94062714D01*
X149014700Y-94070699D01*
X149118510Y-94103132D01*
X149262998Y-94105780D01*
X149282530Y-94100455D01*
X149393763Y-94070130D01*
X149393765Y-94070129D01*
X149402422Y-94067769D01*
X149525572Y-93992154D01*
X149622551Y-93885014D01*
X149685560Y-93754962D01*
X149709536Y-93612453D01*
X149709688Y-93600000D01*
X149695937Y-93503983D01*
X149690474Y-93465835D01*
X149690473Y-93465833D01*
X149689201Y-93456948D01*
X149629388Y-93325395D01*
X149610047Y-93302948D01*
X149580733Y-93238287D01*
X149579500Y-93220701D01*
X149579500Y-88553920D01*
X149582049Y-88529972D01*
X149582128Y-88528307D01*
X149584320Y-88518124D01*
X149580373Y-88484777D01*
X149580023Y-88478846D01*
X149579928Y-88478854D01*
X149579500Y-88473676D01*
X149579500Y-88468476D01*
X149578646Y-88463344D01*
X149576331Y-88449435D01*
X149575494Y-88443557D01*
X149570694Y-88402999D01*
X149570694Y-88402998D01*
X149569470Y-88392659D01*
X149565507Y-88384407D01*
X149564004Y-88375374D01*
X149553790Y-88356443D01*
X149539666Y-88330268D01*
X149536969Y-88324975D01*
X149518215Y-88285918D01*
X149518212Y-88285914D01*
X149514781Y-88278768D01*
X149511186Y-88274492D01*
X149509263Y-88272569D01*
X149507491Y-88270637D01*
X149507448Y-88270558D01*
X149507572Y-88270445D01*
X149507096Y-88269905D01*
X149504010Y-88264186D01*
X149464413Y-88227583D01*
X149460848Y-88224154D01*
X148406478Y-87169784D01*
X148391336Y-87151036D01*
X148390221Y-87149811D01*
X148384571Y-87141060D01*
X148376393Y-87134613D01*
X148376391Y-87134611D01*
X148358200Y-87120271D01*
X148353759Y-87116325D01*
X148353697Y-87116398D01*
X148349733Y-87113039D01*
X148346056Y-87109362D01*
X148330308Y-87098108D01*
X148325638Y-87094602D01*
X148285353Y-87062844D01*
X148276719Y-87059812D01*
X148269266Y-87054486D01*
X148220150Y-87039797D01*
X148214508Y-87037964D01*
X148173633Y-87023610D01*
X148173632Y-87023610D01*
X148166149Y-87020982D01*
X148160584Y-87020500D01*
X148157876Y-87020500D01*
X148155242Y-87020386D01*
X148155144Y-87020357D01*
X148155151Y-87020193D01*
X148154447Y-87020149D01*
X148148222Y-87018287D01*
X148094365Y-87020403D01*
X148089418Y-87020500D01*
X147347508Y-87020500D01*
X147279387Y-87000498D01*
X147232894Y-86946842D01*
X147222790Y-86876568D01*
X147252284Y-86811988D01*
X147271855Y-86793740D01*
X147558918Y-86578207D01*
X147564145Y-86573821D01*
X147576988Y-86561803D01*
X147585057Y-86548123D01*
X147585029Y-86547398D01*
X147579887Y-86539097D01*
X145041922Y-84001132D01*
X145764408Y-84001132D01*
X145764539Y-84002965D01*
X145768790Y-84009580D01*
X147934463Y-86175253D01*
X147948060Y-86182678D01*
X147957669Y-86175981D01*
X148062197Y-86054457D01*
X148066346Y-86049069D01*
X148268503Y-85754929D01*
X148272050Y-85749118D01*
X148441250Y-85434879D01*
X148444157Y-85428701D01*
X148578435Y-85098016D01*
X148580649Y-85091586D01*
X148678427Y-84748331D01*
X148679934Y-84741701D01*
X148740073Y-84389873D01*
X148740853Y-84383133D01*
X148762740Y-84025275D01*
X148762856Y-84021673D01*
X148762926Y-84001820D01*
X148762834Y-83998193D01*
X148743446Y-83640208D01*
X148742711Y-83633442D01*
X148685034Y-83281233D01*
X148683567Y-83274561D01*
X148588194Y-82930655D01*
X148586020Y-82924192D01*
X148454053Y-82592575D01*
X148451197Y-82586395D01*
X148284194Y-82270981D01*
X148280682Y-82265137D01*
X148080588Y-81969598D01*
X148076467Y-81964170D01*
X147959041Y-81825704D01*
X147946215Y-81817267D01*
X147935890Y-81823320D01*
X145772022Y-83987188D01*
X145764408Y-84001132D01*
X145041922Y-84001132D01*
X142865527Y-81824737D01*
X142851990Y-81817345D01*
X142842289Y-81824132D01*
X142730649Y-81954847D01*
X142726515Y-81960255D01*
X142525394Y-82255086D01*
X142521859Y-82260923D01*
X142353754Y-82575757D01*
X142350878Y-82581926D01*
X142217754Y-82913081D01*
X142215561Y-82919521D01*
X142118979Y-83263121D01*
X142117496Y-83269756D01*
X142058589Y-83621773D01*
X142057830Y-83628545D01*
X142037284Y-83984862D01*
X142037260Y-83991657D01*
X142055318Y-84348127D01*
X142056028Y-84354883D01*
X142112478Y-84707305D01*
X142113917Y-84713960D01*
X142162983Y-84893317D01*
X142161665Y-84964302D01*
X142122179Y-85023305D01*
X142057062Y-85051594D01*
X141986988Y-85040187D01*
X141952354Y-85015660D01*
X140906478Y-83969784D01*
X140891336Y-83951036D01*
X140890221Y-83949811D01*
X140884571Y-83941060D01*
X140876393Y-83934613D01*
X140876391Y-83934611D01*
X140858200Y-83920271D01*
X140853759Y-83916325D01*
X140853697Y-83916398D01*
X140849733Y-83913039D01*
X140846056Y-83909362D01*
X140830308Y-83898108D01*
X140825638Y-83894602D01*
X140785353Y-83862844D01*
X140776719Y-83859812D01*
X140769266Y-83854486D01*
X140720150Y-83839797D01*
X140714508Y-83837964D01*
X140673633Y-83823610D01*
X140673632Y-83823610D01*
X140666149Y-83820982D01*
X140660584Y-83820500D01*
X140657876Y-83820500D01*
X140655242Y-83820386D01*
X140655144Y-83820357D01*
X140655151Y-83820193D01*
X140654447Y-83820149D01*
X140648222Y-83818287D01*
X140594365Y-83820403D01*
X140589418Y-83820500D01*
X140209384Y-83820500D01*
X140141263Y-83800498D01*
X140120289Y-83783595D01*
X139813853Y-83477159D01*
X139779827Y-83414847D01*
X139784892Y-83344032D01*
X139827439Y-83287196D01*
X139893959Y-83262385D01*
X139932362Y-83265545D01*
X139978940Y-83276728D01*
X139988687Y-83278271D01*
X140235070Y-83297662D01*
X140244930Y-83297662D01*
X140491313Y-83278271D01*
X140501060Y-83276728D01*
X140741373Y-83219033D01*
X140750758Y-83215984D01*
X140979085Y-83121408D01*
X140987879Y-83116927D01*
X141193928Y-82990660D01*
X141199190Y-82982599D01*
X141193183Y-82972393D01*
X139881922Y-81661132D01*
X140604408Y-81661132D01*
X140604539Y-81662965D01*
X140608790Y-81669580D01*
X141550934Y-82611724D01*
X141564471Y-82619116D01*
X141569740Y-82615430D01*
X141696927Y-82407879D01*
X141701408Y-82399085D01*
X141795984Y-82170758D01*
X141799033Y-82161373D01*
X141856728Y-81921060D01*
X141858271Y-81911313D01*
X141877662Y-81664930D01*
X141877662Y-81655070D01*
X141861640Y-81451492D01*
X143214580Y-81451492D01*
X143214615Y-81452333D01*
X143219667Y-81460457D01*
X145387188Y-83627978D01*
X145401132Y-83635592D01*
X145402965Y-83635461D01*
X145409580Y-83631210D01*
X147578166Y-81462624D01*
X147585780Y-81448680D01*
X147585712Y-81447723D01*
X147580771Y-81440251D01*
X147576870Y-81436931D01*
X147292958Y-81220649D01*
X147287332Y-81216825D01*
X146981722Y-81032469D01*
X146975710Y-81029272D01*
X146651966Y-80878995D01*
X146645666Y-80876475D01*
X146307595Y-80762045D01*
X146301017Y-80760209D01*
X145952592Y-80682965D01*
X145945857Y-80681850D01*
X145591106Y-80642685D01*
X145584324Y-80642306D01*
X145227395Y-80641683D01*
X145220622Y-80642038D01*
X144865714Y-80679966D01*
X144859005Y-80681053D01*
X144510289Y-80757086D01*
X144503714Y-80758897D01*
X144165250Y-80872145D01*
X144158928Y-80874648D01*
X143834680Y-81023785D01*
X143828637Y-81026971D01*
X143522404Y-81210248D01*
X143516744Y-81214066D01*
X143232094Y-81429346D01*
X143226891Y-81433742D01*
X143222601Y-81437785D01*
X143214580Y-81451492D01*
X141861640Y-81451492D01*
X141858271Y-81408687D01*
X141856728Y-81398940D01*
X141799033Y-81158627D01*
X141795984Y-81149242D01*
X141701408Y-80920915D01*
X141696927Y-80912121D01*
X141570660Y-80706072D01*
X141562599Y-80700810D01*
X141552393Y-80706817D01*
X140612022Y-81647188D01*
X140604408Y-81661132D01*
X139881922Y-81661132D01*
X138929066Y-80708276D01*
X138915529Y-80700884D01*
X138910260Y-80704570D01*
X138783073Y-80912121D01*
X138778592Y-80920915D01*
X138684016Y-81149242D01*
X138680967Y-81158627D01*
X138623272Y-81398940D01*
X138621729Y-81408687D01*
X138602338Y-81655070D01*
X138602338Y-81664930D01*
X138621729Y-81911313D01*
X138623272Y-81921060D01*
X138681837Y-82164997D01*
X138678290Y-82235905D01*
X138636970Y-82293639D01*
X138570997Y-82319869D01*
X138552494Y-82319565D01*
X138548222Y-82318287D01*
X138502790Y-82320072D01*
X138494365Y-82320403D01*
X138489418Y-82320500D01*
X136953925Y-82320500D01*
X136929967Y-82317950D01*
X136928308Y-82317872D01*
X136918124Y-82315679D01*
X136907782Y-82316903D01*
X136907779Y-82316903D01*
X136884779Y-82319626D01*
X136878848Y-82319976D01*
X136878856Y-82320072D01*
X136873679Y-82320500D01*
X136868476Y-82320500D01*
X136860450Y-82321836D01*
X136859263Y-82321692D01*
X136858170Y-82321782D01*
X136858151Y-82321557D01*
X136789973Y-82313291D01*
X136735301Y-82267997D01*
X136713795Y-82200336D01*
X136718788Y-82166403D01*
X136717878Y-82166185D01*
X136776728Y-81921060D01*
X136778271Y-81911313D01*
X136797662Y-81664930D01*
X136797662Y-81655070D01*
X136778271Y-81408687D01*
X136776728Y-81398940D01*
X136719033Y-81158627D01*
X136715984Y-81149242D01*
X136621408Y-80920915D01*
X136616927Y-80912121D01*
X136490660Y-80706072D01*
X136482599Y-80700810D01*
X136472393Y-80706817D01*
X134208276Y-82970934D01*
X134200884Y-82984471D01*
X134204570Y-82989740D01*
X134363394Y-83087067D01*
X134411025Y-83139715D01*
X134422632Y-83209756D01*
X134394529Y-83274954D01*
X134335639Y-83314608D01*
X134297559Y-83320500D01*
X132502441Y-83320500D01*
X132434320Y-83300498D01*
X132387827Y-83246842D01*
X132377723Y-83176568D01*
X132407217Y-83111988D01*
X132436606Y-83087067D01*
X132593928Y-82990660D01*
X132599190Y-82982599D01*
X132593183Y-82972393D01*
X131281922Y-81661132D01*
X132004408Y-81661132D01*
X132004539Y-81662965D01*
X132008790Y-81669580D01*
X132950934Y-82611724D01*
X132964471Y-82619116D01*
X132969740Y-82615430D01*
X133096927Y-82407879D01*
X133101408Y-82399085D01*
X133195984Y-82170758D01*
X133199033Y-82161373D01*
X133256728Y-81921060D01*
X133258271Y-81911313D01*
X133274388Y-81706530D01*
X133291729Y-81661033D01*
X133507484Y-81661033D01*
X133523309Y-81690512D01*
X133525612Y-81706530D01*
X133541729Y-81911313D01*
X133543272Y-81921060D01*
X133600967Y-82161373D01*
X133604016Y-82170758D01*
X133698592Y-82399085D01*
X133703073Y-82407879D01*
X133829340Y-82613928D01*
X133837401Y-82619190D01*
X133847607Y-82613183D01*
X134787978Y-81672812D01*
X134795592Y-81658868D01*
X134795461Y-81657035D01*
X134791210Y-81650420D01*
X133849066Y-80708276D01*
X133835529Y-80700884D01*
X133830260Y-80704570D01*
X133703073Y-80912121D01*
X133698592Y-80920915D01*
X133604016Y-81149242D01*
X133600967Y-81158627D01*
X133543272Y-81398940D01*
X133541729Y-81408687D01*
X133525612Y-81613470D01*
X133507484Y-81661033D01*
X133291729Y-81661033D01*
X133292516Y-81658967D01*
X133276691Y-81629488D01*
X133274388Y-81613470D01*
X133258271Y-81408687D01*
X133256728Y-81398940D01*
X133199033Y-81158627D01*
X133195984Y-81149242D01*
X133101408Y-80920915D01*
X133096927Y-80912121D01*
X132970660Y-80706072D01*
X132962599Y-80700810D01*
X132952393Y-80706817D01*
X132012022Y-81647188D01*
X132004408Y-81661132D01*
X131281922Y-81661132D01*
X130329066Y-80708276D01*
X130315529Y-80700884D01*
X130310260Y-80704570D01*
X130183073Y-80912121D01*
X130178592Y-80920915D01*
X130084016Y-81149242D01*
X130080967Y-81158627D01*
X130023272Y-81398940D01*
X130021729Y-81408687D01*
X130002338Y-81655070D01*
X130002338Y-81664930D01*
X130021729Y-81911313D01*
X130023272Y-81921060D01*
X130081858Y-82165086D01*
X130078311Y-82235994D01*
X130036991Y-82293728D01*
X129971018Y-82319958D01*
X129959339Y-82320500D01*
X128353920Y-82320500D01*
X128329973Y-82317951D01*
X128328307Y-82317872D01*
X128318124Y-82315680D01*
X128307782Y-82316904D01*
X128307779Y-82316904D01*
X128284787Y-82319626D01*
X128278846Y-82319977D01*
X128278854Y-82320072D01*
X128273675Y-82320500D01*
X128268476Y-82320500D01*
X128263350Y-82321353D01*
X128263341Y-82321354D01*
X128260452Y-82321835D01*
X128259265Y-82321691D01*
X128258164Y-82321782D01*
X128258145Y-82321555D01*
X128189971Y-82313289D01*
X128135300Y-82267994D01*
X128113796Y-82200333D01*
X128118784Y-82166402D01*
X128117878Y-82166185D01*
X128176728Y-81921060D01*
X128178271Y-81911313D01*
X128197662Y-81664930D01*
X128197662Y-81655070D01*
X128178271Y-81408687D01*
X128176728Y-81398940D01*
X128119033Y-81158627D01*
X128115984Y-81149242D01*
X128021408Y-80920915D01*
X128016927Y-80912121D01*
X127890660Y-80706072D01*
X127882599Y-80700810D01*
X127872393Y-80706817D01*
X125608276Y-82970934D01*
X125600884Y-82984471D01*
X125604570Y-82989740D01*
X125812121Y-83116927D01*
X125820915Y-83121408D01*
X126049242Y-83215984D01*
X126058627Y-83219033D01*
X126298940Y-83276728D01*
X126308687Y-83278271D01*
X126555070Y-83297662D01*
X126564930Y-83297662D01*
X126811313Y-83278271D01*
X126821060Y-83276728D01*
X126867638Y-83265545D01*
X126938546Y-83269092D01*
X126996280Y-83310412D01*
X127022510Y-83376385D01*
X127008908Y-83446067D01*
X126986147Y-83477159D01*
X126679711Y-83783595D01*
X126617399Y-83817621D01*
X126590616Y-83820500D01*
X121815079Y-83820500D01*
X121746958Y-83800498D01*
X121700884Y-83747750D01*
X121614635Y-83562788D01*
X121614633Y-83562785D01*
X121612312Y-83557807D01*
X121483898Y-83374412D01*
X121325588Y-83216102D01*
X121321080Y-83212945D01*
X121321077Y-83212943D01*
X121146703Y-83090845D01*
X121146700Y-83090843D01*
X121142194Y-83087688D01*
X121137212Y-83085365D01*
X121137207Y-83085362D01*
X120944268Y-82995394D01*
X120944267Y-82995394D01*
X120939286Y-82993071D01*
X120933978Y-82991649D01*
X120933976Y-82991648D01*
X120907191Y-82984471D01*
X122080884Y-82984471D01*
X122084570Y-82989740D01*
X122292121Y-83116927D01*
X122300915Y-83121408D01*
X122529242Y-83215984D01*
X122538627Y-83219033D01*
X122778940Y-83276728D01*
X122788687Y-83278271D01*
X123035070Y-83297662D01*
X123044930Y-83297662D01*
X123291313Y-83278271D01*
X123301060Y-83276728D01*
X123541373Y-83219033D01*
X123550758Y-83215984D01*
X123779085Y-83121408D01*
X123787879Y-83116927D01*
X123993928Y-82990660D01*
X123999190Y-82982599D01*
X123993183Y-82972393D01*
X123052812Y-82032022D01*
X123038868Y-82024408D01*
X123037035Y-82024539D01*
X123030420Y-82028790D01*
X122088276Y-82970934D01*
X122080884Y-82984471D01*
X120907191Y-82984471D01*
X120728346Y-82936550D01*
X120728344Y-82936550D01*
X120723031Y-82935126D01*
X120500000Y-82915613D01*
X120276969Y-82935126D01*
X120271656Y-82936550D01*
X120271654Y-82936550D01*
X120066024Y-82991648D01*
X120066022Y-82991649D01*
X120060714Y-82993071D01*
X120055733Y-82995393D01*
X120055732Y-82995394D01*
X119862788Y-83085365D01*
X119862785Y-83085367D01*
X119857807Y-83087688D01*
X119674412Y-83216102D01*
X119516102Y-83374412D01*
X119387688Y-83557807D01*
X119385367Y-83562785D01*
X119385365Y-83562788D01*
X119352419Y-83633442D01*
X119293071Y-83760714D01*
X119291649Y-83766022D01*
X119291648Y-83766024D01*
X119238972Y-83962615D01*
X119235126Y-83976969D01*
X119215613Y-84200000D01*
X119235126Y-84423031D01*
X119236550Y-84428344D01*
X119236550Y-84428346D01*
X119277192Y-84580023D01*
X119293071Y-84639286D01*
X119387688Y-84842193D01*
X119516102Y-85025588D01*
X119674412Y-85183898D01*
X119678920Y-85187055D01*
X119678923Y-85187057D01*
X119809649Y-85278592D01*
X119857806Y-85312312D01*
X119862788Y-85314635D01*
X119862793Y-85314638D01*
X120047750Y-85400884D01*
X120060714Y-85406929D01*
X120066022Y-85408351D01*
X120066024Y-85408352D01*
X120271654Y-85463450D01*
X120271656Y-85463450D01*
X120276969Y-85464874D01*
X120500000Y-85484387D01*
X120723031Y-85464874D01*
X120728344Y-85463450D01*
X120728346Y-85463450D01*
X120900204Y-85417401D01*
X122080810Y-85417401D01*
X122086817Y-85427607D01*
X123027188Y-86367978D01*
X123041132Y-86375592D01*
X123042965Y-86375461D01*
X123049580Y-86371210D01*
X123991724Y-85429066D01*
X123998094Y-85417401D01*
X125600810Y-85417401D01*
X125606817Y-85427607D01*
X126547188Y-86367978D01*
X126561132Y-86375592D01*
X126562965Y-86375461D01*
X126569580Y-86371210D01*
X127511724Y-85429066D01*
X127519116Y-85415529D01*
X127515430Y-85410260D01*
X127307879Y-85283073D01*
X127299085Y-85278592D01*
X127070758Y-85184016D01*
X127061373Y-85180967D01*
X126821060Y-85123272D01*
X126811313Y-85121729D01*
X126564930Y-85102338D01*
X126555070Y-85102338D01*
X126308687Y-85121729D01*
X126298940Y-85123272D01*
X126058627Y-85180967D01*
X126049242Y-85184016D01*
X125820915Y-85278592D01*
X125812121Y-85283073D01*
X125606072Y-85409340D01*
X125600810Y-85417401D01*
X123998094Y-85417401D01*
X123999116Y-85415529D01*
X123995430Y-85410260D01*
X123787879Y-85283073D01*
X123779085Y-85278592D01*
X123550758Y-85184016D01*
X123541373Y-85180967D01*
X123301060Y-85123272D01*
X123291313Y-85121729D01*
X123044930Y-85102338D01*
X123035070Y-85102338D01*
X122788687Y-85121729D01*
X122778940Y-85123272D01*
X122538627Y-85180967D01*
X122529242Y-85184016D01*
X122300915Y-85278592D01*
X122292121Y-85283073D01*
X122086072Y-85409340D01*
X122080810Y-85417401D01*
X120900204Y-85417401D01*
X120933976Y-85408352D01*
X120933978Y-85408351D01*
X120939286Y-85406929D01*
X120952250Y-85400884D01*
X121137207Y-85314638D01*
X121137212Y-85314635D01*
X121142194Y-85312312D01*
X121190351Y-85278592D01*
X121321077Y-85187057D01*
X121321080Y-85187055D01*
X121325588Y-85183898D01*
X121483898Y-85025588D01*
X121612312Y-84842193D01*
X121700884Y-84652250D01*
X121747801Y-84598965D01*
X121815079Y-84579500D01*
X126746080Y-84579500D01*
X126770028Y-84582049D01*
X126771693Y-84582128D01*
X126781876Y-84584320D01*
X126792217Y-84583096D01*
X126815223Y-84580373D01*
X126821154Y-84580023D01*
X126821146Y-84579928D01*
X126826324Y-84579500D01*
X126831524Y-84579500D01*
X126836653Y-84578646D01*
X126836656Y-84578646D01*
X126850565Y-84576331D01*
X126856443Y-84575494D01*
X126897001Y-84570694D01*
X126897002Y-84570694D01*
X126907341Y-84569470D01*
X126915593Y-84565507D01*
X126924626Y-84564004D01*
X126933795Y-84559057D01*
X126933797Y-84559056D01*
X126969732Y-84539666D01*
X126975025Y-84536969D01*
X127014082Y-84518215D01*
X127014086Y-84518212D01*
X127021232Y-84514781D01*
X127025508Y-84511186D01*
X127027431Y-84509263D01*
X127029363Y-84507491D01*
X127029442Y-84507448D01*
X127029555Y-84507572D01*
X127030095Y-84507096D01*
X127035814Y-84504010D01*
X127072417Y-84464413D01*
X127075846Y-84460848D01*
X127616743Y-83919951D01*
X127679055Y-83885925D01*
X127749870Y-83890990D01*
X127806706Y-83933537D01*
X127831517Y-84000057D01*
X127831359Y-84020025D01*
X127815613Y-84200000D01*
X127835126Y-84423031D01*
X127836550Y-84428344D01*
X127836550Y-84428346D01*
X127877192Y-84580023D01*
X127893071Y-84639286D01*
X127987688Y-84842193D01*
X128116102Y-85025588D01*
X128274412Y-85183898D01*
X128278920Y-85187055D01*
X128278923Y-85187057D01*
X128409649Y-85278592D01*
X128457806Y-85312312D01*
X128462788Y-85314635D01*
X128462793Y-85314638D01*
X128647750Y-85400884D01*
X128701035Y-85447801D01*
X128720500Y-85515079D01*
X128720500Y-88246080D01*
X128717951Y-88270028D01*
X128717872Y-88271693D01*
X128715680Y-88281876D01*
X128716904Y-88292217D01*
X128719627Y-88315223D01*
X128719977Y-88321154D01*
X128720072Y-88321146D01*
X128720500Y-88326324D01*
X128720500Y-88331524D01*
X128721354Y-88336653D01*
X128721354Y-88336656D01*
X128723669Y-88350565D01*
X128724506Y-88356443D01*
X128728396Y-88389307D01*
X128730530Y-88407341D01*
X128734493Y-88415593D01*
X128735996Y-88424626D01*
X128740943Y-88433795D01*
X128740944Y-88433797D01*
X128760334Y-88469732D01*
X128763031Y-88475025D01*
X128781785Y-88514082D01*
X128781788Y-88514086D01*
X128785219Y-88521232D01*
X128788814Y-88525508D01*
X128790737Y-88527431D01*
X128792509Y-88529363D01*
X128792552Y-88529442D01*
X128792428Y-88529555D01*
X128792904Y-88530095D01*
X128795990Y-88535814D01*
X128803635Y-88542881D01*
X128835586Y-88572416D01*
X128839152Y-88575846D01*
X134693522Y-94430216D01*
X134708664Y-94448964D01*
X134709779Y-94450189D01*
X134715429Y-94458940D01*
X134723607Y-94465387D01*
X134723609Y-94465389D01*
X134741800Y-94479729D01*
X134746241Y-94483675D01*
X134746303Y-94483602D01*
X134750267Y-94486961D01*
X134753944Y-94490638D01*
X134769692Y-94501892D01*
X134774362Y-94505398D01*
X134814647Y-94537156D01*
X134823281Y-94540188D01*
X134830734Y-94545514D01*
X134879850Y-94560203D01*
X134885492Y-94562036D01*
X134925584Y-94576115D01*
X134933851Y-94579018D01*
X134939416Y-94579500D01*
X134942124Y-94579500D01*
X134944758Y-94579614D01*
X134944856Y-94579643D01*
X134944849Y-94579807D01*
X134945553Y-94579851D01*
X134951778Y-94581713D01*
X135005635Y-94579597D01*
X135010582Y-94579500D01*
X141882947Y-94579500D01*
X141951068Y-94599502D01*
X141997561Y-94653158D01*
X142007665Y-94723432D01*
X141991271Y-94766722D01*
X141991799Y-94766970D01*
X141988788Y-94773384D01*
X141930383Y-94897782D01*
X141929003Y-94906646D01*
X141929002Y-94906649D01*
X141913254Y-95007795D01*
X141908150Y-95040573D01*
X141909314Y-95049475D01*
X141909314Y-95049478D01*
X141922646Y-95151427D01*
X141926888Y-95183865D01*
X141985089Y-95316139D01*
X141990861Y-95323006D01*
X141990865Y-95323012D01*
X142008750Y-95344288D01*
X142037272Y-95409304D01*
X142038300Y-95425364D01*
X142038300Y-96585298D01*
X142018298Y-96653419D01*
X142001395Y-96674393D01*
X134135265Y-104540523D01*
X134072953Y-104574549D01*
X134002138Y-104569484D01*
X133945302Y-104526937D01*
X133920491Y-104460417D01*
X133925815Y-104415800D01*
X133928159Y-104410962D01*
X133952135Y-104268453D01*
X133952287Y-104256000D01*
X133936639Y-104146736D01*
X133933073Y-104121835D01*
X133933072Y-104121833D01*
X133931800Y-104112948D01*
X133871987Y-103981395D01*
X133840846Y-103945254D01*
X133811532Y-103880591D01*
X133810299Y-103863006D01*
X133810299Y-99746879D01*
X133830301Y-99678758D01*
X133842885Y-99662322D01*
X133848725Y-99655870D01*
X133854750Y-99649214D01*
X133899670Y-99556498D01*
X133913844Y-99527243D01*
X133913844Y-99527242D01*
X133917759Y-99519162D01*
X133941735Y-99376653D01*
X133941887Y-99364200D01*
X133928275Y-99269154D01*
X133922673Y-99230035D01*
X133922672Y-99230033D01*
X133921400Y-99221148D01*
X133915453Y-99208067D01*
X133906889Y-99189232D01*
X133861587Y-99089595D01*
X133840846Y-99065524D01*
X133811532Y-99000862D01*
X133810299Y-98983276D01*
X133810299Y-95554615D01*
X133826762Y-95500798D01*
X133823287Y-95499114D01*
X133882381Y-95377143D01*
X133882381Y-95377142D01*
X133886296Y-95369062D01*
X133910272Y-95226553D01*
X133910424Y-95214100D01*
X133900083Y-95141896D01*
X133891210Y-95079935D01*
X133891209Y-95079933D01*
X133889937Y-95071048D01*
X133882365Y-95054393D01*
X133838171Y-94957194D01*
X133830124Y-94939495D01*
X133824266Y-94932696D01*
X133824263Y-94932692D01*
X133741652Y-94836818D01*
X133741649Y-94836816D01*
X133735792Y-94830018D01*
X133648417Y-94773384D01*
X133622060Y-94756300D01*
X133622058Y-94756299D01*
X133614526Y-94751417D01*
X133579812Y-94741035D01*
X133484674Y-94712582D01*
X133484672Y-94712582D01*
X133476073Y-94710010D01*
X133467099Y-94709955D01*
X133467097Y-94709955D01*
X133403818Y-94709569D01*
X133331563Y-94709128D01*
X133322932Y-94711595D01*
X133322930Y-94711595D01*
X133201245Y-94746372D01*
X133201241Y-94746374D01*
X133192615Y-94748839D01*
X133094979Y-94810443D01*
X133087500Y-94815162D01*
X133020264Y-94834600D01*
X132169820Y-94834600D01*
X132145872Y-94832051D01*
X132144207Y-94831972D01*
X132134024Y-94829780D01*
X132123683Y-94831004D01*
X132100677Y-94833727D01*
X132094746Y-94834077D01*
X132094754Y-94834172D01*
X132089576Y-94834600D01*
X132084376Y-94834600D01*
X132079247Y-94835454D01*
X132079244Y-94835454D01*
X132065335Y-94837769D01*
X132059457Y-94838606D01*
X132018899Y-94843406D01*
X132018898Y-94843406D01*
X132008559Y-94844630D01*
X132000307Y-94848593D01*
X131991274Y-94850096D01*
X131946127Y-94874456D01*
X131940863Y-94877137D01*
X131894668Y-94899320D01*
X131890392Y-94902914D01*
X131888452Y-94904854D01*
X131886541Y-94906607D01*
X131886451Y-94906656D01*
X131886339Y-94906533D01*
X131885804Y-94907005D01*
X131880086Y-94910090D01*
X131873019Y-94917735D01*
X131843484Y-94949686D01*
X131840054Y-94953252D01*
X130994511Y-95798795D01*
X130932199Y-95832821D01*
X130905416Y-95835700D01*
X130635859Y-95835700D01*
X130567738Y-95815698D01*
X130521245Y-95762042D01*
X130510639Y-95698390D01*
X130511300Y-95695067D01*
X130511299Y-94144934D01*
X130504188Y-94109182D01*
X130498956Y-94082874D01*
X130498955Y-94082872D01*
X130496534Y-94070699D01*
X130485817Y-94054659D01*
X130447177Y-93996832D01*
X130440284Y-93986516D01*
X130356101Y-93930266D01*
X130281867Y-93915500D01*
X129964549Y-93915500D01*
X127775269Y-93915501D01*
X127707148Y-93895499D01*
X127660655Y-93841843D01*
X127650551Y-93771569D01*
X127681854Y-93704946D01*
X127714323Y-93669074D01*
X127714324Y-93669072D01*
X127720351Y-93662414D01*
X127783360Y-93532362D01*
X127807336Y-93389853D01*
X127807421Y-93382895D01*
X127807429Y-93382260D01*
X127807429Y-93382256D01*
X127807488Y-93377400D01*
X127793982Y-93283096D01*
X127788274Y-93243235D01*
X127788273Y-93243233D01*
X127787001Y-93234348D01*
X127777413Y-93213259D01*
X127769731Y-93196365D01*
X127727188Y-93102795D01*
X127721330Y-93095996D01*
X127721327Y-93095992D01*
X127638716Y-93000118D01*
X127638713Y-93000116D01*
X127632856Y-92993318D01*
X127511590Y-92914717D01*
X127471315Y-92902672D01*
X127381738Y-92875882D01*
X127381736Y-92875882D01*
X127373137Y-92873310D01*
X127364163Y-92873255D01*
X127364161Y-92873255D01*
X127300882Y-92872869D01*
X127228627Y-92872428D01*
X127219996Y-92874895D01*
X127219994Y-92874895D01*
X127098313Y-92909671D01*
X127098310Y-92909672D01*
X127089679Y-92912139D01*
X127087659Y-92913413D01*
X127020595Y-92922522D01*
X126956246Y-92892526D01*
X126918330Y-92832502D01*
X126913499Y-92797948D01*
X126913499Y-92359531D01*
X126933501Y-92291410D01*
X126946083Y-92274977D01*
X126947174Y-92273772D01*
X126956550Y-92263413D01*
X126960815Y-92254611D01*
X127015644Y-92141442D01*
X127015644Y-92141441D01*
X127019559Y-92133361D01*
X127043535Y-91990852D01*
X127043687Y-91978399D01*
X127023200Y-91835347D01*
X126963387Y-91703794D01*
X126957529Y-91696995D01*
X126957526Y-91696991D01*
X126874915Y-91601117D01*
X126874912Y-91601115D01*
X126869055Y-91594317D01*
X126747789Y-91515716D01*
X126704799Y-91502859D01*
X126617937Y-91476881D01*
X126617935Y-91476881D01*
X126609336Y-91474309D01*
X126600362Y-91474254D01*
X126600360Y-91474254D01*
X126537081Y-91473868D01*
X126464826Y-91473427D01*
X126456195Y-91475894D01*
X126456193Y-91475894D01*
X126334508Y-91510671D01*
X126334504Y-91510673D01*
X126325878Y-91513138D01*
X126318291Y-91517925D01*
X126318289Y-91517926D01*
X126211253Y-91585461D01*
X126203660Y-91590252D01*
X126107998Y-91698569D01*
X126046582Y-91829381D01*
X126045202Y-91838245D01*
X126045201Y-91838248D01*
X126028578Y-91945014D01*
X126024349Y-91972172D01*
X126025513Y-91981074D01*
X126025513Y-91981077D01*
X126032315Y-92033090D01*
X126043087Y-92115464D01*
X126101288Y-92247738D01*
X126107060Y-92254605D01*
X126107064Y-92254611D01*
X126124949Y-92275887D01*
X126153471Y-92340903D01*
X126154499Y-92356963D01*
X126154499Y-94402479D01*
X126151950Y-94426427D01*
X126151871Y-94428092D01*
X126149679Y-94438275D01*
X126150903Y-94448616D01*
X126153626Y-94471622D01*
X126153976Y-94477553D01*
X126154071Y-94477545D01*
X126154499Y-94482723D01*
X126154499Y-94487923D01*
X126155353Y-94493052D01*
X126155353Y-94493055D01*
X126157668Y-94506964D01*
X126158505Y-94512842D01*
X126161742Y-94540188D01*
X126164529Y-94563740D01*
X126168492Y-94571992D01*
X126169995Y-94581025D01*
X126174942Y-94590194D01*
X126174943Y-94590196D01*
X126194333Y-94626131D01*
X126197030Y-94631424D01*
X126211719Y-94662015D01*
X126223071Y-94700216D01*
X126234088Y-94784465D01*
X126292289Y-94916739D01*
X126322982Y-94953252D01*
X126335567Y-94968224D01*
X126364088Y-95033240D01*
X126352932Y-95103354D01*
X126305640Y-95156307D01*
X126239116Y-95175300D01*
X122891784Y-95175300D01*
X122823663Y-95155298D01*
X122802689Y-95138395D01*
X122309855Y-94645561D01*
X122275829Y-94583249D01*
X122274223Y-94574328D01*
X122273889Y-94571992D01*
X122264201Y-94504348D01*
X122259067Y-94493055D01*
X122251442Y-94476286D01*
X122204388Y-94372795D01*
X122198530Y-94365996D01*
X122198527Y-94365992D01*
X122115916Y-94270118D01*
X122115913Y-94270116D01*
X122110056Y-94263318D01*
X121988790Y-94184717D01*
X121935271Y-94168711D01*
X121858938Y-94145882D01*
X121858936Y-94145882D01*
X121850337Y-94143310D01*
X121841363Y-94143255D01*
X121841361Y-94143255D01*
X121778082Y-94142869D01*
X121705827Y-94142428D01*
X121697196Y-94144895D01*
X121697194Y-94144895D01*
X121575509Y-94179672D01*
X121575505Y-94179674D01*
X121566879Y-94182139D01*
X121559292Y-94186926D01*
X121559290Y-94186927D01*
X121531702Y-94204334D01*
X121444661Y-94259253D01*
X121438718Y-94265982D01*
X121438717Y-94265983D01*
X121428498Y-94277554D01*
X121348999Y-94367570D01*
X121345185Y-94375693D01*
X121345184Y-94375695D01*
X121338185Y-94390603D01*
X121287583Y-94498382D01*
X121286203Y-94507246D01*
X121286202Y-94507249D01*
X121267285Y-94628748D01*
X121265350Y-94641173D01*
X121266514Y-94650075D01*
X121266514Y-94650078D01*
X121278768Y-94743785D01*
X121284088Y-94784465D01*
X121342289Y-94916739D01*
X121435276Y-95027360D01*
X121442747Y-95032333D01*
X121442748Y-95032334D01*
X121548101Y-95102463D01*
X121548103Y-95102464D01*
X121555574Y-95107437D01*
X121564138Y-95110113D01*
X121564141Y-95110114D01*
X121684944Y-95147856D01*
X121684946Y-95147856D01*
X121693510Y-95150532D01*
X121702484Y-95150697D01*
X121708989Y-95151750D01*
X121777940Y-95187034D01*
X121789139Y-95198233D01*
X121823165Y-95260545D01*
X121818100Y-95331360D01*
X121775553Y-95388196D01*
X121717145Y-95412162D01*
X121714803Y-95412483D01*
X121705827Y-95412428D01*
X121697195Y-95414895D01*
X121575509Y-95449672D01*
X121575505Y-95449674D01*
X121566879Y-95452139D01*
X121559292Y-95456926D01*
X121559290Y-95456927D01*
X121452254Y-95524462D01*
X121444661Y-95529253D01*
X121348999Y-95637570D01*
X121345185Y-95645693D01*
X121345184Y-95645695D01*
X121337360Y-95662360D01*
X121287583Y-95768382D01*
X121286203Y-95777246D01*
X121286202Y-95777249D01*
X121268587Y-95890385D01*
X121265350Y-95911173D01*
X121266514Y-95920075D01*
X121266514Y-95920078D01*
X121270990Y-95954302D01*
X121284088Y-96054465D01*
X121342289Y-96186739D01*
X121435276Y-96297360D01*
X121442747Y-96302333D01*
X121442748Y-96302334D01*
X121548101Y-96372463D01*
X121548103Y-96372464D01*
X121555574Y-96377437D01*
X121564138Y-96380113D01*
X121564141Y-96380114D01*
X121594578Y-96389623D01*
X121693510Y-96420532D01*
X121837998Y-96423180D01*
X121901293Y-96405924D01*
X121968763Y-96387530D01*
X121968765Y-96387529D01*
X121977422Y-96385169D01*
X122100572Y-96309554D01*
X122197551Y-96202414D01*
X122260560Y-96072362D01*
X122279773Y-95958165D01*
X122310800Y-95894307D01*
X122371426Y-95857361D01*
X122442402Y-95859056D01*
X122482032Y-95880120D01*
X122497047Y-95891956D01*
X122505684Y-95894989D01*
X122513134Y-95900313D01*
X122523110Y-95903297D01*
X122523111Y-95903297D01*
X122538446Y-95907883D01*
X122562249Y-95915002D01*
X122567886Y-95916834D01*
X122593034Y-95925665D01*
X122616251Y-95933818D01*
X122621816Y-95934300D01*
X122624524Y-95934300D01*
X122627158Y-95934414D01*
X122627256Y-95934443D01*
X122627249Y-95934607D01*
X122627953Y-95934651D01*
X122634178Y-95936513D01*
X122688035Y-95934397D01*
X122692982Y-95934300D01*
X126130216Y-95934300D01*
X126198337Y-95954302D01*
X126219311Y-95971205D01*
X126693522Y-96445416D01*
X126708664Y-96464164D01*
X126709779Y-96465389D01*
X126715429Y-96474140D01*
X126723607Y-96480587D01*
X126723609Y-96480589D01*
X126741800Y-96494929D01*
X126746241Y-96498875D01*
X126746303Y-96498802D01*
X126750267Y-96502161D01*
X126753944Y-96505838D01*
X126769692Y-96517092D01*
X126774362Y-96520598D01*
X126814647Y-96552356D01*
X126823281Y-96555388D01*
X126830734Y-96560714D01*
X126879850Y-96575403D01*
X126885492Y-96577236D01*
X126926199Y-96591531D01*
X126933851Y-96594218D01*
X126939416Y-96594700D01*
X126942124Y-96594700D01*
X126944758Y-96594814D01*
X126944856Y-96594843D01*
X126944849Y-96595007D01*
X126945553Y-96595051D01*
X126951778Y-96596913D01*
X127005635Y-96594797D01*
X127010582Y-96594700D01*
X127376300Y-96594700D01*
X127444421Y-96614702D01*
X127490914Y-96668358D01*
X127502300Y-96720700D01*
X127502301Y-97477564D01*
X127502301Y-98235066D01*
X127502950Y-98238331D01*
X127489905Y-98307106D01*
X127441064Y-98358633D01*
X127377742Y-98375700D01*
X121214584Y-98375700D01*
X121146463Y-98355698D01*
X121125489Y-98338795D01*
X119804367Y-97017673D01*
X119789225Y-96998925D01*
X119788110Y-96997700D01*
X119782460Y-96988949D01*
X119774282Y-96982502D01*
X119774280Y-96982500D01*
X119756089Y-96968160D01*
X119751648Y-96964214D01*
X119751586Y-96964287D01*
X119747622Y-96960928D01*
X119743945Y-96957251D01*
X119728197Y-96945997D01*
X119723527Y-96942491D01*
X119683242Y-96910733D01*
X119674608Y-96907701D01*
X119667155Y-96902375D01*
X119618039Y-96887686D01*
X119612397Y-96885853D01*
X119571522Y-96871499D01*
X119571521Y-96871499D01*
X119564038Y-96868871D01*
X119558473Y-96868389D01*
X119555765Y-96868389D01*
X119553131Y-96868275D01*
X119553033Y-96868246D01*
X119553040Y-96868082D01*
X119552336Y-96868038D01*
X119546111Y-96866176D01*
X119492254Y-96868292D01*
X119487307Y-96868389D01*
X117916280Y-96868389D01*
X117848159Y-96848387D01*
X117801666Y-96794731D01*
X117792026Y-96721484D01*
X117792158Y-96720700D01*
X117806736Y-96634053D01*
X117806888Y-96621600D01*
X117788733Y-96494831D01*
X117787674Y-96487435D01*
X117787673Y-96487433D01*
X117786401Y-96478548D01*
X117782636Y-96470266D01*
X117767540Y-96437065D01*
X117726588Y-96346995D01*
X117720730Y-96340196D01*
X117720727Y-96340192D01*
X117638116Y-96244318D01*
X117638113Y-96244316D01*
X117632256Y-96237518D01*
X117510990Y-96158917D01*
X117502575Y-96156400D01*
X117449200Y-96109733D01*
X117429500Y-96042085D01*
X117429500Y-95769273D01*
X117449502Y-95701152D01*
X117503158Y-95654659D01*
X117573432Y-95644555D01*
X117625319Y-95664386D01*
X117735101Y-95737463D01*
X117735103Y-95737464D01*
X117742574Y-95742437D01*
X117751138Y-95745113D01*
X117751141Y-95745114D01*
X117811542Y-95763984D01*
X117880510Y-95785532D01*
X118024998Y-95788180D01*
X118075734Y-95774348D01*
X118155763Y-95752530D01*
X118155765Y-95752529D01*
X118164422Y-95750169D01*
X118287572Y-95674554D01*
X118384551Y-95567414D01*
X118447560Y-95437362D01*
X118471536Y-95294853D01*
X118471688Y-95282400D01*
X118458030Y-95187034D01*
X118452474Y-95148235D01*
X118452473Y-95148233D01*
X118451201Y-95139348D01*
X118391388Y-95007795D01*
X118385530Y-95000996D01*
X118385527Y-95000992D01*
X118302916Y-94905118D01*
X118302913Y-94905116D01*
X118297056Y-94898318D01*
X118222659Y-94850096D01*
X118183324Y-94824600D01*
X118183322Y-94824599D01*
X118175790Y-94819717D01*
X118160559Y-94815162D01*
X118045938Y-94780882D01*
X118045936Y-94780882D01*
X118037337Y-94778310D01*
X118028363Y-94778255D01*
X118028361Y-94778255D01*
X117965082Y-94777869D01*
X117892827Y-94777428D01*
X117872946Y-94783110D01*
X117801954Y-94782598D01*
X117742506Y-94743785D01*
X117713480Y-94678993D01*
X117724090Y-94608794D01*
X117749228Y-94572866D01*
X117897222Y-94424872D01*
X117959055Y-94391108D01*
X117962998Y-94391180D01*
X118032710Y-94372174D01*
X118093763Y-94355530D01*
X118093765Y-94355529D01*
X118102422Y-94353169D01*
X118225572Y-94277554D01*
X118322551Y-94170414D01*
X118355149Y-94103132D01*
X118381645Y-94048443D01*
X118381645Y-94048442D01*
X118385560Y-94040362D01*
X118409536Y-93897853D01*
X118409688Y-93885400D01*
X118391351Y-93757360D01*
X118390474Y-93751235D01*
X118390473Y-93751233D01*
X118389201Y-93742348D01*
X118329388Y-93610795D01*
X118323530Y-93603996D01*
X118323527Y-93603992D01*
X118240916Y-93508118D01*
X118240913Y-93508116D01*
X118235056Y-93501318D01*
X118166602Y-93456948D01*
X118121324Y-93427600D01*
X118121322Y-93427599D01*
X118113790Y-93422717D01*
X118048852Y-93403296D01*
X117983938Y-93383882D01*
X117983936Y-93383882D01*
X117975337Y-93381310D01*
X117966363Y-93381255D01*
X117966361Y-93381255D01*
X117903082Y-93380869D01*
X117830827Y-93380428D01*
X117822196Y-93382895D01*
X117822194Y-93382895D01*
X117700509Y-93417672D01*
X117700505Y-93417674D01*
X117691879Y-93420139D01*
X117684292Y-93424926D01*
X117684290Y-93424927D01*
X117633540Y-93456948D01*
X117569661Y-93497253D01*
X117563718Y-93503982D01*
X117563717Y-93503983D01*
X117544836Y-93525362D01*
X117473999Y-93605570D01*
X117470185Y-93613693D01*
X117470184Y-93613695D01*
X117467708Y-93618969D01*
X117412583Y-93736382D01*
X117409690Y-93754962D01*
X117400515Y-93813887D01*
X117370270Y-93878119D01*
X117365110Y-93883596D01*
X116819784Y-94428922D01*
X116801036Y-94444064D01*
X116799811Y-94445179D01*
X116791060Y-94450829D01*
X116784613Y-94459007D01*
X116784611Y-94459009D01*
X116770271Y-94477200D01*
X116766325Y-94481641D01*
X116766398Y-94481703D01*
X116763039Y-94485667D01*
X116759362Y-94489344D01*
X116748108Y-94505092D01*
X116744602Y-94509762D01*
X116712844Y-94550047D01*
X116709812Y-94558681D01*
X116704486Y-94566134D01*
X116701501Y-94576115D01*
X116689799Y-94615244D01*
X116687964Y-94620892D01*
X116679301Y-94645561D01*
X116670982Y-94669251D01*
X116670500Y-94674816D01*
X116670500Y-94677524D01*
X116670386Y-94680158D01*
X116670357Y-94680256D01*
X116670193Y-94680249D01*
X116670149Y-94680953D01*
X116668287Y-94687178D01*
X116669152Y-94709183D01*
X116670403Y-94741035D01*
X116670500Y-94745982D01*
X116670500Y-96320480D01*
X116667951Y-96344428D01*
X116667872Y-96346093D01*
X116665680Y-96356276D01*
X116668544Y-96380473D01*
X116669627Y-96389623D01*
X116669977Y-96395554D01*
X116670072Y-96395546D01*
X116670500Y-96400724D01*
X116670500Y-96405924D01*
X116671354Y-96411053D01*
X116671354Y-96411056D01*
X116673669Y-96424965D01*
X116674506Y-96430843D01*
X116676890Y-96450982D01*
X116680530Y-96481741D01*
X116684493Y-96489993D01*
X116685996Y-96499026D01*
X116690943Y-96508195D01*
X116690944Y-96508197D01*
X116710334Y-96544132D01*
X116713031Y-96549425D01*
X116731785Y-96588482D01*
X116731788Y-96588486D01*
X116735219Y-96595632D01*
X116738814Y-96599908D01*
X116740737Y-96601831D01*
X116742509Y-96603763D01*
X116742552Y-96603842D01*
X116742428Y-96603955D01*
X116742904Y-96604495D01*
X116745990Y-96610214D01*
X116753635Y-96617281D01*
X116759004Y-96622244D01*
X116795449Y-96683173D01*
X116798411Y-96698430D01*
X116802023Y-96726050D01*
X116791023Y-96796190D01*
X116743849Y-96849248D01*
X116677087Y-96868389D01*
X115207273Y-96868389D01*
X115139152Y-96848387D01*
X115118178Y-96831484D01*
X114884855Y-96598161D01*
X114850829Y-96535849D01*
X114849223Y-96526928D01*
X114849146Y-96526386D01*
X114842587Y-96480589D01*
X114840474Y-96465835D01*
X114840474Y-96465833D01*
X114839201Y-96456948D01*
X114779388Y-96325395D01*
X114773530Y-96318596D01*
X114773527Y-96318592D01*
X114690916Y-96222718D01*
X114690913Y-96222716D01*
X114685056Y-96215918D01*
X114593330Y-96156464D01*
X114571324Y-96142200D01*
X114571322Y-96142199D01*
X114563790Y-96137317D01*
X114546921Y-96132272D01*
X114433938Y-96098482D01*
X114433936Y-96098482D01*
X114425337Y-96095910D01*
X114416363Y-96095855D01*
X114416361Y-96095855D01*
X114353082Y-96095469D01*
X114280827Y-96095028D01*
X114272196Y-96097495D01*
X114272194Y-96097495D01*
X114150509Y-96132272D01*
X114150505Y-96132274D01*
X114141879Y-96134739D01*
X114134292Y-96139526D01*
X114134290Y-96139527D01*
X114047428Y-96194333D01*
X114019661Y-96211853D01*
X114013718Y-96218582D01*
X114013717Y-96218583D01*
X113951013Y-96289582D01*
X113923999Y-96320170D01*
X113920185Y-96328293D01*
X113920184Y-96328295D01*
X113897112Y-96377437D01*
X113862583Y-96450982D01*
X113861203Y-96459846D01*
X113861202Y-96459849D01*
X113842925Y-96577236D01*
X113840350Y-96593773D01*
X113525025Y-96593773D01*
X113486977Y-96536832D01*
X113480084Y-96526516D01*
X113395901Y-96470266D01*
X113321667Y-96455500D01*
X113184652Y-96455500D01*
X110880500Y-96455501D01*
X110812379Y-96435499D01*
X110765886Y-96381843D01*
X110754500Y-96329501D01*
X110754500Y-96050500D01*
X110774502Y-95982379D01*
X110828158Y-95935886D01*
X110880500Y-95924500D01*
X113184610Y-95924499D01*
X113321666Y-95924499D01*
X113360204Y-95916834D01*
X113383726Y-95912156D01*
X113383728Y-95912155D01*
X113395901Y-95909734D01*
X113406221Y-95902839D01*
X113406222Y-95902838D01*
X113469768Y-95860377D01*
X113480084Y-95853484D01*
X113536334Y-95769301D01*
X113551100Y-95695067D01*
X113551099Y-94144934D01*
X113543988Y-94109182D01*
X113538756Y-94082874D01*
X113538755Y-94082872D01*
X113536334Y-94070699D01*
X113525617Y-94054659D01*
X113486977Y-93996832D01*
X113480084Y-93986516D01*
X113395901Y-93930266D01*
X113321667Y-93915500D01*
X113184652Y-93915500D01*
X110880500Y-93915501D01*
X110812379Y-93895499D01*
X110765886Y-93841843D01*
X110754500Y-93789501D01*
X110754500Y-91037471D01*
X110756921Y-91012891D01*
X110757064Y-91012172D01*
X110759485Y-91000000D01*
X110754500Y-90974937D01*
X110754500Y-90974933D01*
X110739734Y-90900699D01*
X110709241Y-90855063D01*
X110690379Y-90826834D01*
X110690377Y-90826832D01*
X110683484Y-90816516D01*
X110672547Y-90809208D01*
X110653455Y-90793538D01*
X109206460Y-89346542D01*
X109190790Y-89327450D01*
X109190375Y-89326829D01*
X109183484Y-89316516D01*
X109162237Y-89302319D01*
X109162234Y-89302316D01*
X109099301Y-89260266D01*
X109087132Y-89257845D01*
X109087131Y-89257845D01*
X109025067Y-89245500D01*
X109012172Y-89242935D01*
X109000000Y-89240514D01*
X108987103Y-89243079D01*
X108962524Y-89245500D01*
X108080500Y-89245500D01*
X108012379Y-89225498D01*
X107965886Y-89171842D01*
X107954500Y-89119500D01*
X107954500Y-88064471D01*
X117000884Y-88064471D01*
X117004570Y-88069740D01*
X117212121Y-88196927D01*
X117220915Y-88201408D01*
X117449242Y-88295984D01*
X117458627Y-88299033D01*
X117698940Y-88356728D01*
X117708687Y-88358271D01*
X117955070Y-88377662D01*
X117964930Y-88377662D01*
X118211313Y-88358271D01*
X118221060Y-88356728D01*
X118461373Y-88299033D01*
X118470758Y-88295984D01*
X118699085Y-88201408D01*
X118707879Y-88196927D01*
X118913928Y-88070660D01*
X118917968Y-88064471D01*
X122080884Y-88064471D01*
X122084570Y-88069740D01*
X122292121Y-88196927D01*
X122300915Y-88201408D01*
X122529242Y-88295984D01*
X122538627Y-88299033D01*
X122778940Y-88356728D01*
X122788687Y-88358271D01*
X123035070Y-88377662D01*
X123044930Y-88377662D01*
X123291313Y-88358271D01*
X123301060Y-88356728D01*
X123541373Y-88299033D01*
X123550758Y-88295984D01*
X123779085Y-88201408D01*
X123787879Y-88196927D01*
X123993928Y-88070660D01*
X123997968Y-88064471D01*
X125600884Y-88064471D01*
X125604570Y-88069740D01*
X125812121Y-88196927D01*
X125820915Y-88201408D01*
X126049242Y-88295984D01*
X126058627Y-88299033D01*
X126298940Y-88356728D01*
X126308687Y-88358271D01*
X126555070Y-88377662D01*
X126564930Y-88377662D01*
X126811313Y-88358271D01*
X126821060Y-88356728D01*
X127061373Y-88299033D01*
X127070758Y-88295984D01*
X127299085Y-88201408D01*
X127307879Y-88196927D01*
X127513928Y-88070660D01*
X127519190Y-88062599D01*
X127513183Y-88052393D01*
X126572812Y-87112022D01*
X126558868Y-87104408D01*
X126557035Y-87104539D01*
X126550420Y-87108790D01*
X125608276Y-88050934D01*
X125600884Y-88064471D01*
X123997968Y-88064471D01*
X123999190Y-88062599D01*
X123993183Y-88052393D01*
X123052812Y-87112022D01*
X123038868Y-87104408D01*
X123037035Y-87104539D01*
X123030420Y-87108790D01*
X122088276Y-88050934D01*
X122080884Y-88064471D01*
X118917968Y-88064471D01*
X118919190Y-88062599D01*
X118913183Y-88052393D01*
X117972812Y-87112022D01*
X117958868Y-87104408D01*
X117957035Y-87104539D01*
X117950420Y-87108790D01*
X117008276Y-88050934D01*
X117000884Y-88064471D01*
X107954500Y-88064471D01*
X107954500Y-86551745D01*
X110613795Y-86551745D01*
X110613871Y-86552815D01*
X110617055Y-86557648D01*
X110897342Y-86772720D01*
X110902972Y-86776575D01*
X111207929Y-86961992D01*
X111213931Y-86965210D01*
X111537139Y-87116611D01*
X111543444Y-87119159D01*
X111881117Y-87234771D01*
X111887668Y-87236624D01*
X112235838Y-87315087D01*
X112242557Y-87316224D01*
X112597174Y-87356628D01*
X112603964Y-87357031D01*
X112960865Y-87358899D01*
X112967666Y-87358567D01*
X113322686Y-87321880D01*
X113329414Y-87320814D01*
X113678402Y-87245997D01*
X113684950Y-87244218D01*
X114023820Y-87132147D01*
X114030162Y-87129661D01*
X114354921Y-86981660D01*
X114360975Y-86978495D01*
X114667839Y-86796293D01*
X114673520Y-86792490D01*
X114736864Y-86744930D01*
X116322338Y-86744930D01*
X116341729Y-86991313D01*
X116343272Y-87001060D01*
X116400967Y-87241373D01*
X116404016Y-87250758D01*
X116498592Y-87479085D01*
X116503073Y-87487879D01*
X116629340Y-87693928D01*
X116637401Y-87699190D01*
X116647607Y-87693183D01*
X117587978Y-86752812D01*
X117594356Y-86741132D01*
X118324408Y-86741132D01*
X118324539Y-86742965D01*
X118328790Y-86749580D01*
X119270934Y-87691724D01*
X119284471Y-87699116D01*
X119289740Y-87695430D01*
X119416927Y-87487879D01*
X119421408Y-87479085D01*
X119515984Y-87250758D01*
X119519033Y-87241373D01*
X119576728Y-87001060D01*
X119578271Y-86991313D01*
X119597662Y-86744930D01*
X121402338Y-86744930D01*
X121421729Y-86991313D01*
X121423272Y-87001060D01*
X121480967Y-87241373D01*
X121484016Y-87250758D01*
X121578592Y-87479085D01*
X121583073Y-87487879D01*
X121709340Y-87693928D01*
X121717401Y-87699190D01*
X121727607Y-87693183D01*
X122667978Y-86752812D01*
X122674356Y-86741132D01*
X123404408Y-86741132D01*
X123404539Y-86742965D01*
X123408790Y-86749580D01*
X124350934Y-87691724D01*
X124364471Y-87699116D01*
X124369740Y-87695430D01*
X124496927Y-87487879D01*
X124501408Y-87479085D01*
X124595984Y-87250758D01*
X124599033Y-87241373D01*
X124656728Y-87001060D01*
X124658271Y-86991313D01*
X124674388Y-86786530D01*
X124691729Y-86741033D01*
X124907484Y-86741033D01*
X124923309Y-86770512D01*
X124925612Y-86786530D01*
X124941729Y-86991313D01*
X124943272Y-87001060D01*
X125000967Y-87241373D01*
X125004016Y-87250758D01*
X125098592Y-87479085D01*
X125103073Y-87487879D01*
X125229340Y-87693928D01*
X125237401Y-87699190D01*
X125247607Y-87693183D01*
X126187978Y-86752812D01*
X126194356Y-86741132D01*
X126924408Y-86741132D01*
X126924539Y-86742965D01*
X126928790Y-86749580D01*
X127870934Y-87691724D01*
X127884471Y-87699116D01*
X127889740Y-87695430D01*
X128016927Y-87487879D01*
X128021408Y-87479085D01*
X128115984Y-87250758D01*
X128119033Y-87241373D01*
X128176728Y-87001060D01*
X128178271Y-86991313D01*
X128197662Y-86744930D01*
X128197662Y-86735070D01*
X128178271Y-86488687D01*
X128176728Y-86478940D01*
X128119033Y-86238627D01*
X128115984Y-86229242D01*
X128021408Y-86000915D01*
X128016927Y-85992121D01*
X127890660Y-85786072D01*
X127882599Y-85780810D01*
X127872393Y-85786817D01*
X126932022Y-86727188D01*
X126924408Y-86741132D01*
X126194356Y-86741132D01*
X126195592Y-86738868D01*
X126195461Y-86737035D01*
X126191210Y-86730420D01*
X125249066Y-85788276D01*
X125235529Y-85780884D01*
X125230260Y-85784570D01*
X125103073Y-85992121D01*
X125098592Y-86000915D01*
X125004016Y-86229242D01*
X125000967Y-86238627D01*
X124943272Y-86478940D01*
X124941729Y-86488687D01*
X124925612Y-86693470D01*
X124907484Y-86741033D01*
X124691729Y-86741033D01*
X124692516Y-86738967D01*
X124676691Y-86709488D01*
X124674388Y-86693470D01*
X124658271Y-86488687D01*
X124656728Y-86478940D01*
X124599033Y-86238627D01*
X124595984Y-86229242D01*
X124501408Y-86000915D01*
X124496927Y-85992121D01*
X124370660Y-85786072D01*
X124362599Y-85780810D01*
X124352393Y-85786817D01*
X123412022Y-86727188D01*
X123404408Y-86741132D01*
X122674356Y-86741132D01*
X122675592Y-86738868D01*
X122675461Y-86737035D01*
X122671210Y-86730420D01*
X121729066Y-85788276D01*
X121715529Y-85780884D01*
X121710260Y-85784570D01*
X121583073Y-85992121D01*
X121578592Y-86000915D01*
X121484016Y-86229242D01*
X121480967Y-86238627D01*
X121423272Y-86478940D01*
X121421729Y-86488687D01*
X121402338Y-86735070D01*
X121402338Y-86744930D01*
X119597662Y-86744930D01*
X119597662Y-86735070D01*
X119578271Y-86488687D01*
X119576728Y-86478940D01*
X119519033Y-86238627D01*
X119515984Y-86229242D01*
X119421408Y-86000915D01*
X119416927Y-85992121D01*
X119290660Y-85786072D01*
X119282599Y-85780810D01*
X119272393Y-85786817D01*
X118332022Y-86727188D01*
X118324408Y-86741132D01*
X117594356Y-86741132D01*
X117595592Y-86738868D01*
X117595461Y-86737035D01*
X117591210Y-86730420D01*
X116649066Y-85788276D01*
X116635529Y-85780884D01*
X116630260Y-85784570D01*
X116503073Y-85992121D01*
X116498592Y-86000915D01*
X116404016Y-86229242D01*
X116400967Y-86238627D01*
X116343272Y-86478940D01*
X116341729Y-86488687D01*
X116322338Y-86735070D01*
X116322338Y-86744930D01*
X114736864Y-86744930D01*
X114958918Y-86578207D01*
X114964145Y-86573821D01*
X114976988Y-86561803D01*
X114985057Y-86548123D01*
X114985029Y-86547398D01*
X114979887Y-86539097D01*
X112812812Y-84372022D01*
X112798868Y-84364408D01*
X112797035Y-84364539D01*
X112790420Y-84368790D01*
X110621409Y-86537801D01*
X110613795Y-86551745D01*
X107954500Y-86551745D01*
X107954500Y-83991657D01*
X109437260Y-83991657D01*
X109455318Y-84348127D01*
X109456028Y-84354883D01*
X109512478Y-84707305D01*
X109513917Y-84713960D01*
X109608094Y-85058215D01*
X109610243Y-85064676D01*
X109741053Y-85396756D01*
X109743884Y-85402939D01*
X109909792Y-85718949D01*
X109913275Y-85724791D01*
X110112340Y-86021031D01*
X110116442Y-86026475D01*
X110240942Y-86174322D01*
X110253680Y-86182764D01*
X110264124Y-86176666D01*
X112427978Y-84012812D01*
X112434356Y-84001132D01*
X113164408Y-84001132D01*
X113164539Y-84002965D01*
X113168790Y-84009580D01*
X115334463Y-86175253D01*
X115348060Y-86182678D01*
X115357669Y-86175981D01*
X115462197Y-86054457D01*
X115466346Y-86049069D01*
X115668503Y-85754929D01*
X115672050Y-85749118D01*
X115841250Y-85434879D01*
X115844157Y-85428701D01*
X115848745Y-85417401D01*
X117000810Y-85417401D01*
X117006817Y-85427607D01*
X117947188Y-86367978D01*
X117961132Y-86375592D01*
X117962965Y-86375461D01*
X117969580Y-86371210D01*
X118911724Y-85429066D01*
X118919116Y-85415529D01*
X118915430Y-85410260D01*
X118707879Y-85283073D01*
X118699085Y-85278592D01*
X118470758Y-85184016D01*
X118461373Y-85180967D01*
X118221060Y-85123272D01*
X118211313Y-85121729D01*
X117964930Y-85102338D01*
X117955070Y-85102338D01*
X117708687Y-85121729D01*
X117698940Y-85123272D01*
X117458627Y-85180967D01*
X117449242Y-85184016D01*
X117220915Y-85278592D01*
X117212121Y-85283073D01*
X117006072Y-85409340D01*
X117000810Y-85417401D01*
X115848745Y-85417401D01*
X115978435Y-85098016D01*
X115980649Y-85091586D01*
X116078427Y-84748331D01*
X116079934Y-84741701D01*
X116140073Y-84389873D01*
X116140853Y-84383133D01*
X116162740Y-84025275D01*
X116162856Y-84021673D01*
X116162926Y-84001820D01*
X116162834Y-83998193D01*
X116143446Y-83640208D01*
X116142711Y-83633442D01*
X116085034Y-83281233D01*
X116083567Y-83274561D01*
X116003118Y-82984471D01*
X117000884Y-82984471D01*
X117004570Y-82989740D01*
X117212121Y-83116927D01*
X117220915Y-83121408D01*
X117449242Y-83215984D01*
X117458627Y-83219033D01*
X117698940Y-83276728D01*
X117708687Y-83278271D01*
X117955070Y-83297662D01*
X117964930Y-83297662D01*
X118211313Y-83278271D01*
X118221060Y-83276728D01*
X118461373Y-83219033D01*
X118470758Y-83215984D01*
X118699085Y-83121408D01*
X118707879Y-83116927D01*
X118913928Y-82990660D01*
X118919190Y-82982599D01*
X118913183Y-82972393D01*
X117972812Y-82032022D01*
X117958868Y-82024408D01*
X117957035Y-82024539D01*
X117950420Y-82028790D01*
X117008276Y-82970934D01*
X117000884Y-82984471D01*
X116003118Y-82984471D01*
X115988194Y-82930655D01*
X115986020Y-82924192D01*
X115854053Y-82592575D01*
X115851197Y-82586395D01*
X115684194Y-82270981D01*
X115680682Y-82265137D01*
X115480588Y-81969598D01*
X115476467Y-81964170D01*
X115359041Y-81825704D01*
X115346215Y-81817267D01*
X115335890Y-81823320D01*
X113172022Y-83987188D01*
X113164408Y-84001132D01*
X112434356Y-84001132D01*
X112435592Y-83998868D01*
X112435461Y-83997035D01*
X112431210Y-83990420D01*
X110265527Y-81824737D01*
X110251990Y-81817345D01*
X110242289Y-81824132D01*
X110130649Y-81954847D01*
X110126515Y-81960255D01*
X109925394Y-82255086D01*
X109921859Y-82260923D01*
X109753754Y-82575757D01*
X109750878Y-82581926D01*
X109617754Y-82913081D01*
X109615561Y-82919521D01*
X109518979Y-83263121D01*
X109517496Y-83269756D01*
X109458589Y-83621773D01*
X109457830Y-83628545D01*
X109437284Y-83984862D01*
X109437260Y-83991657D01*
X107954500Y-83991657D01*
X107954500Y-81657608D01*
X107974502Y-81589487D01*
X107991405Y-81568513D01*
X108108426Y-81451492D01*
X110614580Y-81451492D01*
X110614615Y-81452333D01*
X110619667Y-81460457D01*
X112787188Y-83627978D01*
X112801132Y-83635592D01*
X112802965Y-83635461D01*
X112809580Y-83631210D01*
X114775860Y-81664930D01*
X116322338Y-81664930D01*
X116341729Y-81911313D01*
X116343272Y-81921060D01*
X116400967Y-82161373D01*
X116404016Y-82170758D01*
X116498592Y-82399085D01*
X116503073Y-82407879D01*
X116629340Y-82613928D01*
X116637401Y-82619190D01*
X116647607Y-82613183D01*
X117587978Y-81672812D01*
X117594356Y-81661132D01*
X118324408Y-81661132D01*
X118324539Y-81662965D01*
X118328790Y-81669580D01*
X119270934Y-82611724D01*
X119284471Y-82619116D01*
X119289740Y-82615430D01*
X119416927Y-82407879D01*
X119421408Y-82399085D01*
X119515984Y-82170758D01*
X119519033Y-82161373D01*
X119576728Y-81921060D01*
X119578271Y-81911313D01*
X119597662Y-81664930D01*
X121402338Y-81664930D01*
X121421729Y-81911313D01*
X121423272Y-81921060D01*
X121480967Y-82161373D01*
X121484016Y-82170758D01*
X121578592Y-82399085D01*
X121583073Y-82407879D01*
X121709340Y-82613928D01*
X121717401Y-82619190D01*
X121727607Y-82613183D01*
X122667978Y-81672812D01*
X122674356Y-81661132D01*
X123404408Y-81661132D01*
X123404539Y-81662965D01*
X123408790Y-81669580D01*
X124350934Y-82611724D01*
X124364471Y-82619116D01*
X124369740Y-82615430D01*
X124496927Y-82407879D01*
X124501408Y-82399085D01*
X124595984Y-82170758D01*
X124599033Y-82161373D01*
X124656728Y-81921060D01*
X124658271Y-81911313D01*
X124674388Y-81706530D01*
X124691729Y-81661033D01*
X124907484Y-81661033D01*
X124923309Y-81690512D01*
X124925612Y-81706530D01*
X124941729Y-81911313D01*
X124943272Y-81921060D01*
X125000967Y-82161373D01*
X125004016Y-82170758D01*
X125098592Y-82399085D01*
X125103073Y-82407879D01*
X125229340Y-82613928D01*
X125237401Y-82619190D01*
X125247607Y-82613183D01*
X126187978Y-81672812D01*
X126195592Y-81658868D01*
X126195461Y-81657035D01*
X126191210Y-81650420D01*
X125249066Y-80708276D01*
X125235529Y-80700884D01*
X125230260Y-80704570D01*
X125103073Y-80912121D01*
X125098592Y-80920915D01*
X125004016Y-81149242D01*
X125000967Y-81158627D01*
X124943272Y-81398940D01*
X124941729Y-81408687D01*
X124925612Y-81613470D01*
X124907484Y-81661033D01*
X124691729Y-81661033D01*
X124692516Y-81658967D01*
X124676691Y-81629488D01*
X124674388Y-81613470D01*
X124658271Y-81408687D01*
X124656728Y-81398940D01*
X124599033Y-81158627D01*
X124595984Y-81149242D01*
X124501408Y-80920915D01*
X124496927Y-80912121D01*
X124370660Y-80706072D01*
X124362599Y-80700810D01*
X124352393Y-80706817D01*
X123412022Y-81647188D01*
X123404408Y-81661132D01*
X122674356Y-81661132D01*
X122675592Y-81658868D01*
X122675461Y-81657035D01*
X122671210Y-81650420D01*
X121729066Y-80708276D01*
X121715529Y-80700884D01*
X121710260Y-80704570D01*
X121583073Y-80912121D01*
X121578592Y-80920915D01*
X121484016Y-81149242D01*
X121480967Y-81158627D01*
X121423272Y-81398940D01*
X121421729Y-81408687D01*
X121402338Y-81655070D01*
X121402338Y-81664930D01*
X119597662Y-81664930D01*
X119597662Y-81655070D01*
X119578271Y-81408687D01*
X119576728Y-81398940D01*
X119519033Y-81158627D01*
X119515984Y-81149242D01*
X119421408Y-80920915D01*
X119416927Y-80912121D01*
X119290660Y-80706072D01*
X119282599Y-80700810D01*
X119272393Y-80706817D01*
X118332022Y-81647188D01*
X118324408Y-81661132D01*
X117594356Y-81661132D01*
X117595592Y-81658868D01*
X117595461Y-81657035D01*
X117591210Y-81650420D01*
X116649066Y-80708276D01*
X116635529Y-80700884D01*
X116630260Y-80704570D01*
X116503073Y-80912121D01*
X116498592Y-80920915D01*
X116404016Y-81149242D01*
X116400967Y-81158627D01*
X116343272Y-81398940D01*
X116341729Y-81408687D01*
X116322338Y-81655070D01*
X116322338Y-81664930D01*
X114775860Y-81664930D01*
X114978166Y-81462624D01*
X114985780Y-81448680D01*
X114985712Y-81447723D01*
X114980771Y-81440251D01*
X114976870Y-81436931D01*
X114692958Y-81220649D01*
X114687332Y-81216825D01*
X114381722Y-81032469D01*
X114375710Y-81029272D01*
X114051966Y-80878995D01*
X114045666Y-80876475D01*
X113707595Y-80762045D01*
X113701017Y-80760209D01*
X113352592Y-80682965D01*
X113345857Y-80681850D01*
X112991106Y-80642685D01*
X112984324Y-80642306D01*
X112627395Y-80641683D01*
X112620622Y-80642038D01*
X112265714Y-80679966D01*
X112259005Y-80681053D01*
X111910289Y-80757086D01*
X111903714Y-80758897D01*
X111565250Y-80872145D01*
X111558928Y-80874648D01*
X111234680Y-81023785D01*
X111228637Y-81026971D01*
X110922404Y-81210248D01*
X110916744Y-81214066D01*
X110632094Y-81429346D01*
X110626891Y-81433742D01*
X110622601Y-81437785D01*
X110614580Y-81451492D01*
X108108426Y-81451492D01*
X109222517Y-80337401D01*
X117000810Y-80337401D01*
X117006817Y-80347607D01*
X117947188Y-81287978D01*
X117961132Y-81295592D01*
X117962965Y-81295461D01*
X117969580Y-81291210D01*
X118911724Y-80349066D01*
X118918094Y-80337401D01*
X122080810Y-80337401D01*
X122086817Y-80347607D01*
X123027188Y-81287978D01*
X123041132Y-81295592D01*
X123042965Y-81295461D01*
X123049580Y-81291210D01*
X123991724Y-80349066D01*
X123998094Y-80337401D01*
X125600810Y-80337401D01*
X125606817Y-80347607D01*
X126547188Y-81287978D01*
X126561132Y-81295592D01*
X126562965Y-81295461D01*
X126569580Y-81291210D01*
X127511724Y-80349066D01*
X127518094Y-80337401D01*
X130680810Y-80337401D01*
X130686817Y-80347607D01*
X131627188Y-81287978D01*
X131641132Y-81295592D01*
X131642965Y-81295461D01*
X131649580Y-81291210D01*
X132591724Y-80349066D01*
X132598094Y-80337401D01*
X134200810Y-80337401D01*
X134206817Y-80347607D01*
X135147188Y-81287978D01*
X135161132Y-81295592D01*
X135162965Y-81295461D01*
X135169580Y-81291210D01*
X136111724Y-80349066D01*
X136118094Y-80337401D01*
X139280810Y-80337401D01*
X139286817Y-80347607D01*
X140227188Y-81287978D01*
X140241132Y-81295592D01*
X140242965Y-81295461D01*
X140249580Y-81291210D01*
X141191724Y-80349066D01*
X141199116Y-80335529D01*
X141195430Y-80330260D01*
X140987879Y-80203073D01*
X140979085Y-80198592D01*
X140750758Y-80104016D01*
X140741373Y-80100967D01*
X140501060Y-80043272D01*
X140491313Y-80041729D01*
X140244930Y-80022338D01*
X140235070Y-80022338D01*
X139988687Y-80041729D01*
X139978940Y-80043272D01*
X139738627Y-80100967D01*
X139729242Y-80104016D01*
X139500915Y-80198592D01*
X139492121Y-80203073D01*
X139286072Y-80329340D01*
X139280810Y-80337401D01*
X136118094Y-80337401D01*
X136119116Y-80335529D01*
X136115430Y-80330260D01*
X135907879Y-80203073D01*
X135899085Y-80198592D01*
X135670758Y-80104016D01*
X135661373Y-80100967D01*
X135421060Y-80043272D01*
X135411313Y-80041729D01*
X135164930Y-80022338D01*
X135155070Y-80022338D01*
X134908687Y-80041729D01*
X134898940Y-80043272D01*
X134658627Y-80100967D01*
X134649242Y-80104016D01*
X134420915Y-80198592D01*
X134412121Y-80203073D01*
X134206072Y-80329340D01*
X134200810Y-80337401D01*
X132598094Y-80337401D01*
X132599116Y-80335529D01*
X132595430Y-80330260D01*
X132387879Y-80203073D01*
X132379085Y-80198592D01*
X132150758Y-80104016D01*
X132141373Y-80100967D01*
X131901060Y-80043272D01*
X131891313Y-80041729D01*
X131644930Y-80022338D01*
X131635070Y-80022338D01*
X131388687Y-80041729D01*
X131378940Y-80043272D01*
X131138627Y-80100967D01*
X131129242Y-80104016D01*
X130900915Y-80198592D01*
X130892121Y-80203073D01*
X130686072Y-80329340D01*
X130680810Y-80337401D01*
X127518094Y-80337401D01*
X127519116Y-80335529D01*
X127515430Y-80330260D01*
X127307879Y-80203073D01*
X127299085Y-80198592D01*
X127070758Y-80104016D01*
X127061373Y-80100967D01*
X126821060Y-80043272D01*
X126811313Y-80041729D01*
X126564930Y-80022338D01*
X126555070Y-80022338D01*
X126308687Y-80041729D01*
X126298940Y-80043272D01*
X126058627Y-80100967D01*
X126049242Y-80104016D01*
X125820915Y-80198592D01*
X125812121Y-80203073D01*
X125606072Y-80329340D01*
X125600810Y-80337401D01*
X123998094Y-80337401D01*
X123999116Y-80335529D01*
X123995430Y-80330260D01*
X123787879Y-80203073D01*
X123779085Y-80198592D01*
X123550758Y-80104016D01*
X123541373Y-80100967D01*
X123301060Y-80043272D01*
X123291313Y-80041729D01*
X123044930Y-80022338D01*
X123035070Y-80022338D01*
X122788687Y-80041729D01*
X122778940Y-80043272D01*
X122538627Y-80100967D01*
X122529242Y-80104016D01*
X122300915Y-80198592D01*
X122292121Y-80203073D01*
X122086072Y-80329340D01*
X122080810Y-80337401D01*
X118918094Y-80337401D01*
X118919116Y-80335529D01*
X118915430Y-80330260D01*
X118707879Y-80203073D01*
X118699085Y-80198592D01*
X118470758Y-80104016D01*
X118461373Y-80100967D01*
X118221060Y-80043272D01*
X118211313Y-80041729D01*
X117964930Y-80022338D01*
X117955070Y-80022338D01*
X117708687Y-80041729D01*
X117698940Y-80043272D01*
X117458627Y-80100967D01*
X117449242Y-80104016D01*
X117220915Y-80198592D01*
X117212121Y-80203073D01*
X117006072Y-80329340D01*
X117000810Y-80337401D01*
X109222517Y-80337401D01*
X110368513Y-79191405D01*
X110430825Y-79157379D01*
X110457608Y-79154500D01*
X147742392Y-79154500D01*
X147810513Y-79174502D01*
G37*
G04 #@! TD.AperFunction*
G04 #@! TA.AperFunction,Conductor*
G36*
X138864021Y-100989321D02*
G01*
X138920857Y-101031868D01*
X138945668Y-101098388D01*
X138945989Y-101107377D01*
X138945989Y-101565127D01*
X138925987Y-101633248D01*
X138909084Y-101654222D01*
X134979711Y-105583595D01*
X134917399Y-105617621D01*
X134890616Y-105620500D01*
X134879388Y-105620500D01*
X134810856Y-105600232D01*
X134721324Y-105542200D01*
X134721322Y-105542199D01*
X134713790Y-105537317D01*
X134705170Y-105534739D01*
X134583938Y-105498482D01*
X134583936Y-105498482D01*
X134575337Y-105495910D01*
X134566364Y-105495855D01*
X134566362Y-105495855D01*
X134560569Y-105495820D01*
X134556799Y-105495797D01*
X134488801Y-105475380D01*
X134442636Y-105421442D01*
X134432961Y-105351107D01*
X134462847Y-105286708D01*
X134468472Y-105280704D01*
X138730894Y-101018282D01*
X138793206Y-100984256D01*
X138864021Y-100989321D01*
G37*
G04 #@! TD.AperFunction*
G04 #@! TA.AperFunction,Conductor*
G36*
X131272083Y-99205231D02*
G01*
X131317464Y-99259831D01*
X131327799Y-99309807D01*
X131327799Y-99680681D01*
X131322627Y-99711018D01*
X131323565Y-99711220D01*
X131321896Y-99718975D01*
X131319270Y-99726451D01*
X131318788Y-99732016D01*
X131318788Y-99734724D01*
X131318674Y-99737358D01*
X131318645Y-99737456D01*
X131318481Y-99737449D01*
X131318437Y-99738153D01*
X131316575Y-99744378D01*
X131316984Y-99754783D01*
X131318691Y-99798235D01*
X131318788Y-99803182D01*
X131318788Y-100214622D01*
X131316239Y-100238570D01*
X131316160Y-100240235D01*
X131313968Y-100250418D01*
X131315192Y-100260759D01*
X131317915Y-100283765D01*
X131318265Y-100289696D01*
X131318360Y-100289688D01*
X131318788Y-100294866D01*
X131318788Y-100300066D01*
X131319642Y-100305195D01*
X131319642Y-100305198D01*
X131321957Y-100319107D01*
X131322794Y-100324986D01*
X131326926Y-100359898D01*
X131327799Y-100374707D01*
X131327799Y-100995496D01*
X131307797Y-101063617D01*
X131254141Y-101110110D01*
X131183867Y-101120214D01*
X131118971Y-101090446D01*
X131116404Y-101088207D01*
X131110545Y-101081407D01*
X131024079Y-101025362D01*
X130996813Y-101007689D01*
X130996811Y-101007688D01*
X130989279Y-101002806D01*
X130980659Y-101000228D01*
X130859427Y-100963971D01*
X130859425Y-100963971D01*
X130850826Y-100961399D01*
X130841852Y-100961344D01*
X130841850Y-100961344D01*
X130778571Y-100960958D01*
X130706316Y-100960517D01*
X130658905Y-100974067D01*
X130587912Y-100973553D01*
X130528464Y-100934739D01*
X130499439Y-100869946D01*
X130500704Y-100828335D01*
X130504677Y-100808362D01*
X130511300Y-100775067D01*
X130511299Y-99332785D01*
X130531301Y-99264664D01*
X130584957Y-99218171D01*
X130655231Y-99208067D01*
X130680431Y-99215696D01*
X130680574Y-99215237D01*
X130818510Y-99258332D01*
X130962998Y-99260980D01*
X130972711Y-99258332D01*
X131093763Y-99225330D01*
X131093765Y-99225329D01*
X131102422Y-99222969D01*
X131110069Y-99218274D01*
X131110073Y-99218272D01*
X131135871Y-99202432D01*
X131204388Y-99183834D01*
X131272083Y-99205231D01*
G37*
G04 #@! TD.AperFunction*
G04 #@! TA.AperFunction,Conductor*
G36*
X119356626Y-97647391D02*
G01*
X119377600Y-97664294D01*
X120698722Y-98985416D01*
X120713864Y-99004164D01*
X120714979Y-99005389D01*
X120720629Y-99014140D01*
X120728807Y-99020587D01*
X120728809Y-99020589D01*
X120747000Y-99034929D01*
X120751441Y-99038875D01*
X120751503Y-99038802D01*
X120755467Y-99042161D01*
X120759144Y-99045838D01*
X120774892Y-99057092D01*
X120779562Y-99060598D01*
X120819847Y-99092356D01*
X120828481Y-99095388D01*
X120835934Y-99100714D01*
X120885050Y-99115403D01*
X120890692Y-99117236D01*
X120931567Y-99131590D01*
X120939051Y-99134218D01*
X120944616Y-99134700D01*
X120947324Y-99134700D01*
X120949958Y-99134814D01*
X120950056Y-99134843D01*
X120950049Y-99135007D01*
X120950753Y-99135051D01*
X120956978Y-99136913D01*
X121010835Y-99134797D01*
X121015782Y-99134700D01*
X127376300Y-99134700D01*
X127444421Y-99154702D01*
X127490914Y-99208358D01*
X127502300Y-99260700D01*
X127502300Y-99450500D01*
X127482298Y-99518621D01*
X127428642Y-99565114D01*
X127376300Y-99576500D01*
X119815384Y-99576500D01*
X119747263Y-99556498D01*
X119726289Y-99539595D01*
X119034405Y-98847711D01*
X119000379Y-98785399D01*
X118997500Y-98758616D01*
X118997500Y-98203532D01*
X119017502Y-98135411D01*
X119030084Y-98118978D01*
X119031175Y-98117773D01*
X119040551Y-98107414D01*
X119044816Y-98098612D01*
X119099645Y-97985443D01*
X119099645Y-97985442D01*
X119103560Y-97977362D01*
X119127536Y-97834853D01*
X119127688Y-97822400D01*
X119120363Y-97771251D01*
X119130505Y-97700983D01*
X119177028Y-97647353D01*
X119245090Y-97627389D01*
X119288505Y-97627389D01*
X119356626Y-97647391D01*
G37*
G04 #@! TD.AperFunction*
G04 #@! TA.AperFunction,Conductor*
G36*
X131261808Y-96600117D02*
G01*
X131314285Y-96647936D01*
X131332579Y-96716536D01*
X131310881Y-96784135D01*
X131301060Y-96796794D01*
X131281298Y-96819170D01*
X131277484Y-96827293D01*
X131277483Y-96827295D01*
X131261738Y-96860831D01*
X131219882Y-96949982D01*
X131218502Y-96958846D01*
X131218501Y-96958849D01*
X131199156Y-97083096D01*
X131197649Y-97092773D01*
X131198813Y-97101675D01*
X131198813Y-97101678D01*
X131200739Y-97116405D01*
X131216387Y-97236065D01*
X131274588Y-97368339D01*
X131280360Y-97375206D01*
X131280364Y-97375212D01*
X131298249Y-97396488D01*
X131326771Y-97461504D01*
X131327799Y-97477564D01*
X131327799Y-98199409D01*
X131307797Y-98267530D01*
X131254141Y-98314023D01*
X131183867Y-98324127D01*
X131133268Y-98305142D01*
X131128868Y-98302290D01*
X131113790Y-98292517D01*
X131096918Y-98287471D01*
X130983938Y-98253682D01*
X130983936Y-98253682D01*
X130975337Y-98251110D01*
X130966363Y-98251055D01*
X130966361Y-98251055D01*
X130903082Y-98250669D01*
X130830827Y-98250228D01*
X130822196Y-98252695D01*
X130822194Y-98252695D01*
X130700513Y-98287471D01*
X130700510Y-98287472D01*
X130691879Y-98289939D01*
X130687093Y-98292959D01*
X130618398Y-98302290D01*
X130554049Y-98272295D01*
X130516131Y-98212272D01*
X130511300Y-98177716D01*
X130511299Y-96720700D01*
X130531301Y-96652579D01*
X130584957Y-96606086D01*
X130637299Y-96594700D01*
X131060880Y-96594700D01*
X131084828Y-96597249D01*
X131086493Y-96597328D01*
X131096676Y-96599520D01*
X131107017Y-96598296D01*
X131130023Y-96595573D01*
X131135954Y-96595223D01*
X131135946Y-96595128D01*
X131141124Y-96594700D01*
X131146324Y-96594700D01*
X131151453Y-96593846D01*
X131151456Y-96593846D01*
X131165365Y-96591531D01*
X131171243Y-96590694D01*
X131191808Y-96588260D01*
X131261808Y-96600117D01*
G37*
G04 #@! TD.AperFunction*
G04 #@! TA.AperFunction,Conductor*
G36*
X146533268Y-94599502D02*
G01*
X146579761Y-94653158D01*
X146589865Y-94723432D01*
X146573471Y-94766722D01*
X146573999Y-94766970D01*
X146570988Y-94773384D01*
X146512583Y-94897782D01*
X146506154Y-94939070D01*
X146500515Y-94975287D01*
X146470270Y-95039519D01*
X146465110Y-95044996D01*
X145226511Y-96283595D01*
X145164199Y-96317621D01*
X145137416Y-96320500D01*
X143553920Y-96320500D01*
X143529972Y-96317951D01*
X143528307Y-96317872D01*
X143518124Y-96315680D01*
X143507783Y-96316904D01*
X143484777Y-96319627D01*
X143478846Y-96319977D01*
X143478854Y-96320072D01*
X143473676Y-96320500D01*
X143468476Y-96320500D01*
X143463347Y-96321354D01*
X143463344Y-96321354D01*
X143449435Y-96323669D01*
X143443557Y-96324506D01*
X143402999Y-96329306D01*
X143402998Y-96329306D01*
X143392659Y-96330530D01*
X143384407Y-96334493D01*
X143375374Y-96335996D01*
X143366205Y-96340943D01*
X143366203Y-96340944D01*
X143330268Y-96360334D01*
X143324975Y-96363031D01*
X143285918Y-96381785D01*
X143285914Y-96381788D01*
X143278768Y-96385219D01*
X143274492Y-96388814D01*
X143272569Y-96390737D01*
X143270637Y-96392509D01*
X143270558Y-96392552D01*
X143270445Y-96392428D01*
X143269905Y-96392904D01*
X143264186Y-96395990D01*
X143257119Y-96403635D01*
X143227584Y-96435586D01*
X143224154Y-96439152D01*
X143012395Y-96650911D01*
X142950083Y-96684937D01*
X142879268Y-96679872D01*
X142822432Y-96637325D01*
X142797621Y-96570805D01*
X142797300Y-96561816D01*
X142797300Y-95427932D01*
X142817302Y-95359811D01*
X142829884Y-95343378D01*
X142830975Y-95342173D01*
X142840351Y-95331814D01*
X142844616Y-95323012D01*
X142899445Y-95209843D01*
X142899445Y-95209842D01*
X142903360Y-95201762D01*
X142927336Y-95059253D01*
X142927488Y-95046800D01*
X142913291Y-94947669D01*
X142908274Y-94912635D01*
X142908273Y-94912633D01*
X142907001Y-94903748D01*
X142847188Y-94772195D01*
X142845532Y-94770273D01*
X142826588Y-94705218D01*
X142846743Y-94637143D01*
X142900502Y-94590770D01*
X142952588Y-94579500D01*
X146465147Y-94579500D01*
X146533268Y-94599502D01*
G37*
G04 #@! TD.AperFunction*
G04 #@! TA.AperFunction,Conductor*
G36*
X130525936Y-83772429D02*
G01*
X130559976Y-83796670D01*
X130693522Y-83930216D01*
X130708664Y-83948964D01*
X130709779Y-83950189D01*
X130715429Y-83958940D01*
X130723607Y-83965387D01*
X130723609Y-83965389D01*
X130741800Y-83979729D01*
X130746242Y-83983676D01*
X130746304Y-83983603D01*
X130750267Y-83986961D01*
X130753944Y-83990638D01*
X130758173Y-83993660D01*
X130769646Y-84001859D01*
X130774392Y-84005422D01*
X130781704Y-84011186D01*
X130814647Y-84037156D01*
X130823283Y-84040189D01*
X130830735Y-84045514D01*
X130877400Y-84059470D01*
X130879855Y-84060204D01*
X130885502Y-84062039D01*
X130926370Y-84076391D01*
X130926372Y-84076391D01*
X130933851Y-84079018D01*
X130939416Y-84079500D01*
X130942123Y-84079500D01*
X130944755Y-84079614D01*
X130944856Y-84079644D01*
X130944849Y-84079807D01*
X130945549Y-84079851D01*
X130951778Y-84081714D01*
X131002559Y-84079718D01*
X131005650Y-84079597D01*
X131010598Y-84079500D01*
X135846080Y-84079500D01*
X135870028Y-84082049D01*
X135871693Y-84082128D01*
X135881876Y-84084320D01*
X135892217Y-84083096D01*
X135915223Y-84080373D01*
X135921154Y-84080023D01*
X135921146Y-84079928D01*
X135926324Y-84079500D01*
X135931524Y-84079500D01*
X135936653Y-84078646D01*
X135936656Y-84078646D01*
X135950565Y-84076331D01*
X135956443Y-84075494D01*
X135997001Y-84070694D01*
X135997002Y-84070694D01*
X136007341Y-84069470D01*
X136015593Y-84065507D01*
X136024626Y-84064004D01*
X136033795Y-84059057D01*
X136033797Y-84059056D01*
X136069732Y-84039666D01*
X136075025Y-84036969D01*
X136114082Y-84018215D01*
X136114086Y-84018212D01*
X136121232Y-84014781D01*
X136125508Y-84011186D01*
X136127431Y-84009263D01*
X136129363Y-84007491D01*
X136129442Y-84007448D01*
X136129555Y-84007572D01*
X136130095Y-84007096D01*
X136135814Y-84004010D01*
X136145382Y-83993660D01*
X136172416Y-83964414D01*
X136175846Y-83960848D01*
X136216743Y-83919951D01*
X136279055Y-83885925D01*
X136349870Y-83890990D01*
X136406706Y-83933537D01*
X136431517Y-84000057D01*
X136431359Y-84020025D01*
X136415613Y-84200000D01*
X136435126Y-84423031D01*
X136436550Y-84428344D01*
X136436550Y-84428346D01*
X136477192Y-84580023D01*
X136493071Y-84639286D01*
X136587688Y-84842193D01*
X136716102Y-85025588D01*
X136874412Y-85183898D01*
X136878920Y-85187055D01*
X136878923Y-85187057D01*
X137009649Y-85278592D01*
X137057806Y-85312312D01*
X137062788Y-85314635D01*
X137062793Y-85314638D01*
X137247750Y-85400884D01*
X137301035Y-85447801D01*
X137320500Y-85515079D01*
X137320500Y-86846080D01*
X137317951Y-86870028D01*
X137317872Y-86871693D01*
X137315680Y-86881876D01*
X137316904Y-86892217D01*
X137319627Y-86915223D01*
X137319977Y-86921154D01*
X137320072Y-86921146D01*
X137320500Y-86926324D01*
X137320500Y-86931524D01*
X137321354Y-86936653D01*
X137321354Y-86936656D01*
X137323669Y-86950565D01*
X137324506Y-86956443D01*
X137327491Y-86981660D01*
X137330530Y-87007341D01*
X137334493Y-87015593D01*
X137335996Y-87024626D01*
X137340943Y-87033795D01*
X137340944Y-87033797D01*
X137360334Y-87069732D01*
X137363031Y-87075025D01*
X137381785Y-87114082D01*
X137381788Y-87114086D01*
X137385219Y-87121232D01*
X137388814Y-87125508D01*
X137390737Y-87127431D01*
X137392509Y-87129363D01*
X137392552Y-87129442D01*
X137392428Y-87129555D01*
X137392904Y-87130095D01*
X137395990Y-87135814D01*
X137403635Y-87142881D01*
X137435586Y-87172416D01*
X137439152Y-87175846D01*
X138824211Y-88560905D01*
X138858237Y-88623217D01*
X138853172Y-88694032D01*
X138824211Y-88739095D01*
X137702719Y-89860587D01*
X137640407Y-89894613D01*
X137637821Y-89895071D01*
X137630827Y-89895028D01*
X137570143Y-89912371D01*
X137500509Y-89932272D01*
X137500505Y-89932274D01*
X137491879Y-89934739D01*
X137484292Y-89939526D01*
X137484290Y-89939527D01*
X137392070Y-89997714D01*
X137369661Y-90011853D01*
X137363718Y-90018582D01*
X137363717Y-90018583D01*
X137316465Y-90072086D01*
X137273999Y-90120170D01*
X137212583Y-90250982D01*
X137211203Y-90259846D01*
X137211202Y-90259849D01*
X137201973Y-90319127D01*
X137190350Y-90393773D01*
X137191514Y-90402675D01*
X137191514Y-90402678D01*
X137202874Y-90489544D01*
X137209088Y-90537065D01*
X137267289Y-90669339D01*
X137360276Y-90779960D01*
X137367747Y-90784933D01*
X137367748Y-90784934D01*
X137473101Y-90855063D01*
X137473103Y-90855064D01*
X137480574Y-90860037D01*
X137489138Y-90862713D01*
X137489141Y-90862714D01*
X137549542Y-90881584D01*
X137618510Y-90903132D01*
X137762998Y-90905780D01*
X137782530Y-90900455D01*
X137893763Y-90870130D01*
X137893765Y-90870129D01*
X137902422Y-90867769D01*
X138025572Y-90792154D01*
X138122551Y-90685014D01*
X138185560Y-90554962D01*
X138199881Y-90469843D01*
X138235040Y-90401654D01*
X139259800Y-89376894D01*
X139322112Y-89342868D01*
X139348895Y-89339989D01*
X141811527Y-89339989D01*
X141879648Y-89359991D01*
X141926141Y-89413647D01*
X141936245Y-89483921D01*
X141906751Y-89548501D01*
X141900622Y-89555084D01*
X138972111Y-92483595D01*
X138909799Y-92517621D01*
X138883016Y-92520500D01*
X138079388Y-92520500D01*
X138010856Y-92500232D01*
X137921324Y-92442200D01*
X137921322Y-92442199D01*
X137913790Y-92437317D01*
X137896921Y-92432272D01*
X137783938Y-92398482D01*
X137783936Y-92398482D01*
X137775337Y-92395910D01*
X137766363Y-92395855D01*
X137766361Y-92395855D01*
X137703082Y-92395469D01*
X137630827Y-92395028D01*
X137622196Y-92397495D01*
X137622194Y-92397495D01*
X137500509Y-92432272D01*
X137500505Y-92432274D01*
X137491879Y-92434739D01*
X137369661Y-92511853D01*
X137273999Y-92620170D01*
X137212583Y-92750982D01*
X137211203Y-92759846D01*
X137211202Y-92759849D01*
X137193136Y-92875882D01*
X137190350Y-92893773D01*
X137191514Y-92902672D01*
X137191514Y-92902678D01*
X137207924Y-93028164D01*
X137209088Y-93037065D01*
X137267289Y-93169339D01*
X137273063Y-93176208D01*
X137349817Y-93267517D01*
X137360276Y-93279960D01*
X137367747Y-93284933D01*
X137367748Y-93284934D01*
X137473101Y-93355063D01*
X137473103Y-93355064D01*
X137480574Y-93360037D01*
X137489138Y-93362713D01*
X137489141Y-93362714D01*
X137545840Y-93380428D01*
X137618510Y-93403132D01*
X137762998Y-93405780D01*
X137803834Y-93394647D01*
X137893763Y-93370130D01*
X137893765Y-93370129D01*
X137902422Y-93367769D01*
X138015848Y-93298125D01*
X138081776Y-93279500D01*
X139038480Y-93279500D01*
X139062428Y-93282049D01*
X139064093Y-93282128D01*
X139074276Y-93284320D01*
X139084617Y-93283096D01*
X139107623Y-93280373D01*
X139113554Y-93280023D01*
X139113546Y-93279928D01*
X139118724Y-93279500D01*
X139123924Y-93279500D01*
X139129053Y-93278646D01*
X139129056Y-93278646D01*
X139142965Y-93276331D01*
X139148843Y-93275494D01*
X139189401Y-93270694D01*
X139189402Y-93270694D01*
X139199741Y-93269470D01*
X139207993Y-93265507D01*
X139217026Y-93264004D01*
X139226195Y-93259057D01*
X139226197Y-93259056D01*
X139262132Y-93239666D01*
X139267425Y-93236969D01*
X139306482Y-93218215D01*
X139306486Y-93218212D01*
X139313632Y-93214781D01*
X139317908Y-93211186D01*
X139319831Y-93209263D01*
X139321763Y-93207491D01*
X139321842Y-93207448D01*
X139321955Y-93207572D01*
X139322495Y-93207096D01*
X139328214Y-93204010D01*
X139364817Y-93164413D01*
X139368246Y-93160848D01*
X142454622Y-90074472D01*
X142516455Y-90040708D01*
X142520398Y-90040780D01*
X142590110Y-90021774D01*
X142651163Y-90005130D01*
X142651165Y-90005129D01*
X142659822Y-90002769D01*
X142782972Y-89927154D01*
X142879951Y-89820014D01*
X142942960Y-89689962D01*
X142966936Y-89547453D01*
X142967088Y-89535000D01*
X142959763Y-89483851D01*
X142969905Y-89413583D01*
X143016428Y-89359953D01*
X143084490Y-89339989D01*
X146623505Y-89339989D01*
X146691626Y-89359991D01*
X146712600Y-89376894D01*
X146872468Y-89536762D01*
X146906494Y-89599074D01*
X146908308Y-89609515D01*
X146916488Y-89672065D01*
X146974689Y-89804339D01*
X146980463Y-89811208D01*
X147021971Y-89860587D01*
X147067676Y-89914960D01*
X147075147Y-89919933D01*
X147075148Y-89919934D01*
X147180501Y-89990063D01*
X147180503Y-89990064D01*
X147187974Y-89995037D01*
X147196538Y-89997713D01*
X147196541Y-89997714D01*
X147308460Y-90032680D01*
X147367516Y-90072086D01*
X147389294Y-90122030D01*
X147391254Y-90108865D01*
X147438015Y-90055442D01*
X147472463Y-90040217D01*
X147601162Y-90005130D01*
X147609822Y-90002769D01*
X147732972Y-89927154D01*
X147738998Y-89920497D01*
X147801085Y-89851905D01*
X147861628Y-89814823D01*
X147932608Y-89816361D01*
X147991489Y-89856029D01*
X148019577Y-89921233D01*
X148020500Y-89936460D01*
X148020500Y-90421423D01*
X148000498Y-90489544D01*
X147946842Y-90536037D01*
X147876568Y-90546141D01*
X147811988Y-90516647D01*
X147799047Y-90503671D01*
X147795686Y-90499770D01*
X147705856Y-90395518D01*
X147584590Y-90316917D01*
X147567721Y-90311872D01*
X147469501Y-90282497D01*
X147409968Y-90243815D01*
X147386930Y-90192694D01*
X147384580Y-90207255D01*
X147337171Y-90260102D01*
X147301174Y-90273042D01*
X147301627Y-90274628D01*
X147171309Y-90311872D01*
X147171305Y-90311874D01*
X147162679Y-90314339D01*
X147040461Y-90391453D01*
X146944799Y-90499770D01*
X146883383Y-90630582D01*
X146882003Y-90639446D01*
X146882002Y-90639449D01*
X146874908Y-90685014D01*
X146861150Y-90773373D01*
X146862314Y-90782275D01*
X146862314Y-90782278D01*
X146868141Y-90826834D01*
X146879888Y-90916665D01*
X146938089Y-91048939D01*
X147031076Y-91159560D01*
X147038547Y-91164533D01*
X147038548Y-91164534D01*
X147143901Y-91234663D01*
X147143903Y-91234664D01*
X147151374Y-91239637D01*
X147159938Y-91242313D01*
X147159941Y-91242314D01*
X147220342Y-91261184D01*
X147289310Y-91282732D01*
X147433798Y-91285380D01*
X147453330Y-91280055D01*
X147564563Y-91249730D01*
X147564565Y-91249729D01*
X147573222Y-91247369D01*
X147696372Y-91171754D01*
X147793351Y-91064614D01*
X147793440Y-91064430D01*
X147844717Y-91021956D01*
X147915198Y-91013416D01*
X147979108Y-91044336D01*
X148016155Y-91104900D01*
X148020500Y-91137704D01*
X148020500Y-94079616D01*
X148000498Y-94147737D01*
X147946842Y-94194230D01*
X147876568Y-94204334D01*
X147811988Y-94174840D01*
X147805405Y-94168711D01*
X147606478Y-93969784D01*
X147591336Y-93951036D01*
X147590221Y-93949811D01*
X147584571Y-93941060D01*
X147576393Y-93934613D01*
X147576391Y-93934611D01*
X147558200Y-93920271D01*
X147553759Y-93916325D01*
X147553697Y-93916398D01*
X147549733Y-93913039D01*
X147546056Y-93909362D01*
X147530308Y-93898108D01*
X147525638Y-93894602D01*
X147485353Y-93862844D01*
X147476719Y-93859812D01*
X147469266Y-93854486D01*
X147420150Y-93839797D01*
X147414508Y-93837964D01*
X147373633Y-93823610D01*
X147373632Y-93823610D01*
X147366149Y-93820982D01*
X147360584Y-93820500D01*
X147357876Y-93820500D01*
X147355242Y-93820386D01*
X147355144Y-93820357D01*
X147355151Y-93820193D01*
X147354447Y-93820149D01*
X147348222Y-93818287D01*
X147294365Y-93820403D01*
X147289418Y-93820500D01*
X142986823Y-93820500D01*
X142918702Y-93800498D01*
X142872209Y-93746842D01*
X142862105Y-93676568D01*
X142873431Y-93639562D01*
X142884243Y-93617247D01*
X142897376Y-93590139D01*
X142924845Y-93533443D01*
X142924845Y-93533442D01*
X142928760Y-93525362D01*
X142952736Y-93382853D01*
X142952888Y-93370400D01*
X142938609Y-93270694D01*
X142933674Y-93236235D01*
X142933673Y-93236233D01*
X142932401Y-93227348D01*
X142923410Y-93207572D01*
X142902291Y-93161125D01*
X142872588Y-93095795D01*
X142866730Y-93088996D01*
X142866727Y-93088992D01*
X142784116Y-92993118D01*
X142784113Y-92993116D01*
X142778256Y-92986318D01*
X142717623Y-92947017D01*
X142664524Y-92912600D01*
X142664522Y-92912599D01*
X142656990Y-92907717D01*
X142640121Y-92902672D01*
X142527138Y-92868882D01*
X142527136Y-92868882D01*
X142518537Y-92866310D01*
X142509563Y-92866255D01*
X142509561Y-92866255D01*
X142446282Y-92865869D01*
X142374027Y-92865428D01*
X142365396Y-92867895D01*
X142365394Y-92867895D01*
X142243709Y-92902672D01*
X142243705Y-92902674D01*
X142235079Y-92905139D01*
X142227492Y-92909926D01*
X142227490Y-92909927D01*
X142120454Y-92977462D01*
X142112861Y-92982253D01*
X142106918Y-92988982D01*
X142106917Y-92988983D01*
X142097083Y-93000118D01*
X142017199Y-93090570D01*
X142013385Y-93098693D01*
X142013384Y-93098695D01*
X141984204Y-93160848D01*
X141955783Y-93221382D01*
X141954403Y-93230246D01*
X141954402Y-93230249D01*
X141939588Y-93325395D01*
X141933550Y-93364173D01*
X141934714Y-93373075D01*
X141934714Y-93373078D01*
X141941844Y-93427600D01*
X141952288Y-93507465D01*
X142001350Y-93618969D01*
X142010489Y-93639739D01*
X142008195Y-93640748D01*
X142023646Y-93696313D01*
X142002666Y-93764139D01*
X141948346Y-93809855D01*
X141897659Y-93820500D01*
X135209384Y-93820500D01*
X135141263Y-93800498D01*
X135120289Y-93783595D01*
X132990467Y-91653773D01*
X134330350Y-91653773D01*
X134331514Y-91662675D01*
X134331514Y-91662678D01*
X134336208Y-91698569D01*
X134349088Y-91797065D01*
X134407289Y-91929339D01*
X134500276Y-92039960D01*
X134507747Y-92044933D01*
X134507748Y-92044934D01*
X134613101Y-92115063D01*
X134613103Y-92115064D01*
X134620574Y-92120037D01*
X134629138Y-92122713D01*
X134629141Y-92122714D01*
X134689086Y-92141442D01*
X134758510Y-92163132D01*
X134902998Y-92165780D01*
X134992270Y-92141442D01*
X135033763Y-92130130D01*
X135033765Y-92130129D01*
X135042422Y-92127769D01*
X135165572Y-92052154D01*
X135262551Y-91945014D01*
X135318574Y-91829381D01*
X135321645Y-91823043D01*
X135321645Y-91823042D01*
X135325560Y-91814962D01*
X135349536Y-91672453D01*
X135349688Y-91660000D01*
X135329201Y-91516948D01*
X135269388Y-91385395D01*
X135263530Y-91378596D01*
X135263527Y-91378592D01*
X135180916Y-91282718D01*
X135180913Y-91282716D01*
X135175056Y-91275918D01*
X135053790Y-91197317D01*
X134946066Y-91165100D01*
X134923938Y-91158482D01*
X134923936Y-91158482D01*
X134915337Y-91155910D01*
X134906363Y-91155855D01*
X134906361Y-91155855D01*
X134843082Y-91155469D01*
X134770827Y-91155028D01*
X134762196Y-91157495D01*
X134762194Y-91157495D01*
X134640509Y-91192272D01*
X134640505Y-91192274D01*
X134631879Y-91194739D01*
X134624292Y-91199526D01*
X134624290Y-91199527D01*
X134517254Y-91267062D01*
X134509661Y-91271853D01*
X134413999Y-91380170D01*
X134352583Y-91510982D01*
X134351203Y-91519846D01*
X134351202Y-91519849D01*
X134338549Y-91601117D01*
X134330350Y-91653773D01*
X132990467Y-91653773D01*
X129516405Y-88179711D01*
X129482379Y-88117399D01*
X129479500Y-88090616D01*
X129479500Y-88064471D01*
X130680884Y-88064471D01*
X130684570Y-88069740D01*
X130892121Y-88196927D01*
X130900915Y-88201408D01*
X131129242Y-88295984D01*
X131138627Y-88299033D01*
X131378940Y-88356728D01*
X131388687Y-88358271D01*
X131635070Y-88377662D01*
X131644930Y-88377662D01*
X131891313Y-88358271D01*
X131901060Y-88356728D01*
X132141373Y-88299033D01*
X132150758Y-88295984D01*
X132379085Y-88201408D01*
X132387879Y-88196927D01*
X132593928Y-88070660D01*
X132597968Y-88064471D01*
X134200884Y-88064471D01*
X134204570Y-88069740D01*
X134412121Y-88196927D01*
X134420915Y-88201408D01*
X134649242Y-88295984D01*
X134658627Y-88299033D01*
X134898940Y-88356728D01*
X134908687Y-88358271D01*
X135155070Y-88377662D01*
X135164930Y-88377662D01*
X135411313Y-88358271D01*
X135421060Y-88356728D01*
X135661373Y-88299033D01*
X135670758Y-88295984D01*
X135899085Y-88201408D01*
X135907879Y-88196927D01*
X136113928Y-88070660D01*
X136119190Y-88062599D01*
X136113183Y-88052393D01*
X135172812Y-87112022D01*
X135158868Y-87104408D01*
X135157035Y-87104539D01*
X135150420Y-87108790D01*
X134208276Y-88050934D01*
X134200884Y-88064471D01*
X132597968Y-88064471D01*
X132599190Y-88062599D01*
X132593183Y-88052393D01*
X131652812Y-87112022D01*
X131638868Y-87104408D01*
X131637035Y-87104539D01*
X131630420Y-87108790D01*
X130688276Y-88050934D01*
X130680884Y-88064471D01*
X129479500Y-88064471D01*
X129479500Y-86744930D01*
X130002338Y-86744930D01*
X130021729Y-86991313D01*
X130023272Y-87001060D01*
X130080967Y-87241373D01*
X130084016Y-87250758D01*
X130178592Y-87479085D01*
X130183073Y-87487879D01*
X130309340Y-87693928D01*
X130317401Y-87699190D01*
X130327607Y-87693183D01*
X131267978Y-86752812D01*
X131274356Y-86741132D01*
X132004408Y-86741132D01*
X132004539Y-86742965D01*
X132008790Y-86749580D01*
X132950934Y-87691724D01*
X132964471Y-87699116D01*
X132969740Y-87695430D01*
X133096927Y-87487879D01*
X133101408Y-87479085D01*
X133195984Y-87250758D01*
X133199033Y-87241373D01*
X133256728Y-87001060D01*
X133258271Y-86991313D01*
X133274388Y-86786530D01*
X133291729Y-86741033D01*
X133507484Y-86741033D01*
X133523309Y-86770512D01*
X133525612Y-86786530D01*
X133541729Y-86991313D01*
X133543272Y-87001060D01*
X133600967Y-87241373D01*
X133604016Y-87250758D01*
X133698592Y-87479085D01*
X133703073Y-87487879D01*
X133829340Y-87693928D01*
X133837401Y-87699190D01*
X133847607Y-87693183D01*
X134787978Y-86752812D01*
X134794356Y-86741132D01*
X135524408Y-86741132D01*
X135524539Y-86742965D01*
X135528790Y-86749580D01*
X136470934Y-87691724D01*
X136484471Y-87699116D01*
X136489740Y-87695430D01*
X136616927Y-87487879D01*
X136621408Y-87479085D01*
X136715984Y-87250758D01*
X136719033Y-87241373D01*
X136776728Y-87001060D01*
X136778271Y-86991313D01*
X136797662Y-86744930D01*
X136797662Y-86735070D01*
X136778271Y-86488687D01*
X136776728Y-86478940D01*
X136719033Y-86238627D01*
X136715984Y-86229242D01*
X136621408Y-86000915D01*
X136616927Y-85992121D01*
X136490660Y-85786072D01*
X136482599Y-85780810D01*
X136472393Y-85786817D01*
X135532022Y-86727188D01*
X135524408Y-86741132D01*
X134794356Y-86741132D01*
X134795592Y-86738868D01*
X134795461Y-86737035D01*
X134791210Y-86730420D01*
X133849066Y-85788276D01*
X133835529Y-85780884D01*
X133830260Y-85784570D01*
X133703073Y-85992121D01*
X133698592Y-86000915D01*
X133604016Y-86229242D01*
X133600967Y-86238627D01*
X133543272Y-86478940D01*
X133541729Y-86488687D01*
X133525612Y-86693470D01*
X133507484Y-86741033D01*
X133291729Y-86741033D01*
X133292516Y-86738967D01*
X133276691Y-86709488D01*
X133274388Y-86693470D01*
X133258271Y-86488687D01*
X133256728Y-86478940D01*
X133199033Y-86238627D01*
X133195984Y-86229242D01*
X133101408Y-86000915D01*
X133096927Y-85992121D01*
X132970660Y-85786072D01*
X132962599Y-85780810D01*
X132952393Y-85786817D01*
X132012022Y-86727188D01*
X132004408Y-86741132D01*
X131274356Y-86741132D01*
X131275592Y-86738868D01*
X131275461Y-86737035D01*
X131271210Y-86730420D01*
X130329066Y-85788276D01*
X130315529Y-85780884D01*
X130310260Y-85784570D01*
X130183073Y-85992121D01*
X130178592Y-86000915D01*
X130084016Y-86229242D01*
X130080967Y-86238627D01*
X130023272Y-86478940D01*
X130021729Y-86488687D01*
X130002338Y-86735070D01*
X130002338Y-86744930D01*
X129479500Y-86744930D01*
X129479500Y-85515079D01*
X129499502Y-85446958D01*
X129533340Y-85417401D01*
X130680810Y-85417401D01*
X130686817Y-85427607D01*
X131627188Y-86367978D01*
X131641132Y-86375592D01*
X131642965Y-86375461D01*
X131649580Y-86371210D01*
X132591724Y-85429066D01*
X132598094Y-85417401D01*
X134200810Y-85417401D01*
X134206817Y-85427607D01*
X135147188Y-86367978D01*
X135161132Y-86375592D01*
X135162965Y-86375461D01*
X135169580Y-86371210D01*
X136111724Y-85429066D01*
X136119116Y-85415529D01*
X136115430Y-85410260D01*
X135907879Y-85283073D01*
X135899085Y-85278592D01*
X135670758Y-85184016D01*
X135661373Y-85180967D01*
X135421060Y-85123272D01*
X135411313Y-85121729D01*
X135164930Y-85102338D01*
X135155070Y-85102338D01*
X134908687Y-85121729D01*
X134898940Y-85123272D01*
X134658627Y-85180967D01*
X134649242Y-85184016D01*
X134420915Y-85278592D01*
X134412121Y-85283073D01*
X134206072Y-85409340D01*
X134200810Y-85417401D01*
X132598094Y-85417401D01*
X132599116Y-85415529D01*
X132595430Y-85410260D01*
X132387879Y-85283073D01*
X132379085Y-85278592D01*
X132150758Y-85184016D01*
X132141373Y-85180967D01*
X131901060Y-85123272D01*
X131891313Y-85121729D01*
X131644930Y-85102338D01*
X131635070Y-85102338D01*
X131388687Y-85121729D01*
X131378940Y-85123272D01*
X131138627Y-85180967D01*
X131129242Y-85184016D01*
X130900915Y-85278592D01*
X130892121Y-85283073D01*
X130686072Y-85409340D01*
X130680810Y-85417401D01*
X129533340Y-85417401D01*
X129552250Y-85400884D01*
X129737207Y-85314638D01*
X129737212Y-85314635D01*
X129742194Y-85312312D01*
X129790351Y-85278592D01*
X129921077Y-85187057D01*
X129921080Y-85187055D01*
X129925588Y-85183898D01*
X130083898Y-85025588D01*
X130212312Y-84842193D01*
X130306929Y-84639286D01*
X130322809Y-84580023D01*
X130363450Y-84428346D01*
X130363450Y-84428344D01*
X130364874Y-84423031D01*
X130384387Y-84200000D01*
X130364874Y-83976969D01*
X130349174Y-83918375D01*
X130350864Y-83847400D01*
X130390658Y-83788604D01*
X130455922Y-83760656D01*
X130525936Y-83772429D01*
G37*
G04 #@! TD.AperFunction*
G04 #@! TA.AperFunction,Conductor*
G36*
X139168061Y-83906992D02*
G01*
X139183257Y-83919951D01*
X139693522Y-84430216D01*
X139708664Y-84448964D01*
X139709779Y-84450189D01*
X139715429Y-84458940D01*
X139723607Y-84465387D01*
X139723609Y-84465389D01*
X139741800Y-84479729D01*
X139746244Y-84483678D01*
X139746306Y-84483604D01*
X139750263Y-84486957D01*
X139753944Y-84490638D01*
X139769654Y-84501865D01*
X139774380Y-84505413D01*
X139814647Y-84537156D01*
X139823284Y-84540189D01*
X139830734Y-84545513D01*
X139840710Y-84548497D01*
X139840711Y-84548497D01*
X139856046Y-84553083D01*
X139879849Y-84560202D01*
X139885486Y-84562034D01*
X139926199Y-84576331D01*
X139933851Y-84579018D01*
X139939416Y-84579500D01*
X139942124Y-84579500D01*
X139944758Y-84579614D01*
X139944856Y-84579643D01*
X139944849Y-84579807D01*
X139945553Y-84579851D01*
X139951778Y-84581713D01*
X140005635Y-84579597D01*
X140010582Y-84579500D01*
X140390616Y-84579500D01*
X140458737Y-84599502D01*
X140479711Y-84616405D01*
X140824058Y-84960752D01*
X140858084Y-85023064D01*
X140853019Y-85093879D01*
X140810472Y-85150715D01*
X140743952Y-85175526D01*
X140705549Y-85172366D01*
X140501060Y-85123272D01*
X140491313Y-85121729D01*
X140244930Y-85102338D01*
X140235070Y-85102338D01*
X139988687Y-85121729D01*
X139978940Y-85123272D01*
X139738627Y-85180967D01*
X139729242Y-85184016D01*
X139500915Y-85278592D01*
X139492121Y-85283073D01*
X139286072Y-85409340D01*
X139280810Y-85417401D01*
X139286817Y-85427607D01*
X140510115Y-86650905D01*
X140544141Y-86713217D01*
X140539076Y-86784032D01*
X140510115Y-86829095D01*
X140329095Y-87010115D01*
X140266783Y-87044141D01*
X140195968Y-87039076D01*
X140150905Y-87010115D01*
X138929066Y-85788276D01*
X138915529Y-85780884D01*
X138910260Y-85784570D01*
X138783073Y-85992121D01*
X138778592Y-86000915D01*
X138684016Y-86229242D01*
X138680967Y-86238627D01*
X138623272Y-86478940D01*
X138621729Y-86488687D01*
X138602338Y-86735070D01*
X138602338Y-86744930D01*
X138620023Y-86969641D01*
X138605427Y-87039121D01*
X138555584Y-87089681D01*
X138486320Y-87105267D01*
X138419624Y-87080932D01*
X138405316Y-87068622D01*
X138116405Y-86779711D01*
X138082379Y-86717399D01*
X138079500Y-86690616D01*
X138079500Y-85515079D01*
X138099502Y-85446958D01*
X138152250Y-85400884D01*
X138337207Y-85314638D01*
X138337212Y-85314635D01*
X138342194Y-85312312D01*
X138390351Y-85278592D01*
X138521077Y-85187057D01*
X138521080Y-85187055D01*
X138525588Y-85183898D01*
X138683898Y-85025588D01*
X138812312Y-84842193D01*
X138906929Y-84639286D01*
X138922809Y-84580023D01*
X138963450Y-84428346D01*
X138963450Y-84428344D01*
X138964874Y-84423031D01*
X138984387Y-84200000D01*
X138968641Y-84020027D01*
X138982630Y-83950423D01*
X139032029Y-83899431D01*
X139101155Y-83883240D01*
X139168061Y-83906992D01*
G37*
G04 #@! TD.AperFunction*
M02*
