G04 #@! TF.GenerationSoftware,KiCad,Pcbnew,(6.0.5)*
G04 #@! TF.CreationDate,2025-03-10T11:46:14+01:00*
G04 #@! TF.ProjectId,CatLickDet,4361744c-6963-46b4-9465-742e6b696361,rev?*
G04 #@! TF.SameCoordinates,Original*
G04 #@! TF.FileFunction,Legend,Bot*
G04 #@! TF.FilePolarity,Positive*
%FSLAX46Y46*%
G04 Gerber Fmt 4.6, Leading zero omitted, Abs format (unit mm)*
G04 Created by KiCad (PCBNEW (6.0.5)) date 2025-03-10 11:46:14*
%MOMM*%
%LPD*%
G01*
G04 APERTURE LIST*
%ADD10C,0.150000*%
%ADD11C,0.120000*%
%ADD12C,0.010000*%
%ADD13C,2.050000*%
%ADD14C,2.250000*%
%ADD15C,5.700000*%
%ADD16R,2.500000X1.500000*%
G04 APERTURE END LIST*
D10*
X117973809Y-105166666D02*
X117497619Y-105166666D01*
X118069047Y-105452380D02*
X117735714Y-104452380D01*
X117402380Y-105452380D01*
X117069047Y-104785714D02*
X117069047Y-105452380D01*
X117069047Y-104880952D02*
X117021428Y-104833333D01*
X116926190Y-104785714D01*
X116783333Y-104785714D01*
X116688095Y-104833333D01*
X116640476Y-104928571D01*
X116640476Y-105452380D01*
X116021428Y-105452380D02*
X116116666Y-105404761D01*
X116164285Y-105357142D01*
X116211904Y-105261904D01*
X116211904Y-104976190D01*
X116164285Y-104880952D01*
X116116666Y-104833333D01*
X116021428Y-104785714D01*
X115878571Y-104785714D01*
X115783333Y-104833333D01*
X115735714Y-104880952D01*
X115688095Y-104976190D01*
X115688095Y-105261904D01*
X115735714Y-105357142D01*
X115783333Y-105404761D01*
X115878571Y-105452380D01*
X116021428Y-105452380D01*
X114830952Y-105452380D02*
X114830952Y-104452380D01*
X114830952Y-105404761D02*
X114926190Y-105452380D01*
X115116666Y-105452380D01*
X115211904Y-105404761D01*
X115259523Y-105357142D01*
X115307142Y-105261904D01*
X115307142Y-104976190D01*
X115259523Y-104880952D01*
X115211904Y-104833333D01*
X115116666Y-104785714D01*
X114926190Y-104785714D01*
X114830952Y-104833333D01*
X113973809Y-105404761D02*
X114069047Y-105452380D01*
X114259523Y-105452380D01*
X114354761Y-105404761D01*
X114402380Y-105309523D01*
X114402380Y-104928571D01*
X114354761Y-104833333D01*
X114259523Y-104785714D01*
X114069047Y-104785714D01*
X113973809Y-104833333D01*
X113926190Y-104928571D01*
X113926190Y-105023809D01*
X114402380Y-105119047D01*
X127323809Y-95166666D02*
X126847619Y-95166666D01*
X127419047Y-95452380D02*
X127085714Y-94452380D01*
X126752380Y-95452380D01*
X126419047Y-94785714D02*
X126419047Y-95452380D01*
X126419047Y-94880952D02*
X126371428Y-94833333D01*
X126276190Y-94785714D01*
X126133333Y-94785714D01*
X126038095Y-94833333D01*
X125990476Y-94928571D01*
X125990476Y-95452380D01*
X125371428Y-95452380D02*
X125466666Y-95404761D01*
X125514285Y-95357142D01*
X125561904Y-95261904D01*
X125561904Y-94976190D01*
X125514285Y-94880952D01*
X125466666Y-94833333D01*
X125371428Y-94785714D01*
X125228571Y-94785714D01*
X125133333Y-94833333D01*
X125085714Y-94880952D01*
X125038095Y-94976190D01*
X125038095Y-95261904D01*
X125085714Y-95357142D01*
X125133333Y-95404761D01*
X125228571Y-95452380D01*
X125371428Y-95452380D01*
X124180952Y-95452380D02*
X124180952Y-94452380D01*
X124180952Y-95404761D02*
X124276190Y-95452380D01*
X124466666Y-95452380D01*
X124561904Y-95404761D01*
X124609523Y-95357142D01*
X124657142Y-95261904D01*
X124657142Y-94976190D01*
X124609523Y-94880952D01*
X124561904Y-94833333D01*
X124466666Y-94785714D01*
X124276190Y-94785714D01*
X124180952Y-94833333D01*
X123323809Y-95404761D02*
X123419047Y-95452380D01*
X123609523Y-95452380D01*
X123704761Y-95404761D01*
X123752380Y-95309523D01*
X123752380Y-94928571D01*
X123704761Y-94833333D01*
X123609523Y-94785714D01*
X123419047Y-94785714D01*
X123323809Y-94833333D01*
X123276190Y-94928571D01*
X123276190Y-95023809D01*
X123752380Y-95119047D01*
D11*
X110500000Y-107500000D02*
X127500000Y-107500000D01*
X127500000Y-107500000D02*
X127500000Y-92500000D01*
X127500000Y-92500000D02*
X110500000Y-92500000D01*
X110500000Y-92500000D02*
X110500000Y-107500000D01*
G36*
X137319692Y-93867058D02*
G01*
X137320845Y-93876985D01*
X137321845Y-93900960D01*
X137322632Y-93936413D01*
X137323148Y-93980770D01*
X137323333Y-94031462D01*
X137323242Y-94082712D01*
X137322806Y-94126580D01*
X137321824Y-94157752D01*
X137320102Y-94178475D01*
X137317441Y-94190994D01*
X137313645Y-94197558D01*
X137308516Y-94200412D01*
X137291467Y-94204777D01*
X137258924Y-94212202D01*
X137213823Y-94222009D01*
X137158283Y-94233773D01*
X137094420Y-94247068D01*
X137024352Y-94261467D01*
X136950198Y-94276544D01*
X136874074Y-94291872D01*
X136798100Y-94307026D01*
X136724391Y-94321578D01*
X136655067Y-94335104D01*
X136592245Y-94347176D01*
X136538042Y-94357369D01*
X136494577Y-94365255D01*
X136463966Y-94370409D01*
X136427512Y-94376124D01*
X136381644Y-94383476D01*
X136342741Y-94389893D01*
X136314063Y-94394836D01*
X136298866Y-94397765D01*
X136296581Y-94398784D01*
X136302369Y-94402543D01*
X136323654Y-94407906D01*
X136359491Y-94414660D01*
X136408933Y-94422590D01*
X136413768Y-94423324D01*
X136473942Y-94432997D01*
X136540724Y-94444513D01*
X136606319Y-94456491D01*
X136662933Y-94467551D01*
X136680019Y-94471056D01*
X136727185Y-94480770D01*
X136782643Y-94492235D01*
X136844132Y-94504978D01*
X136909390Y-94518529D01*
X136976157Y-94532417D01*
X137042171Y-94546169D01*
X137105171Y-94559316D01*
X137162896Y-94571384D01*
X137213084Y-94581904D01*
X137253474Y-94590404D01*
X137281805Y-94596413D01*
X137295816Y-94599458D01*
X137301085Y-94600877D01*
X137306172Y-94604041D01*
X137309823Y-94610825D01*
X137312274Y-94623446D01*
X137313766Y-94644124D01*
X137314536Y-94675078D01*
X137314823Y-94718527D01*
X137314866Y-94776690D01*
X137314866Y-94781953D01*
X137314735Y-94839265D01*
X137314248Y-94882008D01*
X137313220Y-94912370D01*
X137311470Y-94932541D01*
X137308813Y-94944709D01*
X137305068Y-94951063D01*
X137300050Y-94953792D01*
X137295461Y-94954974D01*
X137274858Y-94959805D01*
X137241112Y-94967455D01*
X137196518Y-94977423D01*
X137143367Y-94989206D01*
X137083954Y-95002304D01*
X137020571Y-95016214D01*
X136955513Y-95030434D01*
X136891072Y-95044463D01*
X136829543Y-95057799D01*
X136773218Y-95069940D01*
X136724390Y-95080384D01*
X136685354Y-95088630D01*
X136658402Y-95094176D01*
X136635594Y-95098631D01*
X136587386Y-95107554D01*
X136534278Y-95116886D01*
X136479351Y-95126133D01*
X136425684Y-95134803D01*
X136376356Y-95142404D01*
X136334448Y-95148444D01*
X136303039Y-95152428D01*
X136285209Y-95153866D01*
X136269680Y-95154438D01*
X136265423Y-95156722D01*
X136277640Y-95160771D01*
X136306422Y-95166604D01*
X136351856Y-95174242D01*
X136414034Y-95183706D01*
X136472135Y-95192822D01*
X136548926Y-95206127D01*
X136638687Y-95222822D01*
X136742112Y-95243042D01*
X136859893Y-95266923D01*
X136992724Y-95294602D01*
X137141300Y-95326214D01*
X137310633Y-95362553D01*
X137312928Y-95529143D01*
X137313038Y-95537325D01*
X137313551Y-95587539D01*
X137313730Y-95631041D01*
X137313586Y-95665278D01*
X137313126Y-95687693D01*
X137312360Y-95695733D01*
X137312019Y-95695681D01*
X137300892Y-95693197D01*
X137275750Y-95687347D01*
X137238703Y-95678629D01*
X137191861Y-95667541D01*
X137137334Y-95654580D01*
X137077231Y-95640244D01*
X136919216Y-95602536D01*
X136750237Y-95562297D01*
X136581441Y-95522184D01*
X136416895Y-95483162D01*
X136260670Y-95446198D01*
X136116833Y-95412257D01*
X136056986Y-95398127D01*
X135995958Y-95383656D01*
X135939999Y-95370327D01*
X135891965Y-95358821D01*
X135854708Y-95349820D01*
X135831083Y-95344004D01*
X135773933Y-95329608D01*
X135773933Y-94968945D01*
X135797216Y-94964214D01*
X135799752Y-94963696D01*
X135817900Y-94959965D01*
X135850102Y-94953331D01*
X135894444Y-94944189D01*
X135949012Y-94932933D01*
X136011892Y-94919959D01*
X136081170Y-94905661D01*
X136154933Y-94890433D01*
X136156561Y-94890097D01*
X136236630Y-94873748D01*
X136317550Y-94857546D01*
X136396417Y-94842050D01*
X136470328Y-94827819D01*
X136536381Y-94815413D01*
X136591673Y-94805391D01*
X136633300Y-94798311D01*
X136662890Y-94793503D01*
X136706813Y-94785940D01*
X136735942Y-94780131D01*
X136751582Y-94775753D01*
X136755033Y-94772482D01*
X136747600Y-94769996D01*
X136741684Y-94768969D01*
X136717129Y-94764821D01*
X136681269Y-94758849D01*
X136637936Y-94751691D01*
X136590966Y-94743983D01*
X136569048Y-94740131D01*
X136529951Y-94732720D01*
X136479647Y-94722811D01*
X136420273Y-94710854D01*
X136353968Y-94697302D01*
X136282872Y-94682603D01*
X136209123Y-94667210D01*
X136134860Y-94651572D01*
X136062221Y-94636141D01*
X135993346Y-94621367D01*
X135930374Y-94607701D01*
X135875443Y-94595594D01*
X135830691Y-94585497D01*
X135798258Y-94577859D01*
X135780283Y-94573133D01*
X135775442Y-94570474D01*
X135771592Y-94564166D01*
X135768874Y-94552080D01*
X135767094Y-94531984D01*
X135766062Y-94501648D01*
X135765583Y-94458841D01*
X135765466Y-94401333D01*
X135765466Y-94234141D01*
X135915749Y-94198935D01*
X135947873Y-94191396D01*
X136007638Y-94177325D01*
X136076592Y-94161051D01*
X136150340Y-94143611D01*
X136224486Y-94126046D01*
X136294633Y-94109394D01*
X136314681Y-94104629D01*
X136481011Y-94065103D01*
X136631233Y-94029420D01*
X136765677Y-93997503D01*
X136884667Y-93969274D01*
X136988532Y-93944656D01*
X137077599Y-93923571D01*
X137152194Y-93905943D01*
X137212645Y-93891693D01*
X137259278Y-93880744D01*
X137292421Y-93873020D01*
X137312401Y-93868442D01*
X137319544Y-93866933D01*
X137319692Y-93867058D01*
G37*
D12*
X137319692Y-93867058D02*
X137320845Y-93876985D01*
X137321845Y-93900960D01*
X137322632Y-93936413D01*
X137323148Y-93980770D01*
X137323333Y-94031462D01*
X137323242Y-94082712D01*
X137322806Y-94126580D01*
X137321824Y-94157752D01*
X137320102Y-94178475D01*
X137317441Y-94190994D01*
X137313645Y-94197558D01*
X137308516Y-94200412D01*
X137291467Y-94204777D01*
X137258924Y-94212202D01*
X137213823Y-94222009D01*
X137158283Y-94233773D01*
X137094420Y-94247068D01*
X137024352Y-94261467D01*
X136950198Y-94276544D01*
X136874074Y-94291872D01*
X136798100Y-94307026D01*
X136724391Y-94321578D01*
X136655067Y-94335104D01*
X136592245Y-94347176D01*
X136538042Y-94357369D01*
X136494577Y-94365255D01*
X136463966Y-94370409D01*
X136427512Y-94376124D01*
X136381644Y-94383476D01*
X136342741Y-94389893D01*
X136314063Y-94394836D01*
X136298866Y-94397765D01*
X136296581Y-94398784D01*
X136302369Y-94402543D01*
X136323654Y-94407906D01*
X136359491Y-94414660D01*
X136408933Y-94422590D01*
X136413768Y-94423324D01*
X136473942Y-94432997D01*
X136540724Y-94444513D01*
X136606319Y-94456491D01*
X136662933Y-94467551D01*
X136680019Y-94471056D01*
X136727185Y-94480770D01*
X136782643Y-94492235D01*
X136844132Y-94504978D01*
X136909390Y-94518529D01*
X136976157Y-94532417D01*
X137042171Y-94546169D01*
X137105171Y-94559316D01*
X137162896Y-94571384D01*
X137213084Y-94581904D01*
X137253474Y-94590404D01*
X137281805Y-94596413D01*
X137295816Y-94599458D01*
X137301085Y-94600877D01*
X137306172Y-94604041D01*
X137309823Y-94610825D01*
X137312274Y-94623446D01*
X137313766Y-94644124D01*
X137314536Y-94675078D01*
X137314823Y-94718527D01*
X137314866Y-94776690D01*
X137314866Y-94781953D01*
X137314735Y-94839265D01*
X137314248Y-94882008D01*
X137313220Y-94912370D01*
X137311470Y-94932541D01*
X137308813Y-94944709D01*
X137305068Y-94951063D01*
X137300050Y-94953792D01*
X137295461Y-94954974D01*
X137274858Y-94959805D01*
X137241112Y-94967455D01*
X137196518Y-94977423D01*
X137143367Y-94989206D01*
X137083954Y-95002304D01*
X137020571Y-95016214D01*
X136955513Y-95030434D01*
X136891072Y-95044463D01*
X136829543Y-95057799D01*
X136773218Y-95069940D01*
X136724390Y-95080384D01*
X136685354Y-95088630D01*
X136658402Y-95094176D01*
X136635594Y-95098631D01*
X136587386Y-95107554D01*
X136534278Y-95116886D01*
X136479351Y-95126133D01*
X136425684Y-95134803D01*
X136376356Y-95142404D01*
X136334448Y-95148444D01*
X136303039Y-95152428D01*
X136285209Y-95153866D01*
X136269680Y-95154438D01*
X136265423Y-95156722D01*
X136277640Y-95160771D01*
X136306422Y-95166604D01*
X136351856Y-95174242D01*
X136414034Y-95183706D01*
X136472135Y-95192822D01*
X136548926Y-95206127D01*
X136638687Y-95222822D01*
X136742112Y-95243042D01*
X136859893Y-95266923D01*
X136992724Y-95294602D01*
X137141300Y-95326214D01*
X137310633Y-95362553D01*
X137312928Y-95529143D01*
X137313038Y-95537325D01*
X137313551Y-95587539D01*
X137313730Y-95631041D01*
X137313586Y-95665278D01*
X137313126Y-95687693D01*
X137312360Y-95695733D01*
X137312019Y-95695681D01*
X137300892Y-95693197D01*
X137275750Y-95687347D01*
X137238703Y-95678629D01*
X137191861Y-95667541D01*
X137137334Y-95654580D01*
X137077231Y-95640244D01*
X136919216Y-95602536D01*
X136750237Y-95562297D01*
X136581441Y-95522184D01*
X136416895Y-95483162D01*
X136260670Y-95446198D01*
X136116833Y-95412257D01*
X136056986Y-95398127D01*
X135995958Y-95383656D01*
X135939999Y-95370327D01*
X135891965Y-95358821D01*
X135854708Y-95349820D01*
X135831083Y-95344004D01*
X135773933Y-95329608D01*
X135773933Y-94968945D01*
X135797216Y-94964214D01*
X135799752Y-94963696D01*
X135817900Y-94959965D01*
X135850102Y-94953331D01*
X135894444Y-94944189D01*
X135949012Y-94932933D01*
X136011892Y-94919959D01*
X136081170Y-94905661D01*
X136154933Y-94890433D01*
X136156561Y-94890097D01*
X136236630Y-94873748D01*
X136317550Y-94857546D01*
X136396417Y-94842050D01*
X136470328Y-94827819D01*
X136536381Y-94815413D01*
X136591673Y-94805391D01*
X136633300Y-94798311D01*
X136662890Y-94793503D01*
X136706813Y-94785940D01*
X136735942Y-94780131D01*
X136751582Y-94775753D01*
X136755033Y-94772482D01*
X136747600Y-94769996D01*
X136741684Y-94768969D01*
X136717129Y-94764821D01*
X136681269Y-94758849D01*
X136637936Y-94751691D01*
X136590966Y-94743983D01*
X136569048Y-94740131D01*
X136529951Y-94732720D01*
X136479647Y-94722811D01*
X136420273Y-94710854D01*
X136353968Y-94697302D01*
X136282872Y-94682603D01*
X136209123Y-94667210D01*
X136134860Y-94651572D01*
X136062221Y-94636141D01*
X135993346Y-94621367D01*
X135930374Y-94607701D01*
X135875443Y-94595594D01*
X135830691Y-94585497D01*
X135798258Y-94577859D01*
X135780283Y-94573133D01*
X135775442Y-94570474D01*
X135771592Y-94564166D01*
X135768874Y-94552080D01*
X135767094Y-94531984D01*
X135766062Y-94501648D01*
X135765583Y-94458841D01*
X135765466Y-94401333D01*
X135765466Y-94234141D01*
X135915749Y-94198935D01*
X135947873Y-94191396D01*
X136007638Y-94177325D01*
X136076592Y-94161051D01*
X136150340Y-94143611D01*
X136224486Y-94126046D01*
X136294633Y-94109394D01*
X136314681Y-94104629D01*
X136481011Y-94065103D01*
X136631233Y-94029420D01*
X136765677Y-93997503D01*
X136884667Y-93969274D01*
X136988532Y-93944656D01*
X137077599Y-93923571D01*
X137152194Y-93905943D01*
X137212645Y-93891693D01*
X137259278Y-93880744D01*
X137292421Y-93873020D01*
X137312401Y-93868442D01*
X137319544Y-93866933D01*
X137319692Y-93867058D01*
G36*
X135037333Y-107820000D02*
G01*
X134698666Y-107820000D01*
X134698666Y-98523599D01*
X135037333Y-98523599D01*
X135037333Y-107820000D01*
G37*
X135037333Y-107820000D02*
X134698666Y-107820000D01*
X134698666Y-98523599D01*
X135037333Y-98523599D01*
X135037333Y-107820000D01*
G36*
X135431210Y-96323711D02*
G01*
X135449011Y-96336224D01*
X135463286Y-96356601D01*
X135469133Y-96378749D01*
X135467026Y-96394957D01*
X135454076Y-96417663D01*
X135433082Y-96429902D01*
X135408419Y-96429779D01*
X135384466Y-96415399D01*
X135382620Y-96413482D01*
X135369073Y-96388561D01*
X135371563Y-96362843D01*
X135389841Y-96339814D01*
X135390782Y-96339082D01*
X135409458Y-96327181D01*
X135423708Y-96322266D01*
X135431210Y-96323711D01*
G37*
X135431210Y-96323711D02*
X135449011Y-96336224D01*
X135463286Y-96356601D01*
X135469133Y-96378749D01*
X135467026Y-96394957D01*
X135454076Y-96417663D01*
X135433082Y-96429902D01*
X135408419Y-96429779D01*
X135384466Y-96415399D01*
X135382620Y-96413482D01*
X135369073Y-96388561D01*
X135371563Y-96362843D01*
X135389841Y-96339814D01*
X135390782Y-96339082D01*
X135409458Y-96327181D01*
X135423708Y-96322266D01*
X135431210Y-96323711D01*
G36*
X135433843Y-96132000D02*
G01*
X135452214Y-96147085D01*
X135460121Y-96171568D01*
X135455796Y-96201616D01*
X135451615Y-96211320D01*
X135439426Y-96222890D01*
X135416866Y-96227479D01*
X135406575Y-96227996D01*
X135386517Y-96224183D01*
X135372277Y-96210546D01*
X135365260Y-96197413D01*
X135362675Y-96171354D01*
X135373011Y-96148600D01*
X135393760Y-96133219D01*
X135422413Y-96129277D01*
X135433843Y-96132000D01*
G37*
X135433843Y-96132000D02*
X135452214Y-96147085D01*
X135460121Y-96171568D01*
X135455796Y-96201616D01*
X135451615Y-96211320D01*
X135439426Y-96222890D01*
X135416866Y-96227479D01*
X135406575Y-96227996D01*
X135386517Y-96224183D01*
X135372277Y-96210546D01*
X135365260Y-96197413D01*
X135362675Y-96171354D01*
X135373011Y-96148600D01*
X135393760Y-96133219D01*
X135422413Y-96129277D01*
X135433843Y-96132000D01*
G36*
X137314866Y-92893266D02*
G01*
X136774778Y-92893266D01*
X136753285Y-92893267D01*
X136640021Y-92893321D01*
X136542188Y-92893524D01*
X136458509Y-92893969D01*
X136387703Y-92894745D01*
X136328493Y-92895944D01*
X136279600Y-92897656D01*
X136239746Y-92899971D01*
X136207652Y-92902982D01*
X136182039Y-92906778D01*
X136161630Y-92911450D01*
X136145146Y-92917089D01*
X136131308Y-92923786D01*
X136118837Y-92931631D01*
X136106456Y-92940716D01*
X136094770Y-92951444D01*
X136073705Y-92977133D01*
X136055732Y-93005975D01*
X136044483Y-93030028D01*
X136037210Y-93054153D01*
X136033655Y-93082686D01*
X136032572Y-93121866D01*
X136035565Y-93173717D01*
X136049393Y-93231823D01*
X136074207Y-93277943D01*
X136109732Y-93311404D01*
X136123553Y-93320176D01*
X136137911Y-93328065D01*
X136153557Y-93334798D01*
X136171796Y-93340467D01*
X136193931Y-93345163D01*
X136221266Y-93348979D01*
X136255104Y-93352006D01*
X136296750Y-93354336D01*
X136347506Y-93356060D01*
X136408677Y-93357270D01*
X136481567Y-93358059D01*
X136567478Y-93358516D01*
X136667716Y-93358736D01*
X136783583Y-93358808D01*
X137314866Y-93358933D01*
X137314866Y-93680666D01*
X136732783Y-93680519D01*
X136653028Y-93680487D01*
X136542897Y-93680360D01*
X136447601Y-93680070D01*
X136365864Y-93679538D01*
X136296413Y-93678686D01*
X136237972Y-93677436D01*
X136189267Y-93675709D01*
X136149024Y-93673427D01*
X136115968Y-93670513D01*
X136088825Y-93666887D01*
X136066320Y-93662471D01*
X136047178Y-93657188D01*
X136030126Y-93650959D01*
X136013888Y-93643705D01*
X135997190Y-93635349D01*
X135986466Y-93629588D01*
X135924003Y-93585106D01*
X135870763Y-93527317D01*
X135827548Y-93457475D01*
X135795161Y-93376839D01*
X135774405Y-93286664D01*
X135771659Y-93262898D01*
X135769144Y-93217842D01*
X135768357Y-93164661D01*
X135769166Y-93107527D01*
X135771441Y-93050611D01*
X135775052Y-92998087D01*
X135779869Y-92954126D01*
X135785762Y-92922900D01*
X135799477Y-92880354D01*
X135828302Y-92814434D01*
X135863666Y-92753228D01*
X135902333Y-92702846D01*
X135934271Y-92671947D01*
X135971144Y-92645546D01*
X136018476Y-92619913D01*
X136091433Y-92584233D01*
X136703150Y-92581901D01*
X137314866Y-92579570D01*
X137314866Y-92893266D01*
G37*
X137314866Y-92893266D02*
X136774778Y-92893266D01*
X136753285Y-92893267D01*
X136640021Y-92893321D01*
X136542188Y-92893524D01*
X136458509Y-92893969D01*
X136387703Y-92894745D01*
X136328493Y-92895944D01*
X136279600Y-92897656D01*
X136239746Y-92899971D01*
X136207652Y-92902982D01*
X136182039Y-92906778D01*
X136161630Y-92911450D01*
X136145146Y-92917089D01*
X136131308Y-92923786D01*
X136118837Y-92931631D01*
X136106456Y-92940716D01*
X136094770Y-92951444D01*
X136073705Y-92977133D01*
X136055732Y-93005975D01*
X136044483Y-93030028D01*
X136037210Y-93054153D01*
X136033655Y-93082686D01*
X136032572Y-93121866D01*
X136035565Y-93173717D01*
X136049393Y-93231823D01*
X136074207Y-93277943D01*
X136109732Y-93311404D01*
X136123553Y-93320176D01*
X136137911Y-93328065D01*
X136153557Y-93334798D01*
X136171796Y-93340467D01*
X136193931Y-93345163D01*
X136221266Y-93348979D01*
X136255104Y-93352006D01*
X136296750Y-93354336D01*
X136347506Y-93356060D01*
X136408677Y-93357270D01*
X136481567Y-93358059D01*
X136567478Y-93358516D01*
X136667716Y-93358736D01*
X136783583Y-93358808D01*
X137314866Y-93358933D01*
X137314866Y-93680666D01*
X136732783Y-93680519D01*
X136653028Y-93680487D01*
X136542897Y-93680360D01*
X136447601Y-93680070D01*
X136365864Y-93679538D01*
X136296413Y-93678686D01*
X136237972Y-93677436D01*
X136189267Y-93675709D01*
X136149024Y-93673427D01*
X136115968Y-93670513D01*
X136088825Y-93666887D01*
X136066320Y-93662471D01*
X136047178Y-93657188D01*
X136030126Y-93650959D01*
X136013888Y-93643705D01*
X135997190Y-93635349D01*
X135986466Y-93629588D01*
X135924003Y-93585106D01*
X135870763Y-93527317D01*
X135827548Y-93457475D01*
X135795161Y-93376839D01*
X135774405Y-93286664D01*
X135771659Y-93262898D01*
X135769144Y-93217842D01*
X135768357Y-93164661D01*
X135769166Y-93107527D01*
X135771441Y-93050611D01*
X135775052Y-92998087D01*
X135779869Y-92954126D01*
X135785762Y-92922900D01*
X135799477Y-92880354D01*
X135828302Y-92814434D01*
X135863666Y-92753228D01*
X135902333Y-92702846D01*
X135934271Y-92671947D01*
X135971144Y-92645546D01*
X136018476Y-92619913D01*
X136091433Y-92584233D01*
X136703150Y-92581901D01*
X137314866Y-92579570D01*
X137314866Y-92893266D01*
G36*
X138635666Y-103493533D02*
G01*
X138474799Y-103493533D01*
X138474799Y-102858533D01*
X138635666Y-102858533D01*
X138635666Y-103493533D01*
G37*
X138635666Y-103493533D02*
X138474799Y-103493533D01*
X138474799Y-102858533D01*
X138635666Y-102858533D01*
X138635666Y-103493533D01*
G36*
X137314866Y-107820000D02*
G01*
X136984666Y-107820000D01*
X136984666Y-104213200D01*
X137314866Y-104213200D01*
X137314866Y-107820000D01*
G37*
X137314866Y-107820000D02*
X136984666Y-107820000D01*
X136984666Y-104213200D01*
X137314866Y-104213200D01*
X137314866Y-107820000D01*
G36*
X135333666Y-94332600D02*
G01*
X135257466Y-94332600D01*
X135257466Y-94154800D01*
X134698666Y-94154800D01*
X134698666Y-94070133D01*
X135257466Y-94070133D01*
X135257466Y-93892333D01*
X135333666Y-93892333D01*
X135333666Y-94332600D01*
G37*
X135333666Y-94332600D02*
X135257466Y-94332600D01*
X135257466Y-94154800D01*
X134698666Y-94154800D01*
X134698666Y-94070133D01*
X135257466Y-94070133D01*
X135257466Y-93892333D01*
X135333666Y-93892333D01*
X135333666Y-94332600D01*
G36*
X139092866Y-103256466D02*
G01*
X138762666Y-103256466D01*
X138762666Y-103104066D01*
X139092866Y-103104066D01*
X139092866Y-103256466D01*
G37*
X139092866Y-103256466D02*
X138762666Y-103256466D01*
X138762666Y-103104066D01*
X139092866Y-103104066D01*
X139092866Y-103256466D01*
G36*
X135325199Y-96135999D02*
G01*
X135107183Y-96136430D01*
X135039493Y-96136672D01*
X134969389Y-96137398D01*
X134913151Y-96138862D01*
X134869083Y-96141347D01*
X134835487Y-96145137D01*
X134810665Y-96150516D01*
X134792920Y-96157767D01*
X134780554Y-96167174D01*
X134771868Y-96179022D01*
X134765167Y-96193592D01*
X134760923Y-96208011D01*
X134756412Y-96242564D01*
X134756237Y-96281232D01*
X134760253Y-96317149D01*
X134768316Y-96343453D01*
X134774111Y-96353890D01*
X134785825Y-96370455D01*
X134800326Y-96383760D01*
X134819382Y-96394158D01*
X134844760Y-96402001D01*
X134878228Y-96407642D01*
X134921553Y-96411433D01*
X134976504Y-96413726D01*
X135044847Y-96414874D01*
X135128349Y-96415229D01*
X135333666Y-96415399D01*
X135333666Y-96500969D01*
X135073316Y-96498401D01*
X135055291Y-96498222D01*
X134985379Y-96497459D01*
X134929929Y-96496636D01*
X134886927Y-96495606D01*
X134854357Y-96494222D01*
X134830204Y-96492337D01*
X134812455Y-96489806D01*
X134799093Y-96486480D01*
X134788104Y-96482214D01*
X134777473Y-96476861D01*
X134746892Y-96456045D01*
X134712725Y-96417885D01*
X134691681Y-96373066D01*
X134686287Y-96343096D01*
X134683301Y-96301711D01*
X134683065Y-96256697D01*
X134685606Y-96214750D01*
X134690948Y-96182566D01*
X134692973Y-96175872D01*
X134705802Y-96145097D01*
X134722094Y-96116360D01*
X134724634Y-96112637D01*
X134735610Y-96097318D01*
X134746600Y-96085015D01*
X134759484Y-96075377D01*
X134776142Y-96068050D01*
X134798454Y-96062683D01*
X134828300Y-96058923D01*
X134867560Y-96056417D01*
X134918112Y-96054814D01*
X134981838Y-96053761D01*
X135060616Y-96052905D01*
X135325199Y-96050244D01*
X135325199Y-96135999D01*
G37*
X135325199Y-96135999D02*
X135107183Y-96136430D01*
X135039493Y-96136672D01*
X134969389Y-96137398D01*
X134913151Y-96138862D01*
X134869083Y-96141347D01*
X134835487Y-96145137D01*
X134810665Y-96150516D01*
X134792920Y-96157767D01*
X134780554Y-96167174D01*
X134771868Y-96179022D01*
X134765167Y-96193592D01*
X134760923Y-96208011D01*
X134756412Y-96242564D01*
X134756237Y-96281232D01*
X134760253Y-96317149D01*
X134768316Y-96343453D01*
X134774111Y-96353890D01*
X134785825Y-96370455D01*
X134800326Y-96383760D01*
X134819382Y-96394158D01*
X134844760Y-96402001D01*
X134878228Y-96407642D01*
X134921553Y-96411433D01*
X134976504Y-96413726D01*
X135044847Y-96414874D01*
X135128349Y-96415229D01*
X135333666Y-96415399D01*
X135333666Y-96500969D01*
X135073316Y-96498401D01*
X135055291Y-96498222D01*
X134985379Y-96497459D01*
X134929929Y-96496636D01*
X134886927Y-96495606D01*
X134854357Y-96494222D01*
X134830204Y-96492337D01*
X134812455Y-96489806D01*
X134799093Y-96486480D01*
X134788104Y-96482214D01*
X134777473Y-96476861D01*
X134746892Y-96456045D01*
X134712725Y-96417885D01*
X134691681Y-96373066D01*
X134686287Y-96343096D01*
X134683301Y-96301711D01*
X134683065Y-96256697D01*
X134685606Y-96214750D01*
X134690948Y-96182566D01*
X134692973Y-96175872D01*
X134705802Y-96145097D01*
X134722094Y-96116360D01*
X134724634Y-96112637D01*
X134735610Y-96097318D01*
X134746600Y-96085015D01*
X134759484Y-96075377D01*
X134776142Y-96068050D01*
X134798454Y-96062683D01*
X134828300Y-96058923D01*
X134867560Y-96056417D01*
X134918112Y-96054814D01*
X134981838Y-96053761D01*
X135060616Y-96052905D01*
X135325199Y-96050244D01*
X135325199Y-96135999D01*
G36*
X137314729Y-95817303D02*
G01*
X137318197Y-95821602D01*
X137320504Y-95832265D01*
X137321813Y-95851405D01*
X137322288Y-95881136D01*
X137322095Y-95923569D01*
X137321397Y-95980820D01*
X137319100Y-96148630D01*
X137027000Y-96210106D01*
X136932271Y-96229917D01*
X136809775Y-96255064D01*
X136700844Y-96276793D01*
X136603773Y-96295428D01*
X136516858Y-96311295D01*
X136438395Y-96324718D01*
X136366679Y-96336023D01*
X136269392Y-96350641D01*
X136438646Y-96377747D01*
X136469521Y-96382890D01*
X136528181Y-96393300D01*
X136597749Y-96406222D01*
X136674815Y-96420998D01*
X136755973Y-96436972D01*
X136837815Y-96453487D01*
X136916933Y-96469888D01*
X136987628Y-96484760D01*
X137056205Y-96499176D01*
X137119126Y-96512392D01*
X137174206Y-96523950D01*
X137219264Y-96533392D01*
X137252118Y-96540261D01*
X137270584Y-96544097D01*
X137315202Y-96553271D01*
X137312918Y-96727468D01*
X137310633Y-96901665D01*
X137014300Y-96967278D01*
X136931087Y-96985572D01*
X136801715Y-97013378D01*
X136687432Y-97037050D01*
X136587436Y-97056743D01*
X136500927Y-97072612D01*
X136427107Y-97084814D01*
X136365175Y-97093503D01*
X136346165Y-97096018D01*
X136313913Y-97101068D01*
X136290267Y-97105819D01*
X136279341Y-97109505D01*
X136279113Y-97109759D01*
X136284404Y-97113640D01*
X136302636Y-97117869D01*
X136330141Y-97121575D01*
X136359798Y-97125263D01*
X136408476Y-97132625D01*
X136469707Y-97142828D01*
X136541324Y-97155450D01*
X136621162Y-97170073D01*
X136707054Y-97186277D01*
X136796832Y-97203641D01*
X136888332Y-97221747D01*
X136979386Y-97240174D01*
X137067827Y-97258502D01*
X137151491Y-97276312D01*
X137228209Y-97293184D01*
X137295816Y-97308697D01*
X137299984Y-97309778D01*
X137305468Y-97312612D01*
X137309406Y-97318726D01*
X137312054Y-97330394D01*
X137313668Y-97349892D01*
X137314504Y-97379497D01*
X137314818Y-97421483D01*
X137314866Y-97478127D01*
X137314863Y-97482981D01*
X137314427Y-97534011D01*
X137313335Y-97578010D01*
X137311701Y-97612502D01*
X137309639Y-97635013D01*
X137307263Y-97643066D01*
X137307239Y-97643066D01*
X137297229Y-97641085D01*
X137272052Y-97635444D01*
X137232987Y-97626446D01*
X137181314Y-97614393D01*
X137118312Y-97599586D01*
X137045260Y-97582328D01*
X136963438Y-97562922D01*
X136874125Y-97541669D01*
X136778600Y-97518872D01*
X136678143Y-97494832D01*
X136574033Y-97469853D01*
X136572500Y-97469485D01*
X136536160Y-97460805D01*
X136486164Y-97448927D01*
X136425197Y-97434486D01*
X136355943Y-97418117D01*
X136281085Y-97400454D01*
X136203310Y-97382131D01*
X136125299Y-97363783D01*
X136101129Y-97358101D01*
X136030087Y-97341374D01*
X135964616Y-97325919D01*
X135906537Y-97312170D01*
X135857669Y-97300557D01*
X135819830Y-97291514D01*
X135794839Y-97285471D01*
X135784516Y-97282861D01*
X135781704Y-97279748D01*
X135778658Y-97267730D01*
X135776450Y-97245269D01*
X135774990Y-97210746D01*
X135774181Y-97162538D01*
X135773933Y-97099025D01*
X135773933Y-96918519D01*
X136157049Y-96840359D01*
X136207545Y-96830110D01*
X136291211Y-96813352D01*
X136372895Y-96797248D01*
X136450165Y-96782264D01*
X136520587Y-96768866D01*
X136581729Y-96757520D01*
X136631158Y-96748690D01*
X136666441Y-96742844D01*
X136792715Y-96723490D01*
X136708774Y-96712696D01*
X136692037Y-96710454D01*
X136640493Y-96702838D01*
X136585328Y-96693894D01*
X136535933Y-96685120D01*
X136533852Y-96684725D01*
X136507033Y-96679396D01*
X136467883Y-96671342D01*
X136418468Y-96661009D01*
X136360851Y-96648842D01*
X136297097Y-96635285D01*
X136229268Y-96620784D01*
X136159430Y-96605784D01*
X136089646Y-96590731D01*
X136021980Y-96576068D01*
X135958496Y-96562242D01*
X135901258Y-96549698D01*
X135852331Y-96538880D01*
X135813778Y-96530235D01*
X135787663Y-96524206D01*
X135776049Y-96521239D01*
X135773971Y-96519412D01*
X135770641Y-96509071D01*
X135768226Y-96488402D01*
X135766626Y-96455755D01*
X135765739Y-96409482D01*
X135765466Y-96347932D01*
X135765569Y-96292750D01*
X135766014Y-96248879D01*
X135766980Y-96217780D01*
X135768646Y-96197315D01*
X135771189Y-96185344D01*
X135774790Y-96179729D01*
X135779625Y-96178333D01*
X135783024Y-96177822D01*
X135801399Y-96174015D01*
X135834142Y-96166761D01*
X135879865Y-96156382D01*
X135937179Y-96143200D01*
X136004695Y-96127536D01*
X136081025Y-96109711D01*
X136164780Y-96090048D01*
X136254570Y-96068867D01*
X136349008Y-96046491D01*
X136365007Y-96042692D01*
X136466007Y-96018709D01*
X136566927Y-95994746D01*
X136665717Y-95971288D01*
X136760327Y-95948824D01*
X136848709Y-95927838D01*
X136928814Y-95908818D01*
X136998591Y-95892251D01*
X137055991Y-95878623D01*
X137098966Y-95868420D01*
X137132857Y-95860359D01*
X137185936Y-95847669D01*
X137232567Y-95836440D01*
X137270244Y-95827281D01*
X137296456Y-95820798D01*
X137308697Y-95817601D01*
X137309934Y-95817255D01*
X137314729Y-95817303D01*
G37*
X137314729Y-95817303D02*
X137318197Y-95821602D01*
X137320504Y-95832265D01*
X137321813Y-95851405D01*
X137322288Y-95881136D01*
X137322095Y-95923569D01*
X137321397Y-95980820D01*
X137319100Y-96148630D01*
X137027000Y-96210106D01*
X136932271Y-96229917D01*
X136809775Y-96255064D01*
X136700844Y-96276793D01*
X136603773Y-96295428D01*
X136516858Y-96311295D01*
X136438395Y-96324718D01*
X136366679Y-96336023D01*
X136269392Y-96350641D01*
X136438646Y-96377747D01*
X136469521Y-96382890D01*
X136528181Y-96393300D01*
X136597749Y-96406222D01*
X136674815Y-96420998D01*
X136755973Y-96436972D01*
X136837815Y-96453487D01*
X136916933Y-96469888D01*
X136987628Y-96484760D01*
X137056205Y-96499176D01*
X137119126Y-96512392D01*
X137174206Y-96523950D01*
X137219264Y-96533392D01*
X137252118Y-96540261D01*
X137270584Y-96544097D01*
X137315202Y-96553271D01*
X137312918Y-96727468D01*
X137310633Y-96901665D01*
X137014300Y-96967278D01*
X136931087Y-96985572D01*
X136801715Y-97013378D01*
X136687432Y-97037050D01*
X136587436Y-97056743D01*
X136500927Y-97072612D01*
X136427107Y-97084814D01*
X136365175Y-97093503D01*
X136346165Y-97096018D01*
X136313913Y-97101068D01*
X136290267Y-97105819D01*
X136279341Y-97109505D01*
X136279113Y-97109759D01*
X136284404Y-97113640D01*
X136302636Y-97117869D01*
X136330141Y-97121575D01*
X136359798Y-97125263D01*
X136408476Y-97132625D01*
X136469707Y-97142828D01*
X136541324Y-97155450D01*
X136621162Y-97170073D01*
X136707054Y-97186277D01*
X136796832Y-97203641D01*
X136888332Y-97221747D01*
X136979386Y-97240174D01*
X137067827Y-97258502D01*
X137151491Y-97276312D01*
X137228209Y-97293184D01*
X137295816Y-97308697D01*
X137299984Y-97309778D01*
X137305468Y-97312612D01*
X137309406Y-97318726D01*
X137312054Y-97330394D01*
X137313668Y-97349892D01*
X137314504Y-97379497D01*
X137314818Y-97421483D01*
X137314866Y-97478127D01*
X137314863Y-97482981D01*
X137314427Y-97534011D01*
X137313335Y-97578010D01*
X137311701Y-97612502D01*
X137309639Y-97635013D01*
X137307263Y-97643066D01*
X137307239Y-97643066D01*
X137297229Y-97641085D01*
X137272052Y-97635444D01*
X137232987Y-97626446D01*
X137181314Y-97614393D01*
X137118312Y-97599586D01*
X137045260Y-97582328D01*
X136963438Y-97562922D01*
X136874125Y-97541669D01*
X136778600Y-97518872D01*
X136678143Y-97494832D01*
X136574033Y-97469853D01*
X136572500Y-97469485D01*
X136536160Y-97460805D01*
X136486164Y-97448927D01*
X136425197Y-97434486D01*
X136355943Y-97418117D01*
X136281085Y-97400454D01*
X136203310Y-97382131D01*
X136125299Y-97363783D01*
X136101129Y-97358101D01*
X136030087Y-97341374D01*
X135964616Y-97325919D01*
X135906537Y-97312170D01*
X135857669Y-97300557D01*
X135819830Y-97291514D01*
X135794839Y-97285471D01*
X135784516Y-97282861D01*
X135781704Y-97279748D01*
X135778658Y-97267730D01*
X135776450Y-97245269D01*
X135774990Y-97210746D01*
X135774181Y-97162538D01*
X135773933Y-97099025D01*
X135773933Y-96918519D01*
X136157049Y-96840359D01*
X136207545Y-96830110D01*
X136291211Y-96813352D01*
X136372895Y-96797248D01*
X136450165Y-96782264D01*
X136520587Y-96768866D01*
X136581729Y-96757520D01*
X136631158Y-96748690D01*
X136666441Y-96742844D01*
X136792715Y-96723490D01*
X136708774Y-96712696D01*
X136692037Y-96710454D01*
X136640493Y-96702838D01*
X136585328Y-96693894D01*
X136535933Y-96685120D01*
X136533852Y-96684725D01*
X136507033Y-96679396D01*
X136467883Y-96671342D01*
X136418468Y-96661009D01*
X136360851Y-96648842D01*
X136297097Y-96635285D01*
X136229268Y-96620784D01*
X136159430Y-96605784D01*
X136089646Y-96590731D01*
X136021980Y-96576068D01*
X135958496Y-96562242D01*
X135901258Y-96549698D01*
X135852331Y-96538880D01*
X135813778Y-96530235D01*
X135787663Y-96524206D01*
X135776049Y-96521239D01*
X135773971Y-96519412D01*
X135770641Y-96509071D01*
X135768226Y-96488402D01*
X135766626Y-96455755D01*
X135765739Y-96409482D01*
X135765466Y-96347932D01*
X135765569Y-96292750D01*
X135766014Y-96248879D01*
X135766980Y-96217780D01*
X135768646Y-96197315D01*
X135771189Y-96185344D01*
X135774790Y-96179729D01*
X135779625Y-96178333D01*
X135783024Y-96177822D01*
X135801399Y-96174015D01*
X135834142Y-96166761D01*
X135879865Y-96156382D01*
X135937179Y-96143200D01*
X136004695Y-96127536D01*
X136081025Y-96109711D01*
X136164780Y-96090048D01*
X136254570Y-96068867D01*
X136349008Y-96046491D01*
X136365007Y-96042692D01*
X136466007Y-96018709D01*
X136566927Y-95994746D01*
X136665717Y-95971288D01*
X136760327Y-95948824D01*
X136848709Y-95927838D01*
X136928814Y-95908818D01*
X136998591Y-95892251D01*
X137055991Y-95878623D01*
X137098966Y-95868420D01*
X137132857Y-95860359D01*
X137185936Y-95847669D01*
X137232567Y-95836440D01*
X137270244Y-95827281D01*
X137296456Y-95820798D01*
X137308697Y-95817601D01*
X137309934Y-95817255D01*
X137314729Y-95817303D01*
G36*
X134731305Y-96772178D02*
G01*
X134756703Y-96774180D01*
X134795179Y-96777427D01*
X134844606Y-96781733D01*
X134902858Y-96786913D01*
X134967809Y-96792780D01*
X135037333Y-96799150D01*
X135329433Y-96826097D01*
X135331913Y-96887065D01*
X135334393Y-96948034D01*
X135264179Y-96969215D01*
X135258492Y-96970929D01*
X135184275Y-96993133D01*
X135113112Y-97014119D01*
X135046883Y-97033357D01*
X134987464Y-97050315D01*
X134936734Y-97064463D01*
X134896569Y-97075271D01*
X134868848Y-97082207D01*
X134855448Y-97084742D01*
X134853260Y-97084911D01*
X134851934Y-97086598D01*
X134858911Y-97090355D01*
X134875331Y-97096553D01*
X134902332Y-97105564D01*
X134941054Y-97117760D01*
X134992635Y-97133511D01*
X135058215Y-97153189D01*
X135138933Y-97177166D01*
X135329433Y-97233563D01*
X135331898Y-97298166D01*
X135334362Y-97362768D01*
X135306498Y-97367266D01*
X135304797Y-97367518D01*
X135286421Y-97369646D01*
X135254053Y-97372942D01*
X135210115Y-97377176D01*
X135157029Y-97382118D01*
X135097216Y-97387539D01*
X135033099Y-97393208D01*
X135023794Y-97394022D01*
X134958939Y-97399740D01*
X134897808Y-97405209D01*
X134843031Y-97410186D01*
X134797238Y-97414433D01*
X134763056Y-97417707D01*
X134743116Y-97419768D01*
X134698666Y-97424884D01*
X134698666Y-97339304D01*
X134734649Y-97334606D01*
X134738860Y-97334102D01*
X134761954Y-97331770D01*
X134797979Y-97328455D01*
X134843955Y-97324405D01*
X134896901Y-97319866D01*
X134953837Y-97315084D01*
X135011785Y-97310306D01*
X135067763Y-97305778D01*
X135118793Y-97301746D01*
X135161894Y-97298458D01*
X135194086Y-97296159D01*
X135212390Y-97295096D01*
X135218192Y-97294852D01*
X135227181Y-97293490D01*
X135222324Y-97290093D01*
X135202433Y-97283248D01*
X135198288Y-97281928D01*
X135175596Y-97274969D01*
X135140542Y-97264432D01*
X135096082Y-97251200D01*
X135045171Y-97236153D01*
X134990766Y-97220172D01*
X134977520Y-97216293D01*
X134921251Y-97199805D01*
X134867455Y-97184031D01*
X134819577Y-97169979D01*
X134781062Y-97158662D01*
X134755354Y-97151090D01*
X134697741Y-97134074D01*
X134700320Y-97098845D01*
X134702899Y-97063617D01*
X134956899Y-96985069D01*
X134987558Y-96975615D01*
X135048366Y-96957028D01*
X135103277Y-96940459D01*
X135150239Y-96926514D01*
X135187198Y-96915801D01*
X135212101Y-96908925D01*
X135222894Y-96906494D01*
X135227987Y-96906023D01*
X135230881Y-96902459D01*
X135223090Y-96900936D01*
X135200455Y-96898255D01*
X135165280Y-96894724D01*
X135119836Y-96890557D01*
X135066393Y-96885972D01*
X135007220Y-96881184D01*
X134958003Y-96877285D01*
X134898385Y-96872481D01*
X134844233Y-96868031D01*
X134798402Y-96864173D01*
X134763744Y-96861144D01*
X134743116Y-96859182D01*
X134698666Y-96854448D01*
X134698666Y-96812724D01*
X134698897Y-96794127D01*
X134701219Y-96778418D01*
X134708088Y-96772350D01*
X134721949Y-96771601D01*
X134731305Y-96772178D01*
G37*
X134731305Y-96772178D02*
X134756703Y-96774180D01*
X134795179Y-96777427D01*
X134844606Y-96781733D01*
X134902858Y-96786913D01*
X134967809Y-96792780D01*
X135037333Y-96799150D01*
X135329433Y-96826097D01*
X135331913Y-96887065D01*
X135334393Y-96948034D01*
X135264179Y-96969215D01*
X135258492Y-96970929D01*
X135184275Y-96993133D01*
X135113112Y-97014119D01*
X135046883Y-97033357D01*
X134987464Y-97050315D01*
X134936734Y-97064463D01*
X134896569Y-97075271D01*
X134868848Y-97082207D01*
X134855448Y-97084742D01*
X134853260Y-97084911D01*
X134851934Y-97086598D01*
X134858911Y-97090355D01*
X134875331Y-97096553D01*
X134902332Y-97105564D01*
X134941054Y-97117760D01*
X134992635Y-97133511D01*
X135058215Y-97153189D01*
X135138933Y-97177166D01*
X135329433Y-97233563D01*
X135331898Y-97298166D01*
X135334362Y-97362768D01*
X135306498Y-97367266D01*
X135304797Y-97367518D01*
X135286421Y-97369646D01*
X135254053Y-97372942D01*
X135210115Y-97377176D01*
X135157029Y-97382118D01*
X135097216Y-97387539D01*
X135033099Y-97393208D01*
X135023794Y-97394022D01*
X134958939Y-97399740D01*
X134897808Y-97405209D01*
X134843031Y-97410186D01*
X134797238Y-97414433D01*
X134763056Y-97417707D01*
X134743116Y-97419768D01*
X134698666Y-97424884D01*
X134698666Y-97339304D01*
X134734649Y-97334606D01*
X134738860Y-97334102D01*
X134761954Y-97331770D01*
X134797979Y-97328455D01*
X134843955Y-97324405D01*
X134896901Y-97319866D01*
X134953837Y-97315084D01*
X135011785Y-97310306D01*
X135067763Y-97305778D01*
X135118793Y-97301746D01*
X135161894Y-97298458D01*
X135194086Y-97296159D01*
X135212390Y-97295096D01*
X135218192Y-97294852D01*
X135227181Y-97293490D01*
X135222324Y-97290093D01*
X135202433Y-97283248D01*
X135198288Y-97281928D01*
X135175596Y-97274969D01*
X135140542Y-97264432D01*
X135096082Y-97251200D01*
X135045171Y-97236153D01*
X134990766Y-97220172D01*
X134977520Y-97216293D01*
X134921251Y-97199805D01*
X134867455Y-97184031D01*
X134819577Y-97169979D01*
X134781062Y-97158662D01*
X134755354Y-97151090D01*
X134697741Y-97134074D01*
X134700320Y-97098845D01*
X134702899Y-97063617D01*
X134956899Y-96985069D01*
X134987558Y-96975615D01*
X135048366Y-96957028D01*
X135103277Y-96940459D01*
X135150239Y-96926514D01*
X135187198Y-96915801D01*
X135212101Y-96908925D01*
X135222894Y-96906494D01*
X135227987Y-96906023D01*
X135230881Y-96902459D01*
X135223090Y-96900936D01*
X135200455Y-96898255D01*
X135165280Y-96894724D01*
X135119836Y-96890557D01*
X135066393Y-96885972D01*
X135007220Y-96881184D01*
X134958003Y-96877285D01*
X134898385Y-96872481D01*
X134844233Y-96868031D01*
X134798402Y-96864173D01*
X134763744Y-96861144D01*
X134743116Y-96859182D01*
X134698666Y-96854448D01*
X134698666Y-96812724D01*
X134698897Y-96794127D01*
X134701219Y-96778418D01*
X134708088Y-96772350D01*
X134721949Y-96771601D01*
X134731305Y-96772178D01*
G36*
X137966799Y-103705199D02*
G01*
X137628133Y-103705199D01*
X137628133Y-102646866D01*
X137966799Y-102646866D01*
X137966799Y-103705199D01*
G37*
X137966799Y-103705199D02*
X137628133Y-103705199D01*
X137628133Y-102646866D01*
X137966799Y-102646866D01*
X137966799Y-103705199D01*
G36*
X136400466Y-107820000D02*
G01*
X136239599Y-107820000D01*
X136239599Y-98523599D01*
X136400466Y-98523599D01*
X136400466Y-107820000D01*
G37*
X136400466Y-107820000D02*
X136239599Y-107820000D01*
X136239599Y-98523599D01*
X136400466Y-98523599D01*
X136400466Y-107820000D01*
G36*
X134698666Y-92910200D02*
G01*
X134838366Y-92910200D01*
X134848949Y-92910196D01*
X134904807Y-92909746D01*
X134944772Y-92907707D01*
X134969151Y-92902893D01*
X134978251Y-92894117D01*
X134972379Y-92880194D01*
X134951842Y-92859938D01*
X134916947Y-92832163D01*
X134867999Y-92795684D01*
X134867958Y-92795653D01*
X134830285Y-92768444D01*
X134793416Y-92742841D01*
X134761580Y-92721721D01*
X134739005Y-92707959D01*
X134698910Y-92685833D01*
X134698788Y-92632916D01*
X134699285Y-92607815D01*
X134700904Y-92587709D01*
X134703274Y-92580000D01*
X134709483Y-92582915D01*
X134727390Y-92594097D01*
X134753847Y-92611784D01*
X134786014Y-92633972D01*
X134821052Y-92658657D01*
X134856120Y-92683833D01*
X134888378Y-92707494D01*
X134914987Y-92727638D01*
X134933107Y-92742257D01*
X134939612Y-92747837D01*
X134963185Y-92766346D01*
X134977509Y-92773137D01*
X134984615Y-92768625D01*
X134986533Y-92753229D01*
X134988783Y-92737391D01*
X134999577Y-92707333D01*
X135016063Y-92677193D01*
X135034625Y-92654406D01*
X135051128Y-92642001D01*
X135092877Y-92623479D01*
X135140504Y-92614820D01*
X135188233Y-92616745D01*
X135230287Y-92629976D01*
X135246675Y-92638998D01*
X135275176Y-92659638D01*
X135296607Y-92684674D01*
X135311984Y-92716588D01*
X135322323Y-92757866D01*
X135328641Y-92810992D01*
X135331954Y-92878450D01*
X135335512Y-93003333D01*
X134698666Y-93003333D01*
X134698666Y-92918666D01*
X135043676Y-92918666D01*
X135265933Y-92918666D01*
X135265933Y-92859128D01*
X135265603Y-92842619D01*
X135258079Y-92787317D01*
X135240562Y-92745574D01*
X135212963Y-92717238D01*
X135175195Y-92702156D01*
X135173569Y-92701861D01*
X135143065Y-92703413D01*
X135110136Y-92714973D01*
X135081228Y-92733463D01*
X135062790Y-92755808D01*
X135061580Y-92758708D01*
X135055906Y-92780923D01*
X135050970Y-92812923D01*
X135047726Y-92848816D01*
X135043676Y-92918666D01*
X134698666Y-92918666D01*
X134698666Y-92910200D01*
G37*
X134698666Y-92910200D02*
X134838366Y-92910200D01*
X134848949Y-92910196D01*
X134904807Y-92909746D01*
X134944772Y-92907707D01*
X134969151Y-92902893D01*
X134978251Y-92894117D01*
X134972379Y-92880194D01*
X134951842Y-92859938D01*
X134916947Y-92832163D01*
X134867999Y-92795684D01*
X134867958Y-92795653D01*
X134830285Y-92768444D01*
X134793416Y-92742841D01*
X134761580Y-92721721D01*
X134739005Y-92707959D01*
X134698910Y-92685833D01*
X134698788Y-92632916D01*
X134699285Y-92607815D01*
X134700904Y-92587709D01*
X134703274Y-92580000D01*
X134709483Y-92582915D01*
X134727390Y-92594097D01*
X134753847Y-92611784D01*
X134786014Y-92633972D01*
X134821052Y-92658657D01*
X134856120Y-92683833D01*
X134888378Y-92707494D01*
X134914987Y-92727638D01*
X134933107Y-92742257D01*
X134939612Y-92747837D01*
X134963185Y-92766346D01*
X134977509Y-92773137D01*
X134984615Y-92768625D01*
X134986533Y-92753229D01*
X134988783Y-92737391D01*
X134999577Y-92707333D01*
X135016063Y-92677193D01*
X135034625Y-92654406D01*
X135051128Y-92642001D01*
X135092877Y-92623479D01*
X135140504Y-92614820D01*
X135188233Y-92616745D01*
X135230287Y-92629976D01*
X135246675Y-92638998D01*
X135275176Y-92659638D01*
X135296607Y-92684674D01*
X135311984Y-92716588D01*
X135322323Y-92757866D01*
X135328641Y-92810992D01*
X135331954Y-92878450D01*
X135335512Y-93003333D01*
X134698666Y-93003333D01*
X134698666Y-92918666D01*
X135043676Y-92918666D01*
X135265933Y-92918666D01*
X135265933Y-92859128D01*
X135265603Y-92842619D01*
X135258079Y-92787317D01*
X135240562Y-92745574D01*
X135212963Y-92717238D01*
X135175195Y-92702156D01*
X135173569Y-92701861D01*
X135143065Y-92703413D01*
X135110136Y-92714973D01*
X135081228Y-92733463D01*
X135062790Y-92755808D01*
X135061580Y-92758708D01*
X135055906Y-92780923D01*
X135050970Y-92812923D01*
X135047726Y-92848816D01*
X135043676Y-92918666D01*
X134698666Y-92918666D01*
X134698666Y-92910200D01*
G36*
X135342133Y-95393623D02*
G01*
X134839083Y-95383245D01*
X134885291Y-95409889D01*
X134900805Y-95418537D01*
X134931368Y-95435055D01*
X134972230Y-95456814D01*
X135020777Y-95482429D01*
X135074394Y-95510516D01*
X135130466Y-95539690D01*
X135329433Y-95642847D01*
X135331954Y-95694690D01*
X135334474Y-95746533D01*
X134698666Y-95746533D01*
X134698666Y-95659301D01*
X134954783Y-95663953D01*
X135210899Y-95668606D01*
X135125396Y-95625019D01*
X135119886Y-95622195D01*
X135083576Y-95603134D01*
X135037038Y-95578163D01*
X134984046Y-95549334D01*
X134928373Y-95518696D01*
X134873792Y-95488299D01*
X134707690Y-95395166D01*
X134707412Y-95346483D01*
X134707133Y-95297800D01*
X135342133Y-95297800D01*
X135342133Y-95393623D01*
G37*
X135342133Y-95393623D02*
X134839083Y-95383245D01*
X134885291Y-95409889D01*
X134900805Y-95418537D01*
X134931368Y-95435055D01*
X134972230Y-95456814D01*
X135020777Y-95482429D01*
X135074394Y-95510516D01*
X135130466Y-95539690D01*
X135329433Y-95642847D01*
X135331954Y-95694690D01*
X135334474Y-95746533D01*
X134698666Y-95746533D01*
X134698666Y-95659301D01*
X134954783Y-95663953D01*
X135210899Y-95668606D01*
X135125396Y-95625019D01*
X135119886Y-95622195D01*
X135083576Y-95603134D01*
X135037038Y-95578163D01*
X134984046Y-95549334D01*
X134928373Y-95518696D01*
X134873792Y-95488299D01*
X134707690Y-95395166D01*
X134707412Y-95346483D01*
X134707133Y-95297800D01*
X135342133Y-95297800D01*
X135342133Y-95393623D01*
G36*
X137314866Y-102147333D02*
G01*
X136984666Y-102147333D01*
X136984666Y-98532066D01*
X137314866Y-98532066D01*
X137314866Y-102147333D01*
G37*
X137314866Y-102147333D02*
X136984666Y-102147333D01*
X136984666Y-98532066D01*
X137314866Y-98532066D01*
X137314866Y-102147333D01*
G36*
X134907295Y-94565557D02*
G01*
X134948316Y-94581930D01*
X134985958Y-94607542D01*
X135014210Y-94638995D01*
X135023273Y-94655563D01*
X135037556Y-94687708D01*
X135052766Y-94727151D01*
X135066839Y-94768801D01*
X135075968Y-94796990D01*
X135092687Y-94841075D01*
X135109104Y-94871666D01*
X135126895Y-94890887D01*
X135147737Y-94900862D01*
X135173306Y-94903715D01*
X135188684Y-94902813D01*
X135211407Y-94895041D01*
X135234212Y-94876206D01*
X135245228Y-94864736D01*
X135254475Y-94851756D01*
X135259357Y-94836374D01*
X135261230Y-94813747D01*
X135261453Y-94779032D01*
X135260705Y-94745672D01*
X135257476Y-94716147D01*
X135250457Y-94691586D01*
X135238327Y-94665509D01*
X135215449Y-94621652D01*
X135246192Y-94602651D01*
X135276936Y-94583651D01*
X135292657Y-94603066D01*
X135299855Y-94613201D01*
X135317695Y-94652276D01*
X135330055Y-94701253D01*
X135336554Y-94755436D01*
X135336808Y-94810125D01*
X135330433Y-94860623D01*
X135317047Y-94902231D01*
X135306361Y-94921705D01*
X135273603Y-94961009D01*
X135233532Y-94988403D01*
X135189025Y-95003192D01*
X135142958Y-95004680D01*
X135098207Y-94992173D01*
X135057647Y-94964973D01*
X135050781Y-94958096D01*
X135037110Y-94940220D01*
X135023726Y-94915612D01*
X135009022Y-94881078D01*
X134991388Y-94833424D01*
X134982856Y-94809965D01*
X134962346Y-94759590D01*
X134943081Y-94722932D01*
X134923572Y-94697907D01*
X134902329Y-94682428D01*
X134877863Y-94674409D01*
X134859660Y-94672953D01*
X134824890Y-94681623D01*
X134794856Y-94704279D01*
X134771677Y-94738995D01*
X134757473Y-94783845D01*
X134755626Y-94805677D01*
X134759766Y-94849458D01*
X134771823Y-94896851D01*
X134790481Y-94941571D01*
X134795977Y-94952404D01*
X134805100Y-94972122D01*
X134808679Y-94982677D01*
X134807882Y-94984547D01*
X134797571Y-94993636D01*
X134780268Y-95004851D01*
X134762257Y-95014377D01*
X134749823Y-95018400D01*
X134747908Y-95017392D01*
X134739590Y-95005482D01*
X134728431Y-94983706D01*
X134716460Y-94956556D01*
X134705706Y-94928523D01*
X134698197Y-94904100D01*
X134694019Y-94879288D01*
X134691376Y-94835766D01*
X134692176Y-94787759D01*
X134696237Y-94742236D01*
X134703377Y-94706165D01*
X134719497Y-94667839D01*
X134749773Y-94625616D01*
X134788310Y-94591958D01*
X134831796Y-94569628D01*
X134876920Y-94561385D01*
X134907295Y-94565557D01*
G37*
X134907295Y-94565557D02*
X134948316Y-94581930D01*
X134985958Y-94607542D01*
X135014210Y-94638995D01*
X135023273Y-94655563D01*
X135037556Y-94687708D01*
X135052766Y-94727151D01*
X135066839Y-94768801D01*
X135075968Y-94796990D01*
X135092687Y-94841075D01*
X135109104Y-94871666D01*
X135126895Y-94890887D01*
X135147737Y-94900862D01*
X135173306Y-94903715D01*
X135188684Y-94902813D01*
X135211407Y-94895041D01*
X135234212Y-94876206D01*
X135245228Y-94864736D01*
X135254475Y-94851756D01*
X135259357Y-94836374D01*
X135261230Y-94813747D01*
X135261453Y-94779032D01*
X135260705Y-94745672D01*
X135257476Y-94716147D01*
X135250457Y-94691586D01*
X135238327Y-94665509D01*
X135215449Y-94621652D01*
X135246192Y-94602651D01*
X135276936Y-94583651D01*
X135292657Y-94603066D01*
X135299855Y-94613201D01*
X135317695Y-94652276D01*
X135330055Y-94701253D01*
X135336554Y-94755436D01*
X135336808Y-94810125D01*
X135330433Y-94860623D01*
X135317047Y-94902231D01*
X135306361Y-94921705D01*
X135273603Y-94961009D01*
X135233532Y-94988403D01*
X135189025Y-95003192D01*
X135142958Y-95004680D01*
X135098207Y-94992173D01*
X135057647Y-94964973D01*
X135050781Y-94958096D01*
X135037110Y-94940220D01*
X135023726Y-94915612D01*
X135009022Y-94881078D01*
X134991388Y-94833424D01*
X134982856Y-94809965D01*
X134962346Y-94759590D01*
X134943081Y-94722932D01*
X134923572Y-94697907D01*
X134902329Y-94682428D01*
X134877863Y-94674409D01*
X134859660Y-94672953D01*
X134824890Y-94681623D01*
X134794856Y-94704279D01*
X134771677Y-94738995D01*
X134757473Y-94783845D01*
X134755626Y-94805677D01*
X134759766Y-94849458D01*
X134771823Y-94896851D01*
X134790481Y-94941571D01*
X134795977Y-94952404D01*
X134805100Y-94972122D01*
X134808679Y-94982677D01*
X134807882Y-94984547D01*
X134797571Y-94993636D01*
X134780268Y-95004851D01*
X134762257Y-95014377D01*
X134749823Y-95018400D01*
X134747908Y-95017392D01*
X134739590Y-95005482D01*
X134728431Y-94983706D01*
X134716460Y-94956556D01*
X134705706Y-94928523D01*
X134698197Y-94904100D01*
X134694019Y-94879288D01*
X134691376Y-94835766D01*
X134692176Y-94787759D01*
X134696237Y-94742236D01*
X134703377Y-94706165D01*
X134719497Y-94667839D01*
X134749773Y-94625616D01*
X134788310Y-94591958D01*
X134831796Y-94569628D01*
X134876920Y-94561385D01*
X134907295Y-94565557D01*
G36*
X134774866Y-93553666D02*
G01*
X134994999Y-93553666D01*
X134994999Y-93325066D01*
X135071199Y-93325066D01*
X135071199Y-93562133D01*
X135265933Y-93562133D01*
X135265933Y-93282733D01*
X135333666Y-93282733D01*
X135333666Y-93646800D01*
X134698666Y-93646800D01*
X134698666Y-93265800D01*
X134774866Y-93265800D01*
X134774866Y-93553666D01*
G37*
X134774866Y-93553666D02*
X134994999Y-93553666D01*
X134994999Y-93325066D01*
X135071199Y-93325066D01*
X135071199Y-93562133D01*
X135265933Y-93562133D01*
X135265933Y-93282733D01*
X135333666Y-93282733D01*
X135333666Y-93646800D01*
X134698666Y-93646800D01*
X134698666Y-93265800D01*
X134774866Y-93265800D01*
X134774866Y-93553666D01*
G36*
X132916000Y-98930000D02*
G01*
X130884000Y-98930000D01*
X130884000Y-98612500D01*
X132916000Y-98612500D01*
X132916000Y-98930000D01*
G37*
X132916000Y-98930000D02*
X130884000Y-98930000D01*
X130884000Y-98612500D01*
X132916000Y-98612500D01*
X132916000Y-98930000D01*
G36*
X131313017Y-100581000D02*
G01*
X131147813Y-100553011D01*
X131001991Y-100477597D01*
X130999101Y-100474950D01*
X130943163Y-100400275D01*
X130909984Y-100284871D01*
X130894832Y-100100077D01*
X130894224Y-100007421D01*
X131147273Y-100007421D01*
X131156637Y-100070009D01*
X131217375Y-100154929D01*
X131264524Y-100204050D01*
X131357219Y-100216074D01*
X131435686Y-100112348D01*
X131491744Y-99900462D01*
X131500576Y-99843517D01*
X131512398Y-99708699D01*
X131484881Y-99660570D01*
X131407219Y-99669622D01*
X131307811Y-99728778D01*
X131209241Y-99859120D01*
X131187609Y-99906281D01*
X131147273Y-100007421D01*
X130894224Y-100007421D01*
X130892975Y-99817232D01*
X130898217Y-99260271D01*
X131541984Y-99293759D01*
X131825784Y-99312052D01*
X132087412Y-99346464D01*
X132256936Y-99405091D01*
X132353868Y-99500508D01*
X132397719Y-99645295D01*
X132408000Y-99852029D01*
X132387947Y-100065349D01*
X132308285Y-100299697D01*
X132181552Y-100458838D01*
X132022392Y-100517500D01*
X131933492Y-100477273D01*
X131899200Y-100364321D01*
X131930502Y-100216729D01*
X132027001Y-100073000D01*
X132125838Y-99954458D01*
X132140917Y-99846248D01*
X132054215Y-99728286D01*
X131970770Y-99657204D01*
X131890873Y-99644835D01*
X131837534Y-99738314D01*
X131798464Y-99948210D01*
X131776722Y-100075020D01*
X131676776Y-100352723D01*
X131520905Y-100523082D01*
X131357219Y-100568686D01*
X131313017Y-100581000D01*
G37*
X131313017Y-100581000D02*
X131147813Y-100553011D01*
X131001991Y-100477597D01*
X130999101Y-100474950D01*
X130943163Y-100400275D01*
X130909984Y-100284871D01*
X130894832Y-100100077D01*
X130894224Y-100007421D01*
X131147273Y-100007421D01*
X131156637Y-100070009D01*
X131217375Y-100154929D01*
X131264524Y-100204050D01*
X131357219Y-100216074D01*
X131435686Y-100112348D01*
X131491744Y-99900462D01*
X131500576Y-99843517D01*
X131512398Y-99708699D01*
X131484881Y-99660570D01*
X131407219Y-99669622D01*
X131307811Y-99728778D01*
X131209241Y-99859120D01*
X131187609Y-99906281D01*
X131147273Y-100007421D01*
X130894224Y-100007421D01*
X130892975Y-99817232D01*
X130898217Y-99260271D01*
X131541984Y-99293759D01*
X131825784Y-99312052D01*
X132087412Y-99346464D01*
X132256936Y-99405091D01*
X132353868Y-99500508D01*
X132397719Y-99645295D01*
X132408000Y-99852029D01*
X132387947Y-100065349D01*
X132308285Y-100299697D01*
X132181552Y-100458838D01*
X132022392Y-100517500D01*
X131933492Y-100477273D01*
X131899200Y-100364321D01*
X131930502Y-100216729D01*
X132027001Y-100073000D01*
X132125838Y-99954458D01*
X132140917Y-99846248D01*
X132054215Y-99728286D01*
X131970770Y-99657204D01*
X131890873Y-99644835D01*
X131837534Y-99738314D01*
X131798464Y-99948210D01*
X131776722Y-100075020D01*
X131676776Y-100352723D01*
X131520905Y-100523082D01*
X131357219Y-100568686D01*
X131313017Y-100581000D01*
G36*
X132886235Y-95852765D02*
G01*
X132916000Y-95977250D01*
X132888589Y-96098794D01*
X132789000Y-96136000D01*
X132691766Y-96101736D01*
X132662000Y-95977250D01*
X132689412Y-95855707D01*
X132789000Y-95818500D01*
X132886235Y-95852765D01*
G37*
X132886235Y-95852765D02*
X132916000Y-95977250D01*
X132888589Y-96098794D01*
X132789000Y-96136000D01*
X132691766Y-96101736D01*
X132662000Y-95977250D01*
X132689412Y-95855707D01*
X132789000Y-95818500D01*
X132886235Y-95852765D01*
G36*
X131758389Y-96519482D02*
G01*
X132042656Y-96538780D01*
X132230848Y-96586033D01*
X132341868Y-96671623D01*
X132394618Y-96805932D01*
X132408000Y-96999345D01*
X132406298Y-97068783D01*
X132387660Y-97226016D01*
X132355088Y-97304207D01*
X132354593Y-97304522D01*
X132325977Y-97384784D01*
X132330545Y-97530205D01*
X132358915Y-97723500D01*
X131621458Y-97723500D01*
X131335678Y-97722956D01*
X131115699Y-97718403D01*
X130982057Y-97705398D01*
X130913237Y-97679502D01*
X130887724Y-97636272D01*
X130884000Y-97571267D01*
X130888901Y-97503540D01*
X130920862Y-97454704D01*
X131004867Y-97425943D01*
X131165882Y-97409256D01*
X131428870Y-97396642D01*
X131430872Y-97396559D01*
X131708494Y-97380311D01*
X131887645Y-97354966D01*
X131996659Y-97314025D01*
X132063870Y-97250989D01*
X132128550Y-97154295D01*
X132145106Y-97066887D01*
X132091884Y-96961500D01*
X132066210Y-96934650D01*
X131958581Y-96891374D01*
X131762124Y-96862349D01*
X131457856Y-96844057D01*
X131439753Y-96843355D01*
X131174775Y-96831267D01*
X131011051Y-96815237D01*
X130924240Y-96787860D01*
X130890004Y-96741727D01*
X130884000Y-96669432D01*
X130884537Y-96633821D01*
X130897529Y-96577299D01*
X130945571Y-96542780D01*
X131051652Y-96524841D01*
X131238758Y-96518057D01*
X131529875Y-96517000D01*
X131758389Y-96519482D01*
G37*
X131758389Y-96519482D02*
X132042656Y-96538780D01*
X132230848Y-96586033D01*
X132341868Y-96671623D01*
X132394618Y-96805932D01*
X132408000Y-96999345D01*
X132406298Y-97068783D01*
X132387660Y-97226016D01*
X132355088Y-97304207D01*
X132354593Y-97304522D01*
X132325977Y-97384784D01*
X132330545Y-97530205D01*
X132358915Y-97723500D01*
X131621458Y-97723500D01*
X131335678Y-97722956D01*
X131115699Y-97718403D01*
X130982057Y-97705398D01*
X130913237Y-97679502D01*
X130887724Y-97636272D01*
X130884000Y-97571267D01*
X130888901Y-97503540D01*
X130920862Y-97454704D01*
X131004867Y-97425943D01*
X131165882Y-97409256D01*
X131428870Y-97396642D01*
X131430872Y-97396559D01*
X131708494Y-97380311D01*
X131887645Y-97354966D01*
X131996659Y-97314025D01*
X132063870Y-97250989D01*
X132128550Y-97154295D01*
X132145106Y-97066887D01*
X132091884Y-96961500D01*
X132066210Y-96934650D01*
X131958581Y-96891374D01*
X131762124Y-96862349D01*
X131457856Y-96844057D01*
X131439753Y-96843355D01*
X131174775Y-96831267D01*
X131011051Y-96815237D01*
X130924240Y-96787860D01*
X130890004Y-96741727D01*
X130884000Y-96669432D01*
X130884537Y-96633821D01*
X130897529Y-96577299D01*
X130945571Y-96542780D01*
X131051652Y-96524841D01*
X131238758Y-96518057D01*
X131529875Y-96517000D01*
X131758389Y-96519482D01*
G36*
X132812936Y-100835860D02*
G01*
X132860684Y-100853134D01*
X132890872Y-100909581D01*
X132907494Y-101027154D01*
X132914539Y-101227810D01*
X132916000Y-101533500D01*
X132916000Y-102232000D01*
X130884000Y-102232000D01*
X130884000Y-102073250D01*
X130885751Y-102017492D01*
X130907512Y-101959058D01*
X130976014Y-101928359D01*
X131118010Y-101916479D01*
X131360250Y-101914500D01*
X131836500Y-101914500D01*
X131836500Y-101470000D01*
X131836536Y-101434618D01*
X131841034Y-101214896D01*
X131858522Y-101091573D01*
X131896758Y-101037493D01*
X131963500Y-101025500D01*
X131973610Y-101025624D01*
X132036387Y-101041369D01*
X132071623Y-101102577D01*
X132087074Y-101236402D01*
X132090500Y-101470000D01*
X132090500Y-101914500D01*
X132662000Y-101914500D01*
X132662000Y-101374750D01*
X132662817Y-101194372D01*
X132670001Y-100999898D01*
X132689530Y-100891733D01*
X132727249Y-100845045D01*
X132789000Y-100835000D01*
X132812936Y-100835860D01*
G37*
X132812936Y-100835860D02*
X132860684Y-100853134D01*
X132890872Y-100909581D01*
X132907494Y-101027154D01*
X132914539Y-101227810D01*
X132916000Y-101533500D01*
X132916000Y-102232000D01*
X130884000Y-102232000D01*
X130884000Y-102073250D01*
X130885751Y-102017492D01*
X130907512Y-101959058D01*
X130976014Y-101928359D01*
X131118010Y-101916479D01*
X131360250Y-101914500D01*
X131836500Y-101914500D01*
X131836500Y-101470000D01*
X131836536Y-101434618D01*
X131841034Y-101214896D01*
X131858522Y-101091573D01*
X131896758Y-101037493D01*
X131963500Y-101025500D01*
X131973610Y-101025624D01*
X132036387Y-101041369D01*
X132071623Y-101102577D01*
X132087074Y-101236402D01*
X132090500Y-101470000D01*
X132090500Y-101914500D01*
X132662000Y-101914500D01*
X132662000Y-101374750D01*
X132662817Y-101194372D01*
X132670001Y-100999898D01*
X132689530Y-100891733D01*
X132727249Y-100845045D01*
X132789000Y-100835000D01*
X132812936Y-100835860D01*
G36*
X131900000Y-103883000D02*
G01*
X131899965Y-103918383D01*
X131895467Y-104138105D01*
X131877979Y-104261428D01*
X131839743Y-104315508D01*
X131773000Y-104327500D01*
X131763877Y-104327391D01*
X131688814Y-104304763D01*
X131654310Y-104220322D01*
X131646000Y-104041750D01*
X131645434Y-103967538D01*
X131631893Y-103827371D01*
X131586112Y-103768181D01*
X131489485Y-103756000D01*
X131384735Y-103778137D01*
X131256651Y-103898601D01*
X131212028Y-104019157D01*
X131183194Y-104269302D01*
X131208586Y-104528075D01*
X131285997Y-104732751D01*
X131366048Y-104823344D01*
X131577375Y-104940874D01*
X131836416Y-104990966D01*
X132104396Y-104973528D01*
X132342542Y-104888466D01*
X132512079Y-104735688D01*
X132552252Y-104661832D01*
X132607548Y-104448411D01*
X132602573Y-104223786D01*
X132545014Y-104021637D01*
X132442563Y-103875648D01*
X132302909Y-103819500D01*
X132300768Y-103819471D01*
X132233828Y-103767431D01*
X132223216Y-103648790D01*
X132273546Y-103511887D01*
X132305167Y-103483019D01*
X132419170Y-103480781D01*
X132565754Y-103550457D01*
X132712363Y-103673285D01*
X132826441Y-103830504D01*
X132878099Y-103968409D01*
X132915853Y-104242255D01*
X132899752Y-104536358D01*
X132833955Y-104803943D01*
X132722622Y-104998232D01*
X132509741Y-105183119D01*
X132232209Y-105306035D01*
X131887279Y-105343263D01*
X131533069Y-105294524D01*
X131235735Y-105141314D01*
X131010657Y-104883706D01*
X130914317Y-104627580D01*
X130881979Y-104309521D01*
X130914659Y-103980563D01*
X131012291Y-103689971D01*
X131031229Y-103652972D01*
X131103640Y-103529303D01*
X131182498Y-103465596D01*
X131307987Y-103441959D01*
X131520291Y-103438500D01*
X131900000Y-103438500D01*
X131900000Y-103883000D01*
G37*
X131900000Y-103883000D02*
X131899965Y-103918383D01*
X131895467Y-104138105D01*
X131877979Y-104261428D01*
X131839743Y-104315508D01*
X131773000Y-104327500D01*
X131763877Y-104327391D01*
X131688814Y-104304763D01*
X131654310Y-104220322D01*
X131646000Y-104041750D01*
X131645434Y-103967538D01*
X131631893Y-103827371D01*
X131586112Y-103768181D01*
X131489485Y-103756000D01*
X131384735Y-103778137D01*
X131256651Y-103898601D01*
X131212028Y-104019157D01*
X131183194Y-104269302D01*
X131208586Y-104528075D01*
X131285997Y-104732751D01*
X131366048Y-104823344D01*
X131577375Y-104940874D01*
X131836416Y-104990966D01*
X132104396Y-104973528D01*
X132342542Y-104888466D01*
X132512079Y-104735688D01*
X132552252Y-104661832D01*
X132607548Y-104448411D01*
X132602573Y-104223786D01*
X132545014Y-104021637D01*
X132442563Y-103875648D01*
X132302909Y-103819500D01*
X132300768Y-103819471D01*
X132233828Y-103767431D01*
X132223216Y-103648790D01*
X132273546Y-103511887D01*
X132305167Y-103483019D01*
X132419170Y-103480781D01*
X132565754Y-103550457D01*
X132712363Y-103673285D01*
X132826441Y-103830504D01*
X132878099Y-103968409D01*
X132915853Y-104242255D01*
X132899752Y-104536358D01*
X132833955Y-104803943D01*
X132722622Y-104998232D01*
X132509741Y-105183119D01*
X132232209Y-105306035D01*
X131887279Y-105343263D01*
X131533069Y-105294524D01*
X131235735Y-105141314D01*
X131010657Y-104883706D01*
X130914317Y-104627580D01*
X130881979Y-104309521D01*
X130914659Y-103980563D01*
X131012291Y-103689971D01*
X131031229Y-103652972D01*
X131103640Y-103529303D01*
X131182498Y-103465596D01*
X131307987Y-103441959D01*
X131520291Y-103438500D01*
X131900000Y-103438500D01*
X131900000Y-103883000D01*
G36*
X131717757Y-107074646D02*
G01*
X131417347Y-107194499D01*
X131172426Y-107289993D01*
X131003638Y-107353115D01*
X130931625Y-107375854D01*
X130898893Y-107327273D01*
X130884000Y-107199905D01*
X130886012Y-107150127D01*
X130918278Y-107057315D01*
X131013446Y-106986866D01*
X131201500Y-106911544D01*
X131519000Y-106798778D01*
X131519000Y-106423000D01*
X131773000Y-106423000D01*
X131773517Y-106479704D01*
X131780633Y-106620593D01*
X131793439Y-106677000D01*
X131798322Y-106676843D01*
X131903230Y-106651711D01*
X132059618Y-106596003D01*
X132224520Y-106527476D01*
X132354969Y-106463890D01*
X132408000Y-106423000D01*
X132407619Y-106420982D01*
X132346811Y-106377623D01*
X132212023Y-106312988D01*
X132046221Y-106244833D01*
X131892371Y-106190918D01*
X131793439Y-106169000D01*
X131788876Y-106175424D01*
X131777539Y-106263855D01*
X131773000Y-106423000D01*
X131519000Y-106423000D01*
X131519000Y-106047223D01*
X131201500Y-105934457D01*
X131112786Y-105901836D01*
X130965692Y-105831748D01*
X130899425Y-105755579D01*
X130884000Y-105646096D01*
X130897111Y-105525313D01*
X130931625Y-105470147D01*
X130970280Y-105481238D01*
X131111554Y-105532815D01*
X131335298Y-105619223D01*
X131620869Y-105732450D01*
X131947626Y-105864485D01*
X132130440Y-105939239D01*
X132439967Y-106068531D01*
X132655816Y-106165531D01*
X132794665Y-106239859D01*
X132873193Y-106301133D01*
X132908078Y-106358974D01*
X132916000Y-106423000D01*
X132914572Y-106454510D01*
X132896040Y-106514428D01*
X132842695Y-106572686D01*
X132737860Y-106638904D01*
X132564856Y-106722702D01*
X132307004Y-106833699D01*
X131947625Y-106981516D01*
X131793439Y-107043984D01*
X131717757Y-107074646D01*
G37*
X131717757Y-107074646D02*
X131417347Y-107194499D01*
X131172426Y-107289993D01*
X131003638Y-107353115D01*
X130931625Y-107375854D01*
X130898893Y-107327273D01*
X130884000Y-107199905D01*
X130886012Y-107150127D01*
X130918278Y-107057315D01*
X131013446Y-106986866D01*
X131201500Y-106911544D01*
X131519000Y-106798778D01*
X131519000Y-106423000D01*
X131773000Y-106423000D01*
X131773517Y-106479704D01*
X131780633Y-106620593D01*
X131793439Y-106677000D01*
X131798322Y-106676843D01*
X131903230Y-106651711D01*
X132059618Y-106596003D01*
X132224520Y-106527476D01*
X132354969Y-106463890D01*
X132408000Y-106423000D01*
X132407619Y-106420982D01*
X132346811Y-106377623D01*
X132212023Y-106312988D01*
X132046221Y-106244833D01*
X131892371Y-106190918D01*
X131793439Y-106169000D01*
X131788876Y-106175424D01*
X131777539Y-106263855D01*
X131773000Y-106423000D01*
X131519000Y-106423000D01*
X131519000Y-106047223D01*
X131201500Y-105934457D01*
X131112786Y-105901836D01*
X130965692Y-105831748D01*
X130899425Y-105755579D01*
X130884000Y-105646096D01*
X130897111Y-105525313D01*
X130931625Y-105470147D01*
X130970280Y-105481238D01*
X131111554Y-105532815D01*
X131335298Y-105619223D01*
X131620869Y-105732450D01*
X131947626Y-105864485D01*
X132130440Y-105939239D01*
X132439967Y-106068531D01*
X132655816Y-106165531D01*
X132794665Y-106239859D01*
X132873193Y-106301133D01*
X132908078Y-106358974D01*
X132916000Y-106423000D01*
X132914572Y-106454510D01*
X132896040Y-106514428D01*
X132842695Y-106572686D01*
X132737860Y-106638904D01*
X132564856Y-106722702D01*
X132307004Y-106833699D01*
X131947625Y-106981516D01*
X131793439Y-107043984D01*
X131717757Y-107074646D01*
G36*
X132916000Y-98358500D02*
G01*
X130884000Y-98358500D01*
X130884000Y-98041000D01*
X132916000Y-98041000D01*
X132916000Y-98358500D01*
G37*
X132916000Y-98358500D02*
X130884000Y-98358500D01*
X130884000Y-98041000D01*
X132916000Y-98041000D01*
X132916000Y-98358500D01*
G36*
X132344500Y-96136000D02*
G01*
X130884000Y-96136000D01*
X130884000Y-95818500D01*
X132344500Y-95818500D01*
X132344500Y-96136000D01*
G37*
X132344500Y-96136000D02*
X130884000Y-96136000D01*
X130884000Y-95818500D01*
X132344500Y-95818500D01*
X132344500Y-96136000D01*
G36*
X131747030Y-92899745D02*
G01*
X132035182Y-92918509D01*
X132226529Y-92964858D01*
X132339897Y-93048938D01*
X132394112Y-93180900D01*
X132408000Y-93370892D01*
X132406397Y-93426178D01*
X132380109Y-93601948D01*
X132331800Y-93710300D01*
X132327304Y-93714956D01*
X132315834Y-93758173D01*
X132396217Y-93780286D01*
X132585800Y-93786500D01*
X132732368Y-93788424D01*
X132855653Y-93805238D01*
X132906230Y-93852401D01*
X132916000Y-93945250D01*
X132916000Y-94104000D01*
X130884000Y-94104000D01*
X130884000Y-93945250D01*
X130884715Y-93904869D01*
X130901442Y-93838050D01*
X130961760Y-93802730D01*
X131093468Y-93788888D01*
X131324367Y-93786500D01*
X131603975Y-93777599D01*
X131867409Y-93737360D01*
X132030324Y-93660977D01*
X132105787Y-93544402D01*
X132121601Y-93434883D01*
X132086082Y-93341078D01*
X131974994Y-93280370D01*
X131771273Y-93244338D01*
X131457856Y-93224557D01*
X131439753Y-93223855D01*
X131174775Y-93211767D01*
X131011051Y-93195737D01*
X130924240Y-93168360D01*
X130890004Y-93122227D01*
X130884000Y-93049932D01*
X130884537Y-93014321D01*
X130897529Y-92957799D01*
X130945571Y-92923280D01*
X131051652Y-92905341D01*
X131238758Y-92898557D01*
X131529875Y-92897500D01*
X131747030Y-92899745D01*
G37*
X131747030Y-92899745D02*
X132035182Y-92918509D01*
X132226529Y-92964858D01*
X132339897Y-93048938D01*
X132394112Y-93180900D01*
X132408000Y-93370892D01*
X132406397Y-93426178D01*
X132380109Y-93601948D01*
X132331800Y-93710300D01*
X132327304Y-93714956D01*
X132315834Y-93758173D01*
X132396217Y-93780286D01*
X132585800Y-93786500D01*
X132732368Y-93788424D01*
X132855653Y-93805238D01*
X132906230Y-93852401D01*
X132916000Y-93945250D01*
X132916000Y-94104000D01*
X130884000Y-94104000D01*
X130884000Y-93945250D01*
X130884715Y-93904869D01*
X130901442Y-93838050D01*
X130961760Y-93802730D01*
X131093468Y-93788888D01*
X131324367Y-93786500D01*
X131603975Y-93777599D01*
X131867409Y-93737360D01*
X132030324Y-93660977D01*
X132105787Y-93544402D01*
X132121601Y-93434883D01*
X132086082Y-93341078D01*
X131974994Y-93280370D01*
X131771273Y-93244338D01*
X131457856Y-93224557D01*
X131439753Y-93223855D01*
X131174775Y-93211767D01*
X131011051Y-93195737D01*
X130924240Y-93168360D01*
X130890004Y-93122227D01*
X130884000Y-93049932D01*
X130884537Y-93014321D01*
X130897529Y-92957799D01*
X130945571Y-92923280D01*
X131051652Y-92905341D01*
X131238758Y-92898557D01*
X131529875Y-92897500D01*
X131747030Y-92899745D01*
G36*
X131414752Y-94264343D02*
G01*
X131455500Y-94387516D01*
X131431133Y-94496779D01*
X131335971Y-94608002D01*
X131227328Y-94690960D01*
X131166192Y-94827308D01*
X131195052Y-94969071D01*
X131296054Y-95096194D01*
X131451342Y-95188621D01*
X131643062Y-95226296D01*
X131853358Y-95189163D01*
X131925609Y-95156748D01*
X132071405Y-95034008D01*
X132108476Y-94888096D01*
X132028456Y-94740456D01*
X131938611Y-94608626D01*
X131900923Y-94460820D01*
X131923088Y-94342757D01*
X132007033Y-94294500D01*
X132124639Y-94334431D01*
X132261033Y-94432569D01*
X132331372Y-94512511D01*
X132391565Y-94660198D01*
X132408000Y-94881954D01*
X132396081Y-95081149D01*
X132341766Y-95234808D01*
X132222385Y-95378885D01*
X132140587Y-95454886D01*
X132024214Y-95525853D01*
X131874986Y-95557356D01*
X131646000Y-95564500D01*
X131483245Y-95561747D01*
X131312273Y-95540179D01*
X131190032Y-95484260D01*
X131069616Y-95378885D01*
X131061048Y-95370264D01*
X130948780Y-95232788D01*
X130896718Y-95084507D01*
X130884000Y-94867999D01*
X130893355Y-94678053D01*
X130939550Y-94517468D01*
X131039864Y-94386864D01*
X131160167Y-94288663D01*
X131308374Y-94231379D01*
X131414752Y-94264343D01*
G37*
X131414752Y-94264343D02*
X131455500Y-94387516D01*
X131431133Y-94496779D01*
X131335971Y-94608002D01*
X131227328Y-94690960D01*
X131166192Y-94827308D01*
X131195052Y-94969071D01*
X131296054Y-95096194D01*
X131451342Y-95188621D01*
X131643062Y-95226296D01*
X131853358Y-95189163D01*
X131925609Y-95156748D01*
X132071405Y-95034008D01*
X132108476Y-94888096D01*
X132028456Y-94740456D01*
X131938611Y-94608626D01*
X131900923Y-94460820D01*
X131923088Y-94342757D01*
X132007033Y-94294500D01*
X132124639Y-94334431D01*
X132261033Y-94432569D01*
X132331372Y-94512511D01*
X132391565Y-94660198D01*
X132408000Y-94881954D01*
X132396081Y-95081149D01*
X132341766Y-95234808D01*
X132222385Y-95378885D01*
X132140587Y-95454886D01*
X132024214Y-95525853D01*
X131874986Y-95557356D01*
X131646000Y-95564500D01*
X131483245Y-95561747D01*
X131312273Y-95540179D01*
X131190032Y-95484260D01*
X131069616Y-95378885D01*
X131061048Y-95370264D01*
X130948780Y-95232788D01*
X130896718Y-95084507D01*
X130884000Y-94867999D01*
X130893355Y-94678053D01*
X130939550Y-94517468D01*
X131039864Y-94386864D01*
X131160167Y-94288663D01*
X131308374Y-94231379D01*
X131414752Y-94264343D01*
D11*
X130553400Y-92500000D02*
X113553400Y-92500000D01*
X113553400Y-92500000D02*
X113553400Y-107500000D01*
X113553400Y-107500000D02*
X130553400Y-107500000D01*
X130553400Y-107500000D02*
X130553400Y-92500000D01*
%LPC*%
D10*
X115200000Y-91500000D02*
X115200000Y-91900000D01*
X112100000Y-88400000D02*
X111900001Y-87699999D01*
X115200000Y-91900000D02*
X115900001Y-91700000D01*
X111900000Y-91699999D02*
X115900001Y-91700000D01*
X115900001Y-91700000D02*
X115200000Y-91500000D01*
X111900001Y-91700001D02*
X111900001Y-87699999D01*
X111900001Y-87699999D02*
X111700002Y-88400000D01*
X111700002Y-88400000D02*
X112100000Y-88400000D01*
X112852380Y-88638095D02*
X112185714Y-89161904D01*
X112185714Y-88638095D02*
X112852380Y-89161904D01*
X114914284Y-91138095D02*
X114247618Y-90900000D01*
X114914284Y-90661904D02*
X114247618Y-90900000D01*
X114009522Y-90995238D01*
X113961903Y-91042857D01*
X113914284Y-91138095D01*
X123695238Y-108475714D02*
X123695238Y-109142380D01*
X123933333Y-108094761D02*
X124171428Y-108809047D01*
X123552380Y-108809047D01*
X122504761Y-109237619D02*
X122600000Y-109190000D01*
X122695238Y-109094761D01*
X122838095Y-108951904D01*
X122933333Y-108904285D01*
X123028571Y-108904285D01*
X122980952Y-109142380D02*
X123076190Y-109094761D01*
X123171428Y-108999523D01*
X123219047Y-108809047D01*
X123219047Y-108475714D01*
X123171428Y-108285238D01*
X123076190Y-108190000D01*
X122980952Y-108142380D01*
X122790476Y-108142380D01*
X122695238Y-108190000D01*
X122600000Y-108285238D01*
X122552380Y-108475714D01*
X122552380Y-108809047D01*
X122600000Y-108999523D01*
X122695238Y-109094761D01*
X122790476Y-109142380D01*
X122980952Y-109142380D01*
X122123809Y-108761428D02*
X121361904Y-108761428D01*
X120885714Y-108618571D02*
X120552380Y-108618571D01*
X120409523Y-109142380D02*
X120885714Y-109142380D01*
X120885714Y-108142380D01*
X120409523Y-108142380D01*
X119980952Y-108475714D02*
X119980952Y-109475714D01*
X119980952Y-108523333D02*
X119885714Y-108475714D01*
X119695238Y-108475714D01*
X119600000Y-108523333D01*
X119552380Y-108570952D01*
X119504761Y-108666190D01*
X119504761Y-108951904D01*
X119552380Y-109047142D01*
X119600000Y-109094761D01*
X119695238Y-109142380D01*
X119885714Y-109142380D01*
X119980952Y-109094761D01*
X119076190Y-109142380D02*
X119076190Y-108475714D01*
X119076190Y-108142380D02*
X119123809Y-108190000D01*
X119076190Y-108237619D01*
X119028571Y-108190000D01*
X119076190Y-108142380D01*
X119076190Y-108237619D01*
X117838095Y-109142380D02*
X117838095Y-108142380D01*
X117600000Y-108142380D01*
X117457142Y-108190000D01*
X117361904Y-108285238D01*
X117314285Y-108380476D01*
X117266666Y-108570952D01*
X117266666Y-108713809D01*
X117314285Y-108904285D01*
X117361904Y-108999523D01*
X117457142Y-109094761D01*
X117600000Y-109142380D01*
X117838095Y-109142380D01*
X116457142Y-109094761D02*
X116552380Y-109142380D01*
X116742857Y-109142380D01*
X116838095Y-109094761D01*
X116885714Y-108999523D01*
X116885714Y-108618571D01*
X116838095Y-108523333D01*
X116742857Y-108475714D01*
X116552380Y-108475714D01*
X116457142Y-108523333D01*
X116409523Y-108618571D01*
X116409523Y-108713809D01*
X116885714Y-108809047D01*
X116123809Y-108475714D02*
X115742857Y-108475714D01*
X115980952Y-108142380D02*
X115980952Y-108999523D01*
X115933333Y-109094761D01*
X115838095Y-109142380D01*
X115742857Y-109142380D01*
X115028571Y-109094761D02*
X115123809Y-109142380D01*
X115314285Y-109142380D01*
X115409523Y-109094761D01*
X115457142Y-108999523D01*
X115457142Y-108618571D01*
X115409523Y-108523333D01*
X115314285Y-108475714D01*
X115123809Y-108475714D01*
X115028571Y-108523333D01*
X114980952Y-108618571D01*
X114980952Y-108713809D01*
X115457142Y-108809047D01*
X114123809Y-109094761D02*
X114219047Y-109142380D01*
X114409523Y-109142380D01*
X114504761Y-109094761D01*
X114552380Y-109047142D01*
X114600000Y-108951904D01*
X114600000Y-108666190D01*
X114552380Y-108570952D01*
X114504761Y-108523333D01*
X114409523Y-108475714D01*
X114219047Y-108475714D01*
X114123809Y-108523333D01*
X113838095Y-108475714D02*
X113457142Y-108475714D01*
X113695238Y-108142380D02*
X113695238Y-108999523D01*
X113647619Y-109094761D01*
X113552380Y-109142380D01*
X113457142Y-109142380D01*
X112980952Y-109142380D02*
X113076190Y-109094761D01*
X113123809Y-109047142D01*
X113171428Y-108951904D01*
X113171428Y-108666190D01*
X113123809Y-108570952D01*
X113076190Y-108523333D01*
X112980952Y-108475714D01*
X112838095Y-108475714D01*
X112742857Y-108523333D01*
X112695238Y-108570952D01*
X112647619Y-108666190D01*
X112647619Y-108951904D01*
X112695238Y-109047142D01*
X112742857Y-109094761D01*
X112838095Y-109142380D01*
X112980952Y-109142380D01*
X112219047Y-109142380D02*
X112219047Y-108475714D01*
X112219047Y-108666190D02*
X112171428Y-108570952D01*
X112123809Y-108523333D01*
X112028571Y-108475714D01*
X111933333Y-108475714D01*
X121552380Y-110752380D02*
X121552380Y-109752380D01*
X121314285Y-109752380D01*
X121171428Y-109800000D01*
X121076190Y-109895238D01*
X121028571Y-109990476D01*
X120980952Y-110180952D01*
X120980952Y-110323809D01*
X121028571Y-110514285D01*
X121076190Y-110609523D01*
X121171428Y-110704761D01*
X121314285Y-110752380D01*
X121552380Y-110752380D01*
X120171428Y-110704761D02*
X120266666Y-110752380D01*
X120457142Y-110752380D01*
X120552380Y-110704761D01*
X120600000Y-110609523D01*
X120600000Y-110228571D01*
X120552380Y-110133333D01*
X120457142Y-110085714D01*
X120266666Y-110085714D01*
X120171428Y-110133333D01*
X120123809Y-110228571D01*
X120123809Y-110323809D01*
X120600000Y-110419047D01*
X119742857Y-110704761D02*
X119647619Y-110752380D01*
X119457142Y-110752380D01*
X119361904Y-110704761D01*
X119314285Y-110609523D01*
X119314285Y-110561904D01*
X119361904Y-110466666D01*
X119457142Y-110419047D01*
X119600000Y-110419047D01*
X119695238Y-110371428D01*
X119742857Y-110276190D01*
X119742857Y-110228571D01*
X119695238Y-110133333D01*
X119600000Y-110085714D01*
X119457142Y-110085714D01*
X119361904Y-110133333D01*
X118885714Y-110752380D02*
X118885714Y-110085714D01*
X118885714Y-109752380D02*
X118933333Y-109800000D01*
X118885714Y-109847619D01*
X118838095Y-109800000D01*
X118885714Y-109752380D01*
X118885714Y-109847619D01*
X117980952Y-110085714D02*
X117980952Y-110895238D01*
X118028571Y-110990476D01*
X118076190Y-111038095D01*
X118171428Y-111085714D01*
X118314285Y-111085714D01*
X118409523Y-111038095D01*
X117980952Y-110704761D02*
X118076190Y-110752380D01*
X118266666Y-110752380D01*
X118361904Y-110704761D01*
X118409523Y-110657142D01*
X118457142Y-110561904D01*
X118457142Y-110276190D01*
X118409523Y-110180952D01*
X118361904Y-110133333D01*
X118266666Y-110085714D01*
X118076190Y-110085714D01*
X117980952Y-110133333D01*
X117504761Y-110085714D02*
X117504761Y-110752380D01*
X117504761Y-110180952D02*
X117457142Y-110133333D01*
X117361904Y-110085714D01*
X117219047Y-110085714D01*
X117123809Y-110133333D01*
X117076190Y-110228571D01*
X117076190Y-110752380D01*
X115838095Y-110752380D02*
X115838095Y-109752380D01*
X115838095Y-110133333D02*
X115742857Y-110085714D01*
X115552380Y-110085714D01*
X115457142Y-110133333D01*
X115409523Y-110180952D01*
X115361904Y-110276190D01*
X115361904Y-110561904D01*
X115409523Y-110657142D01*
X115457142Y-110704761D01*
X115552380Y-110752380D01*
X115742857Y-110752380D01*
X115838095Y-110704761D01*
X115028571Y-110085714D02*
X114790476Y-110752380D01*
X114552380Y-110085714D02*
X114790476Y-110752380D01*
X114885714Y-110990476D01*
X114933333Y-111038095D01*
X115028571Y-111085714D01*
X126528571Y-112362380D02*
X126528571Y-111362380D01*
X125957142Y-112362380D01*
X125957142Y-111362380D01*
X125480952Y-112362380D02*
X125480952Y-111695714D01*
X125480952Y-111362380D02*
X125528571Y-111410000D01*
X125480952Y-111457619D01*
X125433333Y-111410000D01*
X125480952Y-111362380D01*
X125480952Y-111457619D01*
X124576190Y-112314761D02*
X124671428Y-112362380D01*
X124861904Y-112362380D01*
X124957142Y-112314761D01*
X125004761Y-112267142D01*
X125052380Y-112171904D01*
X125052380Y-111886190D01*
X125004761Y-111790952D01*
X124957142Y-111743333D01*
X124861904Y-111695714D01*
X124671428Y-111695714D01*
X124576190Y-111743333D01*
X124147619Y-112362380D02*
X124147619Y-111362380D01*
X124052380Y-111981428D02*
X123766666Y-112362380D01*
X123766666Y-111695714D02*
X124147619Y-112076666D01*
X122623809Y-112314761D02*
X122480952Y-112362380D01*
X122242857Y-112362380D01*
X122147619Y-112314761D01*
X122100000Y-112267142D01*
X122052380Y-112171904D01*
X122052380Y-112076666D01*
X122100000Y-111981428D01*
X122147619Y-111933809D01*
X122242857Y-111886190D01*
X122433333Y-111838571D01*
X122528571Y-111790952D01*
X122576190Y-111743333D01*
X122623809Y-111648095D01*
X122623809Y-111552857D01*
X122576190Y-111457619D01*
X122528571Y-111410000D01*
X122433333Y-111362380D01*
X122195238Y-111362380D01*
X122052380Y-111410000D01*
X121623809Y-112362380D02*
X121623809Y-111695714D01*
X121623809Y-111362380D02*
X121671428Y-111410000D01*
X121623809Y-111457619D01*
X121576190Y-111410000D01*
X121623809Y-111362380D01*
X121623809Y-111457619D01*
X120719047Y-112362380D02*
X120719047Y-111362380D01*
X120719047Y-112314761D02*
X120814285Y-112362380D01*
X121004761Y-112362380D01*
X121100000Y-112314761D01*
X121147619Y-112267142D01*
X121195238Y-112171904D01*
X121195238Y-111886190D01*
X121147619Y-111790952D01*
X121100000Y-111743333D01*
X121004761Y-111695714D01*
X120814285Y-111695714D01*
X120719047Y-111743333D01*
X120242857Y-111695714D02*
X120242857Y-112362380D01*
X120242857Y-111790952D02*
X120195238Y-111743333D01*
X120100000Y-111695714D01*
X119957142Y-111695714D01*
X119861904Y-111743333D01*
X119814285Y-111838571D01*
X119814285Y-112362380D01*
X118957142Y-112314761D02*
X119052380Y-112362380D01*
X119242857Y-112362380D01*
X119338095Y-112314761D01*
X119385714Y-112219523D01*
X119385714Y-111838571D01*
X119338095Y-111743333D01*
X119242857Y-111695714D01*
X119052380Y-111695714D01*
X118957142Y-111743333D01*
X118909523Y-111838571D01*
X118909523Y-111933809D01*
X119385714Y-112029047D01*
X118576190Y-111695714D02*
X118338095Y-112362380D01*
X118100000Y-111695714D02*
X118338095Y-112362380D01*
X118433333Y-112600476D01*
X118480952Y-112648095D01*
X118576190Y-112695714D01*
X116480952Y-112362380D02*
X116957142Y-112362380D01*
X116957142Y-111362380D01*
X115766666Y-112314761D02*
X115861904Y-112362380D01*
X116052380Y-112362380D01*
X116147619Y-112314761D01*
X116195238Y-112219523D01*
X116195238Y-111838571D01*
X116147619Y-111743333D01*
X116052380Y-111695714D01*
X115861904Y-111695714D01*
X115766666Y-111743333D01*
X115719047Y-111838571D01*
X115719047Y-111933809D01*
X116195238Y-112029047D01*
X115290476Y-112362380D02*
X115290476Y-111695714D01*
X115290476Y-111790952D02*
X115242857Y-111743333D01*
X115147619Y-111695714D01*
X115004761Y-111695714D01*
X114909523Y-111743333D01*
X114861904Y-111838571D01*
X114861904Y-112362380D01*
X114861904Y-111838571D02*
X114814285Y-111743333D01*
X114719047Y-111695714D01*
X114576190Y-111695714D01*
X114480952Y-111743333D01*
X114433333Y-111838571D01*
X114433333Y-112362380D01*
X113957142Y-112362380D02*
X113957142Y-111362380D01*
X113957142Y-111743333D02*
X113861904Y-111695714D01*
X113671428Y-111695714D01*
X113576190Y-111743333D01*
X113528571Y-111790952D01*
X113480952Y-111886190D01*
X113480952Y-112171904D01*
X113528571Y-112267142D01*
X113576190Y-112314761D01*
X113671428Y-112362380D01*
X113861904Y-112362380D01*
X113957142Y-112314761D01*
X112671428Y-112314761D02*
X112766666Y-112362380D01*
X112957142Y-112362380D01*
X113052380Y-112314761D01*
X113100000Y-112219523D01*
X113100000Y-111838571D01*
X113052380Y-111743333D01*
X112957142Y-111695714D01*
X112766666Y-111695714D01*
X112671428Y-111743333D01*
X112623809Y-111838571D01*
X112623809Y-111933809D01*
X113100000Y-112029047D01*
X112195238Y-112362380D02*
X112195238Y-111695714D01*
X112195238Y-111886190D02*
X112147619Y-111790952D01*
X112100000Y-111743333D01*
X112004761Y-111695714D01*
X111909523Y-111695714D01*
X111147619Y-111695714D02*
X111147619Y-112505238D01*
X111195238Y-112600476D01*
X111242857Y-112648095D01*
X111338095Y-112695714D01*
X111480952Y-112695714D01*
X111576190Y-112648095D01*
X111147619Y-112314761D02*
X111242857Y-112362380D01*
X111433333Y-112362380D01*
X111528571Y-112314761D01*
X111576190Y-112267142D01*
X111623809Y-112171904D01*
X111623809Y-111886190D01*
X111576190Y-111790952D01*
X111528571Y-111743333D01*
X111433333Y-111695714D01*
X111242857Y-111695714D01*
X111147619Y-111743333D01*
X110290476Y-112314761D02*
X110385714Y-112362380D01*
X110576190Y-112362380D01*
X110671428Y-112314761D01*
X110719047Y-112219523D01*
X110719047Y-111838571D01*
X110671428Y-111743333D01*
X110576190Y-111695714D01*
X110385714Y-111695714D01*
X110290476Y-111743333D01*
X110242857Y-111838571D01*
X110242857Y-111933809D01*
X110719047Y-112029047D01*
X109814285Y-112362380D02*
X109814285Y-111695714D01*
X109814285Y-111886190D02*
X109766666Y-111790952D01*
X109719047Y-111743333D01*
X109623809Y-111695714D01*
X109528571Y-111695714D01*
D13*
X120500000Y-84200000D03*
D14*
X117960000Y-86740000D03*
X117960000Y-81660000D03*
X123040000Y-86740000D03*
X123040000Y-81660000D03*
D15*
X112800000Y-84000000D03*
X145400000Y-84000000D03*
D13*
X137700000Y-84200000D03*
D14*
X135160000Y-86740000D03*
X140240000Y-86740000D03*
X135160000Y-81660000D03*
X140240000Y-81660000D03*
D15*
X112800000Y-116000000D03*
D13*
X129100000Y-84200000D03*
D14*
X131640000Y-81660000D03*
X126560000Y-81660000D03*
X131640000Y-86740000D03*
X126560000Y-86740000D03*
D15*
X145400000Y-116000000D03*
D16*
X129006800Y-105080000D03*
X129006800Y-102540000D03*
X129006800Y-100000000D03*
X129006800Y-97460000D03*
X129006800Y-94920000D03*
X112046600Y-94920000D03*
X112046600Y-97460000D03*
X112046600Y-100000000D03*
X112046600Y-102540000D03*
X112046600Y-105080000D03*
M02*
