G04 #@! TF.GenerationSoftware,KiCad,Pcbnew,(6.0.5)*
G04 #@! TF.CreationDate,2025-03-10T11:46:14+01:00*
G04 #@! TF.ProjectId,CatLickDet,4361744c-6963-46b4-9465-742e6b696361,rev?*
G04 #@! TF.SameCoordinates,Original*
G04 #@! TF.FileFunction,Soldermask,Top*
G04 #@! TF.FilePolarity,Negative*
%FSLAX46Y46*%
G04 Gerber Fmt 4.6, Leading zero omitted, Abs format (unit mm)*
G04 Created by KiCad (PCBNEW (6.0.5)) date 2025-03-10 11:46:14*
%MOMM*%
%LPD*%
G01*
G04 APERTURE LIST*
G04 Aperture macros list*
%AMRoundRect*
0 Rectangle with rounded corners*
0 $1 Rounding radius*
0 $2 $3 $4 $5 $6 $7 $8 $9 X,Y pos of 4 corners*
0 Add a 4 corners polygon primitive as box body*
4,1,4,$2,$3,$4,$5,$6,$7,$8,$9,$2,$3,0*
0 Add four circle primitives for the rounded corners*
1,1,$1+$1,$2,$3*
1,1,$1+$1,$4,$5*
1,1,$1+$1,$6,$7*
1,1,$1+$1,$8,$9*
0 Add four rect primitives between the rounded corners*
20,1,$1+$1,$2,$3,$4,$5,0*
20,1,$1+$1,$4,$5,$6,$7,0*
20,1,$1+$1,$6,$7,$8,$9,0*
20,1,$1+$1,$8,$9,$2,$3,0*%
G04 Aperture macros list end*
%ADD10C,0.150000*%
%ADD11C,0.200000*%
%ADD12RoundRect,0.140000X-0.170000X0.140000X-0.170000X-0.140000X0.170000X-0.140000X0.170000X0.140000X0*%
%ADD13RoundRect,0.100000X-0.625000X-0.100000X0.625000X-0.100000X0.625000X0.100000X-0.625000X0.100000X0*%
%ADD14R,1.680000X1.880000*%
%ADD15RoundRect,0.150000X-0.825000X-0.150000X0.825000X-0.150000X0.825000X0.150000X-0.825000X0.150000X0*%
%ADD16RoundRect,0.150000X0.825000X0.150000X-0.825000X0.150000X-0.825000X-0.150000X0.825000X-0.150000X0*%
%ADD17RoundRect,0.140000X-0.140000X-0.170000X0.140000X-0.170000X0.140000X0.170000X-0.140000X0.170000X0*%
%ADD18C,2.050000*%
%ADD19C,2.250000*%
%ADD20RoundRect,0.100000X0.625000X0.100000X-0.625000X0.100000X-0.625000X-0.100000X0.625000X-0.100000X0*%
%ADD21RoundRect,0.140000X0.170000X-0.140000X0.170000X0.140000X-0.170000X0.140000X-0.170000X-0.140000X0*%
%ADD22RoundRect,0.250000X-0.650000X0.325000X-0.650000X-0.325000X0.650000X-0.325000X0.650000X0.325000X0*%
%ADD23C,5.700000*%
%ADD24RoundRect,0.135000X-0.185000X0.135000X-0.185000X-0.135000X0.185000X-0.135000X0.185000X0.135000X0*%
%ADD25RoundRect,0.062500X0.362500X0.062500X-0.362500X0.062500X-0.362500X-0.062500X0.362500X-0.062500X0*%
%ADD26R,1.650000X2.380000*%
%ADD27RoundRect,0.135000X0.185000X-0.135000X0.185000X0.135000X-0.185000X0.135000X-0.185000X-0.135000X0*%
%ADD28R,1.600000X1.300000*%
%ADD29R,1.600000X2.000000*%
%ADD30R,3.000000X2.000000*%
%ADD31RoundRect,0.177891X-0.389009X-0.231259X0.389009X-0.231259X0.389009X0.231259X-0.389009X0.231259X0*%
%ADD32RoundRect,0.179087X-0.395913X-0.232813X0.395913X-0.232813X0.395913X0.232813X-0.395913X0.232813X0*%
%ADD33RoundRect,0.184608X-0.390392X-0.239992X0.390392X-0.239992X0.390392X0.239992X-0.390392X0.239992X0*%
%ADD34RoundRect,0.183413X-0.391587X-0.238437X0.391587X-0.238437X0.391587X0.238437X-0.391587X0.238437X0*%
%ADD35RoundRect,0.218750X0.256250X-0.218750X0.256250X0.218750X-0.256250X0.218750X-0.256250X-0.218750X0*%
%ADD36RoundRect,0.200000X0.275000X-0.200000X0.275000X0.200000X-0.275000X0.200000X-0.275000X-0.200000X0*%
%ADD37RoundRect,0.218750X-0.256250X0.218750X-0.256250X-0.218750X0.256250X-0.218750X0.256250X0.218750X0*%
%ADD38RoundRect,0.140000X0.140000X0.170000X-0.140000X0.170000X-0.140000X-0.170000X0.140000X-0.170000X0*%
%ADD39RoundRect,0.250000X0.650000X-0.325000X0.650000X0.325000X-0.650000X0.325000X-0.650000X-0.325000X0*%
%ADD40R,0.250000X0.500000*%
%ADD41R,1.600000X0.900000*%
G04 APERTURE END LIST*
D10*
X112099999Y-88400001D02*
X111900000Y-87699999D01*
X111900000Y-87699999D02*
X111700001Y-88400000D01*
X115900000Y-91700000D02*
X111900000Y-91700000D01*
X115200000Y-91500000D02*
X115200000Y-91900000D01*
X115200000Y-91900000D02*
X115900000Y-91700000D01*
X111700001Y-88400000D02*
X112099999Y-88400001D01*
X115900000Y-91700000D02*
X115200000Y-91500000D01*
X111900000Y-87699999D02*
X111900000Y-91700001D01*
X131699761Y-93080952D02*
X131747380Y-92938095D01*
X131747380Y-92700000D01*
X131699761Y-92604761D01*
X131652142Y-92557142D01*
X131556904Y-92509523D01*
X131461666Y-92509523D01*
X131366428Y-92557142D01*
X131318809Y-92604761D01*
X131271190Y-92700000D01*
X131223571Y-92890476D01*
X131175952Y-92985714D01*
X131128333Y-93033333D01*
X131033095Y-93080952D01*
X130937857Y-93080952D01*
X130842619Y-93033333D01*
X130795000Y-92985714D01*
X130747380Y-92890476D01*
X130747380Y-92652380D01*
X130795000Y-92509523D01*
X130747380Y-92080952D02*
X131556904Y-92080952D01*
X131652142Y-92033333D01*
X131699761Y-91985714D01*
X131747380Y-91890476D01*
X131747380Y-91700000D01*
X131699761Y-91604761D01*
X131652142Y-91557142D01*
X131556904Y-91509523D01*
X130747380Y-91509523D01*
X131747380Y-91033333D02*
X130747380Y-91033333D01*
X131461666Y-90700000D01*
X130747380Y-90366666D01*
X131747380Y-90366666D01*
X132690714Y-93152380D02*
X132690714Y-92628571D01*
X133357380Y-93152380D01*
X133357380Y-92628571D01*
X133309761Y-91866666D02*
X133357380Y-91961904D01*
X133357380Y-92152380D01*
X133309761Y-92247619D01*
X133214523Y-92295238D01*
X132833571Y-92295238D01*
X132738333Y-92247619D01*
X132690714Y-92152380D01*
X132690714Y-91961904D01*
X132738333Y-91866666D01*
X132833571Y-91819047D01*
X132928809Y-91819047D01*
X133024047Y-92295238D01*
X133357380Y-91390476D02*
X132690714Y-91390476D01*
X132881190Y-91390476D02*
X132785952Y-91342857D01*
X132738333Y-91295238D01*
X132690714Y-91200000D01*
X132690714Y-91104761D01*
X133357380Y-90628571D02*
X133309761Y-90723809D01*
X133262142Y-90771428D01*
X133166904Y-90819047D01*
X132881190Y-90819047D01*
X132785952Y-90771428D01*
X132738333Y-90723809D01*
X132690714Y-90628571D01*
X132690714Y-90485714D01*
X132738333Y-90390476D01*
X132785952Y-90342857D01*
X132881190Y-90295238D01*
X133166904Y-90295238D01*
X133262142Y-90342857D01*
X133309761Y-90390476D01*
X133357380Y-90485714D01*
X133357380Y-90628571D01*
X134098809Y-111026190D02*
X134098809Y-111502380D01*
X133765476Y-110502380D02*
X134098809Y-111026190D01*
X134432142Y-110502380D01*
X135432142Y-110835714D02*
X135955952Y-110835714D01*
X135432142Y-111502380D01*
X135955952Y-111502380D01*
X136717857Y-111454761D02*
X136622619Y-111502380D01*
X136432142Y-111502380D01*
X136336904Y-111454761D01*
X136289285Y-111359523D01*
X136289285Y-110978571D01*
X136336904Y-110883333D01*
X136432142Y-110835714D01*
X136622619Y-110835714D01*
X136717857Y-110883333D01*
X136765476Y-110978571D01*
X136765476Y-111073809D01*
X136289285Y-111169047D01*
X137194047Y-111502380D02*
X137194047Y-110835714D01*
X137194047Y-111026190D02*
X137241666Y-110930952D01*
X137289285Y-110883333D01*
X137384523Y-110835714D01*
X137479761Y-110835714D01*
X137955952Y-111502380D02*
X137860714Y-111454761D01*
X137813095Y-111407142D01*
X137765476Y-111311904D01*
X137765476Y-111026190D01*
X137813095Y-110930952D01*
X137860714Y-110883333D01*
X137955952Y-110835714D01*
X138098809Y-110835714D01*
X138194047Y-110883333D01*
X138241666Y-110930952D01*
X138289285Y-111026190D01*
X138289285Y-111311904D01*
X138241666Y-111407142D01*
X138194047Y-111454761D01*
X138098809Y-111502380D01*
X137955952Y-111502380D01*
X142800000Y-87576190D02*
X142800000Y-88052380D01*
X143133333Y-87052380D02*
X142800000Y-87576190D01*
X142466666Y-87052380D01*
X114914285Y-90861904D02*
X114247619Y-91100000D01*
X114914285Y-91338095D02*
X114247619Y-91100000D01*
X114009523Y-91004761D01*
X113961904Y-90957142D01*
X113914285Y-90861904D01*
D11*
X115353571Y-112089285D02*
X115353571Y-111251190D01*
X114672619Y-110203571D02*
X114672619Y-110727380D01*
X115196428Y-110779761D01*
X115144047Y-110727380D01*
X115091666Y-110622619D01*
X115091666Y-110360714D01*
X115144047Y-110255952D01*
X115196428Y-110203571D01*
X115301190Y-110151190D01*
X115563095Y-110151190D01*
X115667857Y-110203571D01*
X115720238Y-110255952D01*
X115772619Y-110360714D01*
X115772619Y-110622619D01*
X115720238Y-110727380D01*
X115667857Y-110779761D01*
X114672619Y-109836904D02*
X115772619Y-109470238D01*
X114672619Y-109103571D01*
D10*
X128890476Y-110502380D02*
X129557142Y-111502380D01*
X129557142Y-110502380D02*
X128890476Y-111502380D01*
X130604761Y-110835714D02*
X131128571Y-110835714D01*
X130604761Y-111502380D01*
X131128571Y-111502380D01*
X131890476Y-111454761D02*
X131795238Y-111502380D01*
X131604761Y-111502380D01*
X131509523Y-111454761D01*
X131461904Y-111359523D01*
X131461904Y-110978571D01*
X131509523Y-110883333D01*
X131604761Y-110835714D01*
X131795238Y-110835714D01*
X131890476Y-110883333D01*
X131938095Y-110978571D01*
X131938095Y-111073809D01*
X131461904Y-111169047D01*
X132366666Y-111502380D02*
X132366666Y-110835714D01*
X132366666Y-111026190D02*
X132414285Y-110930952D01*
X132461904Y-110883333D01*
X132557142Y-110835714D01*
X132652380Y-110835714D01*
X133128571Y-111502380D02*
X133033333Y-111454761D01*
X132985714Y-111407142D01*
X132938095Y-111311904D01*
X132938095Y-111026190D01*
X132985714Y-110930952D01*
X133033333Y-110883333D01*
X133128571Y-110835714D01*
X133271428Y-110835714D01*
X133366666Y-110883333D01*
X133414285Y-110930952D01*
X133461904Y-111026190D01*
X133461904Y-111311904D01*
X133414285Y-111407142D01*
X133366666Y-111454761D01*
X133271428Y-111502380D01*
X133128571Y-111502380D01*
X112852380Y-89161904D02*
X112185714Y-88638095D01*
X112185714Y-89161904D02*
X112852380Y-88638095D01*
X129933333Y-88652380D02*
X129266666Y-89652380D01*
X129266666Y-88652380D02*
X129933333Y-89652380D01*
D11*
X120478571Y-112101784D02*
X120478571Y-111263689D01*
X120897619Y-111682737D02*
X120059523Y-111682737D01*
X119797619Y-110216070D02*
X119797619Y-110739879D01*
X120321428Y-110792260D01*
X120269047Y-110739879D01*
X120216666Y-110635118D01*
X120216666Y-110373213D01*
X120269047Y-110268451D01*
X120321428Y-110216070D01*
X120426190Y-110163689D01*
X120688095Y-110163689D01*
X120792857Y-110216070D01*
X120845238Y-110268451D01*
X120897619Y-110373213D01*
X120897619Y-110635118D01*
X120845238Y-110739879D01*
X120792857Y-110792260D01*
X119797619Y-109849403D02*
X120897619Y-109482737D01*
X119797619Y-109116070D01*
D10*
X119219047Y-90004761D02*
X119361904Y-90052380D01*
X119600000Y-90052380D01*
X119695238Y-90004761D01*
X119742857Y-89957142D01*
X119790476Y-89861904D01*
X119790476Y-89766666D01*
X119742857Y-89671428D01*
X119695238Y-89623809D01*
X119600000Y-89576190D01*
X119409523Y-89528571D01*
X119314285Y-89480952D01*
X119266666Y-89433333D01*
X119219047Y-89338095D01*
X119219047Y-89242857D01*
X119266666Y-89147619D01*
X119314285Y-89100000D01*
X119409523Y-89052380D01*
X119647619Y-89052380D01*
X119790476Y-89100000D01*
X120219047Y-89052380D02*
X120219047Y-89861904D01*
X120266666Y-89957142D01*
X120314285Y-90004761D01*
X120409523Y-90052380D01*
X120600000Y-90052380D01*
X120695238Y-90004761D01*
X120742857Y-89957142D01*
X120790476Y-89861904D01*
X120790476Y-89052380D01*
X121266666Y-90052380D02*
X121266666Y-89052380D01*
X121600000Y-89766666D01*
X121933333Y-89052380D01*
X121933333Y-90052380D01*
D12*
X149148799Y-104340600D03*
X149148799Y-105300600D03*
D13*
X134746999Y-102306000D03*
X134746999Y-102956000D03*
X134746999Y-103606000D03*
X134746999Y-104256000D03*
X139046999Y-104256000D03*
X139046999Y-103606000D03*
X139046999Y-102956000D03*
X139046999Y-102306000D03*
D14*
X136896999Y-103281000D03*
D15*
X142457400Y-89535000D03*
X142457400Y-90805000D03*
X142457400Y-92075000D03*
X142457400Y-93345000D03*
X147407400Y-93345000D03*
X147407400Y-92075000D03*
X147407400Y-90805000D03*
X147407400Y-89535000D03*
D16*
X126725000Y-97187400D03*
X126725000Y-95917400D03*
X126725000Y-94647400D03*
X126725000Y-93377400D03*
X121775000Y-93377400D03*
X121775000Y-94647400D03*
X121775000Y-95917400D03*
X121775000Y-97187400D03*
D17*
X129748400Y-94437200D03*
X130708400Y-94437200D03*
D12*
X149148799Y-95326200D03*
X149148799Y-96286200D03*
D16*
X117962000Y-99092400D03*
X117962000Y-97822400D03*
X117962000Y-96552400D03*
X117962000Y-95282400D03*
X113012000Y-95282400D03*
X113012000Y-96552400D03*
X113012000Y-97822400D03*
X113012000Y-99092400D03*
D18*
X120500000Y-84200000D03*
D19*
X117960000Y-86740000D03*
X117960000Y-81660000D03*
X123040000Y-86740000D03*
X123040000Y-81660000D03*
D20*
X126273000Y-100956400D03*
X126273000Y-100306400D03*
X126273000Y-99656400D03*
X126273000Y-99006400D03*
X121973000Y-99006400D03*
X121973000Y-99656400D03*
X121973000Y-100306400D03*
X121973000Y-100956400D03*
D14*
X124123000Y-99981400D03*
D17*
X123770000Y-107982400D03*
X124730000Y-107982400D03*
D21*
X111300000Y-104430000D03*
X111300000Y-103470000D03*
D22*
X131242201Y-114882585D03*
X131242201Y-117832585D03*
D23*
X112800000Y-84000000D03*
X145400000Y-84000000D03*
D12*
X149200000Y-89820000D03*
X149200000Y-90780000D03*
D21*
X119805000Y-95310400D03*
X119805000Y-94350400D03*
D24*
X136657400Y-118237198D03*
X136657400Y-119257198D03*
D18*
X137700000Y-84200000D03*
D19*
X135160000Y-86740000D03*
X140240000Y-86740000D03*
X135160000Y-81660000D03*
X140240000Y-81660000D03*
D25*
X129365801Y-115373986D03*
X129365801Y-114873986D03*
X129365801Y-114373986D03*
X129365801Y-113873986D03*
X129365801Y-113373986D03*
X126465801Y-113373986D03*
X126465801Y-113873986D03*
X126465801Y-114373986D03*
X126465801Y-114873986D03*
X126465801Y-115373986D03*
D26*
X127915801Y-114373986D03*
D21*
X127044000Y-108970400D03*
X127044000Y-108010400D03*
D27*
X127044000Y-91980400D03*
X127044000Y-90960400D03*
D12*
X111250000Y-96070000D03*
X111250000Y-97030000D03*
D21*
X119932000Y-97385400D03*
X119932000Y-96425400D03*
D28*
X137730000Y-108990000D03*
D29*
X134830000Y-107740000D03*
D28*
X137730000Y-106490000D03*
D24*
X118600000Y-111490000D03*
X118600000Y-112510000D03*
D30*
X118400001Y-118100000D03*
X118400000Y-115560000D03*
D15*
X142457399Y-104033200D03*
X142457399Y-105303200D03*
X142457399Y-106573200D03*
X142457399Y-107843200D03*
X147407399Y-107843200D03*
X147407399Y-106573200D03*
X147407399Y-105303200D03*
X147407399Y-104033200D03*
D12*
X119805000Y-100898400D03*
X119805000Y-101858400D03*
D21*
X118281000Y-107041399D03*
X118281000Y-106081399D03*
D27*
X118378828Y-93885400D03*
X118378828Y-92865400D03*
D12*
X117362828Y-92893401D03*
X117362828Y-93853401D03*
D24*
X117000000Y-111490000D03*
X117000000Y-112510000D03*
X149200000Y-106590000D03*
X149200000Y-107610000D03*
D28*
X132675000Y-108990000D03*
D29*
X129775000Y-107740000D03*
D28*
X132675000Y-106490000D03*
D12*
X128524000Y-93375600D03*
X128524000Y-94335600D03*
D31*
X124962501Y-116802635D03*
D32*
X124952601Y-117776085D03*
D33*
X127902601Y-117763385D03*
D34*
X127900801Y-116815335D03*
D15*
X142457399Y-95067000D03*
X142457399Y-96337000D03*
X142457399Y-97607000D03*
X142457399Y-98877000D03*
X147407399Y-98877000D03*
X147407399Y-97607000D03*
X147407399Y-96337000D03*
X147407399Y-95067000D03*
D13*
X134755999Y-95138600D03*
X134755999Y-95788600D03*
X134755999Y-96438600D03*
X134755999Y-97088600D03*
X139055999Y-97088600D03*
X139055999Y-96438600D03*
X139055999Y-95788600D03*
X139055999Y-95138600D03*
D14*
X136905999Y-96113600D03*
D35*
X117000000Y-110287500D03*
X117000000Y-108712500D03*
D36*
X139450000Y-91525000D03*
X139450000Y-89875000D03*
D23*
X112800000Y-116000000D03*
D12*
X137978200Y-114489001D03*
X137978200Y-115449001D03*
D13*
X134746999Y-98724600D03*
X134746999Y-99374600D03*
X134746999Y-100024600D03*
X134746999Y-100674600D03*
X139046999Y-100674600D03*
X139046999Y-100024600D03*
X139046999Y-99374600D03*
X139046999Y-98724600D03*
D14*
X136896999Y-99699600D03*
D18*
X129100000Y-84200000D03*
D19*
X131640000Y-81660000D03*
X126560000Y-81660000D03*
X131640000Y-86740000D03*
X126560000Y-86740000D03*
D13*
X142782399Y-100492800D03*
X142782399Y-101142800D03*
X142782399Y-101792800D03*
X142782399Y-102442800D03*
X147082399Y-102442800D03*
X147082399Y-101792800D03*
X147082399Y-101142800D03*
X147082399Y-100492800D03*
D14*
X144932399Y-101467800D03*
D37*
X118600000Y-108712499D03*
X118600000Y-110287499D03*
D12*
X140741399Y-98877000D03*
X140741399Y-99837000D03*
D22*
X139641800Y-111971399D03*
X139641800Y-114921399D03*
D38*
X130703200Y-95453200D03*
X129743200Y-95453200D03*
D21*
X140213400Y-119483800D03*
X140213400Y-118523800D03*
D12*
X126028000Y-91018399D03*
X126028000Y-91978399D03*
D39*
X135000000Y-116946400D03*
X135000000Y-113996400D03*
D24*
X149200000Y-92090000D03*
X149200000Y-93110000D03*
X117265000Y-106077400D03*
X117265000Y-107097400D03*
D38*
X140738799Y-107843200D03*
X139778799Y-107843200D03*
D16*
X126725000Y-106585400D03*
X126725000Y-105315400D03*
X126725000Y-104045400D03*
X126725000Y-102775400D03*
X121775000Y-102775400D03*
X121775000Y-104045400D03*
X121775000Y-105315400D03*
X121775000Y-106585400D03*
D24*
X121176801Y-114448385D03*
X121176801Y-115468385D03*
D23*
X145400000Y-116000000D03*
D28*
X137600000Y-92900000D03*
D29*
X134700000Y-91650000D03*
D28*
X137600000Y-90400000D03*
D16*
X117962000Y-104680400D03*
X117962000Y-103410400D03*
X117962000Y-102140400D03*
X117962000Y-100870400D03*
X113012000Y-100870400D03*
X113012000Y-102140400D03*
X113012000Y-103410400D03*
X113012000Y-104680400D03*
D27*
X135641400Y-119263601D03*
X135641400Y-118243601D03*
D12*
X136664600Y-116366199D03*
X136664600Y-117326199D03*
D17*
X115007000Y-106077400D03*
X115967000Y-106077400D03*
D21*
X140665200Y-93342400D03*
X140665200Y-92382400D03*
D24*
X126028001Y-107980400D03*
X126028001Y-109000400D03*
D40*
X139204400Y-116779199D03*
X138704400Y-116779199D03*
X138204400Y-116779199D03*
X137704400Y-116779199D03*
X137704400Y-118679199D03*
X138204400Y-118679199D03*
X138704400Y-118679199D03*
X139204400Y-118679199D03*
D41*
X138454400Y-117729199D03*
D21*
X140700000Y-91124999D03*
X140700000Y-90164999D03*
D17*
X123770000Y-91980400D03*
X124730000Y-91980400D03*
D24*
X149350000Y-97990000D03*
X149350000Y-99010000D03*
D12*
X128524000Y-102796400D03*
X128524000Y-103756400D03*
D22*
X122886801Y-113908385D03*
X122886801Y-116858385D03*
D17*
X115007000Y-93885400D03*
X115967000Y-93885400D03*
D21*
X119932000Y-106331400D03*
X119932000Y-105371400D03*
M02*
