G04 #@! TF.GenerationSoftware,KiCad,Pcbnew,(6.0.5)*
G04 #@! TF.CreationDate,2025-03-10T11:46:14+01:00*
G04 #@! TF.ProjectId,CatLickDet,4361744c-6963-46b4-9465-742e6b696361,rev?*
G04 #@! TF.SameCoordinates,Original*
G04 #@! TF.FileFunction,Paste,Top*
G04 #@! TF.FilePolarity,Positive*
%FSLAX46Y46*%
G04 Gerber Fmt 4.6, Leading zero omitted, Abs format (unit mm)*
G04 Created by KiCad (PCBNEW (6.0.5)) date 2025-03-10 11:46:14*
%MOMM*%
%LPD*%
G01*
G04 APERTURE LIST*
G04 Aperture macros list*
%AMRoundRect*
0 Rectangle with rounded corners*
0 $1 Rounding radius*
0 $2 $3 $4 $5 $6 $7 $8 $9 X,Y pos of 4 corners*
0 Add a 4 corners polygon primitive as box body*
4,1,4,$2,$3,$4,$5,$6,$7,$8,$9,$2,$3,0*
0 Add four circle primitives for the rounded corners*
1,1,$1+$1,$2,$3*
1,1,$1+$1,$4,$5*
1,1,$1+$1,$6,$7*
1,1,$1+$1,$8,$9*
0 Add four rect primitives between the rounded corners*
20,1,$1+$1,$2,$3,$4,$5,0*
20,1,$1+$1,$4,$5,$6,$7,0*
20,1,$1+$1,$6,$7,$8,$9,0*
20,1,$1+$1,$8,$9,$2,$3,0*%
G04 Aperture macros list end*
%ADD10RoundRect,0.140000X-0.170000X0.140000X-0.170000X-0.140000X0.170000X-0.140000X0.170000X0.140000X0*%
%ADD11RoundRect,0.170000X-0.170000X-0.210000X0.170000X-0.210000X0.170000X0.210000X-0.170000X0.210000X0*%
%ADD12RoundRect,0.100000X-0.625000X-0.100000X0.625000X-0.100000X0.625000X0.100000X-0.625000X0.100000X0*%
%ADD13RoundRect,0.150000X-0.825000X-0.150000X0.825000X-0.150000X0.825000X0.150000X-0.825000X0.150000X0*%
%ADD14RoundRect,0.150000X0.825000X0.150000X-0.825000X0.150000X-0.825000X-0.150000X0.825000X-0.150000X0*%
%ADD15RoundRect,0.140000X-0.140000X-0.170000X0.140000X-0.170000X0.140000X0.170000X-0.140000X0.170000X0*%
%ADD16RoundRect,0.170000X0.170000X0.210000X-0.170000X0.210000X-0.170000X-0.210000X0.170000X-0.210000X0*%
%ADD17RoundRect,0.100000X0.625000X0.100000X-0.625000X0.100000X-0.625000X-0.100000X0.625000X-0.100000X0*%
%ADD18RoundRect,0.140000X0.170000X-0.140000X0.170000X0.140000X-0.170000X0.140000X-0.170000X-0.140000X0*%
%ADD19RoundRect,0.250000X-0.650000X0.325000X-0.650000X-0.325000X0.650000X-0.325000X0.650000X0.325000X0*%
%ADD20RoundRect,0.135000X-0.185000X0.135000X-0.185000X-0.135000X0.185000X-0.135000X0.185000X0.135000X0*%
%ADD21RoundRect,0.167500X0.167500X0.312500X-0.167500X0.312500X-0.167500X-0.312500X0.167500X-0.312500X0*%
%ADD22RoundRect,0.062500X0.362500X0.062500X-0.362500X0.062500X-0.362500X-0.062500X0.362500X-0.062500X0*%
%ADD23RoundRect,0.135000X0.185000X-0.135000X0.185000X0.135000X-0.185000X0.135000X-0.185000X-0.135000X0*%
%ADD24R,1.600000X1.300000*%
%ADD25R,1.600000X2.000000*%
%ADD26RoundRect,0.177891X-0.389009X-0.231259X0.389009X-0.231259X0.389009X0.231259X-0.389009X0.231259X0*%
%ADD27RoundRect,0.179087X-0.395913X-0.232813X0.395913X-0.232813X0.395913X0.232813X-0.395913X0.232813X0*%
%ADD28RoundRect,0.184608X-0.390392X-0.239992X0.390392X-0.239992X0.390392X0.239992X-0.390392X0.239992X0*%
%ADD29RoundRect,0.183413X-0.391587X-0.238437X0.391587X-0.238437X0.391587X0.238437X-0.391587X0.238437X0*%
%ADD30RoundRect,0.218750X0.256250X-0.218750X0.256250X0.218750X-0.256250X0.218750X-0.256250X-0.218750X0*%
%ADD31RoundRect,0.200000X0.275000X-0.200000X0.275000X0.200000X-0.275000X0.200000X-0.275000X-0.200000X0*%
%ADD32RoundRect,0.218750X-0.256250X0.218750X-0.256250X-0.218750X0.256250X-0.218750X0.256250X0.218750X0*%
%ADD33RoundRect,0.140000X0.140000X0.170000X-0.140000X0.170000X-0.140000X-0.170000X0.140000X-0.170000X0*%
%ADD34RoundRect,0.250000X0.650000X-0.325000X0.650000X0.325000X-0.650000X0.325000X-0.650000X-0.325000X0*%
%ADD35R,0.650000X0.750000*%
%ADD36R,0.250000X0.500000*%
G04 APERTURE END LIST*
D10*
X149148799Y-104340600D03*
X149148799Y-105300600D03*
D11*
X136476999Y-103751000D03*
X136476999Y-102811000D03*
X137316999Y-102811000D03*
X137316999Y-103751000D03*
D12*
X134746999Y-102306000D03*
X134746999Y-102956000D03*
X134746999Y-103606000D03*
X134746999Y-104256000D03*
X139046999Y-104256000D03*
X139046999Y-103606000D03*
X139046999Y-102956000D03*
X139046999Y-102306000D03*
D13*
X142457400Y-89535000D03*
X142457400Y-90805000D03*
X142457400Y-92075000D03*
X142457400Y-93345000D03*
X147407400Y-93345000D03*
X147407400Y-92075000D03*
X147407400Y-90805000D03*
X147407400Y-89535000D03*
D14*
X126725000Y-97187400D03*
X126725000Y-95917400D03*
X126725000Y-94647400D03*
X126725000Y-93377400D03*
X121775000Y-93377400D03*
X121775000Y-94647400D03*
X121775000Y-95917400D03*
X121775000Y-97187400D03*
D15*
X129748400Y-94437200D03*
X130708400Y-94437200D03*
D10*
X149148799Y-95326200D03*
X149148799Y-96286200D03*
D14*
X117962000Y-99092400D03*
X117962000Y-97822400D03*
X117962000Y-96552400D03*
X117962000Y-95282400D03*
X113012000Y-95282400D03*
X113012000Y-96552400D03*
X113012000Y-97822400D03*
X113012000Y-99092400D03*
D16*
X123703000Y-99511400D03*
X124543000Y-100451400D03*
X124543000Y-99511400D03*
X123703000Y-100451400D03*
D17*
X126273000Y-100956400D03*
X126273000Y-100306400D03*
X126273000Y-99656400D03*
X126273000Y-99006400D03*
X121973000Y-99006400D03*
X121973000Y-99656400D03*
X121973000Y-100306400D03*
X121973000Y-100956400D03*
D15*
X123770000Y-107982400D03*
X124730000Y-107982400D03*
D18*
X111300000Y-104430000D03*
X111300000Y-103470000D03*
D19*
X131242201Y-114882585D03*
X131242201Y-117832585D03*
D10*
X149200000Y-89820000D03*
X149200000Y-90780000D03*
D18*
X119805000Y-95310400D03*
X119805000Y-94350400D03*
D20*
X136657400Y-118237198D03*
X136657400Y-119257198D03*
D21*
X127505801Y-113778986D03*
X127505801Y-114968986D03*
X128325801Y-113778986D03*
X128325801Y-114968986D03*
D22*
X129365801Y-115373986D03*
X129365801Y-114873986D03*
X129365801Y-114373986D03*
X129365801Y-113873986D03*
X129365801Y-113373986D03*
X126465801Y-113373986D03*
X126465801Y-113873986D03*
X126465801Y-114373986D03*
X126465801Y-114873986D03*
X126465801Y-115373986D03*
D18*
X127044000Y-108970400D03*
X127044000Y-108010400D03*
D23*
X127044000Y-91980400D03*
X127044000Y-90960400D03*
D10*
X111250000Y-96070000D03*
X111250000Y-97030000D03*
D18*
X119932000Y-97385400D03*
X119932000Y-96425400D03*
D24*
X137730000Y-108990000D03*
D25*
X134830000Y-107740000D03*
D24*
X137730000Y-106490000D03*
D20*
X118600000Y-111490000D03*
X118600000Y-112510000D03*
D13*
X142457399Y-104033200D03*
X142457399Y-105303200D03*
X142457399Y-106573200D03*
X142457399Y-107843200D03*
X147407399Y-107843200D03*
X147407399Y-106573200D03*
X147407399Y-105303200D03*
X147407399Y-104033200D03*
D10*
X119805000Y-100898400D03*
X119805000Y-101858400D03*
D18*
X118281000Y-107041399D03*
X118281000Y-106081399D03*
D23*
X118378828Y-93885400D03*
X118378828Y-92865400D03*
D10*
X117362828Y-92893401D03*
X117362828Y-93853401D03*
D20*
X117000000Y-111490000D03*
X117000000Y-112510000D03*
X149200000Y-106590000D03*
X149200000Y-107610000D03*
D24*
X132675000Y-108990000D03*
D25*
X129775000Y-107740000D03*
D24*
X132675000Y-106490000D03*
D10*
X128524000Y-93375600D03*
X128524000Y-94335600D03*
D26*
X124962501Y-116802635D03*
D27*
X124952601Y-117776085D03*
D28*
X127902601Y-117763385D03*
D29*
X127900801Y-116815335D03*
D13*
X142457399Y-95067000D03*
X142457399Y-96337000D03*
X142457399Y-97607000D03*
X142457399Y-98877000D03*
X147407399Y-98877000D03*
X147407399Y-97607000D03*
X147407399Y-96337000D03*
X147407399Y-95067000D03*
D11*
X137325999Y-96583600D03*
X136485999Y-95643600D03*
X137325999Y-95643600D03*
X136485999Y-96583600D03*
D12*
X134755999Y-95138600D03*
X134755999Y-95788600D03*
X134755999Y-96438600D03*
X134755999Y-97088600D03*
X139055999Y-97088600D03*
X139055999Y-96438600D03*
X139055999Y-95788600D03*
X139055999Y-95138600D03*
D30*
X117000000Y-110287500D03*
X117000000Y-108712500D03*
D31*
X139450000Y-91525000D03*
X139450000Y-89875000D03*
D10*
X137978200Y-114489001D03*
X137978200Y-115449001D03*
D11*
X136476999Y-99229600D03*
X137316999Y-100169600D03*
X137316999Y-99229600D03*
X136476999Y-100169600D03*
D12*
X134746999Y-98724600D03*
X134746999Y-99374600D03*
X134746999Y-100024600D03*
X134746999Y-100674600D03*
X139046999Y-100674600D03*
X139046999Y-100024600D03*
X139046999Y-99374600D03*
X139046999Y-98724600D03*
D11*
X144512399Y-100997800D03*
X145352399Y-101937800D03*
X144512399Y-101937800D03*
X145352399Y-100997800D03*
D12*
X142782399Y-100492800D03*
X142782399Y-101142800D03*
X142782399Y-101792800D03*
X142782399Y-102442800D03*
X147082399Y-102442800D03*
X147082399Y-101792800D03*
X147082399Y-101142800D03*
X147082399Y-100492800D03*
D32*
X118600000Y-108712499D03*
X118600000Y-110287499D03*
D10*
X140741399Y-98877000D03*
X140741399Y-99837000D03*
D19*
X139641800Y-111971399D03*
X139641800Y-114921399D03*
D33*
X130703200Y-95453200D03*
X129743200Y-95453200D03*
D18*
X140213400Y-119483800D03*
X140213400Y-118523800D03*
D10*
X126028000Y-91018399D03*
X126028000Y-91978399D03*
D34*
X135000000Y-116946400D03*
X135000000Y-113996400D03*
D20*
X149200000Y-92090000D03*
X149200000Y-93110000D03*
X117265000Y-106077400D03*
X117265000Y-107097400D03*
D33*
X140738799Y-107843200D03*
X139778799Y-107843200D03*
D14*
X126725000Y-106585400D03*
X126725000Y-105315400D03*
X126725000Y-104045400D03*
X126725000Y-102775400D03*
X121775000Y-102775400D03*
X121775000Y-104045400D03*
X121775000Y-105315400D03*
X121775000Y-106585400D03*
D20*
X121176801Y-114448385D03*
X121176801Y-115468385D03*
D24*
X137600000Y-92900000D03*
D25*
X134700000Y-91650000D03*
D24*
X137600000Y-90400000D03*
D14*
X117962000Y-104680400D03*
X117962000Y-103410400D03*
X117962000Y-102140400D03*
X117962000Y-100870400D03*
X113012000Y-100870400D03*
X113012000Y-102140400D03*
X113012000Y-103410400D03*
X113012000Y-104680400D03*
D23*
X135641400Y-119263601D03*
X135641400Y-118243601D03*
D10*
X136664600Y-116366199D03*
X136664600Y-117326199D03*
D15*
X115007000Y-106077400D03*
X115967000Y-106077400D03*
D18*
X140665200Y-93342400D03*
X140665200Y-92382400D03*
D20*
X126028001Y-107980400D03*
X126028001Y-109000400D03*
D35*
X138054400Y-117729199D03*
X138854400Y-117729199D03*
D36*
X139204400Y-116779199D03*
X138704400Y-116779199D03*
X138204400Y-116779199D03*
X137704400Y-116779199D03*
X137704400Y-118679199D03*
X138204400Y-118679199D03*
X138704400Y-118679199D03*
X139204400Y-118679199D03*
D18*
X140700000Y-91124999D03*
X140700000Y-90164999D03*
D15*
X123770000Y-91980400D03*
X124730000Y-91980400D03*
D20*
X149350000Y-97990000D03*
X149350000Y-99010000D03*
D10*
X128524000Y-102796400D03*
X128524000Y-103756400D03*
D19*
X122886801Y-113908385D03*
X122886801Y-116858385D03*
D15*
X115007000Y-93885400D03*
X115967000Y-93885400D03*
D18*
X119932000Y-106331400D03*
X119932000Y-105371400D03*
M02*
