M48
; DRILL file {KiCad (6.0.5)} date Mon Mar 10 11:46:17 2025
; FORMAT={-:-/ absolute / metric / decimal}
; #@! TF.CreationDate,2025-03-10T11:46:17+01:00
; #@! TF.GenerationSoftware,Kicad,Pcbnew,(6.0.5)
; #@! TF.FileFunction,Plated,1,4,PTH
FMAT,2
METRIC
; #@! TA.AperFunction,Plated,PTH,ViaDrill
T1C0.300
; #@! TA.AperFunction,Plated,PTH,ComponentDrill
T2C1.500
; #@! TA.AperFunction,Plated,PTH,ComponentDrill
T3C1.700
; #@! TA.AperFunction,Plated,PTH,ComponentDrill
T4C3.200
%
G90
G05
T1
X108.9Y-112.1
X108.9Y-114.3
X108.9Y-116.3
X108.9Y-118.5
X109.0Y-81.9
X109.0Y-84.1
X109.0Y-86.4
X109.0Y-88.2
X110.2Y-119.8
X110.8Y-80.1
X111.5Y-92.5
X111.5Y-102.4
X111.508Y-97.753
X111.6Y-99.9
X111.9Y-94.45
X112.1Y-105.6
X112.7Y-120.2
X112.9Y-80.1
X113.75Y-103.4
X113.85Y-97.85
X114.35Y-96.6
X114.65Y-102.15
X114.9Y-99.3
X115.4Y-80.1
X115.4Y-107.5
X115.6Y-120.2
X115.85Y-103.35
X115.9Y-102.4
X116.7Y-90.7
X117.0Y-113.2
X117.297Y-96.622
X117.45Y-115.6
X117.769Y-106.081
X117.9Y-93.885
X117.9Y-102.14
X117.962Y-95.282
X117.962Y-100.87
X118.4Y-115.6
X118.535Y-103.41
X118.6Y-113.2
X118.618Y-97.822
X119.0Y-90.7
X119.2Y-118.0
X119.35Y-115.6
X119.7Y-98.85
X119.7Y-107.9
X119.75Y-92.8
X120.203Y-113.14
X120.9Y-90.7
X121.4Y-120.5
X121.7Y-98.1
X121.7Y-105.35
X121.775Y-94.647
X121.775Y-95.917
X121.775Y-104.045
X122.174Y-107.645
X122.65Y-92.15
X123.2Y-90.7
X123.2Y-110.7
X123.2Y-112.0
X123.952Y-94.437
X124.1Y-100.8
X124.45Y-105.0
X124.663Y-96.622
X125.1Y-110.7
X125.691Y-113.311
X125.984Y-104.038
X126.392Y-116.99
X126.392Y-117.767
X126.508Y-108.01
X126.534Y-91.978
X126.725Y-94.647
X126.725Y-102.775
X127.2Y-110.7
X127.298Y-93.377
X127.3Y-120.4
X127.61Y-113.663
X127.61Y-114.425
X127.61Y-115.187
X128.003Y-115.934
X128.2Y-107.7
X128.372Y-113.663
X128.372Y-115.187
X128.372Y-114.425
X128.822Y-105.087
X128.847Y-97.416
X128.847Y-99.956
X129.45Y-102.4
X129.7Y-90.7
X129.743Y-94.945
X129.775Y-107.74
X129.9Y-93.0
X130.1Y-110.7
X130.75Y-97.5
X130.75Y-100.5
X130.771Y-114.835
X130.775Y-101.465
X130.9Y-98.755
X131.2Y-118.0
X131.228Y-116.511
X131.3Y-113.2
X131.698Y-98.704
X131.698Y-102.306
X131.707Y-97.099
X131.787Y-114.835
X132.273Y-100.031
X132.273Y-102.946
X132.282Y-96.439
X132.436Y-93.929
X132.71Y-107.74
X132.8Y-106.4
X132.833Y-100.675
X132.847Y-103.606
X132.856Y-95.789
X133.4Y-119.2
X133.401Y-95.214
X133.432Y-99.364
X133.443Y-104.256
X133.488Y-116.715
X133.488Y-118.159
X134.2Y-119.2
X134.5Y-106.0
X134.84Y-91.66
X135.0Y-114.0
X135.025Y-115.372
X136.778Y-114.406
X136.9Y-96.1
X136.9Y-97.9
X136.9Y-99.7
X136.9Y-101.5
X136.9Y-103.3
X137.488Y-117.759
X137.7Y-90.4
X137.7Y-92.9
X137.74Y-107.75
X137.8Y-106.4
X138.088Y-117.759
X138.162Y-119.392
X138.688Y-117.759
X138.8Y-105.2
X139.267Y-114.737
X139.288Y-117.759
X139.65Y-93.55
X140.042Y-115.046
X140.196Y-116.779
X140.4Y-101.0
X140.9Y-103.1
X142.342Y-104.038
X142.4Y-120.2
X142.418Y-95.047
X142.443Y-93.37
X142.457Y-98.877
X142.457Y-89.535
X142.8Y-109.7
X143.1Y-80.0
X144.5Y-120.2
X144.948Y-101.483
X145.085Y-95.352
X145.1Y-99.0
X145.136Y-104.851
X145.2Y-105.9
X145.288Y-93.066
X145.4Y-90.1
X145.5Y-80.0
X146.4Y-120.2
X147.0Y-95.047
X147.1Y-96.3
X147.371Y-90.78
X147.4Y-80.1
X147.407Y-105.303
X147.407Y-89.535
X147.422Y-104.038
X147.9Y-109.0
X148.2Y-119.3
X149.1Y-81.9
X149.2Y-102.616
X149.2Y-93.6
X149.2Y-94.5
X149.2Y-101.1
X149.2Y-108.4
X149.3Y-99.8
X149.4Y-83.6
X149.4Y-85.4
X149.4Y-87.4
X149.4Y-110.2
X149.4Y-111.9
X149.4Y-118.0
X149.5Y-114.1
X149.5Y-116.1
T2
X120.5Y-84.2
X129.1Y-84.2
X137.7Y-84.2
T3
X117.96Y-81.66
X117.96Y-86.74
X123.04Y-81.66
X123.04Y-86.74
X126.56Y-81.66
X126.56Y-86.74
X131.64Y-81.66
X131.64Y-86.74
X135.16Y-81.66
X135.16Y-86.74
X140.24Y-81.66
X140.24Y-86.74
T4
X112.8Y-84.0
X112.8Y-116.0
X145.4Y-84.0
X145.4Y-116.0
T0
M30
